<svg id="Layer_1" data-name="Layer 1" xmlns="http://www.w3.org/2000/svg" viewBox="0 0 100 100"><defs><style>.cls-1{fill:#fff;}.cls-2{fill:#231f20;}.cls-3{fill:#0fef6a;}</style></defs><path class="cls-1" d="M68.08,38.07v-.4a3.66,3.66,0,1,0-7.31,0v.4c-.38,0-.7.44-.7,1s.32,1,.7,1h0a3.65,3.65,0,0,0,7.24,0h0c.39,0,.71-.44.71-1S68.47,38.07,68.08,38.07Z"/><path class="cls-2" d="M64.43,43.46a3.91,3.91,0,0,1-3.83-3.18,1.36,1.36,0,0,1-.07-2.41v-.2a3.9,3.9,0,1,1,7.8,0v.2a1.21,1.21,0,0,1,.7,1.19,1.19,1.19,0,0,1-.77,1.22A3.91,3.91,0,0,1,64.43,43.46Zm-3.62-3.65a.25.25,0,0,1,.24.21,3.41,3.41,0,0,0,6.76,0,.24.24,0,0,1,.26-.21h0c.24,0,.45-.35.45-.75s-.21-.75-.46-.75a.24.24,0,0,1-.24-.24v-.4a3.41,3.41,0,1,0-6.82,0v.4a.25.25,0,0,1-.25.24c-.24,0-.45.35-.45.75s.21.75.45.75h0Z"/><path class="cls-3" d="M72.38,47.44a2.73,2.73,0,0,0-2.07-2.17l-4.24-1V42.84a3.64,3.64,0,0,1-3.28,0v1.42l-4.24,1a2.73,2.73,0,0,0-2.07,2.17l-.6,3.43H73Z"/><path class="cls-2" d="M73,51.11H55.88a.27.27,0,0,1-.19-.08.29.29,0,0,1,0-.2l.6-3.43v0A3,3,0,0,1,58.5,45l4-1V42.84a.24.24,0,0,1,.35-.21,3.43,3.43,0,0,0,3.06,0,.21.21,0,0,1,.23,0,.22.22,0,0,1,.12.2v1.23l4,1a3,3,0,0,1,2.25,2.35v0l.6,3.43a.29.29,0,0,1,0,.2A.27.27,0,0,1,73,51.11Zm-16.81-.48H72.69l-.55-3.14a2.5,2.5,0,0,0-1.86-2h0l-4.25-1a.24.24,0,0,1-.19-.23v-1a4,4,0,0,1-2.78,0v1a.24.24,0,0,1-.19.23l-4.25,1h0a2.49,2.49,0,0,0-1.86,2Z"/><polygon class="cls-3" points="62.72 44.2 61.12 44.58 62.97 46.83 64.33 45.18 62.72 44.2"/><path class="cls-2" d="M63,47.08a.28.28,0,0,1-.19-.09l-1.85-2.26a.24.24,0,0,1,0-.23.25.25,0,0,1,.17-.16L62.67,44a.23.23,0,0,1,.18,0l1.6,1a.25.25,0,0,1,.11.17.19.19,0,0,1,0,.19L63.16,47a.28.28,0,0,1-.19.09Zm-1.42-2.35L63,46.45l1-1.21-1.28-.78Z"/><polygon class="cls-3" points="66.15 44.21 67.74 44.59 65.9 46.83 64.33 45.18 66.15 44.21"/><path class="cls-2" d="M65.9,47.08a.25.25,0,0,1-.18-.08l-1.57-1.65a.27.27,0,0,1-.07-.21.25.25,0,0,1,.13-.17L66,44a.26.26,0,0,1,.17,0l1.6.39a.22.22,0,0,1,.17.15.26.26,0,0,1,0,.24L66.09,47a.31.31,0,0,1-.18.09Zm-1.18-1.84,1.16,1.23,1.42-1.73-1.12-.27Z"/><polygon class="cls-1" points="64.91 33.6 64.74 31.57 64.43 31.57 64.12 31.57 63.95 33.6 64.91 33.6"/><path class="cls-2" d="M65.18,33.85h-1.5l.21-2.52H65Zm-1-.49h.44l-.13-1.55h-.18Z"/><path class="cls-3" d="M68.61,36.94a4.68,4.68,0,0,0-1.67-3.62,3.89,3.89,0,0,0-.89-.55l-.1-.59a3.41,3.41,0,0,0-1.18-.33l.14,1.75H64l.14-1.76a3.12,3.12,0,0,0-1.18.34l-.11.59a4.46,4.46,0,0,0-2.28,2.57,4.8,4.8,0,0,0-.27,1.6h8.36"/><path class="cls-2" d="M68.85,37.18H60v-.24a5,5,0,0,1,.28-1.68,4.67,4.67,0,0,1,2.29-2.65l.11-.58.09-.06a3.38,3.38,0,0,1,1.29-.37l.29,0-.15,1.79h.44l-.15-1.79.29,0a4.17,4.17,0,0,1,1.27.36l.11,0,.1.6a4.37,4.37,0,0,1,.82.52,4.94,4.94,0,0,1,1.76,3.81Zm-8.35-.49h7.86a4.46,4.46,0,0,0-1.57-3.18A4.05,4.05,0,0,0,66,33l-.12-.05-.1-.59a3.55,3.55,0,0,0-.7-.22l.14,1.72H63.68l.15-1.73a2.85,2.85,0,0,0-.71.22l-.1.6L62.9,33a4.18,4.18,0,0,0-2.15,2.43A4.54,4.54,0,0,0,60.5,36.69Z"/><rect class="cls-2" x="65.87" y="32.17" width="0.49" height="2.09" transform="translate(-4.31 10.52) rotate(-8.81)"/><rect class="cls-2" x="61.67" y="32.97" width="2.1" height="0.49" transform="translate(19 89.11) rotate(-79.87)"/><path class="cls-2" d="M63.84,36.35H61v-.23a3.22,3.22,0,0,1,.42-1.45l.42.25a2.92,2.92,0,0,0-.34.94h2.35Z"/><path class="cls-1" d="M68.65,36.94H60.21s-.38,0-.38.59H69C69,37,68.65,36.94,68.65,36.94Z"/><path class="cls-2" d="M69.27,37.78H59.59v-.24c0-.65.4-.84.61-.85h8.46c.22,0,.61.2.61.85Zm-9.16-.49h8.64a.17.17,0,0,0-.11-.11H60.22A.17.17,0,0,0,60.11,37.29Z"/><path class="cls-1" d="M37.87,37.47v-.4a3.66,3.66,0,1,0-7.31,0v.4c-.39,0-.7.44-.7,1s.31,1,.7,1h0a3.65,3.65,0,0,0,7.24,0h0c.38,0,.7-.45.7-1S38.25,37.47,37.87,37.47Z"/><path class="cls-2" d="M34.21,42.86a3.91,3.91,0,0,1-3.83-3.18,1.19,1.19,0,0,1-.77-1.22,1.21,1.21,0,0,1,.7-1.19v-.2a3.9,3.9,0,0,1,7.8,0v.2A1.36,1.36,0,0,1,38,39.68,3.91,3.91,0,0,1,34.21,42.86Zm-3.62-3.65a.24.24,0,0,1,.24.21,3.41,3.41,0,0,0,6.76,0,.24.24,0,0,1,.26-.21h0c.24,0,.45-.35.45-.75s-.21-.75-.45-.75a.25.25,0,0,1-.25-.24v-.4a3.41,3.41,0,1,0-6.82,0v.4a.24.24,0,0,1-.24.24c-.25,0-.46.35-.46.75s.21.75.46.75h0Z"/><path class="cls-3" d="M42.16,46.84a2.73,2.73,0,0,0-2.07-2.17l-4.24-1V42.24a3.64,3.64,0,0,1-3.28,0v1.42l-4.24,1a2.73,2.73,0,0,0-2.07,2.17l-.6,3.43h17.1Z"/><path class="cls-2" d="M42.76,50.51H25.66a.23.23,0,0,1-.18-.08.25.25,0,0,1-.06-.2L26,46.8v0a3,3,0,0,1,2.25-2.35l4-1V42.24a.24.24,0,0,1,.12-.2.21.21,0,0,1,.23,0,3.43,3.43,0,0,0,3.06,0,.24.24,0,0,1,.35.21v1.23l4,1a3,3,0,0,1,2.25,2.35v0l.6,3.43a.29.29,0,0,1,0,.2A.27.27,0,0,1,42.76,50.51ZM26,50H42.47l-.55-3.14a2.49,2.49,0,0,0-1.86-2h0l-4.25-1a.23.23,0,0,1-.18-.23v-1a3.94,3.94,0,0,1-1.4.25,3.85,3.85,0,0,1-1.39-.25v1a.24.24,0,0,1-.19.23l-4.24,1h0a2.5,2.5,0,0,0-1.86,2Z"/><polygon class="cls-3" points="32.5 43.6 30.9 43.98 32.75 46.23 34.11 44.58 32.5 43.6"/><path class="cls-2" d="M32.75,46.48a.24.24,0,0,1-.18-.09l-1.86-2.26a.24.24,0,0,1,0-.23.24.24,0,0,1,.18-.16l1.6-.38a.28.28,0,0,1,.18,0l1.6,1a.3.3,0,0,1,.12.17.25.25,0,0,1-.06.2l-1.35,1.65a.26.26,0,0,1-.19.09Zm-1.41-2.35,1.41,1.72,1-1.21-1.28-.78Z"/><polygon class="cls-3" points="35.93 43.61 37.52 43.99 35.68 46.23 34.11 44.58 35.93 43.61"/><path class="cls-2" d="M35.68,46.48a.25.25,0,0,1-.18-.08l-1.57-1.65a.23.23,0,0,1-.06-.21.24.24,0,0,1,.12-.17l1.82-1a.27.27,0,0,1,.17,0l1.6.39a.22.22,0,0,1,.17.15.26.26,0,0,1,0,.24l-1.84,2.24a.31.31,0,0,1-.18.09ZM34.5,44.65l1.17,1.22,1.42-1.73L36,43.87Z"/><polygon class="cls-1" points="34.69 33 34.52 30.97 34.21 30.97 33.9 30.97 33.73 33 34.69 33"/><path class="cls-2" d="M35,33.25H33.47l.2-2.52h1.08Zm-1-.49h.44l-.13-1.55h-.18Z"/><path class="cls-3" d="M38.39,36.34a4.68,4.68,0,0,0-1.67-3.62,3.89,3.89,0,0,0-.89-.55l-.09-.59a3.51,3.51,0,0,0-1.19-.33L34.69,33h-1l.15-1.76a3.14,3.14,0,0,0-1.19.34l-.11.59a4.46,4.46,0,0,0-2.28,2.57,4.84,4.84,0,0,0-.27,1.6h8.36"/><path class="cls-2" d="M38.63,36.58H29.79v-.24a5,5,0,0,1,.28-1.68A4.67,4.67,0,0,1,32.36,32l.11-.58.09-.06A3.38,3.38,0,0,1,33.85,31l.29,0L34,32.76h.44L34.28,31l.29,0a4.17,4.17,0,0,1,1.27.36l.12.05.09.6a4.45,4.45,0,0,1,.83.52,4.94,4.94,0,0,1,1.75,3.81Zm-8.35-.49h7.86a4.43,4.43,0,0,0-1.57-3.18,4.05,4.05,0,0,0-.84-.52l-.12,0-.09-.59a3.77,3.77,0,0,0-.7-.22L35,33.25H33.47l.14-1.73a2.61,2.61,0,0,0-.7.22l-.11.6-.12,0a4.18,4.18,0,0,0-2.15,2.43A4.54,4.54,0,0,0,30.28,36.09Z"/><rect class="cls-2" x="35.65" y="31.57" width="0.49" height="2.09" transform="translate(-4.57 5.88) rotate(-8.81)"/><rect class="cls-2" x="31.45" y="32.37" width="2.1" height="0.49" transform="translate(-5.32 58.87) rotate(-79.87)"/><path class="cls-2" d="M33.63,35.75H30.78v-.23a3.11,3.11,0,0,1,.42-1.44l.43.24a2.9,2.9,0,0,0-.35.94h2.36Z"/><path class="cls-1" d="M38.44,36.34H30s-.38,0-.38.6h9.2C38.81,36.35,38.44,36.34,38.44,36.34Z"/><path class="cls-2" d="M39.05,37.18H29.37v-.24c0-.65.4-.84.61-.85h8.47c.21,0,.61.2.6.85Zm-9.15-.49h8.63a.17.17,0,0,0-.11-.11H30A.15.15,0,0,0,29.9,36.69Z"/><path class="cls-1" d="M36.18,56.28v-.4a3.66,3.66,0,1,0-7.31,0v.4c-.38,0-.7.44-.7,1s.32,1,.7,1h0a3.65,3.65,0,0,0,7.24,0h0c.39,0,.7-.44.7-1S36.57,56.28,36.18,56.28Z"/><path class="cls-2" d="M32.53,61.66a3.9,3.9,0,0,1-3.83-3.18,1.16,1.16,0,0,1-.77-1.21,1.22,1.22,0,0,1,.7-1.2v-.19a3.9,3.9,0,1,1,7.79,0v.19a1.22,1.22,0,0,1,.71,1.2,1.18,1.18,0,0,1-.77,1.21A3.91,3.91,0,0,1,32.53,61.66ZM28.91,58a.25.25,0,0,1,.24.21,3.41,3.41,0,0,0,6.76,0,.24.24,0,0,1,.26-.21h0c.24,0,.45-.35.45-.75s-.21-.75-.46-.75a.24.24,0,0,1-.24-.24v-.4a3.41,3.41,0,1,0-6.82,0v.4a.25.25,0,0,1-.25.24c-.24,0-.45.35-.45.75s.21.75.45.75h0Z"/><path class="cls-3" d="M40.47,65.65a2.71,2.71,0,0,0-2.06-2.17l-4.25-1V61.05a3.56,3.56,0,0,1-1.63.39,3.61,3.61,0,0,1-1.64-.39v1.41l-4.25,1a2.72,2.72,0,0,0-2.06,2.17L24,69.08h17.1Z"/><path class="cls-2" d="M41.08,69.32H24a.25.25,0,0,1-.19-.09.25.25,0,0,1-.05-.19l.6-3.43v0a3,3,0,0,1,2.26-2.35l4-1V61.05a.26.26,0,0,1,.11-.21.29.29,0,0,1,.24,0,3.43,3.43,0,0,0,3.06,0,.24.24,0,0,1,.23,0,.27.27,0,0,1,.12.21v1.22l4.05,1a3,3,0,0,1,2.25,2.35v0L41.32,69a.22.22,0,0,1-.06.19A.21.21,0,0,1,41.08,69.32Zm-16.81-.49H40.79l-.55-3.13a2.48,2.48,0,0,0-1.86-2h0l-4.24-1a.24.24,0,0,1-.19-.24v-1a3.85,3.85,0,0,1-1.39.26,3.91,3.91,0,0,1-1.4-.26v1a.23.23,0,0,1-.18.24l-4.25,1h0a2.47,2.47,0,0,0-1.86,2Z"/><polygon class="cls-3" points="30.82 62.4 29.22 62.79 31.07 65.04 32.42 63.39 30.82 62.4"/><path class="cls-2" d="M31.07,65.28a.25.25,0,0,1-.19-.09L29,62.94a.24.24,0,0,1,0-.23.23.23,0,0,1,.17-.16l1.6-.38a.21.21,0,0,1,.19,0l1.6,1a.25.25,0,0,1,.11.17.25.25,0,0,1,0,.19l-1.35,1.65a.25.25,0,0,1-.19.09Zm-1.42-2.35,1.42,1.73,1-1.21-1.28-.79Z"/><polygon class="cls-3" points="34.24 62.42 35.84 62.8 34 65.04 32.42 63.39 34.24 62.42"/><path class="cls-2" d="M34,65.28a.24.24,0,0,1-.18-.07l-1.57-1.65a.25.25,0,0,1-.07-.21.24.24,0,0,1,.13-.18l1.82-1a.32.32,0,0,1,.17,0l1.59.38a.24.24,0,0,1,.18.16A.26.26,0,0,1,36,63l-1.85,2.24a.21.21,0,0,1-.18.09Zm-1.18-1.83L34,64.67,35.4,63l-1.12-.27Z"/><polygon class="cls-1" points="33.01 51.81 32.84 49.78 32.53 49.78 32.21 49.78 32.05 51.81 33.01 51.81"/><path class="cls-2" d="M33.27,52.05H31.78L32,49.53h1.07Zm-1-.48h.43L32.62,50h-.18Z"/><path class="cls-3" d="M36.71,55.14A4.68,4.68,0,0,0,35,51.53a4.18,4.18,0,0,0-.9-.55l-.09-.59a3.66,3.66,0,0,0-1.19-.34L33,51.81h-1l.14-1.76a2.94,2.94,0,0,0-1.19.34l-.1.59a4.4,4.4,0,0,0-2.28,2.57,4.79,4.79,0,0,0-.27,1.59h8.36"/><path class="cls-2" d="M37,55.39H28.11v-.25a4.92,4.92,0,0,1,.28-1.67,4.68,4.68,0,0,1,2.29-2.66l.1-.58.1,0a3,3,0,0,1,1.29-.37l.29,0-.15,1.79h.43l-.14-1.79.29,0a4,4,0,0,1,1.26.36l.12,0,.09.59a4.19,4.19,0,0,1,.83.53A4.94,4.94,0,0,1,37,55.14ZM28.6,54.9h7.86a4.42,4.42,0,0,0-1.58-3.18A3.59,3.59,0,0,0,34,51.2l-.12-.05-.09-.6a4.33,4.33,0,0,0-.7-.21l.14,1.71H31.78l.14-1.72a2.89,2.89,0,0,0-.7.22l-.11.6L31,51.2a4.36,4.36,0,0,0-2.4,3.7Z"/><rect class="cls-2" x="33.97" y="50.37" width="0.49" height="2.09" transform="translate(-7.47 5.85) rotate(-8.81)"/><rect class="cls-2" x="29.77" y="51.17" width="2.1" height="0.49" transform="translate(-25.22 72.71) rotate(-79.87)"/><path class="cls-2" d="M31.94,54.56H29.1v-.23a3.12,3.12,0,0,1,.42-1.45l.42.24a3.35,3.35,0,0,0-.35,1h2.36Z"/><path class="cls-1" d="M36.75,55.14H28.31s-.38,0-.38.6h9.19C37.13,55.16,36.75,55.14,36.75,55.14Z"/><path class="cls-2" d="M37.37,56H27.69v-.25c0-.65.4-.83.61-.84h8.46c.21,0,.61.19.61.84Zm-9.16-.49h8.63c0-.07-.06-.11-.1-.11H28.32S28.24,55.43,28.21,55.5Z"/><path class="cls-1" d="M71,56.28v-.4a3.66,3.66,0,1,0-7.31,0v.4c-.39,0-.7.44-.7,1s.31,1,.7,1h0a3.65,3.65,0,0,0,7.24,0h0c.39,0,.7-.44.7-1S71.35,56.28,71,56.28Z"/><path class="cls-2" d="M67.3,61.66a3.91,3.91,0,0,1-3.83-3.18,1.17,1.17,0,0,1-.76-1.21,1.22,1.22,0,0,1,.7-1.2v-.19a3.9,3.9,0,1,1,7.79,0v.19a1.22,1.22,0,0,1,.7,1.2,1.16,1.16,0,0,1-.77,1.21A3.89,3.89,0,0,1,67.3,61.66ZM63.68,58a.25.25,0,0,1,.25.21,3.41,3.41,0,0,0,6.75,0A.25.25,0,0,1,71,58h0c.24,0,.46-.35.46-.75s-.22-.75-.46-.75a.24.24,0,0,1-.24-.24v-.4a3.42,3.42,0,1,0-6.83,0v.4a.24.24,0,0,1-.24.24c-.24,0-.46.35-.46.75s.22.75.46.75h0Z"/><path class="cls-3" d="M75.25,65.65a2.72,2.72,0,0,0-2.06-2.17l-4.25-1V61.05a3.62,3.62,0,0,1-3.27,0v1.41l-4.25,1a2.71,2.71,0,0,0-2.06,2.17l-.6,3.43H75.85Z"/><path class="cls-2" d="M75.85,69.32H58.76a.23.23,0,0,1-.19-.09.19.19,0,0,1,0-.19l.6-3.43v0a3,3,0,0,1,2.26-2.35l4-1V61.05a.27.27,0,0,1,.12-.21.29.29,0,0,1,.24,0,3.41,3.41,0,0,0,3,0,.25.25,0,0,1,.24,0,.27.27,0,0,1,.12.21v1.22l4,1a3,3,0,0,1,2.26,2.35v0l.6,3.43a.19.19,0,0,1,0,.19A.23.23,0,0,1,75.85,69.32ZM59,68.83H75.56L75,65.7a2.47,2.47,0,0,0-1.86-2h0l-4.24-1a.24.24,0,0,1-.19-.24v-1a3.87,3.87,0,0,1-2.79,0v1a.24.24,0,0,1-.19.24l-4.24,1h0a2.48,2.48,0,0,0-1.86,2Z"/><polygon class="cls-3" points="65.6 62.4 63.99 62.79 65.85 65.04 67.2 63.39 65.6 62.4"/><path class="cls-2" d="M65.85,65.28a.22.22,0,0,1-.19-.09l-1.85-2.25a.24.24,0,0,1-.05-.23.26.26,0,0,1,.18-.16l1.6-.38a.19.19,0,0,1,.18,0l1.61,1a.25.25,0,0,1,.11.17.25.25,0,0,1,0,.19L66,65.19a.21.21,0,0,1-.18.09Zm-1.42-2.35,1.42,1.73,1-1.21-1.27-.79Z"/><polygon class="cls-3" points="69.02 62.42 70.61 62.8 68.77 65.04 67.2 63.39 69.02 62.42"/><path class="cls-2" d="M68.77,65.28a.22.22,0,0,1-.17-.07L67,63.56a.27.27,0,0,1-.06-.21.24.24,0,0,1,.13-.18l1.82-1a.32.32,0,0,1,.17,0l1.59.38a.26.26,0,0,1,.18.16.24.24,0,0,1,0,.23L69,65.19a.21.21,0,0,1-.18.09ZM67.6,63.45l1.16,1.22L70.18,63l-1.13-.27Z"/><polygon class="cls-1" points="67.79 51.81 67.62 49.78 67.3 49.78 66.99 49.78 66.82 51.81 67.79 51.81"/><path class="cls-2" d="M68.05,52.05H66.56l.21-2.52h1.07Zm-1-.48h.43L67.39,50h-.18Z"/><path class="cls-3" d="M71.48,55.14a4.65,4.65,0,0,0-1.67-3.61,3.89,3.89,0,0,0-.89-.55l-.09-.59a3.8,3.8,0,0,0-1.19-.34l.15,1.76h-1L67,50.05a2.94,2.94,0,0,0-1.19.34l-.11.59a4.46,4.46,0,0,0-2.28,2.57,4.78,4.78,0,0,0-.26,1.59h8.35"/><path class="cls-2" d="M71.73,55.39H62.88v-.25a5.18,5.18,0,0,1,.28-1.67,4.7,4.7,0,0,1,2.3-2.66l.1-.58.1,0A3,3,0,0,1,67,49.81l.28,0-.14,1.79h.43l-.15-1.79.3,0a4.11,4.11,0,0,1,1.26.36l.12,0,.09.59a4.19,4.19,0,0,1,.83.53,4.94,4.94,0,0,1,1.76,3.8Zm-8.35-.49h7.85a4.37,4.37,0,0,0-1.57-3.18,3.59,3.59,0,0,0-.84-.52l-.12-.05-.09-.6a4.33,4.33,0,0,0-.7-.21l.14,1.71H66.56l.14-1.72a2.74,2.74,0,0,0-.7.22l-.11.6-.11.05a4.16,4.16,0,0,0-2.16,2.43A4.47,4.47,0,0,0,63.38,54.9Z"/><rect class="cls-2" x="68.75" y="50.37" width="0.49" height="2.09" transform="translate(-7.06 11.18) rotate(-8.81)"/><rect class="cls-2" x="64.55" y="51.17" width="2.1" height="0.49" transform="translate(3.45 106.95) rotate(-79.87)"/><path class="cls-2" d="M66.72,54.56H63.88l0-.23a3.22,3.22,0,0,1,.43-1.45l.42.24a3.35,3.35,0,0,0-.35,1h2.36Z"/><path class="cls-1" d="M71.53,55.14H63.08s-.38,0-.37.6H71.9C71.91,55.16,71.53,55.14,71.53,55.14Z"/><path class="cls-2" d="M72.14,56H62.47v-.25c0-.65.4-.83.62-.84h8.46c.21,0,.61.19.6.84ZM63,55.5h8.63c0-.07-.07-.11-.1-.11H63.1S63,55.43,63,55.5Z"/><path class="cls-1" d="M56.46,46.11v-.72a6.59,6.59,0,1,0-13.18,0v.72c-.69,0-1.26.8-1.26,1.79s.57,1.79,1.26,1.79h.07a6.58,6.58,0,0,0,13,0h.06c.7,0,1.27-.8,1.27-1.79S57.16,46.11,56.46,46.11Z"/><path class="cls-2" d="M49.87,55.83A7,7,0,0,1,43,50.09a2.11,2.11,0,0,1-1.39-2.19,2.19,2.19,0,0,1,1.27-2.16v-.35a7,7,0,1,1,14,0v.35a2.19,2.19,0,0,1,1.27,2.16,2.11,2.11,0,0,1-1.39,2.19A7,7,0,0,1,49.87,55.83Zm-6.52-6.58a.44.44,0,0,1,.43.38,6.15,6.15,0,0,0,12.19,0,.43.43,0,0,1,.47-.38h0c.43,0,.82-.63.82-1.35s-.39-1.35-.83-1.35a.44.44,0,0,1-.43-.44v-.72a6.16,6.16,0,0,0-12.31,0v.72a.44.44,0,0,1-.44.44c-.44,0-.82.63-.82,1.35s.38,1.35.82,1.35h.07Z"/><path class="cls-3" d="M64.2,63a4.91,4.91,0,0,0-3.72-3.91l-7.65-1.83V54.72a6.59,6.59,0,0,1-5.91,0v2.55L39.27,59.1A4.92,4.92,0,0,0,35.54,63L34.46,69.2H65.29Z"/><path class="cls-2" d="M65.29,69.64H34.46a.46.46,0,0,1-.34-.16.42.42,0,0,1-.09-.36l1.08-6.18v0a5.34,5.34,0,0,1,4.06-4.23l7.3-1.74V54.72a.44.44,0,0,1,.64-.39,6.16,6.16,0,0,0,5.51,0,.44.44,0,0,1,.64.39v2.21l7.3,1.74a5.34,5.34,0,0,1,4.06,4.23v0l1.08,6.18a.42.42,0,0,1-.09.36A.46.46,0,0,1,65.29,69.64ZM35,68.76H64.77l-1-5.65a4.5,4.5,0,0,0-3.36-3.58h0L52.72,57.7a.45.45,0,0,1-.33-.43V55.39a7,7,0,0,1-5,0v1.88a.45.45,0,0,1-.34.43l-7.65,1.83h0A4.5,4.5,0,0,0,36,63.11Z"/><polygon class="cls-3" points="46.79 57.16 43.91 57.85 47.24 61.92 49.69 58.94 46.79 57.16"/><path class="cls-2" d="M47.24,62.35a.39.39,0,0,1-.33-.16l-3.34-4.06a.43.43,0,0,1-.08-.42.47.47,0,0,1,.31-.29l2.89-.69a.47.47,0,0,1,.33.06l2.89,1.77a.46.46,0,0,1,.21.3.43.43,0,0,1-.1.35l-2.44,3a.4.4,0,0,1-.34.16Zm-2.55-4.24,2.55,3.11L49,59.05l-2.31-1.42Z"/><polygon class="cls-3" points="52.97 57.19 55.84 57.87 52.52 61.92 49.69 58.94 52.97 57.19"/><path class="cls-2" d="M52.52,62.35a.4.4,0,0,1-.31-.13l-2.84-3a.43.43,0,0,1,.11-.69l3.28-1.75a.48.48,0,0,1,.31,0l2.87.69a.43.43,0,0,1,.32.28.42.42,0,0,1-.08.42l-3.32,4a.42.42,0,0,1-.32.16Zm-2.12-3.3,2.1,2.2,2.56-3.11-2-.49Z"/><polygon class="cls-1" points="50.74 38.06 50.44 34.39 49.87 34.39 49.31 34.39 49.01 38.06 50.74 38.06"/><path class="cls-2" d="M51.22,38.5H48.53L48.9,34h1.94Zm-1.74-.88h.79L50,34.83h-.33Z"/><path class="cls-3" d="M57.41,44.07a8.41,8.41,0,0,0-3-6.52,7.19,7.19,0,0,0-1.61-1l-.17-1.07a6.88,6.88,0,0,0-2.14-.6l.26,3.17H49l.26-3.18a5.55,5.55,0,0,0-2.14.61l-.2,1.07a8,8,0,0,0-4.11,4.63,8.83,8.83,0,0,0-.48,2.88H57.41"/><path class="cls-2" d="M57.85,44.51h-16v-.44a9,9,0,0,1,.51-3,8.39,8.39,0,0,1,4.13-4.79l.19-1,.17-.11a6.08,6.08,0,0,1,2.33-.67l.52,0-.27,3.22h.79L50,34.4l.53.05a7.56,7.56,0,0,1,2.28.64l.21.1.17,1.07a8,8,0,0,1,1.49,1,8.91,8.91,0,0,1,3.17,6.86Zm-15.06-.88H57a7.94,7.94,0,0,0-2.84-5.74A6.46,6.46,0,0,0,52.61,37l-.22-.1-.16-1.07A6.59,6.59,0,0,0,51,35.41l.26,3.09H48.53l.26-3.11a5.54,5.54,0,0,0-1.27.39l-.19,1.08-.21.1a7.46,7.46,0,0,0-3.88,4.38A8,8,0,0,0,42.79,43.63Z"/><rect class="cls-2" x="52.47" y="35.47" width="0.88" height="3.77" transform="translate(-5.1 8.55) rotate(-8.81)"/><rect class="cls-2" x="44.9" y="36.91" width="3.78" height="0.88" transform="translate(1.8 76.85) rotate(-79.88)"/><path class="cls-2" d="M48.82,43H43.69l0-.41A5.8,5.8,0,0,1,44.43,40l.76.44a5.77,5.77,0,0,0-.62,1.7h4.25Z"/><path class="cls-1" d="M57.49,44.07H42.26s-.68,0-.68,1.08H58.16C58.17,44.09,57.49,44.07,57.49,44.07Z"/><path class="cls-2" d="M58.6,45.59H41.15v-.44c0-1.17.71-1.51,1.1-1.52H57.51c.38,0,1.1.35,1.09,1.52Zm-16.51-.88H57.66c0-.13-.12-.19-.19-.2H42.29A.28.28,0,0,0,42.09,44.71Z"/></svg>