<svg id="Layer_1" data-name="Layer 1" xmlns="http://www.w3.org/2000/svg" viewBox="0 0 100 100"><defs><style>.cls-1{fill:#606060;}</style></defs><path class="cls-1" d="M61.4,41.21H51a.53.53,0,0,1-.53-.53V30.53a.52.52,0,0,1,.32-.49.54.54,0,0,1,.58.11L61.77,40.3a.54.54,0,0,1,.12.58A.53.53,0,0,1,61.4,41.21Zm-9.85-1.06h8.54l-8.54-8.36Z"/><path class="cls-1" d="M60.43,70H33.16a1.49,1.49,0,0,1-1.5-1.47V31.47A1.49,1.49,0,0,1,33.16,30H51a.51.51,0,0,1,.37.15L61.77,40.3a.55.55,0,0,1,.16.38v4.41a.54.54,0,0,1-1.07,0V40.9L50.8,31.06H33.16a.43.43,0,0,0-.44.41V68.53a.43.43,0,0,0,.44.41H60.43a.42.42,0,0,0,.43-.41V64.17a.54.54,0,0,1,1.07,0v4.36A1.49,1.49,0,0,1,60.43,70Z"/><path class="cls-1" d="M51.36,63.43h-15a.53.53,0,0,1,0-1.06h15a.53.53,0,0,1,0,1.06Z"/><path class="cls-1" d="M47.85,59.13H36.33a.53.53,0,0,1,0-1.06H47.85a.53.53,0,0,1,0,1.06Z"/><path class="cls-1" d="M47.21,54.83H36.33a.53.53,0,1,1,0-1.06H47.21a.53.53,0,0,1,0,1.06Z"/><path class="cls-1" d="M48.3,50.53h-12a.53.53,0,0,1,0-1.06h12a.53.53,0,0,1,0,1.06Z"/><path class="cls-1" d="M52.37,46.23h-16a.53.53,0,1,1,0-1.06h16a.53.53,0,0,1,0,1.06Z"/><path class="cls-1" d="M48.58,41.93H36.33a.53.53,0,0,1,0-1.06H48.58a.53.53,0,0,1,0,1.06Z"/><path class="cls-1" d="M48.1,37.63H36.33a.53.53,0,0,1,0-1.06H48.1a.53.53,0,0,1,0,1.06Z"/><path class="cls-1" d="M57.51,65.46A10.83,10.83,0,1,1,68.34,54.63,10.85,10.85,0,0,1,57.51,65.46Zm0-20.6a9.77,9.77,0,1,0,9.77,9.77A9.79,9.79,0,0,0,57.51,44.86Z"/><path class="cls-1" d="M61.21,61.1a.51.51,0,0,1-.38-.16l-3.32-3.32-3.33,3.32a.53.53,0,0,1-.75,0l-2.24-2.23a.54.54,0,0,1,0-.75l3.33-3.33-3.33-3.32a.54.54,0,0,1-.15-.38.51.51,0,0,1,.15-.37l2.24-2.24a.53.53,0,0,1,.75,0l3.33,3.32,3.32-3.32a.53.53,0,0,1,.75,0l2.24,2.24a.51.51,0,0,1,.15.37.54.54,0,0,1-.15.38l-3.33,3.32L63.82,58a.53.53,0,0,1,0,.75l-2.24,2.23A.5.5,0,0,1,61.21,61.1Zm-3.7-4.76a.53.53,0,0,1,.37.15l3.33,3.33,1.48-1.49L59.37,55a.53.53,0,0,1,0-.75l3.32-3.33-1.48-1.49-3.33,3.33a.53.53,0,0,1-.75,0l-3.32-3.33-1.49,1.49,3.32,3.33a.53.53,0,0,1,0,.75l-3.32,3.32,1.49,1.49,3.32-3.33A.55.55,0,0,1,57.51,56.34Z"/></svg>