<svg id="Layer_1" data-name="Layer 1" xmlns="http://www.w3.org/2000/svg" viewBox="0 0 100 100"><defs><style>.cls-1{fill:#606060;}</style></defs><path class="cls-1" d="M61.4,41.21H51a.53.53,0,0,1-.53-.53V30.53a.52.52,0,0,1,.32-.49.54.54,0,0,1,.58.11L61.77,40.3a.54.54,0,0,1,.12.58A.53.53,0,0,1,61.4,41.21Zm-9.85-1.06h8.54l-8.54-8.36Z"/><path class="cls-1" d="M60.43,70H33.16a1.49,1.49,0,0,1-1.5-1.47V31.47A1.49,1.49,0,0,1,33.16,30H51a.51.51,0,0,1,.37.15L61.77,40.3a.55.55,0,0,1,.16.38v4.41a.54.54,0,0,1-1.07,0V40.9L50.8,31.06H33.16a.43.43,0,0,0-.44.41V68.53a.43.43,0,0,0,.44.41H60.43a.42.42,0,0,0,.43-.41V64.17a.54.54,0,0,1,1.07,0v4.36A1.49,1.49,0,0,1,60.43,70Z"/><path class="cls-1" d="M51.36,63.43h-15a.53.53,0,0,1,0-1.06h15a.53.53,0,0,1,0,1.06Z"/><path class="cls-1" d="M47.85,59.13H36.33a.53.53,0,0,1,0-1.06H47.85a.53.53,0,0,1,0,1.06Z"/><path class="cls-1" d="M47.21,54.83H36.33a.53.53,0,1,1,0-1.06H47.21a.53.53,0,0,1,0,1.06Z"/><path class="cls-1" d="M48.3,50.53h-12a.53.53,0,0,1,0-1.06h12a.53.53,0,0,1,0,1.06Z"/><path class="cls-1" d="M52.37,46.23h-16a.53.53,0,1,1,0-1.06h16a.53.53,0,0,1,0,1.06Z"/><path class="cls-1" d="M48.58,41.93H36.33a.53.53,0,0,1,0-1.06H48.58a.53.53,0,0,1,0,1.06Z"/><path class="cls-1" d="M48.1,37.63H36.33a.53.53,0,0,1,0-1.06H48.1a.53.53,0,0,1,0,1.06Z"/><path class="cls-1" d="M57.51,65.46A10.83,10.83,0,1,1,68.34,54.63,10.85,10.85,0,0,1,57.51,65.46Zm0-20.6a9.77,9.77,0,1,0,9.77,9.77A9.79,9.79,0,0,0,57.51,44.86Z"/><path class="cls-1" d="M56.51,62a.5.5,0,0,1-.4-.18l-5.88-6.7a.54.54,0,0,1,0-.7l2.41-2.75a.54.54,0,0,1,.79,0l3.08,3.51,5.72-6.53a.54.54,0,0,1,.79,0l2.41,2.74a.54.54,0,0,1,0,.7L56.9,61.77A.5.5,0,0,1,56.51,62Zm-5.17-7.23,5.17,5.9,7.81-8.93-1.7-1.94L56.9,56.28a.5.5,0,0,1-.39.18h0a.5.5,0,0,1-.4-.18L53,52.78Z"/></svg>