<svg id="Layer_1" data-name="Layer 1" xmlns="http://www.w3.org/2000/svg" viewBox="0 0 100 100"><defs><style>.cls-1{fill:#fff;}.cls-2{fill:#231f20;}.cls-3{fill:#f5c82c;}</style></defs><path class="cls-1" d="M54.43,42.22v-.53a4.88,4.88,0,1,0-9.75,0v.53c-.52,0-.94.59-.94,1.33s.42,1.32.94,1.32h0a4.87,4.87,0,0,0,9.65,0h0c.51,0,.93-.59.93-1.32S54.94,42.22,54.43,42.22Z"/><path class="cls-2" d="M49.55,49.41a5.23,5.23,0,0,1-5.11-4.24,1.58,1.58,0,0,1-1-1.62,1.62,1.62,0,0,1,.93-1.6v-.26a5.2,5.2,0,0,1,10.4,0V42a1.61,1.61,0,0,1,.94,1.6,1.58,1.58,0,0,1-1,1.62A5.21,5.21,0,0,1,49.55,49.41Zm-4.82-4.87a.33.33,0,0,1,.32.28,4.55,4.55,0,0,0,9,0,.33.33,0,0,1,.35-.28h0c.32,0,.61-.47.61-1s-.29-1-.61-1a.32.32,0,0,1-.33-.32v-.53a4.55,4.55,0,0,0-9.1,0v.53a.32.32,0,0,1-.32.32c-.33,0-.61.47-.61,1s.28,1,.61,1h0Z"/><path class="cls-3" d="M60.15,54.72a3.63,3.63,0,0,0-2.75-2.89l-5.66-1.35V48.59a4.85,4.85,0,0,1-4.37,0v1.89l-5.66,1.35A3.63,3.63,0,0,0,39,54.72l-.8,4.58H61Z"/><path class="cls-2" d="M61,59.62H38.15a.3.3,0,0,1-.25-.12.31.31,0,0,1-.07-.26l.8-4.57v0a4,4,0,0,1,3-3.13l5.41-1.29V48.59a.32.32,0,0,1,.15-.28.33.33,0,0,1,.32,0,4.55,4.55,0,0,0,4.07,0,.33.33,0,0,1,.32,0,.35.35,0,0,1,.15.28v1.63l5.4,1.29a4,4,0,0,1,3,3.13v0l.81,4.57a.35.35,0,0,1-.07.26A.33.33,0,0,1,61,59.62ZM38.54,59h22l-.73-4.18a3.31,3.31,0,0,0-2.49-2.64h0l-5.67-1.35a.32.32,0,0,1-.25-.31V49.09a5.29,5.29,0,0,1-1.86.34,5.37,5.37,0,0,1-1.86-.34v1.39a.31.31,0,0,1-.24.31l-5.67,1.35h0a3.32,3.32,0,0,0-2.48,2.64Z"/><polygon class="cls-3" points="47.27 50.39 45.14 50.9 47.61 53.91 49.41 51.71 47.27 50.39"/><path class="cls-2" d="M47.61,54.24a.33.33,0,0,1-.25-.12l-2.47-3a.35.35,0,0,1-.06-.31.31.31,0,0,1,.23-.21l2.14-.51a.32.32,0,0,1,.25,0l2.13,1.31a.31.31,0,0,1,.15.22.3.3,0,0,1-.07.26l-1.8,2.21a.33.33,0,0,1-.25.12ZM45.72,51.1l1.89,2.3,1.32-1.61-1.71-1Z"/><polygon class="cls-3" points="51.84 50.41 53.97 50.92 51.51 53.91 49.41 51.71 51.84 50.41"/><path class="cls-2" d="M51.51,54.24a.3.3,0,0,1-.23-.11l-2.1-2.2a.34.34,0,0,1-.09-.28.33.33,0,0,1,.17-.23l2.43-1.29a.31.31,0,0,1,.23,0l2.12.51a.32.32,0,0,1,.24.21.35.35,0,0,1-.06.31l-2.46,3a.3.3,0,0,1-.24.11Zm-1.57-2.45,1.55,1.63,1.9-2.3-1.5-.36Z"/><polygon class="cls-1" points="50.2 36.26 49.97 33.55 49.55 33.55 49.13 33.55 48.91 36.26 50.2 36.26"/><path class="cls-2" d="M50.55,36.59h-2l.28-3.36h1.43Zm-1.29-.65h.58l-.17-2.06h-.24Z"/><path class="cls-3" d="M55.13,40.71a6.22,6.22,0,0,0-2.23-4.82,5.39,5.39,0,0,0-1.19-.74l-.12-.79A5,5,0,0,0,50,33.92l.2,2.34H48.91l.2-2.35a4.21,4.21,0,0,0-1.59.45l-.14.79a5.92,5.92,0,0,0-3,3.43A6.48,6.48,0,0,0,44,40.71H55.13"/><path class="cls-2" d="M55.45,41H43.66v-.32A6.79,6.79,0,0,1,44,38.47a6.21,6.21,0,0,1,3.06-3.54l.14-.77.13-.07a4.11,4.11,0,0,1,1.72-.5l.38,0-.2,2.38h.58l-.19-2.38.39,0a5.34,5.34,0,0,1,1.68.47l.16.07.12.79a5.82,5.82,0,0,1,1.11.71,6.58,6.58,0,0,1,2.34,5.07Zm-11.14-.65H54.79a5.86,5.86,0,0,0-2.09-4.24,5,5,0,0,0-1.12-.69l-.16-.07-.13-.79a4.36,4.36,0,0,0-.93-.29l.19,2.29h-2l.19-2.3a3.76,3.76,0,0,0-.94.29l-.14.8-.16.07a5.59,5.59,0,0,0-2.87,3.24A6,6,0,0,0,44.31,40.38Z"/><rect class="cls-2" x="51.48" y="34.35" width="0.65" height="2.79" transform="translate(-4.87 8.36) rotate(-8.82)"/><rect class="cls-2" x="45.88" y="35.42" width="2.8" height="0.65" transform="translate(3.77 75.99) rotate(-79.86)"/><path class="cls-2" d="M48.77,39.93H45l0-.31a4.22,4.22,0,0,1,.57-1.93l.56.32a4.12,4.12,0,0,0-.46,1.27h3.14Z"/><path class="cls-1" d="M55.19,40.71H43.93s-.51,0-.51.8H55.68C55.69,40.73,55.19,40.71,55.19,40.71Z"/><path class="cls-2" d="M56,41.83H43.1v-.32c0-.87.53-1.11.81-1.13H55.2c.28,0,.82.26.81,1.13ZM43.8,41.18H55.31c0-.09-.09-.14-.14-.15H43.94S43.84,41.09,43.8,41.18Z"/></svg>