<svg id="Layer_1" data-name="Layer 1" xmlns="http://www.w3.org/2000/svg" xmlns:xlink="http://www.w3.org/1999/xlink" viewBox="0 0 100 100"><defs><style>.cls-1{fill:#ffca05;}.cls-2,.cls-3{fill:#fff;}.cls-2{opacity:0.2;}.cls-4{fill:#d1d2d3;}.cls-5{fill:url(#linear-gradient);}.cls-6{fill:#6d6f70;}</style><linearGradient id="linear-gradient" x1="70.08" y1="48.44" x2="53.72" y2="59.89" gradientUnits="userSpaceOnUse"><stop offset="0" stop-color="#0db04b"/><stop offset="1" stop-color="#006769"/></linearGradient></defs><circle class="cls-1" cx="50" cy="50" r="28.65"/><path class="cls-2" d="M78.65,50A28.5,28.5,0,0,0,76,37.86a37,37,0,0,0-36.19,37c0,.65,0,1.29,0,1.93A28.67,28.67,0,0,0,78.65,50Z"/><polygon class="cls-3" points="54.58 29.58 35.3 29.58 35.3 69.09 66.33 69.09 66.33 39.61 55.13 39.61 54.58 29.58"/><polygon class="cls-4" points="54.58 29.58 54.58 39.61 66.51 39.61 55.53 28.63 54.58 29.58"/><path class="cls-5" d="M61.9,64.15a10,10,0,1,1,10-10A10,10,0,0,1,61.9,64.15Z"/><path class="cls-3" d="M61.9,44.83a9.34,9.34,0,1,1-9.34,9.34,9.35,9.35,0,0,1,9.34-9.34m0-1.3A10.64,10.64,0,1,0,72.54,54.17,10.64,10.64,0,0,0,61.9,43.53Z"/><path class="cls-6" d="M39.81,40.92H52.59a.56.56,0,1,0,0-1.11H39.81a.56.56,0,0,0,0,1.11Z"/><path class="cls-6" d="M39.81,36.44H52.09a.56.56,0,0,0,0-1.11H39.81a.56.56,0,0,0,0,1.11Z"/><path class="cls-6" d="M73.2,54.17a11.32,11.32,0,0,0-6.69-10.32V39.61a.45.45,0,0,0,0-.11h0a.5.5,0,0,0,0-.13l0,0a.31.31,0,0,0-.09-.11L55.52,28.63l-.12-.08,0,0-.13,0H36.51A1.55,1.55,0,0,0,35,30V68.66a1.55,1.55,0,0,0,1.56,1.53H65a1.55,1.55,0,0,0,1.56-1.53V64.48A11.32,11.32,0,0,0,73.2,54.17ZM64.6,39.06H55.69V30.34Zm.8,29.6a.44.44,0,0,1-.45.43H36.51a.45.45,0,0,1-.46-.43V30a.45.45,0,0,1,.46-.43H54.58v10a.56.56,0,0,0,.55.56H65.4v3.26a11,11,0,0,0-3.5-.56,11.22,11.22,0,0,0-5.49,1.43H39.81a.55.55,0,0,0-.55.55.55.55,0,0,0,.55.55h15A11.46,11.46,0,0,0,52,48.78H39.81a.56.56,0,0,0,0,1.11H51.45a11.15,11.15,0,0,0-.81,3.38H39.81a.55.55,0,0,0-.55.55.55.55,0,0,0,.55.55h10.8a11.1,11.1,0,0,0,.58,3.38H39.81a.56.56,0,0,0,0,1.11H51.63A11.29,11.29,0,0,0,54,62.23H39.81a.56.56,0,0,0,0,1.11H55.32a11.28,11.28,0,0,0,6.58,2.12,11,11,0,0,0,3.5-.56Zm-3.5-4.3A10.2,10.2,0,1,1,72.09,54.17,10.2,10.2,0,0,1,61.9,64.36Z"/><path class="cls-3" d="M69.2,51.45l-2.31-2.38a.54.54,0,0,0-.38-.15.54.54,0,0,0-.39.15l-5.49,5.65-3-3a.55.55,0,0,0-.38-.16.51.51,0,0,0-.38.16l-2.31,2.37a.43.43,0,0,0,0,.61l5.64,5.8a.53.53,0,0,0,.76,0l8.19-8.42A.43.43,0,0,0,69.2,51.45Zm-8.57,8-5-5.1,1.63-1.68,3,3a.53.53,0,0,0,.76,0l5.5-5.65,1.63,1.68Z"/></svg>