<svg id="Layer_1" data-name="Layer 1" xmlns="http://www.w3.org/2000/svg" viewBox="0 0 100 100"><defs><style>.cls-1{fill:#fff;}.cls-2{fill:#231f20;}.cls-3{fill:#ff061e;}</style></defs><path class="cls-1" d="M70.08,34v-.4a3.66,3.66,0,0,0-7.31,0V34c-.38,0-.7.45-.7,1s.32,1,.7,1h0a3.65,3.65,0,0,0,7.24,0h0c.39,0,.71-.45.71-1S70.47,34,70.08,34Z"/><path class="cls-2" d="M66.43,39.37a3.9,3.9,0,0,1-3.83-3.18,1.36,1.36,0,0,1-.07-2.41v-.2a3.9,3.9,0,1,1,7.8,0v.2A1.21,1.21,0,0,1,71,35a1.19,1.19,0,0,1-.77,1.22A3.9,3.9,0,0,1,66.43,39.37Zm-3.62-3.65a.25.25,0,0,1,.24.21,3.41,3.41,0,0,0,6.76,0,.24.24,0,0,1,.26-.21h0c.24,0,.45-.35.45-.75s-.21-.75-.46-.75a.24.24,0,0,1-.24-.24v-.4a3.41,3.41,0,0,0-6.82,0V34a.25.25,0,0,1-.25.24c-.24,0-.45.35-.45.75s.21.75.45.75h0Z"/><path class="cls-3" d="M74.38,43.35a2.75,2.75,0,0,0-2.07-2.17l-4.24-1V38.75a3.64,3.64,0,0,1-3.28,0v1.42l-4.24,1a2.75,2.75,0,0,0-2.07,2.17l-.6,3.43H75Z"/><path class="cls-2" d="M75,47H57.88a.28.28,0,0,1-.19-.09.29.29,0,0,1,0-.2l.6-3.43v0a3,3,0,0,1,2.25-2.35l4-1V38.75a.24.24,0,0,1,.35-.21,3.43,3.43,0,0,0,3.06,0,.21.21,0,0,1,.23,0,.22.22,0,0,1,.12.2V40l4,1a3,3,0,0,1,2.25,2.35v0l.6,3.43a.29.29,0,0,1,0,.2A.28.28,0,0,1,75,47Zm-16.81-.49H74.69l-.55-3.13a2.5,2.5,0,0,0-1.86-2h0l-4.25-1a.26.26,0,0,1-.19-.24v-1a3.85,3.85,0,0,1-2.78,0v1a.26.26,0,0,1-.19.24l-4.25,1h0a2.49,2.49,0,0,0-1.86,2Z"/><polygon class="cls-3" points="64.72 40.11 63.12 40.49 64.97 42.74 66.33 41.09 64.72 40.11"/><path class="cls-2" d="M65,43a.25.25,0,0,1-.19-.09l-1.85-2.25a.26.26,0,0,1,0-.24.25.25,0,0,1,.17-.16l1.61-.38a.29.29,0,0,1,.18,0l1.6,1a.21.21,0,0,1,.11.16.21.21,0,0,1,0,.2L65.16,42.9A.25.25,0,0,1,65,43Zm-1.42-2.35L65,42.36l1-1.21-1.28-.78Z"/><polygon class="cls-3" points="68.15 40.12 69.74 40.5 67.9 42.74 66.33 41.09 68.15 40.12"/><path class="cls-2" d="M67.9,43a.25.25,0,0,1-.18-.08l-1.57-1.65a.26.26,0,0,1-.07-.21.25.25,0,0,1,.13-.17l1.82-1a.21.21,0,0,1,.17,0l1.6.38a.25.25,0,0,1,.17.16.24.24,0,0,1,0,.23L68.09,42.9a.26.26,0,0,1-.18.09Zm-1.18-1.83,1.16,1.22,1.42-1.73-1.12-.27Z"/><polygon class="cls-1" points="66.91 29.52 66.74 27.48 66.43 27.48 66.12 27.48 65.95 29.52 66.91 29.52"/><path class="cls-2" d="M67.18,29.76h-1.5l.21-2.52H67Zm-1-.49h.44l-.13-1.55h-.18Z"/><path class="cls-3" d="M70.61,32.85a4.68,4.68,0,0,0-1.67-3.62,4.27,4.27,0,0,0-.89-.55l-.1-.59a3.64,3.64,0,0,0-1.18-.33l.14,1.76H66l.14-1.77a3.12,3.12,0,0,0-1.18.34l-.11.59a4.46,4.46,0,0,0-2.28,2.57,4.89,4.89,0,0,0-.27,1.6h8.36"/><path class="cls-2" d="M70.85,33.09H62v-.24a5,5,0,0,1,.28-1.68,4.67,4.67,0,0,1,2.29-2.65l.11-.58.09-.06a3.38,3.38,0,0,1,1.29-.37l.29,0-.15,1.79h.44l-.15-1.78.29,0a3.89,3.89,0,0,1,1.27.35l.11.05.1.6a4.37,4.37,0,0,1,.82.52,4.94,4.94,0,0,1,1.76,3.81ZM62.5,32.6h7.86a4.46,4.46,0,0,0-1.57-3.18,3.63,3.63,0,0,0-.84-.51l-.12-.06-.1-.59A3.55,3.55,0,0,0,67,28l.14,1.72H65.68L65.83,28a2.85,2.85,0,0,0-.71.22l-.1.6-.12,0a4.18,4.18,0,0,0-2.15,2.43A4.62,4.62,0,0,0,62.5,32.6Z"/><rect class="cls-2" x="67.87" y="28.08" width="0.49" height="2.09" transform="translate(-3.66 10.78) rotate(-8.81)"/><rect class="cls-2" x="63.67" y="28.88" width="2.1" height="0.49" transform="translate(24.67 87.71) rotate(-79.87)"/><path class="cls-2" d="M65.84,32.26H63V32a3.11,3.11,0,0,1,.42-1.44l.42.24a2.92,2.92,0,0,0-.34.94h2.35Z"/><path class="cls-1" d="M70.65,32.85H62.21s-.38,0-.38.6H71C71,32.86,70.65,32.85,70.65,32.85Z"/><path class="cls-2" d="M71.27,33.69H61.59v-.24c0-.65.4-.84.61-.85h8.46c.22,0,.61.2.61.85Zm-9.16-.49h8.64a.17.17,0,0,0-.11-.11H62.22A.17.17,0,0,0,62.11,33.2Z"/><path class="cls-1" d="M39.87,33.38V33a3.66,3.66,0,0,0-7.31,0v.4c-.39,0-.7.45-.7,1s.31,1,.7,1h0a3.65,3.65,0,0,0,7.24,0h0c.38,0,.7-.45.7-1S40.25,33.38,39.87,33.38Z"/><path class="cls-2" d="M36.21,38.77a3.9,3.9,0,0,1-3.83-3.18,1.19,1.19,0,0,1-.77-1.22,1.21,1.21,0,0,1,.7-1.19V33a3.9,3.9,0,0,1,7.8,0v.2A1.36,1.36,0,0,1,40,35.59,3.9,3.9,0,0,1,36.21,38.77Zm-3.62-3.65a.24.24,0,0,1,.24.21,3.41,3.41,0,0,0,6.76,0,.24.24,0,0,1,.26-.21h0c.24,0,.45-.35.45-.75s-.21-.75-.45-.75a.24.24,0,0,1-.25-.24V33a3.41,3.41,0,0,0-6.82,0v.4a.24.24,0,0,1-.24.24c-.25,0-.46.35-.46.75s.21.75.46.75h0Z"/><path class="cls-3" d="M44.16,42.75a2.75,2.75,0,0,0-2.07-2.17l-4.24-1V38.16a3.73,3.73,0,0,1-3.28,0v1.41l-4.24,1a2.75,2.75,0,0,0-2.07,2.17l-.6,3.43h17.1Z"/><path class="cls-2" d="M44.76,46.43H27.66a.24.24,0,0,1-.18-.09.25.25,0,0,1-.06-.2l.6-3.43v0a3,3,0,0,1,2.25-2.35l4-1V38.16a.24.24,0,0,1,.12-.21.21.21,0,0,1,.23,0,3.43,3.43,0,0,0,3.06,0A.23.23,0,0,1,38,38a.24.24,0,0,1,.11.21v1.22l4,1a3,3,0,0,1,2.25,2.35v0l.6,3.43a.29.29,0,0,1,0,.2A.28.28,0,0,1,44.76,46.43ZM28,45.94H44.47l-.55-3.13a2.49,2.49,0,0,0-1.86-2h0l-4.25-1a.25.25,0,0,1-.18-.24v-1a4,4,0,0,1-1.4.26,3.85,3.85,0,0,1-1.39-.26v1a.26.26,0,0,1-.19.24l-4.24,1h0a2.5,2.5,0,0,0-1.86,2Z"/><polygon class="cls-3" points="34.5 39.51 32.9 39.89 34.75 42.15 36.11 40.49 34.5 39.51"/><path class="cls-2" d="M34.75,42.39a.21.21,0,0,1-.18-.09l-1.86-2.25a.26.26,0,0,1,0-.24.24.24,0,0,1,.18-.16l1.6-.38a.28.28,0,0,1,.18,0l1.6,1a.25.25,0,0,1,.12.16.25.25,0,0,1-.06.2L34.94,42.3a.23.23,0,0,1-.19.09ZM33.34,40l1.41,1.72,1-1.21-1.28-.78Z"/><polygon class="cls-3" points="37.93 39.52 39.52 39.9 37.68 42.15 36.11 40.49 37.93 39.52"/><path class="cls-2" d="M37.68,42.39a.25.25,0,0,1-.18-.08l-1.57-1.65a.22.22,0,0,1-.06-.21.24.24,0,0,1,.12-.17l1.82-1a.21.21,0,0,1,.17,0l1.6.38a.23.23,0,0,1,.17.16.24.24,0,0,1,0,.23L37.87,42.3a.26.26,0,0,1-.18.09ZM36.5,40.56l1.17,1.22,1.42-1.73L38,39.78Z"/><polygon class="cls-1" points="36.69 28.91 36.52 26.88 36.21 26.88 35.9 26.88 35.73 28.91 36.69 28.91"/><path class="cls-2" d="M37,29.16H35.47l.2-2.52h1.08Zm-1-.49h.44l-.13-1.55h-.18Z"/><path class="cls-3" d="M40.39,32.25a4.68,4.68,0,0,0-1.67-3.62,4.27,4.27,0,0,0-.89-.55l-.09-.59a3.76,3.76,0,0,0-1.19-.33l.14,1.76h-1l.15-1.77a3.14,3.14,0,0,0-1.19.34l-.11.59a4.46,4.46,0,0,0-2.28,2.57,4.89,4.89,0,0,0-.27,1.6h8.36"/><path class="cls-2" d="M40.63,32.49H31.79v-.24a5,5,0,0,1,.28-1.68,4.67,4.67,0,0,1,2.29-2.65l.11-.58.09-.06a3.38,3.38,0,0,1,1.29-.37l.29,0L36,28.67h.44l-.15-1.78.29,0a3.89,3.89,0,0,1,1.27.35l.12.06.09.59a4.45,4.45,0,0,1,.83.52,4.94,4.94,0,0,1,1.75,3.81ZM32.28,32h7.86a4.43,4.43,0,0,0-1.57-3.18,4,4,0,0,0-.84-.51l-.12-.06-.09-.59a3.77,3.77,0,0,0-.7-.22L37,29.16H35.47l.14-1.73a2.61,2.61,0,0,0-.7.22l-.11.6-.12.05a4.18,4.18,0,0,0-2.15,2.43A4.62,4.62,0,0,0,32.28,32Z"/><rect class="cls-2" x="37.65" y="27.48" width="0.49" height="2.09" transform="translate(-3.92 6.14) rotate(-8.81)"/><rect class="cls-2" x="33.46" y="28.28" width="2.1" height="0.49" transform="translate(0.37 57.48) rotate(-79.89)"/><path class="cls-2" d="M35.63,31.66H32.78v-.23A3.11,3.11,0,0,1,33.19,30l.43.24a3,3,0,0,0-.35.94h2.36Z"/><path class="cls-1" d="M40.44,32.25H32s-.38,0-.38.6h9.2C40.81,32.26,40.44,32.25,40.44,32.25Z"/><path class="cls-2" d="M41.05,33.09H31.37v-.24c0-.65.4-.84.61-.85h8.47c.21,0,.61.2.6.85ZM31.9,32.6h8.63a.17.17,0,0,0-.11-.11H32A.15.15,0,0,0,31.9,32.6Z"/><path class="cls-1" d="M38.18,52.19v-.4a3.66,3.66,0,1,0-7.31,0v.4c-.38,0-.7.44-.7,1s.32,1,.7,1h0a3.65,3.65,0,0,0,7.24,0h0c.39,0,.7-.44.7-1S38.57,52.19,38.18,52.19Z"/><path class="cls-2" d="M34.53,57.58A3.91,3.91,0,0,1,30.7,54.4a1.18,1.18,0,0,1-.77-1.22,1.22,1.22,0,0,1,.7-1.2v-.19a3.9,3.9,0,1,1,7.79,0V52a1.22,1.22,0,0,1,.71,1.2,1.19,1.19,0,0,1-.77,1.22A3.92,3.92,0,0,1,34.53,57.58Zm-3.62-3.65a.25.25,0,0,1,.24.21,3.41,3.41,0,0,0,6.76,0,.24.24,0,0,1,.26-.21h0c.24,0,.45-.35.45-.75s-.21-.75-.46-.75a.24.24,0,0,1-.24-.24v-.4a3.41,3.41,0,1,0-6.82,0v.4a.25.25,0,0,1-.25.24c-.24,0-.45.35-.45.75s.21.75.45.75h0Z"/><path class="cls-3" d="M42.47,61.56a2.71,2.71,0,0,0-2.06-2.17l-4.25-1V57a3.56,3.56,0,0,1-1.63.39A3.61,3.61,0,0,1,32.89,57v1.42l-4.25,1a2.72,2.72,0,0,0-2.06,2.17L26,65h17.1Z"/><path class="cls-2" d="M43.08,65.23H26a.27.27,0,0,1-.19-.08.29.29,0,0,1-.05-.2l.6-3.43v0a3,3,0,0,1,2.26-2.35l4-1V57a.23.23,0,0,1,.11-.2.26.26,0,0,1,.24,0,3.35,3.35,0,0,0,3.06,0,.26.26,0,0,1,.35.22v1.22l4.05,1a3,3,0,0,1,2.25,2.35v0L43.32,65a.25.25,0,0,1-.06.2A.23.23,0,0,1,43.08,65.23Zm-16.81-.48H42.79l-.55-3.14a2.5,2.5,0,0,0-1.86-2h0l-4.24-1a.24.24,0,0,1-.19-.23v-1a3.85,3.85,0,0,1-1.39.25,3.9,3.9,0,0,1-1.4-.25v1a.23.23,0,0,1-.18.23l-4.25,1h0a2.49,2.49,0,0,0-1.86,2Z"/><polygon class="cls-3" points="32.82 58.31 31.22 58.7 33.07 60.95 34.42 59.3 32.82 58.31"/><path class="cls-2" d="M33.07,61.2a.28.28,0,0,1-.19-.09L31,58.85a.24.24,0,0,1,0-.23.23.23,0,0,1,.17-.16l1.6-.38a.21.21,0,0,1,.19,0l1.6,1a.25.25,0,0,1,.11.17.25.25,0,0,1,0,.19l-1.35,1.66a.28.28,0,0,1-.19.09Zm-1.42-2.36,1.42,1.73,1-1.21-1.28-.78Z"/><polygon class="cls-3" points="36.24 58.33 37.84 58.71 36 60.95 34.42 59.3 36.24 58.33"/><path class="cls-2" d="M36,61.2a.25.25,0,0,1-.18-.08l-1.57-1.65a.24.24,0,0,1-.07-.21.23.23,0,0,1,.13-.17l1.82-1a.25.25,0,0,1,.17,0l1.59.38a.24.24,0,0,1,.18.16.29.29,0,0,1,0,.24l-1.85,2.24a.28.28,0,0,1-.18.09Zm-1.18-1.84L36,60.59l1.42-1.73-1.12-.27Z"/><polygon class="cls-1" points="35.01 47.72 34.84 45.69 34.53 45.69 34.21 45.69 34.05 47.72 35.01 47.72"/><path class="cls-2" d="M35.27,48H33.78L34,45.45h1.07Zm-1-.49h.43l-.12-1.55h-.18Z"/><path class="cls-3" d="M38.71,51.05A4.68,4.68,0,0,0,37,47.44a4.18,4.18,0,0,0-.9-.55l-.09-.59A3.4,3.4,0,0,0,34.86,46L35,47.72h-1L34.19,46A2.94,2.94,0,0,0,33,46.3l-.1.59a4.4,4.4,0,0,0-2.28,2.57,4.79,4.79,0,0,0-.27,1.59h8.36"/><path class="cls-2" d="M39,51.3H30.11v-.25a5,5,0,0,1,.28-1.67,4.68,4.68,0,0,1,2.29-2.66l.1-.57.1-.06a3.38,3.38,0,0,1,1.29-.37l.29,0-.15,1.79h.43l-.14-1.79.29,0a4,4,0,0,1,1.26.36l.12.05.09.59a4.69,4.69,0,0,1,.83.53A4.94,4.94,0,0,1,39,51.05Zm-8.35-.49h7.86a4.42,4.42,0,0,0-1.58-3.18,3.59,3.59,0,0,0-.84-.52l-.12,0-.09-.59a3.55,3.55,0,0,0-.7-.22L35.27,48H33.78l.14-1.73a2.89,2.89,0,0,0-.7.22l-.11.6-.11,0a4.36,4.36,0,0,0-2.4,3.7Z"/><rect class="cls-2" x="35.97" y="46.29" width="0.49" height="2.09" transform="translate(-6.82 6.11) rotate(-8.81)"/><rect class="cls-2" x="31.77" y="47.09" width="2.1" height="0.49" transform="translate(-19.55 71.31) rotate(-79.87)"/><path class="cls-2" d="M33.94,50.47H31.1v-.23a3.22,3.22,0,0,1,.42-1.45l.42.24a3.35,3.35,0,0,0-.35.95h2.36Z"/><path class="cls-1" d="M38.75,51.05H30.31s-.38,0-.38.6h9.19C39.13,51.07,38.75,51.05,38.75,51.05Z"/><path class="cls-2" d="M39.37,51.9H29.69v-.24c0-.65.4-.84.61-.85h8.46c.21,0,.61.2.61.85Zm-9.16-.49h8.63a.14.14,0,0,0-.1-.11H30.32A.17.17,0,0,0,30.21,51.41Z"/><path class="cls-1" d="M73,52.19v-.4a3.66,3.66,0,1,0-7.31,0v.4c-.39,0-.7.44-.7,1s.31,1,.7,1h0a3.65,3.65,0,0,0,7.24,0h0c.39,0,.7-.44.7-1S73.35,52.19,73,52.19Z"/><path class="cls-2" d="M69.3,57.58a3.92,3.92,0,0,1-3.83-3.18,1.18,1.18,0,0,1-.76-1.22,1.22,1.22,0,0,1,.7-1.2v-.19a3.9,3.9,0,1,1,7.79,0V52a1.22,1.22,0,0,1,.7,1.2,1.18,1.18,0,0,1-.77,1.22A3.9,3.9,0,0,1,69.3,57.58Zm-3.62-3.65a.25.25,0,0,1,.25.21,3.41,3.41,0,0,0,6.75,0,.25.25,0,0,1,.27-.21h0c.24,0,.46-.35.46-.75s-.22-.75-.46-.75a.24.24,0,0,1-.24-.24v-.4a3.42,3.42,0,0,0-6.83,0v.4a.24.24,0,0,1-.24.24c-.24,0-.46.35-.46.75s.22.75.46.75h0Z"/><path class="cls-3" d="M77.25,61.56a2.72,2.72,0,0,0-2.06-2.17l-4.25-1V57a3.62,3.62,0,0,1-3.27,0v1.42l-4.25,1a2.71,2.71,0,0,0-2.06,2.17L60.76,65H77.85Z"/><path class="cls-2" d="M77.85,65.23H60.76a.26.26,0,0,1-.19-.08.21.21,0,0,1,0-.2l.6-3.43v0a3,3,0,0,1,2.26-2.35l4-1V57a.24.24,0,0,1,.12-.2.26.26,0,0,1,.24,0,3.33,3.33,0,0,0,3,0,.26.26,0,0,1,.24,0,.24.24,0,0,1,.12.2v1.22l4,1a3,3,0,0,1,2.26,2.35v0l.6,3.43a.21.21,0,0,1,0,.2A.26.26,0,0,1,77.85,65.23ZM61,64.75H77.56L77,61.61a2.49,2.49,0,0,0-1.86-2h0l-4.24-1a.24.24,0,0,1-.19-.23v-1a4,4,0,0,1-2.79,0v1a.24.24,0,0,1-.19.23l-4.24,1h0a2.5,2.5,0,0,0-1.86,2Z"/><polygon class="cls-3" points="67.6 58.31 66 58.7 67.85 60.95 69.2 59.3 67.6 58.31"/><path class="cls-2" d="M67.85,61.2a.25.25,0,0,1-.19-.09l-1.85-2.26a.24.24,0,0,1,0-.23.26.26,0,0,1,.18-.16l1.6-.38a.19.19,0,0,1,.18,0l1.61,1a.25.25,0,0,1,.11.17.25.25,0,0,1,0,.19L68,61.11a.24.24,0,0,1-.18.09Zm-1.42-2.36,1.42,1.73,1-1.21-1.27-.78Z"/><polygon class="cls-3" points="71.02 58.33 72.61 58.71 70.77 60.95 69.2 59.3 71.02 58.33"/><path class="cls-2" d="M70.77,61.2a.23.23,0,0,1-.17-.08L69,59.47a.26.26,0,0,1-.06-.21.23.23,0,0,1,.13-.17l1.82-1a.25.25,0,0,1,.17,0l1.59.38a.24.24,0,0,1,.13.4L71,61.11a.28.28,0,0,1-.18.09ZM69.6,59.36l1.16,1.23,1.42-1.73-1.13-.27Z"/><polygon class="cls-1" points="69.79 47.72 69.62 45.69 69.3 45.69 68.99 45.69 68.82 47.72 69.79 47.72"/><path class="cls-2" d="M70.05,48H68.56l.21-2.52h1.07Zm-1-.49h.43l-.13-1.55h-.18Z"/><path class="cls-3" d="M73.48,51.05a4.65,4.65,0,0,0-1.67-3.61,3.89,3.89,0,0,0-.89-.55l-.09-.59A3.51,3.51,0,0,0,69.64,46l.15,1.75h-1L69,46a2.94,2.94,0,0,0-1.19.34l-.11.59a4.46,4.46,0,0,0-2.28,2.57,4.78,4.78,0,0,0-.26,1.59h8.35"/><path class="cls-2" d="M73.73,51.3H64.88v-.25a5.22,5.22,0,0,1,.28-1.67,4.7,4.7,0,0,1,2.3-2.66l.1-.57.1-.06A3.3,3.3,0,0,1,69,45.72l.28,0-.14,1.79h.43l-.15-1.79.3,0a4.11,4.11,0,0,1,1.26.36l.12.05.09.59a4.69,4.69,0,0,1,.83.53,4.94,4.94,0,0,1,1.76,3.8Zm-8.35-.49h7.85a4.37,4.37,0,0,0-1.57-3.18,3.59,3.59,0,0,0-.84-.52l-.12,0-.09-.59a3.55,3.55,0,0,0-.7-.22L70.05,48H68.56l.14-1.73a2.74,2.74,0,0,0-.7.22l-.11.6-.11,0a4.19,4.19,0,0,0-2.16,2.43A4.53,4.53,0,0,0,65.38,50.81Z"/><rect class="cls-2" x="70.75" y="46.29" width="0.49" height="2.09" transform="translate(-6.41 11.43) rotate(-8.81)"/><rect class="cls-2" x="66.55" y="47.09" width="2.1" height="0.49" transform="matrix(0.18, -0.98, 0.98, 0.18, 9.12, 105.55)"/><path class="cls-2" d="M68.72,50.47H65.88l0-.23a3.32,3.32,0,0,1,.43-1.45l.42.24a3.35,3.35,0,0,0-.35.95h2.36Z"/><path class="cls-1" d="M73.53,51.05H65.08s-.38,0-.37.6H73.9C73.91,51.07,73.53,51.05,73.53,51.05Z"/><path class="cls-2" d="M74.14,51.9H64.47v-.24c0-.65.4-.84.62-.85h8.46c.21,0,.61.2.6.85ZM65,51.41h8.63a.18.18,0,0,0-.1-.11H65.1A.17.17,0,0,0,65,51.41Z"/><path class="cls-1" d="M58.46,42V41.3a6.59,6.59,0,0,0-13.18,0V42c-.69,0-1.26.81-1.26,1.79s.57,1.8,1.26,1.8h.07a6.58,6.58,0,0,0,13,0h.06c.7,0,1.27-.81,1.27-1.8S59.16,42,58.46,42Z"/><path class="cls-2" d="M51.87,51.74A7,7,0,0,1,45,46a2.14,2.14,0,0,1-1.39-2.2,2.16,2.16,0,0,1,1.27-2.15V41.3a7,7,0,1,1,14,0v.36a2.16,2.16,0,0,1,1.27,2.15A2.14,2.14,0,0,1,58.78,46,7,7,0,0,1,51.87,51.74Zm-6.52-6.58a.44.44,0,0,1,.43.38,6.15,6.15,0,0,0,12.19,0,.43.43,0,0,1,.47-.38h0c.43,0,.82-.64.82-1.36s-.39-1.35-.83-1.35A.43.43,0,0,1,58,42V41.3a6.16,6.16,0,0,0-12.31,0V42a.43.43,0,0,1-.44.44c-.44,0-.82.63-.82,1.35s.38,1.36.82,1.36h.07Z"/><path class="cls-3" d="M66.2,58.93A4.93,4.93,0,0,0,62.48,55l-7.65-1.83V50.63a6.59,6.59,0,0,1-5.91,0v2.55L41.27,55a5,5,0,0,0-3.73,3.92l-1.08,6.18H67.29Z"/><path class="cls-2" d="M67.29,65.55H36.46a.46.46,0,0,1-.34-.16A.42.42,0,0,1,36,65l1.08-6.18s0,0,0,0a5.34,5.34,0,0,1,4.06-4.23l7.3-1.74V50.63a.44.44,0,0,1,.64-.39,6.16,6.16,0,0,0,5.51,0,.44.44,0,0,1,.64.39v2.21l7.3,1.74a5.34,5.34,0,0,1,4.06,4.23v0L67.72,65a.42.42,0,0,1-.09.36A.46.46,0,0,1,67.29,65.55ZM37,64.67H66.77l-1-5.65a4.5,4.5,0,0,0-3.36-3.58h0l-7.66-1.83a.44.44,0,0,1-.33-.43V51.31a7.11,7.11,0,0,1-5,0v1.87a.44.44,0,0,1-.34.43l-7.65,1.83h0c-.1,0-2.51.4-3.36,3.57Z"/><polygon class="cls-3" points="48.79 53.07 45.91 53.76 49.24 57.83 51.69 54.85 48.79 53.07"/><path class="cls-2" d="M49.24,58.27a.42.42,0,0,1-.33-.16L45.57,54a.43.43,0,0,1-.08-.42.44.44,0,0,1,.31-.28l2.89-.69a.42.42,0,0,1,.33.05l2.89,1.77a.44.44,0,0,1,.11.66l-2.44,3a.43.43,0,0,1-.34.16ZM46.69,54l2.55,3.11L51,55l-2.31-1.42Z"/><polygon class="cls-3" points="54.97 53.1 57.84 53.79 54.52 57.83 51.69 54.85 54.97 53.1"/><path class="cls-2" d="M54.52,58.27a.41.41,0,0,1-.31-.14l-2.84-3a.43.43,0,0,1-.12-.37.45.45,0,0,1,.23-.32l3.28-1.75a.48.48,0,0,1,.31,0l2.87.69a.43.43,0,0,1,.32.29.41.41,0,0,1-.08.41l-3.32,4a.49.49,0,0,1-.32.16ZM52.4,55l2.1,2.21,2.56-3.12-2-.49Z"/><polygon class="cls-1" points="52.74 33.97 52.44 30.3 51.87 30.3 51.31 30.3 51.01 33.97 52.74 33.97"/><path class="cls-2" d="M53.22,34.41H50.53l.37-4.54h1.94Zm-1.74-.88h.79L52,30.74h-.33Z"/><path class="cls-3" d="M59.41,40a8.41,8.41,0,0,0-3-6.52,7.19,7.19,0,0,0-1.61-1l-.17-1.07a6.88,6.88,0,0,0-2.14-.6L52.74,34H51l.26-3.18a5.55,5.55,0,0,0-2.14.61l-.2,1.07a8,8,0,0,0-4.11,4.63A8.83,8.83,0,0,0,44.34,40H59.41"/><path class="cls-2" d="M59.85,40.42h-16V40a9,9,0,0,1,.51-3,8.42,8.42,0,0,1,4.13-4.79l.19-1,.17-.1a5.7,5.7,0,0,1,2.33-.67l.52-.05-.27,3.22h.79L52,30.31l.53.06a7.26,7.26,0,0,1,2.28.63l.21.1.17,1.07a8,8,0,0,1,1.49.95A8.91,8.91,0,0,1,59.85,40Zm-15.06-.88H59a8,8,0,0,0-2.84-5.74,6.81,6.81,0,0,0-1.51-.93l-.22-.1-.16-1.06A6,6,0,0,0,53,31.32l.26,3.09H50.53l.26-3.11a5.54,5.54,0,0,0-1.27.39l-.19,1.08-.21.1a7.46,7.46,0,0,0-3.88,4.38A8,8,0,0,0,44.79,39.54Z"/><rect class="cls-2" x="54.47" y="31.38" width="0.88" height="3.77" transform="matrix(0.99, -0.15, 0.15, 0.99, -4.45, 8.81)"/><rect class="cls-2" x="46.9" y="32.82" width="3.78" height="0.88" transform="translate(7.47 75.45) rotate(-79.88)"/><path class="cls-2" d="M50.82,38.92H45.69l0-.41a5.8,5.8,0,0,1,.76-2.61l.76.44a5.77,5.77,0,0,0-.62,1.7h4.25Z"/><path class="cls-1" d="M59.49,40H44.26s-.68,0-.68,1.08H60.16C60.17,40,59.49,40,59.49,40Z"/><path class="cls-2" d="M60.6,41.5H43.15v-.44c0-1.17.71-1.5,1.1-1.52H59.51c.38,0,1.1.35,1.09,1.52Zm-16.51-.88H59.66c0-.12-.12-.19-.19-.2H44.29A.28.28,0,0,0,44.09,40.62Z"/></svg>