<svg id="Layer_1" data-name="Layer 1" xmlns="http://www.w3.org/2000/svg" viewBox="0 0 100 100"><defs><style>.cls-1{fill:#fff;}.cls-2{fill:#231f20;}.cls-3{fill:#ff061e;}</style></defs><path class="cls-1" d="M67.47,40v-.44a4,4,0,0,0-8,0V40c-.42,0-.77.49-.77,1.09s.35,1.09.77,1.09h0a4,4,0,0,0,8,0h0c.42,0,.77-.49.77-1.09S67.89,40,67.47,40Z"/><path class="cls-2" d="M63.46,45.94a4.29,4.29,0,0,1-4.21-3.49,1.29,1.29,0,0,1-.84-1.34,1.32,1.32,0,0,1,.77-1.31v-.22a4.28,4.28,0,1,1,8.56,0v.22a1.33,1.33,0,0,1,.77,1.31,1.3,1.3,0,0,1-.85,1.34A4.29,4.29,0,0,1,63.46,45.94Zm-4-4a.28.28,0,0,1,.27.23,3.74,3.74,0,0,0,7.42,0,.26.26,0,0,1,.28-.23h0c.27,0,.5-.39.5-.83s-.23-.82-.5-.82A.27.27,0,0,1,67.2,40v-.44a3.75,3.75,0,0,0-7.49,0V40a.27.27,0,0,1-.27.27c-.27,0-.5.38-.5.82s.23.83.5.83h0Z"/><path class="cls-3" d="M72.18,50.31a3,3,0,0,0-2.26-2.38l-4.67-1.11V45.26a4,4,0,0,1-3.59,0v1.56L57,47.93a3,3,0,0,0-2.27,2.38l-.66,3.77H72.84Z"/><path class="cls-2" d="M72.84,54.35H54.07a.28.28,0,0,1-.21-.1A.29.29,0,0,1,53.8,54l.67-3.76v0a3.25,3.25,0,0,1,2.47-2.58l4.45-1.06V45.26a.26.26,0,0,1,.13-.22.24.24,0,0,1,.26,0,3.73,3.73,0,0,0,1.68.39A3.69,3.69,0,0,0,65.13,45a.24.24,0,0,1,.26,0,.26.26,0,0,1,.13.22v1.35L70,47.67a3.23,3.23,0,0,1,2.47,2.58v0L73.11,54a.29.29,0,0,1-.06.22A.28.28,0,0,1,72.84,54.35Zm-18.45-.54H72.53l-.61-3.44a2.73,2.73,0,0,0-2-2.18h0l-4.66-1.11a.27.27,0,0,1-.2-.26V45.67a4.2,4.2,0,0,1-1.53.29,4.12,4.12,0,0,1-1.53-.29v1.15a.28.28,0,0,1-.21.26l-4.66,1.11h0a2.73,2.73,0,0,0-2,2.18Z"/><polygon class="cls-3" points="61.58 46.75 59.82 47.17 61.85 49.65 63.34 47.83 61.58 46.75"/><path class="cls-2" d="M61.85,49.91a.25.25,0,0,1-.2-.09l-2-2.48a.28.28,0,0,1,0-.25.27.27,0,0,1,.19-.18l1.76-.42a.28.28,0,0,1,.2,0l1.76,1.08a.25.25,0,0,1,.12.19.23.23,0,0,1-.05.21l-1.49,1.82a.27.27,0,0,1-.21.09ZM60.3,47.33l1.55,1.9,1.09-1.33L61.53,47Z"/><polygon class="cls-3" points="65.34 46.77 67.09 47.19 65.07 49.65 63.34 47.83 65.34 46.77"/><path class="cls-2" d="M65.07,49.91a.27.27,0,0,1-.19-.08L63.15,48a.25.25,0,0,1-.07-.23.23.23,0,0,1,.14-.19l2-1.07a.22.22,0,0,1,.18,0l1.75.41a.29.29,0,0,1,.19.18.25.25,0,0,1,0,.25l-2,2.47a.29.29,0,0,1-.2.09Zm-1.29-2,1.27,1.34,1.56-1.89-1.23-.3Z"/><polygon class="cls-1" points="63.98 35.12 63.8 32.88 63.46 32.88 63.11 32.88 62.93 35.12 63.98 35.12"/><path class="cls-2" d="M64.27,35.38H62.64l.23-2.76h1.18Zm-1-.53h.47l-.14-1.7h-.19Z"/><path class="cls-3" d="M68,38.78a5.11,5.11,0,0,0-1.83-4,4.34,4.34,0,0,0-1-.61l-.1-.65a4.26,4.26,0,0,0-1.3-.36L64,35.12h-1l.16-1.94a3.38,3.38,0,0,0-1.31.37l-.11.65A4.85,4.85,0,0,0,59.16,37a5.18,5.18,0,0,0-.29,1.75H68"/><path class="cls-2" d="M68.31,39H58.6v-.26a5.39,5.39,0,0,1,.31-1.84A5.14,5.14,0,0,1,61.43,34l.11-.63.11-.07a3.55,3.55,0,0,1,1.41-.4l.32,0-.16,2h.47l-.16-2,.32,0a4.31,4.31,0,0,1,1.39.39l.13.06.1.65a4.53,4.53,0,0,1,.91.58,5.41,5.41,0,0,1,1.93,4.18Zm-9.17-.53h8.63A4.86,4.86,0,0,0,66,35a4,4,0,0,0-.92-.56L65,34.39l-.1-.65a3.61,3.61,0,0,0-.77-.24l.15,1.88H62.64l.15-1.89a3.74,3.74,0,0,0-.77.24l-.12.66-.12.06a4.59,4.59,0,0,0-2.37,2.66A5.51,5.51,0,0,0,59.14,38.51Z"/><rect class="cls-2" x="65.04" y="33.54" width="0.53" height="2.29" transform="translate(-4.54 10.41) rotate(-8.81)"/><rect class="cls-2" x="60.43" y="34.42" width="2.3" height="0.53" transform="translate(16.62 89.22) rotate(-79.88)"/><path class="cls-2" d="M62.81,38.13H59.69v-.25a3.59,3.59,0,0,1,.46-1.59l.46.27a4,4,0,0,0-.38,1h2.59Z"/><path class="cls-1" d="M68.1,38.78H58.82s-.42,0-.41.66H68.5C68.51,38.79,68.1,38.78,68.1,38.78Z"/><path class="cls-2" d="M68.77,39.7H58.14v-.26c0-.72.44-.92.67-.93h9.3c.23,0,.67.21.66.93Zm-10-.53H68.2a.19.19,0,0,0-.12-.13H58.84C58.79,39.05,58.75,39.09,58.72,39.17Z"/><path class="cls-1" d="M47.53,40v-.44a4,4,0,0,0-8,0V40c-.42,0-.77.49-.77,1.09s.35,1.09.77,1.09h0a4,4,0,0,0,8,0h0c.42,0,.77-.49.77-1.09S48,40,47.53,40Z"/><path class="cls-2" d="M43.52,45.94a4.29,4.29,0,0,1-4.21-3.49,1.29,1.29,0,0,1-.84-1.34,1.32,1.32,0,0,1,.77-1.31v-.22a4.28,4.28,0,1,1,8.56,0v.22a1.33,1.33,0,0,1,.77,1.31,1.3,1.3,0,0,1-.85,1.34A4.29,4.29,0,0,1,43.52,45.94Zm-4-4a.26.26,0,0,1,.26.23,3.75,3.75,0,0,0,7.43,0,.26.26,0,0,1,.28-.23h0c.27,0,.5-.39.5-.83s-.23-.82-.5-.82a.27.27,0,0,1-.27-.27v-.44a3.75,3.75,0,0,0-7.49,0V40a.27.27,0,0,1-.27.27c-.27,0-.5.38-.5.82s.23.83.5.83h0Z"/><path class="cls-3" d="M52.24,50.31A3,3,0,0,0,50,47.93l-4.67-1.11V45.26a4,4,0,0,1-3.59,0v1.56l-4.66,1.11a3,3,0,0,0-2.27,2.38l-.66,3.77H52.9Z"/><path class="cls-2" d="M52.9,54.35H34.13a.28.28,0,0,1-.21-.1.29.29,0,0,1-.06-.22l.66-3.76v0A3.25,3.25,0,0,1,37,47.67l4.45-1.06V45.26a.26.26,0,0,1,.13-.22.24.24,0,0,1,.26,0,3.73,3.73,0,0,0,1.68.39A3.69,3.69,0,0,0,45.19,45a.24.24,0,0,1,.26,0,.26.26,0,0,1,.13.22v1.35L50,47.67a3.23,3.23,0,0,1,2.47,2.58v0L53.17,54a.29.29,0,0,1-.06.22A.28.28,0,0,1,52.9,54.35Zm-18.45-.54H52.59L52,50.37a2.73,2.73,0,0,0-2-2.18h0l-4.66-1.11a.27.27,0,0,1-.2-.26V45.67a4.21,4.21,0,0,1-3.07,0v1.15a.27.27,0,0,1-.2.26l-4.66,1.11h0a2.73,2.73,0,0,0-2,2.18Z"/><polygon class="cls-3" points="41.64 46.75 39.88 47.17 41.91 49.65 43.4 47.83 41.64 46.75"/><path class="cls-2" d="M41.91,49.91a.25.25,0,0,1-.2-.09l-2-2.48a.28.28,0,0,1,0-.25.27.27,0,0,1,.19-.18l1.76-.42a.28.28,0,0,1,.2,0l1.76,1.08a.25.25,0,0,1,.12.19.23.23,0,0,1,0,.21l-1.49,1.82a.27.27,0,0,1-.21.09Zm-1.55-2.58,1.55,1.9L43,47.9,41.59,47Z"/><polygon class="cls-3" points="45.4 46.77 47.15 47.19 45.13 49.65 43.4 47.83 45.4 46.77"/><path class="cls-2" d="M45.13,49.91a.27.27,0,0,1-.19-.08L43.21,48a.25.25,0,0,1-.07-.23.24.24,0,0,1,.13-.19l2-1.07a.22.22,0,0,1,.18,0l1.75.41a.29.29,0,0,1,.19.18.25.25,0,0,1,0,.25l-2,2.47a.26.26,0,0,1-.19.09Zm-1.29-2,1.27,1.34,1.56-1.89-1.23-.3Z"/><polygon class="cls-1" points="44.04 35.12 43.86 32.88 43.52 32.88 43.17 32.88 42.99 35.12 44.04 35.12"/><path class="cls-2" d="M44.33,35.38H42.7l.23-2.76h1.18Zm-1-.53h.47l-.14-1.7h-.19Z"/><path class="cls-3" d="M48.1,38.78a5.11,5.11,0,0,0-1.83-4,4.34,4.34,0,0,0-1-.61l-.1-.65a4.26,4.26,0,0,0-1.3-.36L44,35.12H43l.16-1.94a3.38,3.38,0,0,0-1.31.37l-.11.65A4.85,4.85,0,0,0,39.22,37a5.18,5.18,0,0,0-.29,1.75H48.1"/><path class="cls-2" d="M48.37,39H38.66v-.26A5.39,5.39,0,0,1,39,36.94,5.14,5.14,0,0,1,41.49,34l.11-.63.11-.07a3.55,3.55,0,0,1,1.41-.4l.32,0-.16,2h.47l-.16-2,.32,0a4.31,4.31,0,0,1,1.39.39l.13.06.1.65a4.53,4.53,0,0,1,.91.58,5.41,5.41,0,0,1,1.93,4.18Zm-9.17-.53h8.63A4.86,4.86,0,0,0,46.1,35a4,4,0,0,0-.92-.56l-.13-.06-.1-.65a3.61,3.61,0,0,0-.77-.24l.15,1.88H42.7l.15-1.89a3.74,3.74,0,0,0-.77.24l-.12.66-.12.06a4.59,4.59,0,0,0-2.37,2.66A5.51,5.51,0,0,0,39.2,38.51Z"/><rect class="cls-2" x="45.1" y="33.54" width="0.53" height="2.29" transform="translate(-4.78 7.36) rotate(-8.81)"/><rect class="cls-2" x="40.49" y="34.42" width="2.3" height="0.53" transform="translate(0.18 69.59) rotate(-79.88)"/><path class="cls-2" d="M42.87,38.13H39.75v-.25a3.59,3.59,0,0,1,.46-1.59l.46.27a4,4,0,0,0-.38,1h2.59Z"/><path class="cls-1" d="M48.16,38.78H38.88s-.42,0-.41.66H48.56C48.57,38.79,48.16,38.78,48.16,38.78Z"/><path class="cls-2" d="M48.83,39.7H38.2v-.26c0-.72.44-.92.67-.93h9.3c.23,0,.67.21.66.93Zm-10-.53h9.48a.19.19,0,0,0-.12-.13H38.9S38.81,39.09,38.78,39.17Z"/><path class="cls-1" d="M47.53,60.67v-.44a4,4,0,0,0-8,0v.44c-.42,0-.77.49-.77,1.1s.35,1.09.77,1.09h0a4,4,0,0,0,8,0h0c.42,0,.77-.49.77-1.09S48,60.67,47.53,60.67Z"/><path class="cls-2" d="M43.52,66.59a4.28,4.28,0,0,1-4.21-3.49,1.29,1.29,0,0,1-.84-1.33,1.33,1.33,0,0,1,.77-1.32v-.22a4.28,4.28,0,1,1,8.56,0v.22a1.34,1.34,0,0,1,.77,1.32,1.3,1.3,0,0,1-.85,1.33A4.28,4.28,0,0,1,43.52,66.59Zm-4-4a.25.25,0,0,1,.26.23,3.75,3.75,0,0,0,7.43,0,.26.26,0,0,1,.28-.23h0c.27,0,.5-.39.5-.82s-.23-.83-.5-.83a.27.27,0,0,1-.27-.27v-.44a3.75,3.75,0,0,0-7.49,0v.44a.27.27,0,0,1-.27.27c-.27,0-.5.39-.5.83s.23.82.5.82h0Z"/><path class="cls-3" d="M52.24,71A3,3,0,0,0,50,68.58l-4.67-1.11V65.92a4,4,0,0,1-3.59,0v1.55l-4.66,1.11A3,3,0,0,0,34.79,71l-.66,3.76H52.9Z"/><path class="cls-2" d="M52.9,75H34.13a.28.28,0,0,1-.21-.1.27.27,0,0,1-.06-.21l.66-3.77v0A3.27,3.27,0,0,1,37,68.32l4.45-1.06V65.92a.26.26,0,0,1,.13-.23.27.27,0,0,1,.26,0,3.74,3.74,0,0,0,1.68.4,3.7,3.7,0,0,0,1.67-.4.27.27,0,0,1,.39.24v1.34L50,68.32A3.25,3.25,0,0,1,52.5,70.9v0l.66,3.77a.27.27,0,0,1-.06.21A.28.28,0,0,1,52.9,75Zm-18.45-.53H52.59L52,71a2.73,2.73,0,0,0-2-2.18h0l-4.66-1.11a.27.27,0,0,1-.2-.26V66.33a4.35,4.35,0,0,1-3.07,0v1.14a.27.27,0,0,1-.2.26l-4.66,1.11h0a2.73,2.73,0,0,0-2,2.18Z"/><polygon class="cls-3" points="41.64 67.4 39.88 67.82 41.91 70.3 43.4 68.48 41.64 67.4"/><path class="cls-2" d="M41.91,70.57a.26.26,0,0,1-.2-.1l-2-2.48a.28.28,0,0,1,0-.25.29.29,0,0,1,.19-.18l1.76-.42a.28.28,0,0,1,.2,0l1.76,1.08a.23.23,0,0,1,.12.18.23.23,0,0,1,0,.21l-1.49,1.82a.28.28,0,0,1-.21.1ZM40.36,68l1.55,1.9L43,68.55l-1.41-.86Z"/><polygon class="cls-3" points="45.4 67.42 47.15 67.84 45.13 70.3 43.4 68.48 45.4 67.42"/><path class="cls-2" d="M45.13,70.57a.25.25,0,0,1-.19-.09l-1.73-1.81a.25.25,0,0,1-.07-.23.26.26,0,0,1,.13-.19l2-1.07a.22.22,0,0,1,.18,0l1.75.42a.27.27,0,0,1,.19.17.27.27,0,0,1,0,.26l-2,2.46a.27.27,0,0,1-.19.1Zm-1.29-2,1.27,1.35L46.67,68l-1.23-.3Z"/><polygon class="cls-1" points="44.04 55.77 43.86 53.54 43.52 53.54 43.17 53.54 42.99 55.77 44.04 55.77"/><path class="cls-2" d="M44.33,56H42.7l.23-2.77h1.18Zm-1-.54h.47l-.14-1.7h-.19Z"/><path class="cls-3" d="M48.1,59.43a5.13,5.13,0,0,0-1.83-4,4.3,4.3,0,0,0-1-.6l-.1-.65a4,4,0,0,0-1.3-.37L44,55.77H43l.16-1.94a3.48,3.48,0,0,0-1.31.38l-.11.65a4.8,4.8,0,0,0-2.51,2.82,5.22,5.22,0,0,0-.29,1.75H48.1"/><path class="cls-2" d="M48.37,59.7H38.66v-.27A5.43,5.43,0,0,1,39,57.59a5.14,5.14,0,0,1,2.52-2.92L41.6,54l.11-.06a3.46,3.46,0,0,1,1.41-.41l.32,0-.16,2h.47l-.16-2,.32,0A4.56,4.56,0,0,1,45.3,54l.13.06.1.65a5,5,0,0,1,.91.58,5.43,5.43,0,0,1,1.93,4.18Zm-9.17-.54h8.63a4.84,4.84,0,0,0-1.73-3.49,3.74,3.74,0,0,0-.92-.57L45.05,55l-.1-.65a5.28,5.28,0,0,0-.77-.24L44.33,56H42.7l.15-1.9a3.74,3.74,0,0,0-.77.24L42,55l-.12.06a4.58,4.58,0,0,0-2.37,2.67A5.35,5.35,0,0,0,39.2,59.16Z"/><rect class="cls-2" x="45.1" y="54.19" width="0.53" height="2.29" transform="translate(-7.94 7.6) rotate(-8.81)"/><rect class="cls-2" x="40.49" y="55.07" width="2.3" height="0.53" transform="translate(-20.16 86.59) rotate(-79.86)"/><path class="cls-2" d="M42.87,58.79H39.75v-.26A3.49,3.49,0,0,1,40.2,57l.46.26a4.12,4.12,0,0,0-.38,1h2.59Z"/><path class="cls-1" d="M48.16,59.43H38.88s-.42,0-.41.66H48.56C48.57,59.45,48.16,59.43,48.16,59.43Z"/><path class="cls-2" d="M48.83,60.36H38.2v-.27c0-.71.44-.92.67-.93h9.3c.23,0,.67.22.66.93Zm-10-.54h9.48a.18.18,0,0,0-.12-.12H38.9S38.81,59.74,38.78,59.82Z"/><path class="cls-1" d="M67.47,60.67v-.44a4,4,0,0,0-8,0v.44c-.42,0-.77.49-.77,1.1s.35,1.09.77,1.09h0a4,4,0,0,0,8,0h0c.42,0,.77-.49.77-1.09S67.89,60.67,67.47,60.67Z"/><path class="cls-2" d="M63.46,66.59a4.28,4.28,0,0,1-4.21-3.49,1.29,1.29,0,0,1-.84-1.33,1.33,1.33,0,0,1,.77-1.32v-.22a4.28,4.28,0,0,1,8.56,0v.22a1.34,1.34,0,0,1,.77,1.32,1.3,1.3,0,0,1-.85,1.33A4.28,4.28,0,0,1,63.46,66.59Zm-4-4a.27.27,0,0,1,.27.23,3.74,3.74,0,0,0,7.42,0,.26.26,0,0,1,.28-.23h0c.27,0,.5-.39.5-.82s-.23-.83-.5-.83a.27.27,0,0,1-.27-.27v-.44a3.75,3.75,0,0,0-7.49,0v.44a.27.27,0,0,1-.27.27c-.27,0-.5.39-.5.83s.23.82.5.82h0Z"/><path class="cls-3" d="M72.18,71a3,3,0,0,0-2.26-2.39l-4.67-1.11V65.92a4,4,0,0,1-3.59,0v1.55L57,68.58A3,3,0,0,0,54.73,71l-.66,3.76H72.84Z"/><path class="cls-2" d="M72.84,75H54.07a.28.28,0,0,1-.21-.1.27.27,0,0,1-.06-.21l.67-3.77v0a3.27,3.27,0,0,1,2.47-2.58l4.45-1.06V65.92a.26.26,0,0,1,.13-.23.27.27,0,0,1,.26,0,3.74,3.74,0,0,0,1.68.4,3.7,3.7,0,0,0,1.67-.4.27.27,0,0,1,.39.24v1.34L70,68.32a3.25,3.25,0,0,1,2.47,2.58v0l.66,3.77a.27.27,0,0,1-.06.21A.28.28,0,0,1,72.84,75Zm-18.45-.53H72.53L71.92,71a2.73,2.73,0,0,0-2-2.18h0l-4.66-1.11a.27.27,0,0,1-.2-.26V66.33a4.19,4.19,0,0,1-1.53.28,4.12,4.12,0,0,1-1.53-.28v1.14a.28.28,0,0,1-.21.26l-4.66,1.11h0A2.73,2.73,0,0,0,55,71Z"/><polygon class="cls-3" points="61.58 67.4 59.82 67.82 61.85 70.3 63.34 68.48 61.58 67.4"/><path class="cls-2" d="M61.85,70.57a.26.26,0,0,1-.2-.1l-2-2.48a.28.28,0,0,1,0-.25.29.29,0,0,1,.19-.18l1.76-.42a.28.28,0,0,1,.2,0l1.76,1.08a.23.23,0,0,1,.12.18.23.23,0,0,1-.05.21l-1.49,1.82a.28.28,0,0,1-.21.1ZM60.3,68l1.55,1.9,1.09-1.33-1.41-.86Z"/><polygon class="cls-3" points="65.34 67.42 67.09 67.84 65.07 70.3 63.34 68.48 65.34 67.42"/><path class="cls-2" d="M65.07,70.57a.25.25,0,0,1-.19-.09l-1.73-1.81a.25.25,0,0,1-.07-.23.25.25,0,0,1,.14-.19l2-1.07a.22.22,0,0,1,.18,0l1.75.42a.27.27,0,0,1,.19.17.27.27,0,0,1,0,.26l-2,2.46a.3.3,0,0,1-.2.1Zm-1.29-2,1.27,1.35L66.61,68l-1.23-.3Z"/><polygon class="cls-1" points="63.98 55.77 63.8 53.54 63.46 53.54 63.11 53.54 62.93 55.77 63.98 55.77"/><path class="cls-2" d="M64.27,56H62.64l.23-2.77h1.18Zm-1-.54h.47l-.14-1.7h-.19Z"/><path class="cls-3" d="M68,59.43a5.13,5.13,0,0,0-1.83-4,4.3,4.3,0,0,0-1-.6l-.1-.65a4,4,0,0,0-1.3-.37L64,55.77h-1l.16-1.94a3.48,3.48,0,0,0-1.31.38l-.11.65a4.8,4.8,0,0,0-2.51,2.82,5.22,5.22,0,0,0-.29,1.75H68"/><path class="cls-2" d="M68.31,59.7H58.6v-.27a5.43,5.43,0,0,1,.31-1.84,5.14,5.14,0,0,1,2.52-2.92l.11-.63.11-.06a3.46,3.46,0,0,1,1.41-.41l.32,0-.16,2h.47l-.16-2,.32,0a4.56,4.56,0,0,1,1.39.38l.13.06.1.65a5,5,0,0,1,.91.58,5.43,5.43,0,0,1,1.93,4.18Zm-9.17-.54h8.63A4.84,4.84,0,0,0,66,55.67a3.74,3.74,0,0,0-.92-.57L65,55l-.1-.65a5.28,5.28,0,0,0-.77-.24L64.27,56H62.64l.15-1.9a3.74,3.74,0,0,0-.77.24L61.9,55l-.12.06a4.58,4.58,0,0,0-2.37,2.67A5.35,5.35,0,0,0,59.14,59.16Z"/><rect class="cls-2" x="65.04" y="54.19" width="0.53" height="2.29" transform="translate(-7.71 10.66) rotate(-8.81)"/><rect class="cls-2" x="60.43" y="55.07" width="2.3" height="0.53" transform="translate(-3.73 106.22) rotate(-79.86)"/><path class="cls-2" d="M62.81,58.79H59.69v-.26A3.49,3.49,0,0,1,60.14,57l.46.26a4.12,4.12,0,0,0-.38,1h2.59Z"/><path class="cls-1" d="M68.1,59.43H58.82s-.42,0-.41.66H68.5C68.51,59.45,68.1,59.43,68.1,59.43Z"/><path class="cls-2" d="M68.77,60.36H58.14v-.27c0-.71.44-.92.67-.93h9.3c.23,0,.67.22.66.93Zm-10-.54H68.2a.18.18,0,0,0-.12-.12H58.84Q58.77,59.7,58.72,59.82Z"/></svg>