<svg id="Layer_1" data-name="Layer 1" xmlns="http://www.w3.org/2000/svg" xmlns:xlink="http://www.w3.org/1999/xlink" viewBox="0 0 100 100"><defs><style>.cls-1{fill:none;}.cls-2{clip-path:url(#clip-path);}.cls-3{fill:#faa819;}.cls-4{fill:#faa919;}.cls-5{fill:#faaa19;}.cls-6{fill:#faab19;}.cls-7{fill:#faac19;}.cls-8{fill:#faad1a;}.cls-9{fill:#faae1a;}.cls-10{fill:#faaf1a;}.cls-11{fill:#fab01a;}.cls-12{fill:#fab11a;}.cls-13{fill:#fab21a;}.cls-14{fill:#fab31a;}.cls-15{fill:#fab41a;}.cls-16{fill:#fab51b;}.cls-17{fill:#fab61b;}.cls-18{fill:#fab71b;}.cls-19{fill:#fab81b;}.cls-20{fill:#fab91b;}.cls-21{fill:#faba1b;}.cls-22{fill:#fabb1b;}.cls-23{fill:#fabc1b;}.cls-24{fill:#fabd1b;}.cls-25{fill:#fabe1c;}.cls-26{fill:#fabf1c;}.cls-27{fill:#fac01c;}.cls-28{fill:#fac11c;}.cls-29{fill:#fac21c;}.cls-30{fill:#fac31c;}.cls-31{fill:#fac41c;}.cls-32{fill:#fac51c;}.cls-33{fill:#fac61d;}.cls-34{fill:#fac71d;}.cls-35{fill:#fac81d;}.cls-36{fill:#fac91d;}.cls-37{fill:#fbcb1d;}.cls-38{fill:#fbcc1d;}.cls-39{fill:#fbcd1d;}.cls-40{fill:#fbce1d;}.cls-41{fill:#fbcf1d;}.cls-42{fill:#fbd01e;}.cls-43{fill:#fbd11e;}.cls-44{fill:#fbd21e;}.cls-45{fill:#fbd31e;}.cls-46{fill:#fbd41e;}.cls-47{fill:#fbd51e;}.cls-48{fill:#fbd61e;}.cls-49{fill:#fbd71e;}.cls-50{fill:#fbd81f;}.cls-51{fill:#fbd91f;}.cls-52{fill:#fbda1f;}.cls-53{fill:#fbdb1f;}.cls-54{fill:#fbdc1f;}.cls-55{fill:#fbdd1f;}.cls-56{fill:#fbde1f;}.cls-57{fill:#fbdf1f;}.cls-58{fill:#fbe01f;}.cls-59{fill:#fbe120;}.cls-60{fill:#fbe220;}.cls-61{fill:#fbe320;}.cls-62{fill:#fbe420;}.cls-63{fill:#fbe520;}.cls-64{fill:#fbe620;}.cls-65{fill:#fbe720;}.cls-66{fill:#fbe820;}.cls-67{fill:#fbe921;}.cls-68{fill:#fbea21;}.cls-69{fill:#fbeb21;}.cls-70{fill:#fbec21;}.cls-71{fill:#fbed21;}.cls-72{fill:#fff;}.cls-73{clip-path:url(#clip-path-2);}.cls-74{fill:#0db04b;}.cls-75{fill:#0daf4b;}.cls-76{fill:#0dae4c;}.cls-77{fill:#0cad4c;}.cls-78{fill:#0cac4d;}.cls-79{fill:#0cab4d;}.cls-80{fill:#0caa4e;}.cls-81{fill:#0ca94e;}.cls-82{fill:#0ca84e;}.cls-83{fill:#0ba74f;}.cls-84{fill:#0ba64f;}.cls-85{fill:#0ba550;}.cls-86{fill:#0ba450;}.cls-87{fill:#0ba350;}.cls-88{fill:#0aa251;}.cls-89{fill:#0aa151;}.cls-90{fill:#0aa052;}.cls-91{fill:#0a9f52;}.cls-92{fill:#0a9e53;}.cls-93{fill:#0a9d53;}.cls-94{fill:#099c53;}.cls-95{fill:#099b54;}.cls-96{fill:#099a54;}.cls-97{fill:#099955;}.cls-98{fill:#099855;}.cls-99{fill:#089755;}.cls-100{fill:#089656;}.cls-101{fill:#089556;}.cls-102{fill:#089457;}.cls-103{fill:#089357;}.cls-104{fill:#089258;}.cls-105{fill:#079158;}.cls-106{fill:#079058;}.cls-107{fill:#078f59;}.cls-108{fill:#078e59;}.cls-109{fill:#078d5a;}.cls-110{fill:#078c5a;}.cls-111{fill:#068a5a;}.cls-112{fill:#06895b;}.cls-113{fill:#06885b;}.cls-114{fill:#06875c;}.cls-115{fill:#06865c;}.cls-116{fill:#05855d;}.cls-117{fill:#05845d;}.cls-118{fill:#05835d;}.cls-119{fill:#05825e;}.cls-120{fill:#05815e;}.cls-121{fill:#05805f;}.cls-122{fill:#047f5f;}.cls-123{fill:#047e5f;}.cls-124{fill:#047d60;}.cls-125{fill:#047c60;}.cls-126{fill:#047b61;}.cls-127{fill:#037a61;}.cls-128{fill:#037962;}.cls-129{fill:#037862;}.cls-130{fill:#037762;}.cls-131{fill:#037663;}.cls-132{fill:#037563;}.cls-133{fill:#027464;}.cls-134{fill:#027364;}.cls-135{fill:#027264;}.cls-136{fill:#027165;}.cls-137{fill:#027065;}.cls-138{fill:#016f66;}.cls-139{fill:#016e66;}.cls-140{fill:#016d67;}.cls-141{fill:#016c67;}.cls-142{fill:#016b67;}.cls-143{fill:#016a68;}.cls-144{fill:#006968;}.cls-145{fill:#006869;}.cls-146{fill:#006769;}.cls-147{clip-path:url(#clip-path-3);}</style><clipPath id="clip-path"><circle class="cls-1" cx="47.82" cy="48.67" r="19.98"/></clipPath><clipPath id="clip-path-2"><path class="cls-1" d="M46.77,59.89,72.55,33.21a1,1,0,0,0-1.26-1.51L46.72,48.41a1,1,0,0,1-1.16,0l-10.92-8.5a1,1,0,0,0-1.44,1.31l12,18.56A1,1,0,0,0,46.77,59.89Z"/></clipPath><clipPath id="clip-path-3"><path class="cls-1" d="M46.76,58.57l24.16-25a.11.11,0,0,0-.15-.17l-24,16.36a.78.78,0,0,1-.9,0L34.41,40.82a.12.12,0,0,0-.17.15L45.58,58.45A.76.76,0,0,0,46.76,58.57Z"/></clipPath></defs><g class="cls-2"><rect class="cls-3" x="27.84" y="28.69" width="0.58" height="39.95"/><rect class="cls-4" x="28.42" y="28.69" width="0.58" height="39.95"/><rect class="cls-5" x="29" y="28.69" width="0.58" height="39.95"/><rect class="cls-6" x="29.58" y="28.69" width="0.58" height="39.95"/><rect class="cls-7" x="30.16" y="28.69" width="0.58" height="39.95"/><rect class="cls-8" x="30.74" y="28.69" width="0.58" height="39.95"/><rect class="cls-9" x="31.31" y="28.69" width="0.58" height="39.95"/><rect class="cls-10" x="31.89" y="28.69" width="0.58" height="39.95"/><rect class="cls-11" x="32.47" y="28.69" width="0.58" height="39.95"/><rect class="cls-12" x="33.05" y="28.69" width="0.58" height="39.95"/><rect class="cls-13" x="33.63" y="28.69" width="0.58" height="39.95"/><rect class="cls-14" x="34.21" y="28.69" width="0.58" height="39.95"/><rect class="cls-15" x="34.79" y="28.69" width="0.58" height="39.95"/><rect class="cls-16" x="35.37" y="28.69" width="0.58" height="39.95"/><rect class="cls-17" x="35.95" y="28.69" width="0.58" height="39.95"/><rect class="cls-18" x="36.53" y="28.69" width="0.58" height="39.95"/><rect class="cls-19" x="37.1" y="28.69" width="0.58" height="39.95"/><rect class="cls-20" x="37.68" y="28.69" width="0.58" height="39.95"/><rect class="cls-21" x="38.26" y="28.69" width="0.58" height="39.95"/><rect class="cls-22" x="38.84" y="28.69" width="0.58" height="39.95"/><rect class="cls-23" x="39.42" y="28.69" width="0.58" height="39.95"/><rect class="cls-24" x="40" y="28.69" width="0.58" height="39.95"/><rect class="cls-25" x="40.58" y="28.69" width="0.58" height="39.95"/><rect class="cls-26" x="41.16" y="28.69" width="0.58" height="39.95"/><rect class="cls-27" x="41.74" y="28.69" width="0.58" height="39.95"/><rect class="cls-28" x="42.32" y="28.69" width="0.58" height="39.95"/><rect class="cls-29" x="42.89" y="28.69" width="0.58" height="39.95"/><rect class="cls-30" x="43.47" y="28.69" width="0.58" height="39.95"/><rect class="cls-31" x="44.05" y="28.69" width="0.58" height="39.95"/><rect class="cls-32" x="44.63" y="28.69" width="0.58" height="39.95"/><rect class="cls-33" x="45.21" y="28.69" width="0.58" height="39.95"/><rect class="cls-34" x="45.79" y="28.69" width="0.58" height="39.95"/><rect class="cls-35" x="46.37" y="28.69" width="0.58" height="39.95"/><rect class="cls-36" x="46.95" y="28.69" width="0.58" height="39.95"/><rect class="cls-37" x="47.53" y="28.69" width="0.58" height="39.95"/><rect class="cls-38" x="48.11" y="28.69" width="0.58" height="39.95"/><rect class="cls-39" x="48.68" y="28.69" width="0.58" height="39.95"/><rect class="cls-40" x="49.26" y="28.69" width="0.58" height="39.95"/><rect class="cls-41" x="49.84" y="28.69" width="0.58" height="39.95"/><rect class="cls-42" x="50.42" y="28.69" width="0.58" height="39.95"/><rect class="cls-43" x="51" y="28.69" width="0.58" height="39.95"/><rect class="cls-44" x="51.58" y="28.69" width="0.58" height="39.95"/><rect class="cls-45" x="52.16" y="28.69" width="0.58" height="39.95"/><rect class="cls-46" x="52.74" y="28.69" width="0.58" height="39.95"/><rect class="cls-47" x="53.32" y="28.69" width="0.58" height="39.95"/><rect class="cls-48" x="53.9" y="28.69" width="0.58" height="39.95"/><rect class="cls-49" x="54.47" y="28.69" width="0.58" height="39.95"/><rect class="cls-50" x="55.05" y="28.69" width="0.58" height="39.95"/><rect class="cls-51" x="55.63" y="28.69" width="0.58" height="39.95"/><rect class="cls-52" x="56.21" y="28.69" width="0.58" height="39.95"/><rect class="cls-53" x="56.79" y="28.69" width="0.58" height="39.95"/><rect class="cls-54" x="57.37" y="28.69" width="0.58" height="39.95"/><rect class="cls-55" x="57.95" y="28.69" width="0.58" height="39.95"/><rect class="cls-56" x="58.53" y="28.69" width="0.58" height="39.95"/><rect class="cls-57" x="59.11" y="28.69" width="0.58" height="39.95"/><rect class="cls-58" x="59.69" y="28.69" width="0.58" height="39.95"/><rect class="cls-59" x="60.26" y="28.69" width="0.58" height="39.95"/><rect class="cls-60" x="60.84" y="28.69" width="0.58" height="39.95"/><rect class="cls-61" x="61.42" y="28.69" width="0.58" height="39.95"/><rect class="cls-62" x="62" y="28.69" width="0.58" height="39.95"/><rect class="cls-63" x="62.58" y="28.69" width="0.58" height="39.95"/><rect class="cls-64" x="63.16" y="28.69" width="0.58" height="39.95"/><rect class="cls-65" x="63.74" y="28.69" width="0.58" height="39.95"/><rect class="cls-66" x="64.32" y="28.69" width="0.58" height="39.95"/><rect class="cls-67" x="64.9" y="28.69" width="0.58" height="39.95"/><rect class="cls-68" x="65.48" y="28.69" width="0.58" height="39.95"/><rect class="cls-69" x="66.05" y="28.69" width="0.58" height="39.95"/><rect class="cls-70" x="66.63" y="28.69" width="0.58" height="39.95"/><rect class="cls-71" x="67.21" y="28.69" width="0.58" height="39.95"/></g><path class="cls-72" d="M47.82,67.3A18.64,18.64,0,1,1,66.45,48.67,18.66,18.66,0,0,1,47.82,67.3Zm0-36.9A18.27,18.27,0,1,0,66.08,48.67,18.28,18.28,0,0,0,47.82,30.4Z"/><g class="cls-73"><rect class="cls-74" x="32.59" y="31.04" width="0.44" height="29.31"/><rect class="cls-74" x="33.03" y="31.04" width="0.55" height="29.31"/><rect class="cls-75" x="33.58" y="31.04" width="0.55" height="29.31"/><rect class="cls-76" x="34.12" y="31.04" width="0.55" height="29.31"/><rect class="cls-77" x="34.67" y="31.04" width="0.55" height="29.31"/><rect class="cls-78" x="35.21" y="31.04" width="0.55" height="29.31"/><rect class="cls-79" x="35.76" y="31.04" width="0.55" height="29.31"/><rect class="cls-80" x="36.3" y="31.04" width="0.55" height="29.31"/><rect class="cls-81" x="36.85" y="31.04" width="0.55" height="29.31"/><rect class="cls-82" x="37.39" y="31.04" width="0.55" height="29.31"/><rect class="cls-83" x="37.94" y="31.04" width="0.55" height="29.31"/><rect class="cls-84" x="38.49" y="31.04" width="0.55" height="29.31"/><rect class="cls-85" x="39.03" y="31.04" width="0.55" height="29.31"/><rect class="cls-86" x="39.58" y="31.04" width="0.55" height="29.31"/><rect class="cls-87" x="40.12" y="31.04" width="0.55" height="29.31"/><rect class="cls-88" x="40.67" y="31.04" width="0.55" height="29.31"/><rect class="cls-89" x="41.21" y="31.04" width="0.55" height="29.31"/><rect class="cls-90" x="41.76" y="31.04" width="0.55" height="29.31"/><rect class="cls-91" x="42.3" y="31.04" width="0.55" height="29.31"/><rect class="cls-92" x="42.85" y="31.04" width="0.55" height="29.31"/><rect class="cls-93" x="43.39" y="31.04" width="0.55" height="29.31"/><rect class="cls-94" x="43.94" y="31.04" width="0.55" height="29.31"/><rect class="cls-95" x="44.48" y="31.04" width="0.55" height="29.31"/><rect class="cls-96" x="45.03" y="31.04" width="0.55" height="29.31"/><rect class="cls-97" x="45.57" y="31.04" width="0.55" height="29.31"/><rect class="cls-98" x="46.12" y="31.04" width="0.55" height="29.31"/><rect class="cls-99" x="46.67" y="31.04" width="0.55" height="29.31"/><rect class="cls-100" x="47.21" y="31.04" width="0.55" height="29.31"/><rect class="cls-101" x="47.76" y="31.04" width="0.55" height="29.31"/><rect class="cls-102" x="48.3" y="31.04" width="0.55" height="29.31"/><rect class="cls-103" x="48.85" y="31.04" width="0.55" height="29.31"/><rect class="cls-104" x="49.39" y="31.04" width="0.55" height="29.31"/><rect class="cls-105" x="49.94" y="31.04" width="0.55" height="29.31"/><rect class="cls-106" x="50.48" y="31.04" width="0.55" height="29.31"/><rect class="cls-107" x="51.03" y="31.04" width="0.55" height="29.31"/><rect class="cls-108" x="51.57" y="31.04" width="0.55" height="29.31"/><rect class="cls-109" x="52.12" y="31.04" width="0.55" height="29.31"/><rect class="cls-110" x="52.66" y="31.04" width="0.55" height="29.31"/><rect class="cls-111" x="53.21" y="31.04" width="0.55" height="29.31"/><rect class="cls-112" x="53.75" y="31.04" width="0.55" height="29.31"/><rect class="cls-113" x="54.3" y="31.04" width="0.55" height="29.31"/><rect class="cls-114" x="54.84" y="31.04" width="0.55" height="29.31"/><rect class="cls-115" x="55.39" y="31.04" width="0.55" height="29.31"/><rect class="cls-116" x="55.94" y="31.04" width="0.55" height="29.31"/><rect class="cls-117" x="56.48" y="31.04" width="0.55" height="29.31"/><rect class="cls-118" x="57.03" y="31.04" width="0.55" height="29.31"/><rect class="cls-119" x="57.57" y="31.04" width="0.55" height="29.31"/><rect class="cls-120" x="58.12" y="31.04" width="0.55" height="29.31"/><rect class="cls-121" x="58.66" y="31.04" width="0.55" height="29.31"/><rect class="cls-122" x="59.21" y="31.04" width="0.55" height="29.31"/><rect class="cls-123" x="59.75" y="31.04" width="0.55" height="29.31"/><rect class="cls-124" x="60.3" y="31.04" width="0.55" height="29.31"/><rect class="cls-125" x="60.84" y="31.04" width="0.55" height="29.31"/><rect class="cls-126" x="61.39" y="31.04" width="0.55" height="29.31"/><rect class="cls-127" x="61.93" y="31.04" width="0.55" height="29.31"/><rect class="cls-128" x="62.48" y="31.04" width="0.55" height="29.31"/><rect class="cls-129" x="63.02" y="31.04" width="0.55" height="29.31"/><rect class="cls-130" x="63.57" y="31.04" width="0.55" height="29.31"/><rect class="cls-131" x="64.12" y="31.04" width="0.55" height="29.31"/><rect class="cls-132" x="64.66" y="31.04" width="0.55" height="29.31"/><rect class="cls-133" x="65.21" y="31.04" width="0.55" height="29.31"/><rect class="cls-134" x="65.75" y="31.04" width="0.55" height="29.31"/><rect class="cls-135" x="66.3" y="31.04" width="0.55" height="29.31"/><rect class="cls-136" x="66.84" y="31.04" width="0.55" height="29.31"/><rect class="cls-137" x="67.39" y="31.04" width="0.55" height="29.31"/><rect class="cls-138" x="67.93" y="31.04" width="0.55" height="29.31"/><rect class="cls-139" x="68.48" y="31.04" width="0.55" height="29.31"/><rect class="cls-140" x="69.02" y="31.04" width="0.55" height="29.31"/><rect class="cls-141" x="69.57" y="31.04" width="0.55" height="29.31"/><rect class="cls-142" x="70.11" y="31.04" width="0.55" height="29.31"/><rect class="cls-143" x="70.66" y="31.04" width="0.55" height="29.31"/><rect class="cls-144" x="71.2" y="31.04" width="0.55" height="29.31"/><rect class="cls-145" x="71.75" y="31.04" width="0.55" height="29.31"/><rect class="cls-146" x="72.29" y="31.04" width="0.55" height="29.31"/><rect class="cls-146" x="72.84" y="31.04" width="0.54" height="29.31"/></g><g class="cls-147"><rect class="cls-74" x="34.17" y="33.3" width="0.05" height="25.62"/><rect class="cls-74" x="34.22" y="33.3" width="0.5" height="25.62"/><rect class="cls-75" x="34.72" y="33.3" width="0.5" height="25.62"/><rect class="cls-76" x="35.23" y="33.3" width="0.5" height="25.62"/><rect class="cls-77" x="35.73" y="33.3" width="0.5" height="25.62"/><rect class="cls-78" x="36.23" y="33.3" width="0.5" height="25.62"/><rect class="cls-79" x="36.74" y="33.3" width="0.5" height="25.62"/><rect class="cls-80" x="37.24" y="33.3" width="0.5" height="25.62"/><rect class="cls-81" x="37.74" y="33.3" width="0.5" height="25.62"/><rect class="cls-82" x="38.25" y="33.3" width="0.5" height="25.62"/><rect class="cls-83" x="38.75" y="33.3" width="0.5" height="25.62"/><rect class="cls-84" x="39.25" y="33.3" width="0.5" height="25.62"/><rect class="cls-85" x="39.76" y="33.3" width="0.5" height="25.62"/><rect class="cls-86" x="40.26" y="33.3" width="0.5" height="25.62"/><rect class="cls-87" x="40.76" y="33.3" width="0.5" height="25.62"/><rect class="cls-88" x="41.27" y="33.3" width="0.5" height="25.62"/><rect class="cls-89" x="41.77" y="33.3" width="0.5" height="25.62"/><rect class="cls-90" x="42.27" y="33.3" width="0.5" height="25.62"/><rect class="cls-91" x="42.78" y="33.3" width="0.5" height="25.62"/><rect class="cls-92" x="43.28" y="33.3" width="0.5" height="25.62"/><rect class="cls-93" x="43.78" y="33.3" width="0.5" height="25.62"/><rect class="cls-94" x="44.29" y="33.3" width="0.5" height="25.62"/><rect class="cls-95" x="44.79" y="33.3" width="0.5" height="25.62"/><rect class="cls-96" x="45.29" y="33.3" width="0.5" height="25.62"/><rect class="cls-97" x="45.79" y="33.3" width="0.5" height="25.62"/><rect class="cls-98" x="46.3" y="33.3" width="0.5" height="25.62"/><rect class="cls-99" x="46.8" y="33.3" width="0.5" height="25.62"/><rect class="cls-100" x="47.3" y="33.3" width="0.5" height="25.62"/><rect class="cls-101" x="47.81" y="33.3" width="0.5" height="25.62"/><rect class="cls-102" x="48.31" y="33.3" width="0.5" height="25.62"/><rect class="cls-103" x="48.81" y="33.3" width="0.5" height="25.62"/><rect class="cls-104" x="49.32" y="33.3" width="0.5" height="25.62"/><rect class="cls-105" x="49.82" y="33.3" width="0.5" height="25.62"/><rect class="cls-106" x="50.32" y="33.3" width="0.5" height="25.62"/><rect class="cls-107" x="50.83" y="33.3" width="0.5" height="25.62"/><rect class="cls-108" x="51.33" y="33.3" width="0.5" height="25.62"/><rect class="cls-109" x="51.83" y="33.3" width="0.5" height="25.62"/><rect class="cls-110" x="52.34" y="33.3" width="0.5" height="25.62"/><rect class="cls-111" x="52.84" y="33.3" width="0.5" height="25.62"/><rect class="cls-112" x="53.34" y="33.3" width="0.5" height="25.62"/><rect class="cls-113" x="53.85" y="33.3" width="0.5" height="25.62"/><rect class="cls-114" x="54.35" y="33.3" width="0.5" height="25.62"/><rect class="cls-115" x="54.85" y="33.3" width="0.5" height="25.62"/><rect class="cls-116" x="55.36" y="33.3" width="0.5" height="25.62"/><rect class="cls-117" x="55.86" y="33.3" width="0.5" height="25.62"/><rect class="cls-118" x="56.36" y="33.3" width="0.5" height="25.62"/><rect class="cls-119" x="56.87" y="33.3" width="0.5" height="25.62"/><rect class="cls-120" x="57.37" y="33.3" width="0.5" height="25.62"/><rect class="cls-121" x="57.87" y="33.3" width="0.5" height="25.62"/><rect class="cls-122" x="58.38" y="33.3" width="0.5" height="25.62"/><rect class="cls-123" x="58.88" y="33.3" width="0.5" height="25.62"/><rect class="cls-124" x="59.38" y="33.3" width="0.5" height="25.62"/><rect class="cls-125" x="59.89" y="33.3" width="0.5" height="25.62"/><rect class="cls-126" x="60.39" y="33.3" width="0.5" height="25.62"/><rect class="cls-127" x="60.89" y="33.3" width="0.5" height="25.62"/><rect class="cls-128" x="61.4" y="33.3" width="0.5" height="25.62"/><rect class="cls-129" x="61.9" y="33.3" width="0.5" height="25.62"/><rect class="cls-130" x="62.4" y="33.3" width="0.5" height="25.62"/><rect class="cls-131" x="62.91" y="33.3" width="0.5" height="25.62"/><rect class="cls-132" x="63.41" y="33.3" width="0.5" height="25.62"/><rect class="cls-133" x="63.91" y="33.3" width="0.5" height="25.62"/><rect class="cls-134" x="64.42" y="33.3" width="0.5" height="25.62"/><rect class="cls-135" x="64.92" y="33.3" width="0.5" height="25.62"/><rect class="cls-136" x="65.42" y="33.3" width="0.5" height="25.62"/><rect class="cls-137" x="65.92" y="33.3" width="0.5" height="25.62"/><rect class="cls-138" x="66.43" y="33.3" width="0.5" height="25.62"/><rect class="cls-139" x="66.93" y="33.3" width="0.5" height="25.62"/><rect class="cls-140" x="67.43" y="33.3" width="0.5" height="25.62"/><rect class="cls-141" x="67.94" y="33.3" width="0.5" height="25.62"/><rect class="cls-142" x="68.44" y="33.3" width="0.5" height="25.62"/><rect class="cls-143" x="68.94" y="33.3" width="0.5" height="25.62"/><rect class="cls-144" x="69.45" y="33.3" width="0.5" height="25.62"/><rect class="cls-145" x="69.95" y="33.3" width="0.5" height="25.62"/><rect class="cls-146" x="70.45" y="33.3" width="0.5" height="25.62"/><rect class="cls-146" x="70.96" y="33.3" width="0.06" height="25.62"/></g><path class="cls-72" d="M46.22,59h-.1a1,1,0,0,1-.7-.43L34.09,41.07a.28.28,0,0,1,0-.38.3.3,0,0,1,.39,0l11.42,8.89a.54.54,0,0,0,.67,0L70.67,33.22a.31.31,0,0,1,.4.06.3.3,0,0,1,0,.4l-24.17,25A.92.92,0,0,1,46.22,59ZM34.61,41.21,45.73,58.35a.58.58,0,0,0,.9.09L70.34,33.89l-23.52,16a1,1,0,0,1-1.11,0Z"/></svg>