<svg id="Layer_1" data-name="Layer 1" xmlns="http://www.w3.org/2000/svg" viewBox="0 0 100 100"><defs><style>.cls-1{fill:#808285;}</style></defs><path class="cls-1" d="M53.83,58.4a1.68,1.68,0,0,0-.54-.35,2,2,0,0,0-.71-.13,2.05,2.05,0,0,0-.72.13,1.68,1.68,0,0,0-.54.35,1.65,1.65,0,0,0-.35.51,1.75,1.75,0,0,0-.12.65,1.58,1.58,0,0,0,.47,1.16,1.66,1.66,0,0,0,.54.34,2.05,2.05,0,0,0,.72.12,2,2,0,0,0,.71-.12,1.66,1.66,0,0,0,.54-.34,1.54,1.54,0,0,0,.35-.52,1.69,1.69,0,0,0,.12-.64,1.75,1.75,0,0,0-.12-.65A1.5,1.5,0,0,0,53.83,58.4Z"/><path class="cls-1" d="M55.78,46.4a4.28,4.28,0,0,0-1.53-.79,6.35,6.35,0,0,0-1.89-.26,6.86,6.86,0,0,0-2,.27,4.36,4.36,0,0,0-1.49.81,3.55,3.55,0,0,0-.93,1.31,4.71,4.71,0,0,0-.32,1.78,3.54,3.54,0,0,0,.21,1.26,4.12,4.12,0,0,0,.58,1.07,7.3,7.3,0,0,0,.83,1c.31.31.64.62,1,.94a3.6,3.6,0,0,1,.5.56,2.52,2.52,0,0,1,.32.58,2.7,2.7,0,0,1,.17.65c0,.23,0,.48.06.76H54a10,10,0,0,0-.08-1.3,4.29,4.29,0,0,0-.27-1,3.7,3.7,0,0,0-.5-.89,5.3,5.3,0,0,0-.77-.83c-.24-.21-.46-.42-.67-.62a4.92,4.92,0,0,1-.53-.61,2.42,2.42,0,0,1-.34-.63,2,2,0,0,1-.13-.72,1.88,1.88,0,0,1,.42-1.35,1.62,1.62,0,0,1,1.24-.45A2.05,2.05,0,0,1,53,48a1.74,1.74,0,0,1,.56.32,1.69,1.69,0,0,1,.39.57,2.27,2.27,0,0,1,.16.83h3.09a4.54,4.54,0,0,0-.4-1.93A3.77,3.77,0,0,0,55.78,46.4Z"/><path class="cls-1" d="M64.28,42.61s0,0,0,0a.44.44,0,0,0-.11-.2l-8.38-8.19a.44.44,0,0,0-.19-.1H41.06a1.2,1.2,0,0,0-1.21,1.19V65.16a1.2,1.2,0,0,0,1.21,1.19h22a1.2,1.2,0,0,0,1.21-1.19V42.67S64.28,42.63,64.28,42.61Zm-1.47-.37h-6.9V35.49l5.82,5.69Zm.27,23.26h-22a.34.34,0,0,1-.35-.34V35.24a.34.34,0,0,1,.35-.34h14v7.77a.43.43,0,0,0,.43.43h8V65.16A.35.35,0,0,1,63.08,65.5Z"/></svg>