<svg id="Layer_1" data-name="Layer 1" xmlns="http://www.w3.org/2000/svg" viewBox="0 0 100 100"><defs><style>.cls-1{fill:#ffca05;}.cls-2,.cls-3{fill:#fff;}.cls-2{opacity:0.2;}.cls-4{fill:#d1d2d3;}.cls-5{fill:#414141;}.cls-6{fill:#6d6f70;}</style></defs><circle class="cls-1" cx="50" cy="50" r="28.65"/><path class="cls-2" d="M78.65,50A28.5,28.5,0,0,0,76,37.86a37,37,0,0,0-36.19,37c0,.65,0,1.29,0,1.93A28.67,28.67,0,0,0,78.65,50Z"/><polygon class="cls-3" points="56.52 27.31 41.4 27.31 41.4 30.18 38.35 30.18 38.35 33.15 35.44 33.15 35.44 36.15 32.4 36.15 32.4 67.89 56.14 67.89 56.14 65.04 59.06 65.04 59.06 61.66 61.8 58.93 64.98 58.93 64.98 35.45 56.52 35.45 56.52 27.31"/><polygon class="cls-4" points="56.52 27.31 65.02 35.8 65.19 35.64 56.52 35.64 56.52 27.31"/><path class="cls-1" d="M54.84,45.81a8.45,8.45,0,1,0,8.44,8.45A8.44,8.44,0,0,0,54.84,45.81Zm0,14.91a6.47,6.47,0,1,1,6.47-6.46A6.46,6.46,0,0,1,54.84,60.72Z"/><path class="cls-5" d="M59.73,49.38a6.89,6.89,0,1,0,2,4.88A6.85,6.85,0,0,0,59.73,49.38Zm-.84,8.91a5.69,5.69,0,1,1,1.68-4A5.64,5.64,0,0,1,58.89,58.29Z"/><path class="cls-5" d="M71,66.64l-5.49-5.49a.6.6,0,0,0-.84,0l-.14.14-2-2a9.1,9.1,0,1,0-2.67,2.67l2,2-.13.14a.6.6,0,0,0-.18.42.64.64,0,0,0,.18.42l5.49,5.48a.56.56,0,0,0,.42.18.59.59,0,0,0,.42-.18L71,67.48A.6.6,0,0,0,71,66.64Zm-6.7-.81,2.1-2.11.48.48L64.8,66.3Zm1.26-2.94L63.49,65,63,64.52l2.1-2.11Zm-16.36-3a8,8,0,1,1,11.26,0A7.91,7.91,0,0,1,49.23,59.88Zm11.58,1.31a5.68,5.68,0,0,0,.51-.47c.17-.17.33-.34.48-.52l1.92,1.93-1,1Zm6.86,8-2-2L67.75,65l2,2Z"/><path class="cls-6" d="M59.16,63.26a.52.52,0,0,0-.52.52v.54a.26.26,0,0,1-.27.25H36.05a.26.26,0,0,1-.27-.25V34a.26.26,0,0,1,.27-.25h1.68V61.33A1.3,1.3,0,0,0,39,62.62h8.7a.52.52,0,0,0,0-1H39a.28.28,0,0,1-.28-.26V31a.28.28,0,0,1,.28-.26h1.68V58.34A1.3,1.3,0,0,0,42,59.63h3.84a.52.52,0,1,0,0-1H42a.26.26,0,0,1-.27-.26V28a.27.27,0,0,1,.27-.26h14.1v7.79a.52.52,0,0,0,.52.52h8V58.34a.26.26,0,0,1-.27.26.52.52,0,1,0,0,1,1.3,1.3,0,0,0,1.3-1.29V35.56a.34.34,0,0,0,0-.1h0a.56.56,0,0,0,0-.12l0,0a.44.44,0,0,0-.08-.11L57,26.89l-.15-.1-.05,0-.13,0H42A1.3,1.3,0,0,0,40.72,28v1.7H39A1.3,1.3,0,0,0,37.73,31v1.7H36.05A1.29,1.29,0,0,0,34.75,34v1.7H33.07A1.3,1.3,0,0,0,31.76,37V67.3a1.3,1.3,0,0,0,1.31,1.29H55.38a1.3,1.3,0,0,0,1.3-1.29V65.6h1.69a1.29,1.29,0,0,0,1.3-1.28v-.54A.51.51,0,0,0,59.16,63.26Zm-2-34.78,4.17,4.08,2.54,2.49H57.15ZM55.65,67.3a.26.26,0,0,1-.27.26H33.07a.26.26,0,0,1-.28-.26V37a.27.27,0,0,1,.28-.26h1.68V64.32a1.29,1.29,0,0,0,1.3,1.28h19.6Z"/><path class="cls-6" d="M45,53.23h-.34a.52.52,0,0,0-.52.51.53.53,0,0,0,.52.52H45a.52.52,0,0,0,.52-.52A.51.51,0,0,0,45,53.23Z"/><path class="cls-6" d="M45.93,50.22a.51.51,0,0,0-.52-.51h-.79a.52.52,0,1,0,0,1h.79A.52.52,0,0,0,45.93,50.22Z"/><path class="cls-6" d="M48.7,46.7a.51.51,0,0,0-.51-.51H44.62a.52.52,0,1,0,0,1h3.57A.51.51,0,0,0,48.7,46.7Z"/><path class="cls-6" d="M61.74,46.19h-.43a.52.52,0,1,0,0,1h.43a.52.52,0,1,0,0-1Z"/><path class="cls-6" d="M61.74,42.67H44.62a.52.52,0,1,0,0,1H61.74a.52.52,0,1,0,0-1Z"/><path class="cls-6" d="M61.74,39.15H44.62a.53.53,0,0,0-.52.52.52.52,0,0,0,.52.51H61.74a.51.51,0,0,0,.52-.51A.52.52,0,0,0,61.74,39.15Z"/><path class="cls-6" d="M44.62,36.67h10a.52.52,0,0,0,0-1h-10a.52.52,0,1,0,0,1Z"/><path class="cls-6" d="M44.62,33.15h9.63a.52.52,0,0,0,0-1H44.62a.52.52,0,1,0,0,1Z"/></svg>