<svg id="Layer_1" data-name="Layer 1" xmlns="http://www.w3.org/2000/svg" viewBox="0 0 100 100"><defs><style>.cls-1{fill:#636466;}.cls-2{fill:#231f20;}.cls-3{fill:#fec35a;}.cls-4{fill:#f4f4f7;}.cls-5{fill:#f89e53;}.cls-6{fill:#fff;}</style></defs><rect class="cls-1" x="43.69" y="18.28" width="2.49" height="65.8"/><rect class="cls-2" x="44.25" y="18.28" width="1.36" height="65.8"/><rect class="cls-1" x="30.81" y="18.28" width="2.49" height="65.8"/><rect class="cls-2" x="31.37" y="18.28" width="1.36" height="65.8"/><rect class="cls-1" x="56.09" y="18.28" width="2.49" height="65.8"/><rect class="cls-2" x="56.65" y="18.28" width="1.36" height="65.8"/><rect class="cls-1" x="68.49" y="18.28" width="2.49" height="65.8"/><rect class="cls-2" x="69.05" y="18.28" width="1.36" height="65.8"/><rect class="cls-3" x="57.36" y="51.87" width="12.43" height="13.65"/><rect class="cls-4" x="60.67" y="56.13" width="5.82" height="7.86"/><rect class="cls-3" x="69.79" y="51.87" width="12.43" height="13.65"/><rect class="cls-4" x="73.1" y="56.13" width="5.82" height="7.86"/><path class="cls-3" d="M57.36,38.28V51.93H69.79V38.28ZM66.49,50.4H60.67V42.54h5.82Z"/><path class="cls-3" d="M69.79,38.28V51.93H82.22V38.28ZM78.92,50.4H73.1V42.54h5.82Z"/><rect class="cls-5" x="57.36" y="65.52" width="12.43" height="13.65"/><rect class="cls-4" x="60.67" y="69.78" width="5.82" height="7.86"/><rect class="cls-1" x="29.87" y="78.58" width="52.35" height="1.31"/><path class="cls-3" d="M44.94,51.87V65.52H57.36V51.87ZM54.06,64H48.24V56.13h5.82Z"/><rect class="cls-5" x="44.94" y="65.52" width="12.43" height="13.65"/><rect class="cls-2" x="48.24" y="69.78" width="5.82" height="7.86"/><rect class="cls-5" x="69.79" y="65.52" width="12.43" height="13.65"/><rect class="cls-5" x="44.94" y="79.17" width="37.28" height="4.9"/><rect class="cls-2" x="44.94" y="79.17" width="37.28" height="0.6"/><rect class="cls-3" x="73.1" y="69.78" width="5.82" height="7.86"/><rect class="cls-6" x="73.1" y="69.78" width="0.35" height="7.86"/><rect class="cls-6" x="75.83" y="69.78" width="0.35" height="7.86"/><rect class="cls-6" x="78.56" y="69.78" width="0.35" height="7.86"/><rect class="cls-6" x="73.1" y="69.78" width="5.82" height="0.35"/><rect class="cls-6" x="73.1" y="77.29" width="5.82" height="0.35"/><polygon class="cls-6" points="74.66 70.13 73.45 72.81 73.45 74.38 75.43 70.13 74.66 70.13"/><polygon class="cls-6" points="75.83 70.95 73.45 76.09 73.45 76.65 75.83 71.47 75.83 70.95"/><polygon class="cls-6" points="77.4 70.13 76.18 72.81 76.18 74.38 78.16 70.13 77.4 70.13"/><polygon class="cls-6" points="78.56 70.95 76.18 76.09 76.18 76.65 78.56 71.47 78.56 70.95"/><rect class="cls-3" x="54.98" y="78.27" width="7.86" height="5.82"/><rect class="cls-6" x="54.98" y="78.27" width="7.86" height="0.35"/><rect class="cls-6" x="54.98" y="81" width="7.86" height="0.35"/><rect class="cls-6" x="54.98" y="83.73" width="7.86" height="0.35"/><rect class="cls-6" x="62.49" y="78.27" width="0.35" height="5.82"/><rect class="cls-6" x="54.98" y="78.27" width="0.35" height="5.82"/><polygon class="cls-6" points="62.49 79.83 59.81 78.62 58.24 78.62 62.49 80.59 62.49 79.83"/><polygon class="cls-6" points="61.67 81 56.53 78.62 55.97 78.62 61.15 81 61.67 81"/><polygon class="cls-6" points="62.49 82.56 59.81 81.35 58.24 81.35 62.49 83.33 62.49 82.56"/><polygon class="cls-6" points="61.67 83.73 56.53 81.35 55.97 81.35 61.15 83.73 61.67 83.73"/><rect class="cls-3" x="59.28" y="78.27" width="7.86" height="5.82"/><rect class="cls-6" x="59.28" y="78.27" width="7.86" height="0.35"/><rect class="cls-6" x="59.28" y="81" width="7.86" height="0.35"/><rect class="cls-6" x="59.28" y="83.73" width="7.86" height="0.35"/><rect class="cls-6" x="66.79" y="78.27" width="0.35" height="5.82"/><rect class="cls-6" x="59.28" y="78.27" width="0.35" height="5.82"/><polygon class="cls-6" points="66.79 79.83 64.11 78.62 62.54 78.62 66.79 80.59 66.79 79.83"/><polygon class="cls-6" points="65.97 81 60.83 78.62 60.27 78.62 65.45 81 65.97 81"/><polygon class="cls-6" points="66.79 82.56 64.11 81.35 62.54 81.35 66.79 83.33 66.79 82.56"/><polygon class="cls-6" points="65.97 83.73 60.83 81.35 60.27 81.35 65.45 83.73 65.97 83.73"/><rect class="cls-3" x="63.06" y="76.23" width="5.82" height="7.86"/><rect class="cls-6" x="68.53" y="76.23" width="0.35" height="7.86"/><rect class="cls-6" x="65.79" y="76.23" width="0.35" height="7.86"/><rect class="cls-6" x="63.06" y="76.23" width="0.35" height="7.86"/><rect class="cls-6" x="63.06" y="83.74" width="5.82" height="0.35"/><rect class="cls-6" x="63.06" y="76.23" width="5.82" height="0.35"/><polygon class="cls-6" points="67.31 83.74 68.53 81.07 68.53 79.49 66.55 83.74 67.31 83.74"/><polygon class="cls-6" points="66.14 82.92 68.53 77.78 68.53 77.22 66.14 82.41 66.14 82.92"/><polygon class="cls-6" points="64.58 83.74 65.79 81.07 65.79 79.49 63.81 83.74 64.58 83.74"/><polygon class="cls-6" points="63.41 82.92 65.79 77.78 65.79 77.22 63.41 82.41 63.41 82.92"/><rect class="cls-3" x="48.24" y="69.78" width="5.82" height="7.86"/><rect class="cls-6" x="48.24" y="69.78" width="0.35" height="7.86"/><rect class="cls-6" x="50.97" y="69.78" width="0.35" height="7.86"/><rect class="cls-6" x="53.71" y="69.78" width="0.35" height="7.86"/><rect class="cls-6" x="48.24" y="69.78" width="5.82" height="0.35"/><rect class="cls-6" x="48.24" y="77.29" width="5.82" height="0.35"/><polygon class="cls-6" points="49.81 70.13 48.59 72.81 48.59 74.38 50.57 70.13 49.81 70.13"/><polygon class="cls-6" points="50.97 70.95 48.59 76.09 48.59 76.65 50.97 71.47 50.97 70.95"/><polygon class="cls-6" points="52.54 70.13 51.33 72.81 51.33 74.38 53.3 70.13 52.54 70.13"/><polygon class="cls-6" points="53.71 70.95 51.33 76.09 51.33 76.65 53.71 71.47 53.71 70.95"/><rect class="cls-2" x="13.92" y="84.08" width="71.29" height="1.76"/><rect class="cls-2" x="78.62" y="31.52" width="0.33" height="6.76"/><rect class="cls-2" x="73.19" y="31.52" width="0.33" height="6.76"/><rect class="cls-2" x="66.12" y="31.52" width="0.33" height="6.76"/><rect class="cls-2" x="60.7" y="31.52" width="0.33" height="6.76"/><rect class="cls-2" x="53.69" y="45.11" width="0.33" height="6.76"/><rect class="cls-2" x="48.27" y="45.11" width="0.33" height="6.76"/><rect class="cls-1" x="29.87" y="25.12" width="52.35" height="1.31"/><rect class="cls-1" x="29.87" y="37.63" width="52.35" height="1.31"/><rect class="cls-1" x="29.87" y="51.28" width="52.35" height="1.31"/><rect class="cls-1" x="13.21" y="64.93" width="69.01" height="1.31"/><rect class="cls-5" x="14.9" y="81.43" width="13.65" height="2.07"/><rect class="cls-2" x="15.33" y="83.5" width="1.12" height="0.57"/><rect class="cls-2" x="21.17" y="83.5" width="1.12" height="0.57"/><rect class="cls-2" x="27" y="83.5" width="1.12" height="0.57"/><rect class="cls-5" x="14.9" y="78.79" width="13.65" height="2.07"/><rect class="cls-2" x="15.33" y="80.86" width="1.12" height="0.57"/><rect class="cls-2" x="21.17" y="80.86" width="1.12" height="0.57"/><rect class="cls-2" x="27" y="80.86" width="1.12" height="0.57"/><rect class="cls-5" x="14.9" y="76.14" width="13.65" height="2.07"/><rect class="cls-2" x="15.33" y="78.21" width="1.12" height="0.57"/><rect class="cls-2" x="21.17" y="78.21" width="1.12" height="0.57"/><rect class="cls-2" x="27" y="78.21" width="1.12" height="0.57"/><rect class="cls-5" x="14.9" y="73.5" width="13.65" height="2.07"/><rect class="cls-2" x="15.33" y="75.57" width="1.12" height="0.57"/><rect class="cls-2" x="21.17" y="75.57" width="1.12" height="0.57"/><rect class="cls-2" x="27" y="75.57" width="1.12" height="0.57"/><rect class="cls-2" x="14.98" y="84.08" width="0.31" height="1.76"/><rect class="cls-2" x="20.27" y="84.08" width="0.31" height="1.76"/><rect class="cls-2" x="25.57" y="84.08" width="0.31" height="1.76"/><rect class="cls-2" x="30.87" y="84.08" width="0.31" height="1.76"/><rect class="cls-2" x="36.17" y="84.08" width="0.31" height="1.76"/><rect class="cls-2" x="41.46" y="84.08" width="0.31" height="1.76"/><rect class="cls-2" x="46.76" y="84.08" width="0.31" height="1.76"/><rect class="cls-2" x="52.06" y="84.08" width="0.31" height="1.76"/><rect class="cls-2" x="57.36" y="84.08" width="0.31" height="1.76"/><rect class="cls-2" x="62.65" y="84.08" width="0.31" height="1.76"/><rect class="cls-2" x="67.95" y="84.08" width="0.31" height="1.76"/><rect class="cls-2" x="73.25" y="84.08" width="0.31" height="1.76"/><rect class="cls-2" x="78.54" y="84.08" width="0.31" height="1.76"/><rect class="cls-2" x="83.84" y="84.08" width="0.31" height="1.76"/><rect class="cls-2" x="27.22" y="84.79" width="6.48" height="1.05"/><rect class="cls-2" x="50.06" y="84.79" width="6.48" height="1.05"/><rect class="cls-2" x="72.9" y="84.79" width="6.48" height="1.05"/></svg>