<svg xmlns="http://www.w3.org/2000/svg" xmlns:xlink="http://www.w3.org/1999/xlink" viewBox="0 0 100 100"><defs><style>.cls-1{isolation:isolate;}.cls-2,.cls-8{fill:#fff;}.cls-3{fill:#231f20;}.cls-4{fill:#6d6e71;}.cls-5{fill:url(#Áåçûìÿííûé_ãðàäèåíò_4);}.cls-6{fill:#fec35a;}.cls-7{fill:#9d9fa2;}.cls-12,.cls-8{mix-blend-mode:multiply;}.cls-12,.cls-9{fill:#f89e53;}.cls-10{fill:url(#Áåçûìÿííûé_ãðàäèåíò_8);}.cls-11{fill:url(#Áåçûìÿííûé_ãðàäèåíò_7);}</style><linearGradient id="Áåçûìÿííûé_ãðàäèåíò_4" x1="357" y1="63.84" x2="364.43" y2="63.84" gradientTransform="matrix(-1, 0, 0, 1, 396.14, 0)" gradientUnits="userSpaceOnUse"><stop offset="0" stop-color="#fff"/><stop offset="0.21" stop-color="#fff"/><stop offset="0.22" stop-color="#fff"/><stop offset="0.62" stop-color="#fff"/><stop offset="0.63" stop-color="#fff"/><stop offset="0.66" stop-color="#feecdd"/><stop offset="0.7" stop-color="#fcd0ac"/><stop offset="0.74" stop-color="#fabb86"/><stop offset="0.78" stop-color="#f9ab6a"/><stop offset="0.82" stop-color="#f8a159"/><stop offset="0.84" stop-color="#f89e53"/><stop offset="0.96" stop-color="#f89e53"/><stop offset="0.98" stop-color="#f89e53"/><stop offset="0.99" stop-color="#f89e53"/></linearGradient><linearGradient id="Áåçûìÿííûé_ãðàäèåíò_8" x1="379.44" y1="75.23" x2="382.66" y2="75.23" gradientTransform="matrix(-1, 0, 0, 1, 396.14, 0)" gradientUnits="userSpaceOnUse"><stop offset="0.01" stop-color="#fff"/><stop offset="0.02" stop-color="#fff"/><stop offset="0.04" stop-color="#fff"/><stop offset="0.16" stop-color="#fff"/><stop offset="0.37" stop-color="#fff"/><stop offset="0.38" stop-color="#a9a9ab"/><stop offset="0.38" stop-color="#6d6e71"/><stop offset="0.78" stop-color="#6d6e71"/><stop offset="0.79" stop-color="#6d6e71"/><stop offset="1" stop-color="#6d6e71"/></linearGradient><linearGradient id="Áåçûìÿííûé_ãðàäèåíò_7" x1="379.91" y1="75.05" x2="382.49" y2="75.05" gradientTransform="matrix(-1, 0, 0, 1, 396.14, 0)" gradientUnits="userSpaceOnUse"><stop offset="0.01" stop-color="#6d6e71"/><stop offset="0.02" stop-color="#6d6e71"/><stop offset="0.04" stop-color="#6d6e71"/><stop offset="0.16" stop-color="#6d6e71"/><stop offset="0.37" stop-color="#6d6e71"/><stop offset="0.37" stop-color="#59595b"/><stop offset="0.38" stop-color="#231f20"/><stop offset="0.78" stop-color="#231f20"/><stop offset="0.78" stop-color="#50412c"/><stop offset="0.78" stop-color="#ad8645"/><stop offset="0.79" stop-color="#e7b254"/><stop offset="0.79" stop-color="#fec35a"/><stop offset="1" stop-color="#fec35a"/></linearGradient></defs><g class="cls-1"><g id="Layer_1" data-name="Layer 1"><path class="cls-2" d="M40.86,47.1a.45.45,0,0,1-.26-.38V28l1.81,0V46.72a.47.47,0,0,1-.26.38A1.46,1.46,0,0,1,40.86,47.1Z"/><polygon class="cls-3" points="34.78 22.18 31.86 20.52 39.71 15.99 42.63 17.66 34.78 22.18"/><polygon class="cls-3" points="34.78 37.93 31.86 36.27 31.86 20.52 34.78 22.18 34.78 37.93"/><polygon class="cls-4" points="34.78 37.93 42.63 33.41 42.63 17.66 34.78 22.18 34.78 37.93"/><polygon class="cls-3" points="36.13 24.11 36.13 27.41 38.01 26.32 39.5 25.46 40.29 25.01 41.28 24.44 41.28 21.14 40.13 21.8 38.64 22.66 37.86 23.11 36.37 23.97 36.13 24.11"/><polygon class="cls-2" points="36.13 31.66 36.13 33.86 41.28 30.89 41.28 28.69 36.13 31.66"/><path class="cls-2" d="M54.36,34.87c0-.43-.06-1.26-.43-1.47-.19-.11-.61.18-.73.25h0L29.75,47.33s-.16.09-.16,1.17l.16,1,24.4-14.23A.46.46,0,0,0,54.36,34.87Z"/><path class="cls-2" d="M33.31,46.05a.45.45,0,0,1-.27-.38V37l1.73,1,.07,0v7.79a.45.45,0,0,1-.27.37A1.44,1.44,0,0,1,33.31,46.05Z"/><path class="cls-4" d="M34.85,37.89v.49a.45.45,0,0,1-.26.37,1.41,1.41,0,0,1-1.28,0,.49.49,0,0,1-.26-.33V36.94l1.73,1Z"/><path class="cls-2" d="M47.93,46.18A1.47,1.47,0,0,0,47.25,45a.48.48,0,0,0-.48,0h0L23.32,58.64s-.16.09-.16,1.17l.16,1L47.73,46.62A.48.48,0,0,0,47.93,46.18Z"/><polygon class="cls-3" points="45.73 48.21 48.21 47.97 43.26 45.11 40.78 45.35 45.73 48.21"/><polygon class="cls-4" points="45.73 60.41 45.73 48.21 40.78 45.35 40.78 57.55 45.73 60.41"/><polygon class="cls-3" points="48.21 47.97 48.21 60.18 45.73 60.41 45.73 48.21 48.21 47.97"/><polygon class="cls-2" points="35.5 70 42.29 66.09 34.72 61.71 27.93 65.63 35.5 70"/><path class="cls-5" d="M31.71,65.49h0V60h7.43v5.45h0A1.84,1.84,0,0,1,38.05,67a5.8,5.8,0,0,1-5.26,0A1.81,1.81,0,0,1,31.71,65.49Z"/><path class="cls-6" d="M32.79,62.39a5.84,5.84,0,0,0,5.26,0c1.45-.85,1.46-2.2,0-3a5.78,5.78,0,0,0-5.25,0C31.35,60.19,31.34,61.55,32.79,62.39Z"/><polygon class="cls-4" points="35.5 70.58 35.5 70 27.93 65.63 27.93 66.21 35.5 70.58"/><polygon class="cls-7" points="42.29 66.09 42.29 66.67 35.5 70.58 35.5 70 42.29 66.09"/><path class="cls-2" d="M47.06,57.08A9.06,9.06,0,0,0,43,50a2.91,2.91,0,0,0-2.91-.3h0l-7.86,4.54,5.92,9.91,7.71-4.41A2.83,2.83,0,0,0,47.06,57.08Z"/><path class="cls-2" d="M45.33,58.71a10.92,10.92,0,0,0-5-8.56c-1.37-.79-2.46-.93-3.36-.41h0l-.63.37L43.78,62l.2-.09C44.91,61.36,45.33,60.31,45.33,58.71Z"/><path class="cls-2" d="M44.92,59c0,3.14-2.23,4.41-5,2.83a10.92,10.92,0,0,1-5-8.56c0-3.14,2.22-4.41,5-2.83A11,11,0,0,1,44.92,59Z"/><path class="cls-3" d="M44.64,59a10.63,10.63,0,0,0-4.82-8.32,3.4,3.4,0,0,0-3.41-.34h0l-9.23,5.32,7,11.64,9-5.18A3.32,3.32,0,0,0,44.64,59Z"/><path class="cls-6" d="M35.24,64.44c0,3.06-2.16,4.29-4.82,2.75a10.6,10.6,0,0,1-4.82-8.31c0-3.06,2.15-4.29,4.82-2.75A10.63,10.63,0,0,1,35.24,64.44Z"/><path class="cls-2" d="M37.24,64.24a12.38,12.38,0,0,0-5.61-9.69c-1.56-.9-3-1-4-.4h0l-.49.32,8.38,13.4h0C36.59,67.31,37.24,66.05,37.24,64.24Z"/><path class="cls-3" d="M36.83,64.51c0,3.56-2.51,5-5.62,3.2A12.37,12.37,0,0,1,25.6,58c0-3.56,2.51-5,5.61-3.21A12.36,12.36,0,0,1,36.83,64.51Z"/><path class="cls-2" d="M36.61,64.54A12.39,12.39,0,0,0,31,54.85c-1.56-.89-3-1-4-.4h0l-.49.32,8.38,13.41h0C36,67.61,36.61,66.35,36.61,64.54Z"/><path class="cls-3" d="M36.2,64.82c0,3.56-2.52,5-5.62,3.2A12.38,12.38,0,0,1,25,58.33c0-3.56,2.51-5,5.61-3.2A12.39,12.39,0,0,1,36.2,64.82Z"/><path class="cls-2" d="M35.24,64.44a10.63,10.63,0,0,0-4.82-8.31A3.42,3.42,0,0,0,27,55.78h0l-5.39,3.13,7,11.63,5.22-3A3.3,3.3,0,0,0,35.24,64.44Z"/><path class="cls-3" d="M20,62.09a10.6,10.6,0,0,0,4.82,8.31,4.84,4.84,0,0,0,1.27.54,2.51,2.51,0,0,0,3.19-1.4,4.41,4.41,0,0,0,.36-1.88,10.6,10.6,0,0,0-4.82-8.31c-2.14-1.24-4-.68-4.58,1.18a3.65,3.65,0,0,0-.19.85A5.39,5.39,0,0,0,20,62.09Z"/><path class="cls-2" d="M23.64,64.16a1.72,1.72,0,0,0-.78-1.35.56.56,0,0,0-.56-.06h0l-1.18.69,1.13,1.89,1.15-.67A.52.52,0,0,0,23.64,64.16Z"/><path class="cls-2" d="M21.64,63.5c-.42-.25-.77,0-.77.45a1.72,1.72,0,0,0,.77,1.35c.43.25.78,0,.78-.45A1.72,1.72,0,0,0,21.64,63.5Z"/><path class="cls-2" d="M21.74,63.38a1.86,1.86,0,0,1,.83,1.46.6.6,0,0,1-.24.55h0l-.19.1L21,63.39l.11-.06A.57.57,0,0,1,21.74,63.38Z"/><path class="cls-2" d="M21.55,63.48c-.46-.27-.83,0-.83.49a1.84,1.84,0,0,0,.83,1.45c.47.27.84,0,.84-.49A1.83,1.83,0,0,0,21.55,63.48Z"/><path class="cls-2" d="M21,63.71a.51.51,0,0,0-.06.27,1.63,1.63,0,0,0,.72,1.25c.1.06.35.17.46,0a.51.51,0,0,0,.07-.27,1.63,1.63,0,0,0-.72-1.25C21.36,63.61,21.11,63.5,21,63.71Z"/><path class="cls-8" d="M21.27,63.6a1.62,1.62,0,0,0,.67,1,.58.58,0,0,0,.21.08,1.67,1.67,0,0,0-.69-1A.69.69,0,0,0,21.27,63.6Z"/><path class="cls-2" d="M28.29,57.8a1.72,1.72,0,0,1-1.56,0,.56.56,0,0,1-.33-.45h0V48.18l2.2,0v9.14A.54.54,0,0,1,28.29,57.8Z"/><path class="cls-2" d="M26.71,48.6c-.43-.25-.42-.65,0-.9a1.75,1.75,0,0,1,1.56,0c.43.25.43.65,0,.9A1.72,1.72,0,0,1,26.71,48.6Z"/><path class="cls-2" d="M26.66,48.74a1.84,1.84,0,0,0,1.68,0,.59.59,0,0,0,.35-.49h0V48l-2.37.1v.13A.58.58,0,0,0,26.66,48.74Z"/><path class="cls-2" d="M26.65,48.53a.51.51,0,0,1,0-1,1.87,1.87,0,0,1,1.68,0,.52.52,0,0,1,0,1A1.84,1.84,0,0,1,26.65,48.53Z"/><path class="cls-2" d="M26.57,47.93a.66.66,0,0,1,.21-.19,1.63,1.63,0,0,1,1.43,0c.1.06.32.22.21.42a.58.58,0,0,1-.21.2,1.62,1.62,0,0,1-1.44,0C26.67,48.3,26.45,48.14,26.57,47.93Z"/><path class="cls-8" d="M26.61,48.22a1.66,1.66,0,0,1,1.21.08.7.7,0,0,1,.17.14,1.61,1.61,0,0,1-1.22-.09A.57.57,0,0,1,26.61,48.22Z"/><polygon class="cls-3" points="27.75 49.74 32.19 47.18 27.23 44.32 22.8 46.88 27.75 49.74"/><polygon class="cls-3" points="27.75 54.51 27.75 49.74 22.8 46.88 22.8 51.65 27.75 54.51"/><polygon class="cls-4" points="32.19 47.18 32.19 51.95 27.75 54.51 27.75 49.74 32.19 47.18"/><path class="cls-4" d="M24,46.5h0V41.05h7.44V46.5h0A1.87,1.87,0,0,1,30.37,48a5.8,5.8,0,0,1-5.26,0A1.84,1.84,0,0,1,24,46.5Z"/><path class="cls-3" d="M25.11,42.57a5.8,5.8,0,0,0,5.26,0c1.46-.84,1.47-2.2,0-3a5.77,5.77,0,0,0-5.26,0C23.67,40.38,23.66,41.74,25.11,42.57Z"/><polygon class="cls-3" points="37.41 51.28 44.24 47.34 40.78 45.35 33.95 49.28 37.41 51.28"/><polygon class="cls-4" points="37.41 53.49 37.41 51.28 33.95 49.28 33.51 50.44 33.95 51.5 37.41 53.49"/><polygon class="cls-4" points="44.24 47.34 44.24 49.56 37.41 53.49 36.97 52.34 37.41 51.28 44.24 47.34"/><polygon class="cls-4" points="33.51 50.44 36.97 52.34 37.41 51.28 33.95 49.28 33.51 50.44"/><path class="cls-9" d="M15.52,67.17c-.38-.21-.68,0-.68.4a1.49,1.49,0,0,0,.68,1.17c.37.21.67,0,.67-.39A1.51,1.51,0,0,0,15.52,67.17Z"/><path class="cls-10" d="M13.48,75.05h0a.91.91,0,0,1,.44-.48,2.49,2.49,0,0,1,2.27,0,.86.86,0,0,1,.44.47h0v.18h0a.81.81,0,0,1-.47.66,2.54,2.54,0,0,1-2.28,0,.81.81,0,0,1-.47-.66h0Z"/><path class="cls-2" d="M13.84,74.42a2.73,2.73,0,0,1,2.49,0c.7.4.7,1,0,1.44a2.75,2.75,0,0,1-2.5,0A.76.76,0,0,1,13.84,74.42Z"/><path class="cls-11" d="M14.17,74.52a2,2,0,0,1,1.83,0,.56.56,0,0,1,0,1,2,2,0,0,1-1.82,0C13.67,75.28,13.67,74.81,14.17,74.52Z"/><path class="cls-2" d="M15.87,75.59a1.72,1.72,0,0,1-1.56,0,.54.54,0,0,1-.32-.45h0V56.91L16.19,55V75.13A.53.53,0,0,1,15.87,75.59Z"/><path class="cls-2" d="M22.21,64.85a1.51,1.51,0,0,0-.68-1.17.48.48,0,0,0-.48,0h0l-4.87,2.84s-.16.09-.16,1.17a2.21,2.21,0,0,0,.16,1L22,65.29A.46.46,0,0,0,22.21,64.85Z"/><path class="cls-2" d="M26.33,50.94a1.72,1.72,0,0,0-.78-1.35.56.56,0,0,0-.56-.06h0l-1.18.69,1.13,1.89,1.15-.67A.52.52,0,0,0,26.33,50.94Z"/><path class="cls-2" d="M24.33,50.28c-.43-.25-.77-.05-.77.45a1.73,1.73,0,0,0,.77,1.36c.43.24.78,0,.78-.46A1.72,1.72,0,0,0,24.33,50.28Z"/><path class="cls-2" d="M24.42,50.16a1.85,1.85,0,0,1,.84,1.46.6.6,0,0,1-.24.55h0l-.2.1-1.11-2.1.11-.06A.56.56,0,0,1,24.42,50.16Z"/><path class="cls-2" d="M24.24,50.26c-.46-.27-.84,0-.84.49a1.89,1.89,0,0,0,.84,1.46c.47.26.84,0,.84-.49A1.83,1.83,0,0,0,24.24,50.26Z"/><path class="cls-2" d="M23.68,50.49a.51.51,0,0,0-.06.27A1.63,1.63,0,0,0,24.34,52c.1.06.34.17.46,0a.58.58,0,0,0,.06-.28,1.62,1.62,0,0,0-.71-1.25C24.05,50.4,23.8,50.28,23.68,50.49Z"/><path class="cls-8" d="M24,50.38a1.68,1.68,0,0,0,.68,1,.51.51,0,0,0,.21.08,1.7,1.7,0,0,0-.69-1A.66.66,0,0,0,24,50.38Z"/><path class="cls-2" d="M24.89,51.63a1.49,1.49,0,0,0-.68-1.17.47.47,0,0,0-.48-.05h0l-9.44,5.5s-.16.1-.16,1.18l.16,1,10.4-6A.48.48,0,0,0,24.89,51.63Z"/><path class="cls-2" d="M13.81,56.77V58.3a.39.39,0,0,0,.14.19,1.43,1.43,0,0,0,.88.24H15a1.62,1.62,0,0,0,.82-.2,1.12,1.12,0,0,0,.49-.55v-.8a1.22,1.22,0,0,0,.14-.8,2.71,2.71,0,0,0-.05-.37,1.15,1.15,0,0,0-.16-.42,1.06,1.06,0,0,0-.69-.46l-.11,0-.86.47A1.34,1.34,0,0,0,13.81,56.77Z"/><path class="cls-2" d="M14,56.77v1.72a1.43,1.43,0,0,0,.88.24H15a1.62,1.62,0,0,0,.82-.2,1.12,1.12,0,0,0,.49-.55v-.8a1.22,1.22,0,0,0,.14-.8,2.71,2.71,0,0,0-.05-.37,1.15,1.15,0,0,0-.16-.42,1.06,1.06,0,0,0-.69-.46l-.84.45A1.35,1.35,0,0,0,14,56.77Z"/><path class="cls-2" d="M14.83,57.14v1.59H15a1.62,1.62,0,0,0,.82-.2,1.12,1.12,0,0,0,.49-.55v-.8a1.22,1.22,0,0,0,.14-.8,2.71,2.71,0,0,0-.05-.37,1.15,1.15,0,0,0-.16-.42l-.66.35A1.36,1.36,0,0,0,14.83,57.14Z"/><path class="cls-2" d="M15.78,57.51v1a1.12,1.12,0,0,0,.49-.55v-.8a1.22,1.22,0,0,0,.14-.8A1.32,1.32,0,0,0,15.78,57.51Z"/><path class="cls-4" d="M24.35,39.46A5.94,5.94,0,0,1,27,34.83a1.89,1.89,0,0,1,1.9-.19h0l1.94,1.16-4,6.42-1.7-1A1.85,1.85,0,0,1,24.35,39.46Z"/><path class="cls-3" d="M26.26,40.61c0,1.7,1.2,2.39,2.68,1.53a5.91,5.91,0,0,0,2.69-4.63c0-1.71-1.2-2.39-2.69-1.54A5.94,5.94,0,0,0,26.26,40.61Z"/><path class="cls-6" d="M28,41.82a1.74,1.74,0,0,0,.85-.27,5,5,0,0,0,2.22-3.84c0-.36-.07-1.2-.81-1.2a1.83,1.83,0,0,0-.84.26,5,5,0,0,0-2.23,3.85C27.2,41,27.28,41.82,28,41.82Z"/><path class="cls-4" d="M28,41.82a1.74,1.74,0,0,0,.85-.27,5,5,0,0,0,2.22-3.84c0-.36-.07-1.2-.81-1.2a1.83,1.83,0,0,0-.84.26,5,5,0,0,0-2.23,3.85C27.2,41,27.28,41.82,28,41.82Z"/><path class="cls-2" d="M55.7,41.16c-1.48-.15-6.37-3.7-6.47-3.84A26.37,26.37,0,0,0,46.7,36.2s-1.78.14-2.45.11a5.13,5.13,0,0,1-2-.42c-.24-.2-.27-1.56-.27-1.56s.14-.56.18-.7h0c0-.11.36-.24.47-.34s.75-.4.78-.48a3.09,3.09,0,0,1,.27-.34,3.28,3.28,0,0,0,.82-.26c.1-.12.66,0,.75.07s.93.85,1.26,1.15a4.7,4.7,0,0,0,1.27.58l4,1.45s4.73.94,4.84,1S57.18,41.3,55.7,41.16Z"/><path class="cls-2" d="M72.7,55.51a6.38,6.38,0,0,1,.53,3.5,11.82,11.82,0,0,1-3.08,6.78,12.07,12.07,0,0,0-2.31,3.26v2.23s.12.76-1.84.8-3.6-4.22-3.6-4.22l7.32-13.65Z"/><path class="cls-7" d="M83.18,74.84,83,74.38s-1.07,0-1.55,0a23.13,23.13,0,0,0-2.55.46s-1.13,3.53-.18,4,1.19.46,1.5.62A8.11,8.11,0,0,1,82,81.88c.06.42.23,1.63.23,1.82s.29.62.91.41,1-1.73,1-1.73L84,78.3Z"/><path class="cls-2" d="M80.25,75.63c0,.62-.07,1.67-.14,2.54S80,79.66,80,79.66s-1.61.14-4.46.52S62,81.76,59.89,80.32,58,73.73,58,71.23s.81-8.86.81-8.86.73-.47,1.82-1.14c2.84-1.75,8.07-4.88,8.51-4.47a9.76,9.76,0,0,1,1.24,1.74c.78,1.32,1.58,3.1,1.45,4.36-.2,2.07-1.86,4.2-3,5.78S67,74.05,67,74.05a49,49,0,0,1,5.29.52,32.65,32.65,0,0,0,7.43-.26.37.37,0,0,1,.13.07C80,74.5,80.25,74.82,80.25,75.63Z"/><path class="cls-3" d="M83,74.38s-.69,0-.69,1.19A50.4,50.4,0,0,0,83.55,81c.06.49-.46,2.79-.4,3.1s1.38-.27,1.76-1A2.94,2.94,0,0,0,85,80.39a17.64,17.64,0,0,1-1-4.24C84.09,75.59,84,74.42,83,74.38Z"/><path class="cls-8" d="M79.84,74.38c-.87,0-1.49.47-2.94.62a42.34,42.34,0,0,1-6.3-.19c-.38-.08-3.29-.27-3.29-.27s-1.34,1.8-1.8,1.88a11.52,11.52,0,0,0-2.19,1.49,7,7,0,0,1,1.46-1.61c.53-.27,1.45-2.18,1.45-2.18s0-1.46-.11-1.84a17.8,17.8,0,0,1,.77-2.73A17.56,17.56,0,0,1,68,68.06a33.41,33.41,0,0,0,3.1-4.91,2.57,2.57,0,0,0-.26-2.29c-.22-.87-.4-1.65-.54-2.36.78,1.32,1.58,3.1,1.45,4.36-.2,2.07-1.86,4.2-3,5.78S67,74.05,67,74.05a49,49,0,0,1,5.29.52,32.65,32.65,0,0,0,7.43-.26A.37.37,0,0,1,79.84,74.38Z"/><path class="cls-8" d="M80.11,78.17c-.06.82-.12,1.49-.12,1.49s-1.61.14-4.46.52S62,81.76,59.89,80.32,58,73.73,58,71.23s.81-8.86.81-8.86.73-.47,1.82-1.14a14.9,14.9,0,0,1-.5,2.75,23.58,23.58,0,0,0-1,6.19c0,2,.2,7.07.26,7.3s1,1.53,1,1.69a8.78,8.78,0,0,0,2,.53,18.78,18.78,0,0,0,2,.4c.38,0,3.69.4,4.7.32s3.87-.87,5.48-1.12C75.7,79.11,78.51,78.51,80.11,78.17Z"/><path class="cls-6" d="M73.38,56.24c0,.32-2,3.63-2.08,3.83S69,64.93,65.07,65.94a9.17,9.17,0,0,1-2.35.27,7.76,7.76,0,0,1-4.33-1.4,7.61,7.61,0,0,0-.17-1.34c-.14-.71-1.66-3.35-2.53-5.28v0A9.36,9.36,0,0,1,55.23,57a17.77,17.77,0,0,0-2.68-6A13.76,13.76,0,0,1,51,46.52a23.76,23.76,0,0,1-.54-5.65c.16-.62,2.65-3.2,3-3.61a70.7,70.7,0,0,1,6.72-4.87,3.17,3.17,0,0,1,3.56.82,12,12,0,0,1,1.4,3.23,52.93,52.93,0,0,1,2,6.31,18.65,18.65,0,0,0,1.6,4.66c.24.55.6,1.34,1,2.09h0A6.09,6.09,0,0,0,71,51.3a4,4,0,0,1,1.2,2A23.17,23.17,0,0,1,73.38,56.24Z"/><path class="cls-2" d="M59.44,32.8s.4-.31.68,1.7,2.59,19.29,2.59,19.29L64.4,52s-2.9-18.27-2.9-18.49a2.87,2.87,0,0,0-.71-1.36C60.4,31.79,59.44,32.8,59.44,32.8Z"/><path class="cls-2" d="M73.38,56.49c0,.33-2,3.71-2.08,3.92s-2.27,5-6.23,6a8.75,8.75,0,0,1-2.35.27,7.68,7.68,0,0,1-4.33-1.42,8.11,8.11,0,0,0-.17-1.38c-.14-.72-1.66-3.42-2.53-5.4v0l2.11.34c2.11.33,4.6-2.59,4.6-2.59s.26-3.3.92-3.79,4.55-3.94,4.55-3.94l1.35,1.72.43-.6h0A6.27,6.27,0,0,0,71,51.44a4.15,4.15,0,0,1,1.2,2A23.87,23.87,0,0,1,73.38,56.49Z"/><path class="cls-2" d="M48.6,46.62a18.29,18.29,0,0,0-.89,1.7,10.14,10.14,0,0,1-1,1.51s-2-1.65-2.28-2a4.33,4.33,0,0,1-.67-1.09,11.55,11.55,0,0,0-.68-1.65,5.41,5.41,0,0,0-.9-.76,3,3,0,0,0-.8-.14c-.13.06-.07.44-.07.44l.54.24-.11.25-.44-.39a4.15,4.15,0,0,0-.73-.1c-.11,0-.61.46-.64.66A4.26,4.26,0,0,0,40,46a5.84,5.84,0,0,0-.07.61,1.79,1.79,0,0,0,.1.46l0,.75.59.74a1.15,1.15,0,0,0,.9.24c.51-.09.79-.18,1,.09A15.05,15.05,0,0,0,45,53.07c1.67,1.82,2.33,1.62,2.87,1.72s1.43-.33,2.31-1.45,2.55-3.21,3.1-3.77S48.6,46.62,48.6,46.62Z"/><path class="cls-2" d="M40,45.3A4.26,4.26,0,0,0,40,46s0,.12,0,.26a.72.72,0,0,1,.25-.14,2.34,2.34,0,0,1-.19-.77v-.19A.49.49,0,0,0,40,45.3Z"/><path class="cls-8" d="M45.72,51.11a2.14,2.14,0,0,0,1-.75c.37-.54,1.44-2.57,1.79-3,.12-.17.69-.2,1.36-.1-.72-.36-1.26-.61-1.26-.61a18.29,18.29,0,0,0-.89,1.7,10.14,10.14,0,0,1-1,1.51s-.35.6-.51.8A4,4,0,0,1,45.72,51.11Z"/><path class="cls-8" d="M50.17,53.34c.87-1.12,2.55-3.21,3.1-3.77.18-.18-.25-.55-.9-1a1,1,0,0,1,.07.43,16.4,16.4,0,0,1-1.54,2.74,13.35,13.35,0,0,1-2.53,2.68,1.7,1.7,0,0,1-1.56,0,13.2,13.2,0,0,1-2.69-3.17,23.4,23.4,0,0,1-1.35-2.79c0-.21-.11-1.35-.11-1.35a11.7,11.7,0,0,1-.81,1.14,1.56,1.56,0,0,1-.59.18.79.79,0,0,1-.64-.12,1.87,1.87,0,0,1-.59-.88l.11-.32S40,46.7,40,46.45c0,.07,0,.12,0,.17a1.79,1.79,0,0,0,.1.46l0,.75.59.74a1.15,1.15,0,0,0,.9.24c.51-.09.79-.18,1,.09A15.05,15.05,0,0,0,45,53.07c1.67,1.82,2.33,1.62,2.87,1.72S49.29,54.46,50.17,53.34Z"/><path class="cls-2" d="M58.85,33.19a2.89,2.89,0,0,1-.53,1.12c-.27.28-2.7,1.73-4,2.5l-.81.47a10,10,0,0,0-.78-2.61c-.33-.21-1.19,0-1.48-.11A8.48,8.48,0,0,1,50,32.76a8.63,8.63,0,0,1-.8-2.53,3.63,3.63,0,0,0-.64-1.79,20,20,0,0,1,.37-3.66l.09,0c.73.28,5.73,2.15,6.83,2.15s1.86,1.77,2,3.4A5.91,5.91,0,0,0,58.85,33.19Z"/><path class="cls-3" d="M57.91,31a8.64,8.64,0,0,1-1.14.77c-.28.12-1.56.4-1.56.4S53.27,30.51,53,30.18s-1-1.62-1.74-1.6a.79.79,0,0,0-.83.9c0,.19.15.87.15.87H50a11.36,11.36,0,0,0-.64-1.77l-.82-1.19a15.42,15.42,0,0,1-.11-2.61,6.74,6.74,0,0,1,4.18-3.61,4.75,4.75,0,0,1,5.18,2.48,16,16,0,0,1,.42,5.14C58.1,29.57,57.91,31,57.91,31Z"/><path class="cls-2" d="M51,29a2.2,2.2,0,0,1,1.05,1.16c.23.76,0,1.25-.32,1.22s-.46-1.06-.68-1.2a3,3,0,0,1-.52-.85S50.53,28.9,51,29Z"/><path class="cls-9" d="M55.82,43.65a6.29,6.29,0,0,1-.67,3.53,14.69,14.69,0,0,1-2.28,3.18,12.68,12.68,0,0,1-3.28-1.2,4.37,4.37,0,0,1-1.52-2s2-6.11,2.42-6.77a2.2,2.2,0,0,1,3.3-.43A6.14,6.14,0,0,1,55.82,43.65Z"/><path class="cls-12" d="M59.6,33l-.75-.69-.57-.11.19.4a22.13,22.13,0,0,1-3,1.85,13.75,13.75,0,0,0-2.82,2l.41,1.24,1.64-.72a33.66,33.66,0,0,0,4-2.53C59.37,33.66,59.64,33.35,59.6,33Z"/><path class="cls-2" d="M51.86,39s.41-.49,2.21-.17S68.26,51.47,68.26,51.47l.49-2-.88-1.09S55.79,37.56,55.23,37.46a9.25,9.25,0,0,0-2.44.48Z"/><path class="cls-3" d="M43.26,35.23l-5.81,3-2.26,1.17-1.13-.59V38l8.33-3.9s.87.21,1,.49l0,0C43.56,34.92,43.26,35.23,43.26,35.23Z"/><path class="cls-3" d="M43.26,35.23l-5.81,3-.17-.62,6.18-3C43.56,34.92,43.26,35.23,43.26,35.23Z"/><polygon class="cls-2" points="34.12 37.66 36.73 39.13 37.56 38.68 37.37 37.92 36.29 37.31 34.12 36.96 34.12 37.66"/><polygon class="cls-3" points="33.4 37.68 33.4 38.38 33.4 38.99 34.97 39.81 35.74 39.69 36.49 39.28 33.4 37.68"/><polygon class="cls-3" points="35.74 38.99 35.74 39.69 36.49 39.28 36.49 38.62 35.74 38.99"/><polygon class="cls-3" points="37.56 38.68 37.56 37.99 36.73 38.43 36.73 39.13 37.56 38.68"/><polygon class="cls-3" points="34.12 36.96 36.73 38.43 37.56 37.99 37.37 37.22 36.29 36.61 35.28 36.75 34.12 36.96"/><polygon class="cls-3" points="33.78 37.12 33.4 37.68 33.4 38.3 34.97 39.11 35.74 38.99 36.49 38.62 33.78 37.12"/><polygon class="cls-3" points="33.4 37.68 35.74 38.99 36.49 38.62 33.78 37.12 33.4 37.68"/><polygon class="cls-3" points="37.56 37.99 35.28 36.75 34.12 36.96 36.73 38.43 37.56 37.99"/><path class="cls-3" d="M38.69,36.09l-1.38.69.45.28,1.37-.69S39.12,36.08,38.69,36.09Z"/><polygon class="cls-3" points="37.56 37.99 35.74 38.99 35.06 38.56 36.9 37.63 37.56 37.99"/><polygon class="cls-3" points="37.56 37.99 35.74 38.99 35.74 39.69 37.56 38.68 37.56 37.99"/></g></g></svg>