<svg xmlns="http://www.w3.org/2000/svg" viewBox="0 0 100 100"><defs><style>.cls-1{isolation:isolate;}.cls-2{fill:#ccc0bc;}.cls-10,.cls-2{mix-blend-mode:multiply;}.cls-3{fill:#2f2720;}.cls-4{fill:#9d9fa2;}.cls-5{fill:#57545c;}.cls-6{fill:#323338;}.cls-7{fill:#212228;}.cls-8{fill:#424147;}.cls-9{fill:#fff;}.cls-10,.cls-12{fill:#dcddde;}.cls-11{fill:#fec35a;}.cls-13{fill:#f89e53;}.cls-14{fill:#ffe39f;}.cls-15{fill:#231f20;}</style></defs><g class="cls-1"><g id="Layer_1" data-name="Layer 1"><path class="cls-2" d="M39.92,84.35a19.23,19.23,0,0,0,4.31-1.3c1.86-.67,4-1.12,5.71-.08a14.29,14.29,0,0,0,1.41.93c2.08.95,4,0,6,1.41,2.22,1.58,3.63.47,6,.22a46.6,46.6,0,0,0,7.3-1.16,6.64,6.64,0,0,0,3.23-1.61c3.8-4.06-4.72-7.6-7.26-8.62A89.06,89.06,0,0,0,56.2,70.88a13.89,13.89,0,0,0-3.31-.61,11.19,11.19,0,0,0-5.4,1.65,16.43,16.43,0,0,1-4.84,1.25c-3.09.58-5.24,1.48-6.8,4.53s-1.05,6.14,2.68,6.64A5.88,5.88,0,0,0,39.92,84.35Z"/><path class="cls-3" d="M52.19,73.47s.15.4.2.56a3.7,3.7,0,0,1,.07.84,3.73,3.73,0,0,1-2,.72c-1.22.19-2.93.26-4.08.44A6,6,0,0,1,43.32,76a1.53,1.53,0,0,1-.91-1V74a.74.74,0,0,1,.6-.57C43.47,73.38,52.19,73.47,52.19,73.47Z"/><path class="cls-4" d="M47.72,71.89l-1.55.64c-.47.18-2.62.56-2.76.61a1,1,0,0,0-.64,1.19c.19.8,1,1,2.65,1A30.2,30.2,0,0,0,50.13,75c1.69-.23,2.19-.78,2.19-1s0-1,0-1.16S47.72,71.89,47.72,71.89Z"/><path class="cls-5" d="M42.2,76.55l.3-5.48,1.21.06-.3,5.49a.3.3,0,0,1-.19.23.93.93,0,0,1-.86,0A.3.3,0,0,1,42.2,76.55Z"/><path class="cls-6" d="M42.66,71.33a1,1,0,0,0,.86,0,.26.26,0,0,0,0-.49,1,1,0,0,0-.86,0A.27.27,0,0,0,42.66,71.33Z"/><path class="cls-7" d="M37.33,75s2.19-.36,2.87,0a5.07,5.07,0,0,1,1.2.93l1.35,1,1.35,1.31,1.29,1,1.51,1.11a7.82,7.82,0,0,1,1.57,1.18c.22.37-.56,1.27-.56,1.27l-1.58,1-5,1.51-2.86.25-4,.65s-4.41.12-4.8-.6a4.06,4.06,0,0,0-1.54-1.29,3.08,3.08,0,0,0-1.5-.52,9.09,9.09,0,0,1-3-1.8l-.52-1,1.76-1.89.94,0,2.92-1,4-1.72,2.4-1.2Z"/><path class="cls-7" d="M39.14,76.23l.06,0a.72.72,0,0,1-.11.63.64.64,0,0,1-.33.13c-.36.09-.73.15-1.09.21l.47,0c-.11,0-.18.12-.18.23a1.14,1.14,0,0,1,0,.32c-.08.22-.37.23-.58.34a.27.27,0,0,0-.08.07c-.09.16.22.33.15.49a4.16,4.16,0,0,1,1.25-.4c.12.11-.06.31,0,.47s0,.11.05.16-.16.37-.35.45-.41.18-.46.38c-.16.65,1.21.32,1.47.24A7.18,7.18,0,0,1,38,81.43l1,.68a.58.58,0,0,1,.25.24c.11.28-.22.53-.5.64a6.52,6.52,0,0,1-2,.45,1.72,1.72,0,0,1-.26,1,1.75,1.75,0,0,1-1.14.49l-1.4.23c0,.12,0,.25.07.38L31,85.45a.44.44,0,0,1,.26-.32,9.05,9.05,0,0,0-.74-.65c.27-.14.58-.33.58-.63a.53.53,0,0,0-.32-.45,1.54,1.54,0,0,0-.56-.14l-.95-.12a7.36,7.36,0,0,0,.9-1.18l-.87-.41A3.73,3.73,0,0,1,31,80.31a10.31,10.31,0,0,0-2.35-.14,11.78,11.78,0,0,0-2.84.8.92.92,0,0,1-.56.09.33.33,0,0,1-.25-.43.44.44,0,0,1,.19-.17c.28-.16.56-.31.85-.44l-.24-.21a11.64,11.64,0,0,0,.94-.92,2.69,2.69,0,0,1,1.8-.49,2.48,2.48,0,0,0,.72,0,3.31,3.31,0,0,0,.47-.22,5.78,5.78,0,0,1,1.6-.4c-.1-.09.05-.24.17-.29l2-.86a.47.47,0,0,0,.26-.2,1.35,1.35,0,0,0,.05-.29c.06-.3.39-.44.68-.53a4.57,4.57,0,0,1,1.45-.38,11,11,0,0,1,1.81.13l-.31.15a.42.42,0,0,0-.25.2.35.35,0,0,0,.11.38,1.61,1.61,0,0,0,1.38.29l-.39,0A6.47,6.47,0,0,0,39.14,76.23Z"/><path class="cls-8" d="M41.65,70.57l.2-3.65,3,.16-.2,3.65a.76.76,0,0,1-.47.59,2.33,2.33,0,0,1-2.09-.11A.72.72,0,0,1,41.65,70.57Z"/><path class="cls-6" d="M42.25,67.55a2.33,2.33,0,0,0,2.09.11c.6-.3.64-.84.08-1.21a2.35,2.35,0,0,0-2.1-.11A.64.64,0,0,0,42.25,67.55Z"/><path class="cls-3" d="M62,79.93a.69.69,0,0,1,.36.42,4.5,4.5,0,0,1,.07.81A6.68,6.68,0,0,0,62,82.87c0,.6-.4,2.47-1.07,2.92a5,5,0,0,1-3.31.42,3,3,0,0,1-1.38-.81,5,5,0,0,1-.1-1.24l.64-1Z"/><path class="cls-4" d="M58.2,79.35A13.85,13.85,0,0,0,57.62,81c0,.35-1.19,2.89-1.14,3.25s.36,1,2,1.06,2.68-.4,2.91-1a18.38,18.38,0,0,0,.56-2.59c0-.35.34-.93.32-1.19s-.11-1.17-.11-1.37A26.13,26.13,0,0,0,58.2,79.35Z"/><path class="cls-9" d="M47.28,72.57A3.74,3.74,0,0,0,50,73.82a3.78,3.78,0,0,0,1.38-.21,5.22,5.22,0,0,0,1.09-.5s0-2.3.09-4.68a30.9,30.9,0,0,0-.21-4.17c0-.2.19-1.53.29-2.83.08-1,.17-3.26.2-4.14,0-.24,0-.38,0-.38s1.84-5.39.38-6.45-3.82-3.34-4.49-2.31A20.61,20.61,0,0,0,47,53.88c-.2,1.45-.67,5.37-.73,6.44S47.19,72.2,47.28,72.57Z"/><path class="cls-10" d="M50.62,64.08c-.06.73.19,2.26.35,4.56a29.61,29.61,0,0,0,.36,5,5.22,5.22,0,0,0,1.09-.5s0-2.3.09-4.68a30.9,30.9,0,0,0-.21-4.17c0-.2.19-1.53.29-2.83.08-1,.17-3.26.2-4.14-.82-.85-1.43-1.45-1.43-1.45l-.88,1.77-1.21.56,1.2.88S50.71,62.75,50.62,64.08Z"/><path class="cls-9" d="M51.24,55.2a16.71,16.71,0,0,0,1.35,3.65,15.56,15.56,0,0,0,2,2.88,46.59,46.59,0,0,1,1.06,6.19c.14,1.45,2.12,11.61,2.18,11.7a2.91,2.91,0,0,0,2.33.79,3.69,3.69,0,0,0,1.11-.27c.71-.31,1.05-.77,1-.9s.14-6.66.15-9.42S62,64,62,62.71s1.29-6.63,1.37-8.55a18,18,0,0,0-.3-3.85l-1.79-.56C59,49,55.18,47.92,54.34,48c-1.23.06-2.71,1.64-3.1,2.48S51.16,54.15,51.24,55.2Z"/><path class="cls-10" d="M61.3,80.14c.71-.31,1.05-.77,1-.9s.14-6.66.15-9.42S62,64,62,62.71s1.29-6.63,1.37-8.55a18,18,0,0,0-.3-3.85l-1.79-.56.53,2.19A16.25,16.25,0,0,1,62,56a50.26,50.26,0,0,0-1,5.89c-.09,1.29.56,5.28.58,7.39C61.56,70.84,61.29,76.32,61.3,80.14Z"/><path class="cls-9" d="M44.06,39.87a2.07,2.07,0,0,0,.82.31c.38,0,.53-.18.73-.3a.84.84,0,0,0,.15-.14c.52-.66,2-3.2,2.32-3.79s-1.47-1.73-2.41-2.37l-.58-.38S43,36.8,42.83,37.29A2.68,2.68,0,0,0,44.06,39.87Z"/><path class="cls-7" d="M41.58,66.86l.79-14.35,3.51.2-.79,14.34a.86.86,0,0,1-.56.69,2.75,2.75,0,0,1-2.48-.13A.87.87,0,0,1,41.58,66.86Z"/><path class="cls-8" d="M44.55,54.06a4.45,4.45,0,0,1-3.93-3l-.07-.17c-.76-1.76-1.32-3.51-.35-4.39s2.17-.21,3.1.3c.76.32,4.06,1.8,4.87,3.08a2.38,2.38,0,0,1-.07,2.56A3.55,3.55,0,0,1,45,54.09Zm-2.43-3.8.08.18a2.76,2.76,0,0,0,2.53,1.92,1.94,1.94,0,0,0,1.91-.78.71.71,0,0,0,.09-.74c-.36-.57-2.44-1.71-4.15-2.44l-.08,0a3.69,3.69,0,0,0-1.11-.47A7.11,7.11,0,0,0,42.12,50.26Z"/><path class="cls-9" d="M40.48,48.81h0c0,.13.06.23.07.28,0,.21.27.2.27.2a.91.91,0,0,0,.17.27c.15.2.3.11.3.11l.24.17s.08.14.48.26.35-.21.35-.21h.11a.45.45,0,0,0,.18,0c.15,0,.11-.55.11-.55a3.09,3.09,0,0,0,.21-.73,5.88,5.88,0,0,1,.71-1.34s0-.13.26,0a4.92,4.92,0,0,1,.65.73s.41-.25.36-.37-.37-.82-.37-.82l-.1-.09-.13-.14a2.38,2.38,0,0,1-.2-.25,1.42,1.42,0,0,1-.06-.21A6.21,6.21,0,0,1,44,45a14.06,14.06,0,0,1,1-2.94,10,10,0,0,0,.75-2.36c-.06-.27-.83-.86-1.11-1.39a1.46,1.46,0,0,0-.17-.29h0c-.13-.19-.28-.38-.4-.53a1,1,0,0,0-.83-.35.82.82,0,0,0-.42.11A7.62,7.62,0,0,0,41.94,40c-.33,1.63-.43,5.08-.57,5.48s-.64.56-.83.8a5.27,5.27,0,0,0-.29,1.5A8.57,8.57,0,0,0,40.48,48.81Z"/><path class="cls-10" d="M43.74,43.35a10.24,10.24,0,0,0-.15,2.08c0,.1.3.38.5.67A6.21,6.21,0,0,1,44,45a14.06,14.06,0,0,1,1-2.94,10,10,0,0,0,.75-2.36c.52-.66,2-3.2,2.32-3.79s-1.47-1.73-2.41-2.37L45,34a11.93,11.93,0,0,0,1.35,1.74l.58.45-1.44,2.54-1-.69h0a12.16,12.16,0,0,1,.58,1.58,2.79,2.79,0,0,1-.18.54A18.79,18.79,0,0,0,43.74,43.35Z"/><path class="cls-11" d="M48.15,36.11a10.67,10.67,0,0,1-1.66-.64,4.4,4.4,0,0,1-1.29-1.1c-.13-.25-.78-1.12-.78-1.19s1.76-3.08,2.26-4a10.1,10.1,0,0,1,2.89-3.45c1.09-.63.89,2.08.72,3.4S48.15,36.11,48.15,36.11Z"/><path class="cls-11" d="M48.55,46.32a10,10,0,0,1-.64,2.54,3.26,3.26,0,0,0,.77,1.29,5,5,0,0,1,.59.57,16.35,16.35,0,0,0,1.55,1.5,4.76,4.76,0,0,0,.88.36,13.28,13.28,0,0,0,6.14.4,19.13,19.13,0,0,0,3.88-1l.07,0c1.13-.45,1.19-.86,1.18-1s-.11-1.71-.14-2.24A1.43,1.43,0,0,1,63,48c0-.55,0-1.1,0-1.65,0-.12,0-.23,0-.29a6.45,6.45,0,0,0-.6-1.59c-.3-.64,0-2.1,0-3,0-.08,0-.2,0-.36.06-.67.2-2,.37-3.51,0,0,0-.07,0-.11L63,35.55c.19-1.67.36-3.22.42-4a4.15,4.15,0,0,0-.8-3.31,32,32,0,0,0-3-2.54,4.53,4.53,0,0,0-2.22-1.16s-4.24.72-4.69.65a8,8,0,0,0-3.15.47,14.74,14.74,0,0,0-2,5A15.47,15.47,0,0,0,47.65,36a19.54,19.54,0,0,1,.41,3.55c0,.51.07,1,.09,1.51C48.26,43,48.49,45.59,48.55,46.32Z"/><path class="cls-9" d="M48.06,45.69A5.07,5.07,0,0,1,48,48.2a2.55,2.55,0,0,0-.23.69,1.65,1.65,0,0,0,.4,1.06,8.15,8.15,0,0,0,.55.76c.09.12.18.23.28.34a7.27,7.27,0,0,0,.56.55,8,8,0,0,0,1.88,1.13L52,53a6.38,6.38,0,0,0,1.26.47,8.33,8.33,0,0,0,1.66.08,21.65,21.65,0,0,0,2.79,0,11.18,11.18,0,0,0,2-.51c.68-.22,1.36-.45,2-.7l.58-.22c.6-.24.59-.47.76-1.15a4,4,0,0,0,0-1.58A8.62,8.62,0,0,1,63,48c0-.55,0-1.1,0-1.65a9.81,9.81,0,0,0-.09-1.43,16.54,16.54,0,0,1-.29-3.71c0-.1-.09-.12-.22-.11s-.26.06-.33.06l-.83.08-1.69.17a8.43,8.43,0,0,1-1.63,0,2.7,2.7,0,0,1-.74-.17,1.38,1.38,0,0,1-.5-.38c-.42-.52.08-2.4-2.28-2.39a14.39,14.39,0,0,1-3.23-.73c-.43-.1-.85-.21-1.27-.34a3.35,3.35,0,0,0-1-.26h-.08a.2.2,0,0,0-.08.1c-.07.17-.2.31-.28.47a3.49,3.49,0,0,0,0,1.37c0,.15,0,.34-.15.39a.72.72,0,0,1-.21,0,.22.22,0,0,0-.17.05.22.22,0,0,0-.06.14c0,.22-.08.44-.11.67v2.91C47.83,44.09,47.94,44.89,48.06,45.69Z"/><path class="cls-9" d="M55.1,40.62a14.47,14.47,0,0,1,0,3.18,28.74,28.74,0,0,1-2.88,1l-2-1.84a15.66,15.66,0,0,1-.3-3.65C50.07,39,55.12,40,55.1,40.62Z"/><path class="cls-11" d="M54.5,40s.7.23.74.5a1.79,1.79,0,0,1-.08.86,12.61,12.61,0,0,1-2.89.32,14.46,14.46,0,0,1-2.39-1.54c0-.24-.17-1-.05-1.07A25,25,0,0,1,54.5,40Z"/><path class="cls-9" d="M49.15,38.28s-1.19-8,.58-10.91a8.34,8.34,0,0,1,4.4-3.67l1.14.84a9.68,9.68,0,0,0-4,2.95c-1.64,2.35-.67,11-.67,11Z"/><path class="cls-12" d="M49.27,37.43a.54.54,0,0,0,.47.49.36.36,0,0,0,.43-.37.54.54,0,0,0-.47-.49A.36.36,0,0,0,49.27,37.43Z"/><path class="cls-13" d="M50.71,27.72c-.55,2.25.57,3,.61,3.54s.34,14.67.32,15.36-3.28.47-3.92-.86a1.16,1.16,0,0,1-.1-.3A9.26,9.26,0,0,1,47.44,44c-.24-3.39,0-10.21,0-10.21a39,39,0,0,1,1.42-6.49,4.79,4.79,0,0,1,1.32-2h0l1.9-.64.32-.1.33.64S51.25,25.46,50.71,27.72Z"/><path class="cls-9" d="M52.13,24.76a5.23,5.23,0,0,0-1.84,3.71c0,.14,0,.28,0,.42a4.8,4.8,0,0,0,.14,2c.15.42.51.7.52,1.19,0,1.93.05,3.86.07,5.79l0,3.89c0,.79,0,1.59,0,2.38,0,.42,0,.84,0,1.25a1.8,1.8,0,0,1-.05.52.3.3,0,0,1-.07.15.63.63,0,0,1-.52.24h-.08a7.85,7.85,0,0,1-2.65-.8A9.26,9.26,0,0,1,47.44,44a6.68,6.68,0,0,0,2.44,1c0-1.18,0-2.36,0-3.55,0-1.76,0-3.52,0-5.28,0-.71,0-1.43,0-2.14,0-.35,0-.69,0-1v-.51a1.46,1.46,0,0,0-.06-.55c0-.08-.12-.16-.17-.24a2.65,2.65,0,0,1-.27-.62,6.49,6.49,0,0,1-.17-2.28c0-.17,0-.33,0-.5a7.13,7.13,0,0,1,1-3l1.9-.64Z"/><path class="cls-9" d="M54.2,39.53s-.58-7.08,1.18-10a8.65,8.65,0,0,1,3.48-3.28,2.4,2.4,0,0,1,1.41-.08l.42.27.59.59a2.72,2.72,0,0,0-1.55.24,8.38,8.38,0,0,0-2.82,2.37C55.28,32,55.64,39.76,55.64,39.76Z"/><path class="cls-12" d="M54.36,38.62a.55.55,0,0,0,.47.49.36.36,0,0,0,.43-.38.54.54,0,0,0-.47-.49A.36.36,0,0,0,54.36,38.62Z"/><path class="cls-13" d="M62.76,42.19c.05,1,.09,1.77.06,2.09-.08,1-2.07,1.14-4.31,1.82s-4.81.88-5.09-1-.69-9.62-.6-11.87a4.8,4.8,0,0,1,2-4c1.14-1.07,3-1.57,3.71-2.45a1,1,0,0,0,0-1.46s-2-1.8,0-.49c.32.21.66.45,1,.7s.61.45.91.69c1.48,1.14,2.81,2.29,2.81,2.29s-.91,7.91-.85,8.24.2,2.27.33,4.22C62.71,41.35,62.73,41.79,62.76,42.19Z"/><path class="cls-9" d="M62.76,42.19a20.46,20.46,0,0,1-7.91,2.44l-.55,0,0-.55c0-.36-.9-8.9-.71-11a6.57,6.57,0,0,1,4.05-5.25,2.81,2.81,0,0,0,1.74-2.42h.15c.3.22.61.45.91.69a4,4,0,0,1-2.31,2.76,5.47,5.47,0,0,0-3.4,4.33c-.16,1.67.45,8.21.64,10.18a19.27,19.27,0,0,0,7.36-2.52C62.71,41.35,62.73,41.79,62.76,42.19Z"/><path class="cls-10" d="M47.83,52.52l3.23.43.38-.22.26-.15,1.8-1.07,2-.73,2.31-.85,2-.65,2-.7a2.1,2.1,0,0,1-.24,1.25c-.31.43,0,.93.13,1.37.06.25,0,.52.08.77a1.09,1.09,0,0,0,.07.3l.58-.22c.6-.24.59-.47.76-1.15a4,4,0,0,0,0-1.58A8.62,8.62,0,0,1,63,48c0-.55,0-1.1,0-1.65a9.81,9.81,0,0,0-.09-1.43,16.54,16.54,0,0,1-.29-3.71c0-.1-.09-.12-.22-.11.06-.67.2-2,.37-3.51,0,0,0-.07,0-.11L63,35.55c-1.63-1.18-3.41-1.48-5,.47l-.28,3.16-1-.3.49,2.38.05.23,0,1-1.64.92a6,6,0,0,1-1.84,1.31,37.39,37.39,0,0,0-3.48,1.64l-.75,1.37-.15,1,.85.73-1,1.25-.27.33Z"/><path class="cls-9" d="M58.33,41.48a9,9,0,0,0,.19.93c.23,1,.65,2.39,1.11,2.67a3.42,3.42,0,0,0,1.12.34,2.33,2.33,0,0,0,1,0,10,10,0,0,0,.94-2.79,17.17,17.17,0,0,0,.53-3.89,1.39,1.39,0,0,0-.76-.9h0A7.53,7.53,0,0,0,60.21,37L60,37c-.34,0-1.8,2.45-1.8,2.45v.13A14.65,14.65,0,0,0,58.33,41.48Z"/><path class="cls-9" d="M43.45,49.15c0,.09.1.69.16,1a.35.35,0,0,1,0,.12.74.74,0,0,0,.31.33,5.26,5.26,0,0,0,.52.5,1.3,1.3,0,0,0,.34.15,1.56,1.56,0,0,0,.42.27c.24.09.23-.17.23-.17a1,1,0,0,0,.23.16.41.41,0,0,0,.16,0,.77.77,0,0,0,.28-.07c.11,0,.12-.48.12-.48l.49-.69h0l.17-.24s.36-.11.59-.15.71.28,1.18.26a2.67,2.67,0,0,0,1.58-.68c.42-.4,2.84-.53,5.93-1.41s5.3-2,5.53-2.65a1.27,1.27,0,0,0,0-.84h0a3.07,3.07,0,0,0-.7-1.1,6.35,6.35,0,0,0-2.19-1.11h-.21l-.1,0C58,42.69,56,44,56,44a73.14,73.14,0,0,1-7.49,3.44,7.25,7.25,0,0,1-1.35-.25,4.92,4.92,0,0,0-1.8,0,8.31,8.31,0,0,0-1.42.89A2.57,2.57,0,0,0,43.45,49.15Z"/><path class="cls-14" d="M44.48,46.7l-.13-.14A.23.23,0,0,0,44.48,46.7Z"/><path class="cls-10" d="M40.48,48.81c0,.13.06.23.07.28,0,.21.27.2.27.2a.91.91,0,0,0,.17.27c.15.2.3.11.3.11l.24.17s.08.14.48.26.35-.21.35-.21h.11L42,49l.26-1.65.18-.75-.56,2.08.08.9-.19.21-.26-.22-.24-1.26L41.5,47l-.35,1.43.22,1a.32.32,0,0,1-.4-.31,8.17,8.17,0,0,1-.07-.88L41,47l-.28,1.38s.12.62.05.64S40.51,48.83,40.48,48.81Z"/><path class="cls-10" d="M46.74,50.28l.17-.24s.36-.11.59-.15.71.28,1.18.26a2.67,2.67,0,0,0,1.58-.68c.42-.4,2.84-.53,5.93-1.41s5.3-2,5.53-2.65a10,10,0,0,0,.94-2.79,17.17,17.17,0,0,0,.53-3.89,1.39,1.39,0,0,0-.76-.9h0L60.21,37l-.38-.15s-2.48-.07-1.61,2.7l.1.3s4-.34,4.1-.27.17.83.09,1.11-.46,2.91-.79,3.88h0a.72.72,0,0,1-.17.33c-.13.09-.38.27-.8.52A20.05,20.05,0,0,1,57,47.05c-2.81.93-7,2-7,2.05s-.65.74-.9.81A3.21,3.21,0,0,1,48,49.8C47.63,49.72,46.84,49.39,46.74,50.28Z"/><path class="cls-14" d="M45.85,51.53l-.39-.19a1,1,0,0,0,.23.16A.41.41,0,0,0,45.85,51.53Z"/><path class="cls-10" d="M43.61,50.14a.35.35,0,0,1,0,.12.74.74,0,0,0,.31.33,5.26,5.26,0,0,0,.52.5,1.3,1.3,0,0,0,.34.15,1.56,1.56,0,0,0,.42.27c.24.09.23-.17.23-.17l.08-.79.59-1-.74,1-.08.75a1.12,1.12,0,0,1-.39-.08l-.19-.2.08-1.29,1-1.11-1.11,1-.24,1.24a.39.39,0,0,1-.31-.28,9.18,9.18,0,0,1,0-1.65L45.38,48l-1.32.74a7,7,0,0,1-.15,1.5C43.85,50.29,43.73,50.21,43.61,50.14Z"/><path class="cls-11" d="M57.94,31.22s0,4.47.12,5.17.09,3.52.09,3.52a13.47,13.47,0,0,1,2.92-.81,19,19,0,0,1,2.19.21l.79.13s-.07-2.14-.2-4.84S64,30.54,63,29.07a2.69,2.69,0,0,0-2.9-1.27A3.29,3.29,0,0,0,57.94,31.22Z"/><path class="cls-9" d="M52.49,27.58c.26.56.93,1.23,3.11.53s3.5-2.24,3.42-2.42S57.93,25,57.52,24a3.6,3.6,0,0,1-.27-1.81c0-.15,0-.35,0-.59,0-.94,0-2.36,0-2.36s-1.18-.91-2.14-1.78-2.47.62-2.47.62l.07,7.13A5.85,5.85,0,0,0,52.49,27.58Z"/><path class="cls-9" d="M49.37,17.92a3.8,3.8,0,0,0-.31,2.1,8.18,8.18,0,0,0,.43,2.45c.16.4.77,2.26,1,2.59s.88,1.78,1.07,2,.41.36,1.28.29,2.54-1.76,3-2.42a2,2,0,0,0,.45-1.51c0-.24.89-1.43.85-2.19s-.49-4.56-2.6-4.75S49.37,17.92,49.37,17.92Z"/><path class="cls-10" d="M56.65,22.61a13.09,13.09,0,0,0,.76,2A4,4,0,0,0,59,25.69c-.09-.18-1.09-.69-1.5-1.68a3.6,3.6,0,0,1-.27-1.81c0-.15,0-.35,0-.59C56.89,21.7,56.65,22,56.65,22.61Z"/><path class="cls-15" d="M53.74,20.1a4.84,4.84,0,0,1,.59.84,4.49,4.49,0,0,0,.16.59,4.37,4.37,0,0,1,.66.2,1.89,1.89,0,0,1,.39.59c0,.14.05.61.05.61l.42-.5s-.44-1.63.48-1.62.38,1.38.38,1.38l.39.12s.44-.4.45-2.19a9.52,9.52,0,0,0-.39-3.84,3.43,3.43,0,0,0-2.7-1.88,5.81,5.81,0,0,0-4.49,1.45,6.47,6.47,0,0,0-1.29,3.07,6.27,6.27,0,0,0,.25,1.47s.25-.45.37-.38a2.94,2.94,0,0,0,1.8.53C52.39,20.52,53.44,19.92,53.74,20.1Z"/></g></g></svg>