<svg id="Layer_1" data-name="Layer 1" xmlns="http://www.w3.org/2000/svg" viewBox="0 0 100 100"><defs><style>.cls-1{fill:#808285;}</style></defs><path class="cls-1" d="M57.2,63.6a8.38,8.38,0,1,1,5.93-14.31h0A8.38,8.38,0,0,1,57.2,63.6Zm0-15.67a7.29,7.29,0,1,0,5.16,2.13A7.27,7.27,0,0,0,57.2,47.93Z"/><path class="cls-1" d="M57.2,61.54a6.32,6.32,0,1,1,4.47-10.79h0A6.32,6.32,0,0,1,57.2,61.54ZM57.2,50a5.22,5.22,0,1,0,3.7,1.53h0A5.19,5.19,0,0,0,57.2,50Z"/><path class="cls-1" d="M64.42,64.66A.51.51,0,0,1,64,64.5L61.52,62a.55.55,0,0,1,0-.77.53.53,0,0,1,.77,0l2.13,2.13.91-.91L63.2,60.31a.54.54,0,1,1,.77-.77l2.51,2.52a.53.53,0,0,1,0,.77L64.81,64.5A.51.51,0,0,1,64.42,64.66Z"/><path class="cls-1" d="M68.94,70.2a.54.54,0,0,1-.38-.15l-5-5a.55.55,0,0,1-.16-.38.57.57,0,0,1,.16-.39l2.7-2.69a.53.53,0,0,1,.77,0l5,5a.55.55,0,0,1,0,.77l-2.7,2.7A.54.54,0,0,1,68.94,70.2Zm-4.26-5.57,4.26,4.26L70.87,67,66.61,62.7Z"/><path class="cls-1" d="M66.32,67.58a.55.55,0,0,1-.39-.93l2.59-2.59a.55.55,0,0,1,.77,0,.53.53,0,0,1,0,.77L66.7,67.42A.51.51,0,0,1,66.32,67.58Z"/><path class="cls-1" d="M65.12,66.38a.59.59,0,0,1-.39-.16.55.55,0,0,1,0-.77l2.59-2.59a.54.54,0,0,1,.77.77L65.5,66.22A.57.57,0,0,1,65.12,66.38Z"/><path class="cls-1" d="M66.62,38.55H58.83a.47.47,0,0,1-.47-.47V30.47a.47.47,0,0,1,.8-.34L67,37.74a.47.47,0,0,1-.33.81Zm-7.31-.94h6.15l-6.15-6Z"/><path class="cls-1" d="M65.89,60.15a.47.47,0,0,1,0-.94.25.25,0,0,0,.26-.24V38.28l-7.51-7.34H45.44a.25.25,0,0,0-.26.24V59a.25.25,0,0,0,.26.24H49a.47.47,0,1,1,0,.94H45.44A1.19,1.19,0,0,1,44.24,59V31.18A1.19,1.19,0,0,1,45.44,30H58.83a.47.47,0,0,1,.33.13L67,37.74a.48.48,0,0,1,.14.34V59A1.19,1.19,0,0,1,65.89,60.15Z"/><path class="cls-1" d="M50.67,62.89h-8a1.19,1.19,0,0,1-1.2-1.18V33.92a1.19,1.19,0,0,1,1.2-1.18h2a.47.47,0,0,1,0,.94h-2a.25.25,0,0,0-.25.24V61.71a.24.24,0,0,0,.25.23h8a.48.48,0,0,1,.47.48A.47.47,0,0,1,50.67,62.89Z"/><path class="cls-1" d="M60.42,65.63H40a1.19,1.19,0,0,1-1.2-1.18V36.65A1.19,1.19,0,0,1,40,35.47h2a.49.49,0,0,1,.48.48.48.48,0,0,1-.48.47H40a.24.24,0,0,0-.25.23v27.8a.24.24,0,0,0,.25.23H60.42a.24.24,0,0,0,.25-.23V64a.47.47,0,1,1,.94,0v.5A1.18,1.18,0,0,1,60.42,65.63Z"/><path class="cls-1" d="M57.68,68.37H37.22A1.19,1.19,0,0,1,36,67.19V39.39a1.19,1.19,0,0,1,1.2-1.18h2a.48.48,0,1,1,0,.95h-2a.24.24,0,0,0-.25.23v27.8a.24.24,0,0,0,.25.23H57.68a.24.24,0,0,0,.25-.23v-2a.47.47,0,0,1,.47-.47.48.48,0,0,1,.48.47v2A1.19,1.19,0,0,1,57.68,68.37Z"/><path class="cls-1" d="M48.13,55.22h-.32a.47.47,0,0,1,0-.94h.32a.47.47,0,0,1,0,.94Z"/><path class="cls-1" d="M48.54,52h-.73a.48.48,0,0,1-.47-.48.47.47,0,0,1,.47-.47h.73a.47.47,0,0,1,.47.47A.48.48,0,0,1,48.54,52Z"/><path class="cls-1" d="M51.08,48.77H47.81a.47.47,0,1,1,0-.94h3.27a.47.47,0,1,1,0,.94Z"/><path class="cls-1" d="M63.51,48.77h-.39a.47.47,0,1,1,0-.94h.39a.47.47,0,1,1,0,.94Z"/><path class="cls-1" d="M63.51,45.55H47.81a.48.48,0,0,1-.47-.48.47.47,0,0,1,.47-.47h15.7a.47.47,0,0,1,.48.47A.48.48,0,0,1,63.51,45.55Z"/><path class="cls-1" d="M63.51,42.32H47.81a.47.47,0,0,1,0-.94h15.7a.47.47,0,1,1,0,.94Z"/><path class="cls-1" d="M57,39.1h-9.2a.48.48,0,0,1-.47-.48.47.47,0,0,1,.47-.47H57a.47.47,0,0,1,.47.47A.48.48,0,0,1,57,39.1Z"/><path class="cls-1" d="M56.64,35.87H47.81a.47.47,0,0,1,0-.94h8.83a.47.47,0,0,1,0,.94Z"/></svg>