<svg id="Layer_1" data-name="Layer 1" xmlns="http://www.w3.org/2000/svg" viewBox="0 0 100 100"><defs><style>.cls-1{fill:#f1f2f2;}.cls-2{fill:#f89e53;}.cls-3{fill:#231f20;}.cls-4{fill:#fff;}.cls-5{fill:#fec35a;}.cls-6{fill:#9d9fa2;}.cls-7{fill:#f5833c;}.cls-8{fill:#6d6e71;}</style></defs><path class="cls-1" d="M49.17,27.06a45.84,45.84,0,0,0-3,4.49C44.75,31,43.37,30.48,42.27,30a1.45,1.45,0,0,0-.37,1.83c1.09.57,3.32,2.4,4.38,2.59a1.14,1.14,0,0,0,1-.31,17.07,17.07,0,0,0,2.56-2.45c.57-.56,2.24-2.87,2.24-2.87Z"/><path class="cls-2" d="M51.42,30.84c2.44-1.93,3.83-5.62,2.47-7,0,0-1.15-1.48-2.91.33a36.71,36.71,0,0,0-3,3.65A8.47,8.47,0,0,1,51.42,30.84Z"/><path class="cls-3" d="M48.93,68s-.68.74-1.59,1.63L45.45,71.4c-.46.45-.08.86.79.83a16.11,16.11,0,0,0,3.47-.75,17.93,17.93,0,0,0,2.6-1.36,1.69,1.69,0,0,0,.77-1V67.77Z"/><path class="cls-3" d="M59.64,71.31l3.77-.43a9.88,9.88,0,0,1-.36,4.87c-.88,2.47-2.43,2.49-3,2.3s-.8-1.77-.7-3.55S59.64,71.31,59.64,71.31Z"/><path class="cls-4" d="M61.05,44.47a10.06,10.06,0,0,0-2.45-7.68c.22-1.69-7.65.68-7.65.68s-1.68,9.12-2.4,13.92c-.8,5.46-.31,16.58-.31,16.58s.1,1.18,2.13,1.18a6.25,6.25,0,0,0,3.22-1.38l-.35-12.65,1.81-9s.78,9,1.33,11.63c.59,2.78,2.28,14.45,2.28,14.45a5.09,5.09,0,0,0,3.44.08c2.22-.72,2.22-2,2.22-2s-.74-8.55-3.06-13.78C61.48,52.05,60.9,46.79,61.05,44.47Z"/><path class="cls-5" d="M53.72,23.19a12.86,12.86,0,0,0-2.33,4.28c-.58,2.23-1,12.81-1,12.81a10.32,10.32,0,0,0,6.42,1.36A5.45,5.45,0,0,0,60.46,40s1.45-10.79,1.26-12.24-3.46-3.55-3.46-3.55S56.14,22.24,53.72,23.19Z"/><path class="cls-4" d="M60.66,38.53a4.11,4.11,0,0,1-2.54.87c-1.11-.12-2.71-1.2-2.62-4.71a32.45,32.45,0,0,1,.41-5.12l-4.79-2.1a57,57,0,0,0-.83,8.13c-.23,5.23-.29,7.15-.29,7.15a65.81,65.81,0,0,0,7.17-.12A21.09,21.09,0,0,0,61,42Z"/><path class="cls-4" d="M54.68,29.86a.34.34,0,0,0,0,.47c.12.09.32,0,.44-.16s.13-.39,0-.47S54.8,29.68,54.68,29.86Z"/><path class="cls-6" d="M53.11,23.23s-2.18,3.8-2.32,5.15.06,1.62.6,1.67.64-.77.81-1.85a34.93,34.93,0,0,1,1.94-4.73Z"/><path class="cls-1" d="M55.43,26.36a2.74,2.74,0,0,0,1.13-.72A5.54,5.54,0,0,0,57.81,24c-.06-.48-.12-1-.15-1.45a15.18,15.18,0,0,1,.07-1.91c-1,.1-2.79,2.4-2.79,2.4l-.57,2.44S54.73,26.58,55.43,26.36Z"/><path class="cls-1" d="M56.69,16.47a3.14,3.14,0,0,0-4.9,1.66c-1,3,1.64,6.69,3.07,6.05a6,6,0,0,0,3-3.17A4.66,4.66,0,0,0,56.69,16.47Z"/><path class="cls-3" d="M51.55,19.08a2.67,2.67,0,0,0,2.61.79,5.71,5.71,0,0,0,2-.74l.24,1.57a1.26,1.26,0,0,0,.41-.15c0-.62.25-.82.59-.63s.4,1.09.4,1.09a3.23,3.23,0,0,0,.78-2.9c-.25-1.11-1.74-3.29-3.82-3.1a3.85,3.85,0,0,0-3.56,2.76A1.52,1.52,0,0,0,51.55,19.08Z"/><path class="cls-6" d="M55.22,30.66a20.65,20.65,0,0,1,2.21-3.53,7.55,7.55,0,0,1,2.24-1.93,3.34,3.34,0,0,0-.87-.7c-1.48.63-2.19,1.73-4.61,4.85-.61.79-.51,1.26-.32,1.55A.79.79,0,0,0,55.22,30.66Z"/><ellipse class="cls-4" cx="51.39" cy="29.03" rx="0.28" ry="0.4"/><path class="cls-4" d="M54.29,30.25a.36.36,0,0,0,0,.49c.13.09.33,0,.46-.17s.14-.4,0-.49S54.42,30.07,54.29,30.25Z"/><path class="cls-6" d="M50.75,30.41s-.22,1.3-.29,2.45c-.05.84,0,2.32,0,2.32a8.66,8.66,0,0,0,1.81.88c.91.29,2.07.6,2.07.6V34.32a22.73,22.73,0,0,1,.22-2.56s-.81-.18-2.07-.6A11.55,11.55,0,0,1,50.75,30.41Z"/><path class="cls-4" d="M51.39,31.4c0,.23-.12.4-.27.4s-.28-.17-.28-.4.12-.4.28-.4S51.39,31.18,51.39,31.4Z"/><ellipse class="cls-4" cx="52.47" cy="31.96" rx="0.28" ry="0.4"/><ellipse class="cls-4" cx="53.87" cy="32.36" rx="0.28" ry="0.4"/><path class="cls-4" d="M52.75,40.48s-.14,4.27.79,5.12,1.53.63,1.53.63-.91-.39-1.16-2.26a14.41,14.41,0,0,1-.16-2.77Z"/><path class="cls-4" d="M50.1,38.68v.87S54,42,56.69,42c3.41,0,4.19-.5,4.19-.5l0-.66a18,18,0,0,1-4.77.25C53.52,40.92,50.1,38.68,50.1,38.68Z"/><path class="cls-1" d="M62.92,35.55c.63.43,2.41.13,2.67-.42l-2.67-6.32L60,29.86s1,2.44,1.53,3.47A21.47,21.47,0,0,0,62.92,35.55Z"/><path class="cls-2" d="M60.55,33.08a4.64,4.64,0,0,0,4-2.17c-.7-1.63-3.09-6.63-5.35-4.69-1.22,1-.69,2.25,0,3.88C59.52,30.86,60.51,33.08,60.55,33.08Z"/><polygon class="cls-7" points="67.66 59.49 29.57 37.51 32.34 35.91 70.42 57.9 67.66 59.49"/><polygon class="cls-5" points="70.42 83.41 67.66 85 67.66 59.49 70.42 57.9 70.42 83.41"/><polygon class="cls-2" points="29.57 63.01 67.66 85 67.66 59.49 29.57 37.51 29.57 63.01"/><path class="cls-8" d="M35.27,50.34V47L35,46.83v3.36Z"/><path class="cls-8" d="M35.27,56.84V53.59a.18.18,0,0,1-.1,0L35,53.44v3.17Z"/><path class="cls-8" d="M35.05,63.05a1.7,1.7,0,0,1,.22.15V60a2,2,0,0,1-.25-.14V63Z"/><path class="cls-8" d="M35.27,43.78v-3L35,40.66v2.9Z"/><path class="cls-8" d="M32.31,51.9V48.55l-.25-.16v3.36Z"/><path class="cls-8" d="M32.31,58.4V55.15a.21.21,0,0,1-.1,0L32.06,55v3.17Z"/><path class="cls-8" d="M32.31,64.59v-3l-.25-.14v3Z"/><path class="cls-8" d="M32.31,45.34v-3.2L32.06,42v3.13Z"/><path class="cls-8" d="M41.69,54.06V50.7l-.25-.16V53.9Z"/><path class="cls-8" d="M41.69,60.56V57.31a.24.24,0,0,1-.1-.05l-.15-.1v3.16Z"/><path class="cls-8" d="M41.47,66.76l.22.15V63.73l-.25-.15v3.17Z"/><path class="cls-8" d="M41.69,47.49v-3l-.25-.14v2.9Z"/><path class="cls-8" d="M38.74,55.62V52.26l-.25-.16v3.36Z"/><path class="cls-8" d="M38.74,62.12V58.87a.27.27,0,0,1-.11,0l-.14-.1v3.16A2.83,2.83,0,0,0,38.74,62.12Z"/><path class="cls-8" d="M38.74,68.31v-3l-.25-.15v3Z"/><path class="cls-8" d="M38.74,49.05v-3.2l-.25-.14v3.12Z"/><path class="cls-8" d="M48.94,58.27V54.92l-.25-.16v3.36Z"/><path class="cls-8" d="M48.94,64.77V61.52a.21.21,0,0,1-.1,0l-.15-.11v3.17Z"/><path class="cls-8" d="M48.72,71l.22.14V67.94l-.25-.14V71Z"/><path class="cls-8" d="M48.94,51.71v-3l-.25-.14v2.9Z"/><path class="cls-8" d="M46,59.83V56.48l-.25-.16v3.36Z"/><path class="cls-8" d="M46,66.33V63.08a.25.25,0,0,1-.11,0l-.14-.11V66.1A2.73,2.73,0,0,0,46,66.33Z"/><path class="cls-8" d="M46,72.52v-3a2,2,0,0,1-.25-.14v3Z"/><path class="cls-8" d="M46,53.27v-3.2l-.25-.15v3.13Z"/><path class="cls-8" d="M55.37,62V58.63l-.25-.16v3.36Z"/><path class="cls-8" d="M55.37,68.49V65.23a.17.17,0,0,1-.11,0l-.14-.1v3.16Z"/><path class="cls-8" d="M55.15,74.69c.07,0,.15.09.22.15V71.66l-.25-.15v3.17Z"/><path class="cls-8" d="M55.37,55.42v-3l-.25-.14v2.9Z"/><path class="cls-8" d="M52.41,63.55V60.19L52.16,60v3.36Z"/><path class="cls-8" d="M52.41,70.05V66.79a.14.14,0,0,1-.1,0l-.15-.1v3.16Z"/><path class="cls-8" d="M52.41,76.24v-3l-.25-.15v3A2.35,2.35,0,0,1,52.41,76.24Z"/><path class="cls-8" d="M52.41,57v-3.2l-.25-.14v3.12Z"/><path class="cls-8" d="M61.55,65.56V62.2L61.3,62V65.4Z"/><path class="cls-8" d="M61.55,72.06V68.8a.14.14,0,0,1-.1,0l-.15-.11v3.17Z"/><path class="cls-8" d="M61.33,78.26a1.7,1.7,0,0,1,.22.15V75.23l-.25-.15v3.17Z"/><path class="cls-8" d="M61.55,59V56l-.25-.14v2.9Z"/><path class="cls-8" d="M58.59,67.12V63.76l-.25-.16V67Z"/><path class="cls-8" d="M58.59,73.62V70.36a.14.14,0,0,1-.1,0l-.15-.1v3.16Z"/><path class="cls-8" d="M58.59,79.8v-3l-.25-.15v3Z"/><path class="cls-8" d="M58.59,60.55v-3.2l-.25-.15v3.13Z"/><path class="cls-8" d="M65,70.83V67.47l-.25-.16v3.36Z"/><path class="cls-8" d="M65,77.33V74.08a.27.27,0,0,1-.11,0l-.14-.1V77.1Z"/><path class="cls-8" d="M65,83.52v-3l-.25-.14v3Z"/><path class="cls-8" d="M65,64.26v-3.2l-.25-.14v3.13Z"/><polygon class="cls-8" points="29.57 40.67 67.66 62.66 67.66 62.36 29.57 40.37 29.57 40.67"/><polygon class="cls-8" points="29.57 43.92 67.66 65.91 67.66 65.6 29.57 43.61 29.57 43.92"/><polygon class="cls-8" points="29.57 47.16 67.66 69.15 67.66 68.85 29.57 46.86 29.57 47.16"/><polygon class="cls-8" points="29.57 50.41 67.66 72.4 67.66 72.1 29.57 50.11 29.57 50.41"/><polygon class="cls-8" points="29.57 53.66 67.66 75.65 67.66 75.34 29.57 53.35 29.57 53.66"/><polygon class="cls-8" points="29.57 56.9 67.66 78.89 67.66 78.59 29.57 56.6 29.57 56.9"/><polygon class="cls-8" points="29.57 60.15 67.66 82.14 67.66 81.84 29.57 59.85 29.57 60.15"/><polygon class="cls-8" points="70.43 60.76 67.66 62.36 67.66 62.66 70.43 61.06 70.43 60.76"/><polygon class="cls-8" points="70.43 64 67.66 65.6 67.66 65.91 70.43 64.31 70.43 64"/><polygon class="cls-8" points="70.43 67.25 67.66 68.85 67.66 69.15 70.43 67.55 70.43 67.25"/><polygon class="cls-8" points="70.43 70.5 67.66 72.1 67.66 72.4 70.43 70.8 70.43 70.5"/><polygon class="cls-8" points="70.43 73.74 67.66 75.34 67.66 75.65 70.43 74.05 70.43 73.74"/><polygon class="cls-8" points="70.43 76.99 67.66 78.59 67.66 78.89 70.43 77.29 70.43 76.99"/><polygon class="cls-8" points="70.42 80.24 67.66 81.84 67.66 82.14 70.42 80.54 70.42 80.24"/><path class="cls-8" d="M32.6,36.24c-.28-.17-.5.09-.81.33s-1.18.44-1.38.75.23.53.77.71.62.54,1,.78c1.23.75,1.87.6,2.35,1.23s2,1.06,2.43,1.25,1.2,1,1.64,1.18S40,43.53,40.83,43s1.88-.58,1.17-1.2-1.46-.72-2.37-1.39c-.56-.42-2.42-1-2.77-1.42a9.88,9.88,0,0,0-2.28-1.46A18.51,18.51,0,0,1,32.6,36.24Z"/><path class="cls-8" d="M42.33,42.6a2.36,2.36,0,0,0-1.38.75c-.24.39.24.53.78.71s.61.54,1,.78c1.24.75,1.87.6,2.35,1.23s2,1.06,2.44,1.25,1.19,1,1.64,1.18,1.42,1.06,2.21.51,1.88-.58,1.18-1.2-1.47-.72-2.37-1.39c-.57-.42-2.43-1-2.78-1.42a9.68,9.68,0,0,0-2.28-1.46A4.78,4.78,0,0,0,42.33,42.6Z"/><path class="cls-8" d="M52.77,48.64a2.36,2.36,0,0,0-1.38.75c-.24.39.23.53.78.71s.61.54,1,.78c1.24.75,1.87.6,2.35,1.22s2,1.07,2.44,1.26,1.19.94,1.63,1.18,1.43,1.06,2.22.51,1.88-.58,1.17-1.2-1.46-.72-2.37-1.39c-.56-.42-2.42-1-2.77-1.42a9.88,9.88,0,0,0-2.28-1.46A4.78,4.78,0,0,0,52.77,48.64Z"/><path class="cls-8" d="M66.21,58.24c.21.27,1,1,1.74.75.28-.1,1-.74,1.27-.87.8-.36,0-.69-.73-1a13.41,13.41,0,0,1-2.24-1.44,4.86,4.86,0,0,0-2.79-.93,2.36,2.36,0,0,0-1.38.75c-.24.39.23.52.77.71s.62.54,1,.78C65.09,57.77,65.73,57.62,66.21,58.24Z"/><path class="cls-1" d="M43.1,30.37s-.82-1.24-1.59-1.34-1.48-.44-1.72-.22.4.66.8.74.39,1,1.16,1.45S43.1,30.37,43.1,30.37Z"/><rect class="cls-8" x="36.96" y="28.99" width="5.1" height="0.45" transform="translate(27.27 -18.38) rotate(39.1)"/><path class="cls-3" d="M40.59,30.84a15,15,0,0,0,1.63,1.52c.94.76,1.94.2.88-.76a18.19,18.19,0,0,0-2.18-1.67Z"/><path class="cls-1" d="M39.62,29.67c.52-.14.8-.33,1.13-.2.17.06.31.12.17.47.32.12.44.26.23.44.12.15.77.32.34.75.28.28,0,.52-.37.69-.67.27-.88.19-1.27-.41S38.82,29.88,39.62,29.67Z"/><path class="cls-8" d="M36.28,25.61a.62.62,0,0,1,.68,0c.35.24.28.39.73.51a.73.73,0,0,1,.63.65.75.75,0,0,0,.53.63.56.56,0,0,1,.37.85c-.25.41-1.24.38-1.53.14A21.46,21.46,0,0,1,36.28,25.61Z"/><path class="cls-6" d="M36.56,25.6c.25.23,1,.86,2.1,2,.73.75,1.14,1.37.33,1.54s-1.42.22-1.74.28-.56-.07-.73-.81c-.08-.36-.49-2.24-.55-2.68C35.87,25.27,36.15,25.22,36.56,25.6Z"/><polygon class="cls-5" points="59.28 43.17 61.88 41.67 61.88 38.99 59.28 40.49 59.28 43.17"/><polygon class="cls-2" points="59.28 43.17 53.56 39.85 53.57 37.18 59.28 40.49 59.28 43.17"/><polygon class="cls-7" points="61.88 38.99 59.28 40.49 53.57 37.18 56.18 35.68 61.88 38.99"/><path class="cls-1" d="M63.22,34.56a26.89,26.89,0,0,0-3.48,1.19c-1,.52-1.93.65-2.47,1.43s-1.51,2.83-.85,3.3c.85,1.11,1.9-.51,2.11-.8.75-1,.92-2,1.33-2,.6.06,4.21-.48,5.23-1.22a1.59,1.59,0,0,0,.55-1.23C65.45,34.48,63.22,34.56,63.22,34.56Z"/></svg>