<svg id="Layer_1" data-name="Layer 1" xmlns="http://www.w3.org/2000/svg" viewBox="0 0 100 100"><defs><style>.cls-1{fill:#424147;}.cls-2{fill:#fff;}.cls-3{fill:#f89e54;}.cls-4{fill:#fdc25c;}.cls-5{fill:#d1d2d3;}.cls-6{fill:#dbdcdd;}.cls-7{fill:#221f1f;}</style></defs><path class="cls-1" d="M65.84,38.87c-.68-1.3-1.36-2.6-2-3.91a13.41,13.41,0,0,0-1.67-2.73,3.82,3.82,0,0,0-2.32-1.31,2.8,2.8,0,0,1-1.71-.76,9.82,9.82,0,0,1-.86-1.07,2.23,2.23,0,0,0-1.47-1,3.65,3.65,0,0,0-1.13.26c-1,.18-1.14-.48-1.56-1.12-1.28-2-3.31.29-5.46-.72a6.1,6.1,0,0,0-.72-.37,1.38,1.38,0,0,0-1.11,0c-.7.32-1,.93-1.92,1a3.08,3.08,0,0,0-1.53.29,2.12,2.12,0,0,0-.68.83c-.46.84-.69,1.35-1.78,1.48a4.13,4.13,0,0,0-2.47,1.34,6.23,6.23,0,0,1-2.18,1.31,5.73,5.73,0,0,0-1.71.86C31.31,35,31.14,38,31.09,40.62a.18.18,0,0,0,.22.17c5.94-1.17,10.37-5.58,15.59-8.3a3.64,3.64,0,0,1,1.61-.58,4.22,4.22,0,0,1,1.67.58c.72.33,1.43.68,2.13,1,1.46.74,2.9,1.52,4.36,2.27a33.14,33.14,0,0,0,9,3.35A.2.2,0,0,0,65.84,38.87Z"/><polygon class="cls-2" points="48.77 35.58 75.36 50.92 75.36 44.95 48.77 29.6 48.77 35.58"/><path class="cls-3" d="M50.24,64.07c0,.09.13.16.29.16s.29-.07.29-.16-.13-.17-.29-.17S50.24,64,50.24,64.07Z"/><rect class="cls-3" x="50.24" y="54.65" width="0.58" height="9.41" transform="translate(101.07 118.72) rotate(180)"/><ellipse class="cls-4" cx="50.53" cy="54.65" rx="0.29" ry="0.16"/><path class="cls-3" d="M46.63,64.07c0,.09.13.16.29.16s.3-.07.3-.16-.13-.17-.3-.17S46.63,64,46.63,64.07Z"/><rect class="cls-3" x="46.63" y="54.65" width="0.58" height="9.41" transform="translate(93.85 118.72) rotate(180)"/><ellipse class="cls-4" cx="46.92" cy="54.65" rx="0.29" ry="0.16"/><ellipse class="cls-3" cx="48.77" cy="65.16" rx="0.29" ry="0.16"/><rect class="cls-3" x="48.47" y="55.74" width="0.58" height="9.41" transform="translate(97.53 120.9) rotate(180)"/><ellipse class="cls-4" cx="48.77" cy="55.74" rx="0.29" ry="0.16"/><polygon class="cls-5" points="48.77 35.58 22.17 50.92 22.17 44.95 48.77 29.6 48.77 35.58"/><polygon class="cls-5" points="76.4 50.98 48.77 66.93 48.77 60.92 76.4 44.97 76.4 50.98"/><polygon class="cls-2" points="21.13 50.98 48.77 66.93 48.77 60.92 21.13 44.97 21.13 50.98"/><polygon class="cls-5" points="76.12 51.41 56.03 63.02 56.03 57.01 76.12 45.39 76.12 51.41"/><polygon class="cls-2" points="55.28 57.14 55.28 63.15 68.44 70.75 68.44 64.74 55.28 57.14"/><polygon class="cls-2" points="76.12 45.39 76.12 51.41 88.55 58.6 88.55 52.58 76.12 45.39"/><path class="cls-6" d="M48.77,29.05,21.13,45l27.64,16L76.4,45ZM22.17,45l26.6-15.32L75.36,45,48.77,60.3Z"/><polygon class="cls-5" points="89.56 58.6 68.44 70.75 68.44 64.74 89.56 52.58 89.56 58.6"/><polygon class="cls-2" points="38.7 35.38 38.7 41.39 48.77 47.21 48.77 41.2 38.7 35.38"/><polygon class="cls-5" points="58.84 41.39 48.77 47.21 48.77 41.2 58.84 35.38 58.84 41.39"/><path class="cls-6" d="M76.4,45,55.28,57.14l13.16,7.6L89.57,52.58ZM56,57l20.1-11.62,12.42,7.19-20.1,11.6Z"/><polygon class="cls-6" points="58.84 35.38 48.77 41.2 38.7 35.38 39.25 35.04 48.77 40.55 58.25 35.07 58.84 35.38"/><ellipse class="cls-3" cx="58.81" cy="43.23" rx="0.29" ry="0.16"/><rect class="cls-3" x="58.52" y="33.81" width="0.58" height="9.41"/><ellipse class="cls-4" cx="58.81" cy="33.81" rx="0.29" ry="0.16"/><path class="cls-3" d="M61.34,44.51c0,.09-.13.17-.29.17s-.29-.08-.29-.17.13-.16.29-.16S61.34,44.42,61.34,44.51Z"/><rect class="cls-3" x="60.76" y="35.1" width="0.58" height="9.41"/><path class="cls-4" d="M61.34,35.1c0,.09-.13.16-.29.16s-.29-.07-.29-.16.13-.16.29-.16S61.34,35,61.34,35.1Z"/><path class="cls-3" d="M63.57,45.8c0,.09-.13.17-.29.17S63,45.89,63,45.8s.13-.16.29-.16S63.57,45.71,63.57,45.8Z"/><rect class="cls-3" x="62.99" y="36.39" width="0.58" height="9.41"/><path class="cls-4" d="M63.57,36.39c0,.09-.13.16-.29.16s-.29-.07-.29-.16.13-.17.29-.17S63.57,36.3,63.57,36.39Z"/><path class="cls-3" d="M65.8,47.09c0,.09-.13.16-.29.16s-.29-.07-.29-.16.13-.16.29-.16S65.8,47,65.8,47.09Z"/><rect class="cls-3" x="65.22" y="37.68" width="0.58" height="9.41"/><path class="cls-4" d="M65.8,37.68c0,.09-.13.16-.29.16s-.29-.07-.29-.16.13-.17.29-.17S65.8,37.59,65.8,37.68Z"/><path class="cls-3" d="M68,48.38c0,.09-.13.16-.29.16s-.29-.07-.29-.16.13-.16.29-.16S68,48.29,68,48.38Z"/><rect class="cls-3" x="67.45" y="38.96" width="0.58" height="9.41"/><path class="cls-4" d="M68,39c0,.09-.13.17-.29.17s-.29-.08-.29-.17.13-.16.29-.16S68,38.87,68,39Z"/><path class="cls-3" d="M38.41,43c0,.09.13.16.29.16s.3-.07.3-.16-.13-.17-.3-.17S38.41,42.89,38.41,43Z"/><rect class="cls-3" x="38.41" y="33.56" width="0.58" height="9.41" transform="translate(77.41 76.54) rotate(180)"/><path class="cls-4" d="M38.41,33.56c0,.09.13.16.29.16s.3-.07.3-.16-.13-.16-.3-.16S38.41,33.47,38.41,33.56Z"/><ellipse class="cls-3" cx="36.47" cy="44.26" rx="0.29" ry="0.16"/><rect class="cls-3" x="36.18" y="34.85" width="0.58" height="9.41" transform="translate(72.95 79.11) rotate(180)"/><ellipse class="cls-4" cx="36.47" cy="34.85" rx="0.29" ry="0.16"/><ellipse class="cls-3" cx="34.24" cy="45.55" rx="0.29" ry="0.16"/><rect class="cls-3" x="33.95" y="36.14" width="0.58" height="9.41" transform="translate(68.49 81.69) rotate(180)"/><ellipse class="cls-4" cx="34.24" cy="36.14" rx="0.29" ry="0.16"/><ellipse class="cls-3" cx="32.01" cy="46.84" rx="0.29" ry="0.16"/><rect class="cls-3" x="31.72" y="37.43" width="0.58" height="9.41" transform="translate(64.02 84.27) rotate(180)"/><ellipse class="cls-4" cx="32.01" cy="37.43" rx="0.29" ry="0.16"/><ellipse class="cls-3" cx="29.78" cy="48.13" rx="0.29" ry="0.16"/><rect class="cls-3" x="29.49" y="38.71" width="0.58" height="9.41" transform="translate(59.56 86.84) rotate(180)"/><ellipse class="cls-4" cx="29.78" cy="38.71" rx="0.29" ry="0.16"/><ellipse class="cls-3" cx="76.12" cy="52.99" rx="0.29" ry="0.16"/><rect class="cls-3" x="75.83" y="43.58" width="0.58" height="9.41" transform="translate(152.25 96.57) rotate(180)"/><ellipse class="cls-4" cx="76.12" cy="43.58" rx="0.29" ry="0.16"/><ellipse class="cls-3" cx="73.89" cy="54.28" rx="0.29" ry="0.16"/><rect class="cls-3" x="73.6" y="44.86" width="0.58" height="9.41" transform="translate(147.78 99.14) rotate(180)"/><ellipse class="cls-4" cx="73.89" cy="44.86" rx="0.29" ry="0.16"/><ellipse class="cls-3" cx="71.66" cy="55.57" rx="0.29" ry="0.16"/><rect class="cls-3" x="71.37" y="46.15" width="0.58" height="9.41" transform="translate(143.32 101.72) rotate(180)"/><ellipse class="cls-4" cx="71.66" cy="46.15" rx="0.29" ry="0.16"/><ellipse class="cls-3" cx="69.43" cy="56.85" rx="0.29" ry="0.16"/><rect class="cls-3" x="69.14" y="47.44" width="0.58" height="9.41" transform="translate(138.86 104.29) rotate(180)"/><ellipse class="cls-4" cx="69.43" cy="47.44" rx="0.29" ry="0.16"/><ellipse class="cls-3" cx="67.2" cy="58.14" rx="0.29" ry="0.16"/><rect class="cls-3" x="66.91" y="48.73" width="0.58" height="9.41" transform="translate(134.4 106.87) rotate(180)"/><ellipse class="cls-4" cx="67.2" cy="48.73" rx="0.29" ry="0.16"/><path class="cls-1" d="M52.87,75.35A2.62,2.62,0,0,1,55,74.74a3.37,3.37,0,0,1,1,.59,3.87,3.87,0,0,0,2,.85,5.79,5.79,0,0,0,3.56-.67c1.31-.8,1.38-2,1.72-3.29a6.88,6.88,0,0,1,1.63-2.65,3.55,3.55,0,0,0,.84-2.26h0a2.68,2.68,0,0,0-1.25-1.09c-.6-.26-1.24-.44-1.84-.74a3.58,3.58,0,0,0-3.12-.29,4.14,4.14,0,0,0-1.4,1.13,2.49,2.49,0,0,1-.86.75,2.69,2.69,0,0,1-.5,0,2.68,2.68,0,0,0-.83.26,2.92,2.92,0,0,0-1.25,1.35,2.41,2.41,0,0,1-1.45,1.38,9.55,9.55,0,0,0-1.12.43,3.53,3.53,0,0,0-1.24,1.16,9.72,9.72,0,0,0-.68,2.1c-.17.41-1.2,1.15-1.58,1.93l.11,0A4.31,4.31,0,0,0,52.87,75.35Z"/><path class="cls-7" d="M48.86,76.94a4.87,4.87,0,0,0,5.58-.12,7.33,7.33,0,0,0,8.51.11c2.19-1.34,1-3.93,2.34-5.22a3.32,3.32,0,0,0,.49-4.4,3.55,3.55,0,0,1-.84,2.26,6.88,6.88,0,0,0-1.63,2.65c-.34,1.34-.41,2.49-1.72,3.29a5.79,5.79,0,0,1-3.56.67,3.87,3.87,0,0,1-2-.85,3.37,3.37,0,0,0-1-.59,2.62,2.62,0,0,0-2.15.61,4.31,4.31,0,0,1-4.11.39l-.11,0A.94.94,0,0,0,48.86,76.94Z"/><path class="cls-7" d="M61.86,72.55a.66.66,0,0,0-.44.5.48.48,0,0,0,0,.24.38.38,0,0,0,.29.32.5.5,0,0,0,.55-.25C62.5,73,62.38,72.35,61.86,72.55Z"/><path class="cls-7" d="M54,71.18a.46.46,0,0,0-.31.36.35.35,0,0,0,0,.17.27.27,0,0,0,.21.22.35.35,0,0,0,.39-.17C54.44,71.52,54.35,71,54,71.18Z"/><path class="cls-7" d="M59.29,66.37a.49.49,0,0,0-.31.36.47.47,0,0,0,0,.17.29.29,0,0,0,.21.23A.36.36,0,0,0,59.6,67C59.75,66.72,59.66,66.23,59.29,66.37Z"/><path class="cls-7" d="M61.24,73.82c-.2-.25-1.29-.51-1.41.06s.54.66.9.63S61.54,74.2,61.24,73.82Z"/><path class="cls-7" d="M61.73,66.82c-.2-.25-1.29-.51-1.41.07-.09.42.54.66.9.63S62,67.2,61.73,66.82Z"/><path class="cls-7" d="M52.94,74.16c-.2-.25-1.29-.51-1.41.07-.09.41.54.65.9.63S53.24,74.54,52.94,74.16Z"/><path class="cls-7" d="M63.1,69.65c-.21-.21-.45-.09-.62.08a.36.36,0,0,0-.5,0,.4.4,0,0,0-.08.49.42.42,0,0,0-.26.21.57.57,0,0,0,.44.72.75.75,0,0,0,.87-.2.57.57,0,0,0,0-.51A.5.5,0,0,0,63.1,69.65Z"/><path class="cls-7" d="M55.7,72.64c-.22-.3-.68-.16-1,.07,0-.23-.14-.43-.42-.31a.46.46,0,0,0-.19.6.71.71,0,0,0-.84.32c-.22.46.39.55.73.49a.66.66,0,0,0,1,.3c.21-.13.39-.5.27-.71C55.6,73.29,56,73,55.7,72.64Z"/><path class="cls-7" d="M60.54,68.12a.6.6,0,0,0-.87,0,.79.79,0,0,0-.78-.31c-.29.12-.1.38.09.56a.42.42,0,0,0-.41.48c0,.41.52.4.84.29.15.29.45.56.78.31a.6.6,0,0,0,.23-.42.64.64,0,0,0-.05-.23l0,0h0A.42.42,0,0,0,60.54,68.12Z"/><path class="cls-1" d="M49.09,68.23a3.33,3.33,0,0,0,2.79-.32A1.82,1.82,0,0,0,52.13,65a1.51,1.51,0,0,0-.43,0c-1,.09-1.26,1.21-2.14,1.39a5.09,5.09,0,0,0-1.64.6C48.3,67.64,48.23,68,49.09,68.23Z"/><path class="cls-7" d="M47.61,68.59a3.93,3.93,0,0,0,2.33,1.1,4.76,4.76,0,0,0,2.73-.62c1.41-.67,1.09-2.38.36-3.44a1.51,1.51,0,0,0-.9-.66,1.82,1.82,0,0,1-.25,2.94,3.33,3.33,0,0,1-2.79.32c-.86-.28-.79-.59-1.17-1.3C47.21,67.37,47,68,47.61,68.59Z"/><path class="cls-1" d="M19.55,53.71c1.06.26,2.11-.3,3.18-.17a3,3,0,0,1,2,1.27c.82,1.09,1.13,2.3,2.75,2.31a8,8,0,0,1,3.05.13c.43.16.81.41,1.22.6.78.37,2.58.69,2.78-.44a12.3,12.3,0,0,0-.94-2.13,2.92,2.92,0,0,0-.69-.87c-.37-.25-.66-.14-1.06-.24-1-.26-.86-1.58-1.81-1.82a1.94,1.94,0,0,0-.42,0,1.62,1.62,0,0,1-1.5-.58,3.22,3.22,0,0,0-1.1-.87,4.22,4.22,0,0,0-.6-.2c-.21,0-.63,0-.78-.07s-.33-.54-.53-.79A2.38,2.38,0,0,0,23,48.93c-.69.09-1.43-1.58-2.3-1a7.46,7.46,0,0,0-1.86,2,1.4,1.4,0,0,1,0,.37C18.84,51.5,17.55,53.23,19.55,53.71Z"/><path class="cls-7" d="M17.35,54.94a3.51,3.51,0,0,0,2.55,1,8.12,8.12,0,0,1,1.9.25,2.54,2.54,0,0,1,1.77,1.64c.34,1.19,1.49,2.24,3.66,2.22,1.27,0,3.12-.52,4.71,0,2.08.68,3.42-.11,3.15-.88-.19-.57-.38-1.17-.58-1.75-.2,1.13-2,.81-2.78.44-.41-.19-.79-.44-1.22-.6a8,8,0,0,0-3.05-.13c-1.62,0-1.93-1.22-2.75-2.31a3,3,0,0,0-2-1.27c-1.07-.13-2.12.43-3.18.17-2-.48-.71-2.21-.67-3.45a1.4,1.4,0,0,0,0-.37,14.66,14.66,0,0,0-1.36,2.45C17.09,53.24,16.76,54.09,17.35,54.94Z"/><path class="cls-7" d="M30.61,55.54a.66.66,0,0,0-.13.46c0,.2.14.31.3.4s.76.18.82-.23C31.63,56,31,55.16,30.61,55.54Z"/><path class="cls-7" d="M28.47,54.92a.86.86,0,0,0-.8-.39.53.53,0,0,0-.39.22.58.58,0,0,0-.84,0c-.18.28.13.46.37.57a.59.59,0,0,0,.19.91c.41.19.65-.15.74-.51C28.23,55.87,28.82,55.46,28.47,54.92Z"/><path class="cls-7" d="M21.69,51.42c-.34-.05-1.09.61-.91,1s.87.25,1.13,0S22.19,51.49,21.69,51.42Z"/><path class="cls-7" d="M20.79,50.5c-.53,0-.49.78-.42.88.2.27.55,0,.66-.22S21.1,50.5,20.79,50.5Z"/><path class="cls-1" d="M46.32,65.09c-.17-.85-.75-1.35-3.12-1-.78.1-.64-.09-1.13-.38a1.91,1.91,0,0,0-.76-.26c-.69-.08-1.77.24-1.8,1.08,0,1.34,1.67.81,2.22,1.43.34.37.37.67.91.88a3.17,3.17,0,0,0,1.88,0C45.3,66.58,46.51,66.11,46.32,65.09Z"/></svg>