<svg id="Layer_1" data-name="Layer 1" xmlns="http://www.w3.org/2000/svg" viewBox="0 0 100 100"><defs><style>.cls-1{fill:#f7b541;stroke:#231f20;stroke-miterlimit:10;stroke-width:0.3px;}.cls-2{fill:#fff;}.cls-3{fill:#6d6e71;}.cls-4{fill:#231f20;}.cls-5{fill:#a7a9ac;}.cls-6{fill:#dcddde;}.cls-7{fill:#ffe2ae;}</style></defs><path class="cls-1" d="M49.93,15.43A21.51,21.51,0,0,0,32.71,49.84c3.62,4.87,3.46,5.51,3.33,9.3h0c0,.15,0,.3,0,.45a13.27,13.27,0,0,0,3.34,8.83h20a13.3,13.3,0,0,0,3.35-8.61h0c.06-3.8-.07-4.44,3.83-9.17A21.51,21.51,0,0,0,49.93,15.43Z"/><ellipse class="cls-2" cx="49.05" cy="34.75" rx="20.35" ry="18.3" transform="translate(-7.37 14) rotate(-15.12)"/><path class="cls-3" d="M42,73.34V82c0,.69,4.35,3,6.17,3.32a8.47,8.47,0,0,0,2.25,0c1.82-.37,6.17-2.63,6.17-3.32V73.34Z"/><path class="cls-4" d="M43.49,83.3a21.42,21.42,0,0,1,10.59-1.61c.84.11,1.67.25,2.5.38,0,0,0,0,0,0V73.34H42V82C42,82.29,42.62,82.77,43.49,83.3Z"/><path class="cls-5" d="M39.34,68.4V79.05a2.21,2.21,0,0,0,2.21,2.21H57a2.21,2.21,0,0,0,2.21-2.21V68.4Z"/><path class="cls-3" d="M57,78.77,41.55,80.06a2,2,0,0,1-2.21-2v1a2.21,2.21,0,0,0,2.21,2.21H57a2.21,2.21,0,0,0,2.21-2.21V76.37A2.46,2.46,0,0,1,57,78.77Z"/><rect class="cls-6" x="38.37" y="69.92" width="21.67" height="2.01" rx="0.36" transform="translate(-10.26 8.35) rotate(-8.79)"/><path class="cls-2" d="M38.7,72l20.71-3.2a.36.36,0,0,1,.41.3l.15,1a.34.34,0,0,0,.05-.22l-.2-1.28a.37.37,0,0,0-.41-.3L38.7,71.53a.36.36,0,0,0-.3.41l0,.29A.35.35,0,0,1,38.7,72Z"/><path class="cls-4" d="M60,69.65a.36.36,0,0,1-.3.27L39,73.12a.36.36,0,0,1-.41-.3v-.08h0l.08.48a.35.35,0,0,0,.41.3l20.71-3.2a.37.37,0,0,0,.3-.41Z"/><rect class="cls-6" x="38.37" y="73.28" width="21.67" height="2.01" rx="0.36" transform="translate(-10.77 8.39) rotate(-8.79)"/><path class="cls-2" d="M38.7,75.4l20.71-3.2a.37.37,0,0,1,.41.3l.15,1a.33.33,0,0,0,.05-.22L59.82,72a.37.37,0,0,0-.41-.3L38.7,74.9a.35.35,0,0,0-.3.41l0,.28A.37.37,0,0,1,38.7,75.4Z"/><path class="cls-4" d="M60,73a.39.39,0,0,1-.3.27L39,76.49a.37.37,0,0,1-.41-.3V76.1h0l.08.47a.35.35,0,0,0,.41.3l20.71-3.2a.36.36,0,0,0,.3-.41Z"/><rect class="cls-6" x="38.37" y="76.65" width="21.67" height="2.01" rx="0.36" transform="translate(-11.29 8.43) rotate(-8.79)"/><path class="cls-2" d="M38.7,78.77l20.71-3.21a.37.37,0,0,1,.41.3l.15,1a.36.36,0,0,0,.05-.23l-.2-1.27a.36.36,0,0,0-.41-.3L38.7,78.26a.35.35,0,0,0-.3.41l0,.28A.34.34,0,0,1,38.7,78.77Z"/><path class="cls-4" d="M60,76.38a.36.36,0,0,1-.3.27L39,79.85a.36.36,0,0,1-.41-.3v-.08h0l.08.48a.36.36,0,0,0,.41.3L59.72,77a.36.36,0,0,0,.3-.41Z"/><path class="cls-7" d="M46.56,23.75c9.15-2.47,18.35,1.07,22.6,8.08a16.51,16.51,0,0,0-.46-2.39c-2.63-9.76-13.57-15.29-24.42-12.36S26.76,30.3,29.4,40.06a16.94,16.94,0,0,0,1.83,4.27C30.17,35.34,36.59,26.44,46.56,23.75Z"/><polygon class="cls-4" points="53.14 19.63 42.63 41.4 50.01 41.43 46.49 50.17 43.17 50.28 44.6 62.66 55.7 50.72 50.55 50.7 56.37 36.89 49.15 36.89 57.22 19.81 53.14 19.63"/></svg>