<svg id="Layer_1" data-name="Layer 1" xmlns="http://www.w3.org/2000/svg" viewBox="0 0 100 100"><defs><style>.cls-1{fill:#f89e53;}.cls-2{fill:#636466;}.cls-3{fill:#231f20;}.cls-4{fill:#fff;}.cls-5{fill:#fec35a;}.cls-6{fill:#9d9fa2;}</style></defs><path class="cls-1" d="M74.27,54.55h0a1,1,0,0,1-.53-1.26l2.78-6.78A1,1,0,0,1,77.78,46a1,1,0,0,1,.54,1.26L75.54,54A1,1,0,0,1,74.27,54.55Z"/><path class="cls-1" d="M76.89,56.55h0a1,1,0,0,1-.53-1.27l2.78-6.78a1,1,0,1,1,1.79.74L78.16,56A1,1,0,0,1,76.89,56.55Z"/><rect class="cls-2" x="44.44" y="38.8" width="1.24" height="4.19"/><polygon class="cls-2" points="45.68 38.41 45.46 39.63 43.84 39.33 43.63 38.9 43.26 37.96 45.68 38.41"/><polygon class="cls-2" points="45.68 42.99 45.39 42.99 45.39 38.36 45.68 38.41 45.68 42.99"/><rect class="cls-3" x="20.38" y="49.37" width="23.44" height="0.86" transform="translate(-26.86 55.61) rotate(-62.83)"/><rect class="cls-3" x="30.93" y="51.29" width="0.35" height="0.86" transform="translate(-29.11 55.78) rotate(-62.83)"/><polygon class="cls-4" points="54.23 35.04 66.52 35.04 69.57 42.63 61.33 43.44 61.33 51.33 54.41 51.33 54.23 35.04"/><polygon class="cls-3" points="54.41 45.95 54.41 43.63 48.01 43.63 47.73 45.95 54.41 45.95"/><path class="cls-3" d="M74.46,55.69H35.63a1.27,1.27,0,0,1-1.27-1.27V45H55.17v4.7h4.42V45h13l1.74,5.66a3.84,3.84,0,0,1,.16,1.12Z"/><polygon class="cls-4" points="61.01 51.33 50.93 51.33 47.69 51.33 47.69 50.37 60.35 50.37 61.01 51.33"/><path class="cls-3" d="M76.2,63.22h0q-17.86.63-35.73,0h0c-2.89-.11-5.18-2.2-5.18-4.76s2.29-4.65,5.18-4.75h0q17.85-.65,35.73,0h0a5.07,5.07,0,0,1,5.17,4.75h0A5.08,5.08,0,0,1,76.2,63.22Z"/><path class="cls-3" d="M76.2,63.22h0q-17.86.63-35.73,0h0c-2.89-.11-5.18-2.2-5.18-4.76s2.29-4.65,5.18-4.75h0q17.85-.65,35.73,0h0a5.07,5.07,0,0,1,5.17,4.75h0A5.08,5.08,0,0,1,76.2,63.22Z"/><polygon class="cls-2" points="72.99 62.8 76.07 62.7 76.09 63.31 73 63.41 72.99 62.8"/><path class="cls-2" d="M75,63.57l-.11-.43.72,0-.08.43a.27.27,0,0,1-.53,0Z"/><path class="cls-2" d="M73.54,63.62l-.11-.43.73,0-.09.43a.27.27,0,0,1-.53,0Z"/><rect class="cls-2" x="72.89" y="62.92" width="0.11" height="0.37" transform="translate(-1.78 2.12) rotate(-1.64)"/><polygon class="cls-2" points="76.08 62.82 76.19 62.82 76.2 63.19 76.09 63.19 76.08 62.82"/><polygon class="cls-2" points="69.68 62.89 72.77 62.81 72.79 63.42 69.7 63.5 69.68 62.89"/><path class="cls-2" d="M71.73,63.67l-.11-.43.73,0-.09.44a.26.26,0,0,1-.26.21A.29.29,0,0,1,71.73,63.67Z"/><path class="cls-2" d="M70.23,63.71l-.11-.43.73,0-.09.43a.26.26,0,0,1-.26.22h0A.29.29,0,0,1,70.23,63.71Z"/><polygon class="cls-2" points="69.58 63.01 69.69 63.01 69.69 63.38 69.59 63.38 69.58 63.01"/><rect class="cls-2" x="72.78" y="62.93" width="0.11" height="0.37" transform="translate(-1.81 2.15) rotate(-1.67)"/><polygon class="cls-2" points="66.38 62.95 69.47 62.89 69.48 63.51 66.39 63.56 66.38 62.95"/><path class="cls-2" d="M68.43,63.75l-.11-.43.72,0-.09.44a.26.26,0,0,1-.26.21h0A.27.27,0,0,1,68.43,63.75Z"/><path class="cls-2" d="M66.92,63.78l-.1-.44h.72l-.09.44a.26.26,0,0,1-.26.21A.29.29,0,0,1,66.92,63.78Z"/><rect class="cls-2" x="66.28" y="63.07" width="0.11" height="0.37" transform="translate(-0.96 1.03) rotate(-0.88)"/><polygon class="cls-2" points="69.47 63.02 69.58 63.01 69.59 63.38 69.48 63.38 69.47 63.02"/><polygon class="cls-2" points="63.08 62.99 66.16 62.95 66.17 63.57 63.08 63.61 63.08 62.99"/><path class="cls-2" d="M65.12,63.8,65,63.37h.73l-.1.44a.26.26,0,0,1-.26.21A.28.28,0,0,1,65.12,63.8Z"/><path class="cls-2" d="M63.62,63.82l-.11-.43h.73l-.1.43a.27.27,0,0,1-.26.22A.28.28,0,0,1,63.62,63.82Z"/><polygon class="cls-2" points="62.97 63.12 63.08 63.12 63.08 63.48 62.97 63.48 62.97 63.12"/><rect class="cls-2" x="66.17" y="63.08" width="0.11" height="0.37" transform="translate(-0.99 1.06) rotate(-0.91)"/><polygon class="cls-2" points="59.77 63.01 62.86 62.99 62.86 63.61 59.77 63.63 59.77 63.01"/><path class="cls-2" d="M61.81,63.84l-.11-.44h.73l-.1.43a.26.26,0,0,1-.26.21A.27.27,0,0,1,61.81,63.84Z"/><path class="cls-2" d="M60.31,63.85l-.11-.44h.73l-.1.43a.26.26,0,0,1-.26.21A.25.25,0,0,1,60.31,63.85Z"/><rect class="cls-2" x="59.66" y="63.14" width="0.11" height="0.37" transform="translate(-0.13 0.12) rotate(-0.12)"/><polygon class="cls-2" points="62.86 63.12 62.97 63.12 62.97 63.48 62.86 63.49 62.86 63.12"/><polygon class="cls-2" points="56.47 63.01 59.55 63.01 59.55 63.63 56.47 63.63 56.47 63.01"/><path class="cls-2" d="M58.5,63.85l-.1-.43h.72l-.1.43a.26.26,0,0,1-.26.21A.27.27,0,0,1,58.5,63.85Z"/><path class="cls-2" d="M57,63.85l-.1-.44h.72l-.1.43a.27.27,0,0,1-.52,0Z"/><polygon class="cls-2" points="56.36 63.13 56.47 63.13 56.47 63.5 56.36 63.5 56.36 63.13"/><rect class="cls-2" x="59.55" y="63.14" width="0.11" height="0.37" transform="translate(-0.13 0.12) rotate(-0.12)"/><polygon class="cls-2" points="53.16 62.99 56.25 63.01 56.25 63.63 53.16 63.6 53.16 62.99"/><path class="cls-2" d="M55.19,63.84l-.1-.43h.73l-.11.43a.27.27,0,0,1-.52,0Z"/><path class="cls-2" d="M53.69,63.83l-.1-.44h.73l-.11.43A.28.28,0,0,1,54,64h0A.26.26,0,0,1,53.69,63.83Z"/><rect class="cls-2" x="52.92" y="63.24" width="0.37" height="0.11" transform="translate(-10.76 115.72) rotate(-89.38)"/><polygon class="cls-2" points="56.25 63.13 56.36 63.13 56.36 63.5 56.25 63.5 56.25 63.13"/><polygon class="cls-2" points="49.86 62.94 52.95 62.98 52.94 63.6 49.85 63.56 49.86 62.94"/><path class="cls-2" d="M51.88,63.81l-.1-.44h.73l-.11.43a.28.28,0,0,1-.26.21A.26.26,0,0,1,51.88,63.81Z"/><path class="cls-2" d="M50.38,63.79l-.1-.44H51l-.11.43a.28.28,0,0,1-.26.21A.26.26,0,0,1,50.38,63.79Z"/><polygon class="cls-2" points="49.75 63.06 49.86 63.07 49.85 63.44 49.74 63.43 49.75 63.06"/><rect class="cls-2" x="52.81" y="63.24" width="0.37" height="0.11" transform="translate(-10.92 115.54) rotate(-89.33)"/><polygon class="cls-2" points="46.56 62.88 49.64 62.94 49.63 63.55 46.54 63.49 46.56 62.88"/><path class="cls-2" d="M48.57,63.75l-.09-.43h.72l-.1.43a.29.29,0,0,1-.27.21A.27.27,0,0,1,48.57,63.75Z"/><path class="cls-2" d="M47.07,63.72,47,63.29h.72l-.11.43a.28.28,0,0,1-.26.21A.27.27,0,0,1,47.07,63.72Z"/><rect class="cls-2" x="46.31" y="63.13" width="0.37" height="0.11" transform="translate(-17.81 108.11) rotate(-88.59)"/><polygon class="cls-2" points="49.64 63.06 49.75 63.06 49.74 63.43 49.63 63.43 49.64 63.06"/><polygon class="cls-2" points="43.25 62.79 46.34 62.87 46.32 63.49 43.23 63.4 43.25 62.79"/><path class="cls-2" d="M45.26,63.68l-.09-.44.73,0-.11.43a.28.28,0,0,1-.27.2A.26.26,0,0,1,45.26,63.68Z"/><path class="cls-2" d="M43.76,63.64l-.09-.44.73,0-.11.43a.28.28,0,0,1-.27.2A.26.26,0,0,1,43.76,63.64Z"/><rect class="cls-2" x="43" y="63.04" width="0.37" height="0.11" transform="translate(-21.14 104.42) rotate(-88.33)"/><rect class="cls-2" x="46.2" y="63.12" width="0.37" height="0.11" transform="translate(-17.92 108) rotate(-88.59)"/><path class="cls-2" d="M40,62.66l.44,0,1.05,0,1.54.05v.62l-1.55,0-1.06,0-.49,0Z"/><path class="cls-2" d="M42,63.58l-.09-.43.73,0-.11.43a.28.28,0,0,1-.27.2A.29.29,0,0,1,42,63.58Z"/><path class="cls-2" d="M40.45,63.53l-.08-.44.36,0h.36l-.11.43a.27.27,0,0,1-.53,0Z"/><polygon class="cls-2" points="39.88 62.77 39.98 62.78 39.94 63.15 39.83 63.13 39.88 62.77"/><polygon class="cls-2" points="43.03 62.9 43.14 62.91 43.13 63.28 43.02 63.27 43.03 62.9"/><path class="cls-2" d="M37.28,61.49l.09.08a1.65,1.65,0,0,0,.25.18A2.26,2.26,0,0,0,38,62l.22.13.23.11a5.41,5.41,0,0,0,1.35.4l-.1.6a6.16,6.16,0,0,1-1.5-.44l-.26-.12-.25-.14c-.16-.09-.3-.19-.42-.27A1.65,1.65,0,0,1,37,62l-.1-.08Z"/><path class="cls-2" d="M38.59,63.18l0-.44.34.11.34.09-.2.4a.29.29,0,0,1-.33.13h0A.29.29,0,0,1,38.59,63.18Z"/><path class="cls-2" d="M37.18,62.47l.17-.42.29.2.31.18-.3.33a.28.28,0,0,1-.35,0A.3.3,0,0,1,37.18,62.47Z"/><polygon class="cls-2" points="37.12 61.52 37.2 61.58 36.96 61.86 36.87 61.79 37.12 61.52"/><polygon class="cls-2" points="39.78 62.75 39.88 62.77 39.83 63.13 39.72 63.11 39.78 62.75"/><path class="cls-2" d="M35.85,59l0,.12a1.22,1.22,0,0,0,.07.3,2.12,2.12,0,0,0,.13.41l.09.23.12.22a5.12,5.12,0,0,0,.54.77l.31.31-.42.45-.35-.35a5.14,5.14,0,0,1-.62-.88l-.13-.26-.11-.27a2.7,2.7,0,0,1-.16-.48,2.34,2.34,0,0,1-.08-.35l0-.13Z"/><path class="cls-2" d="M35.82,61.12,36,61l.16-.16.06.09a1,1,0,0,0,.14.19l.23.28-.2.1-.19.11a.28.28,0,0,1-.34-.09A.27.27,0,0,1,35.82,61.12Z"/><path class="cls-2" d="M35.14,59.68l.2-.11.19-.1.1.34.13.33-.21,0-.22,0A.3.3,0,0,1,35,60,.29.29,0,0,1,35.14,59.68Z"/><polygon class="cls-2" points="35.71 58.92 35.73 59.02 35.36 59.07 35.34 58.97 35.71 58.92"/><polygon class="cls-2" points="37.04 61.45 37.12 61.52 36.87 61.79 36.79 61.72 37.04 61.45"/><path class="cls-2" d="M36.53,56.25l-.07.09c0,.07-.1.15-.16.27a3.66,3.66,0,0,0-.35.86,3.75,3.75,0,0,0-.14.92,2.45,2.45,0,0,0,0,.3v.12l-.62.06v-.14a3.44,3.44,0,0,1,0-.35,4.41,4.41,0,0,1,.16-1.07,4.5,4.5,0,0,1,.41-1c.07-.14.15-.23.19-.31l.08-.11Z"/><path class="cls-2" d="M35,57.76l.22,0h.23l0,.11a1.42,1.42,0,0,0,0,.24l0,.35-.22,0L35,58.32a.28.28,0,0,1-.19-.3A.27.27,0,0,1,35,57.76Z"/><path class="cls-2" d="M35.55,56.25l.21,0,.21.07-.16.31-.14.33-.18-.13-.18-.13a.28.28,0,0,1,.24-.5Z"/><polygon class="cls-2" points="36.48 56.09 36.43 56.17 36.13 55.96 36.19 55.87 36.48 56.09"/><polygon class="cls-2" points="35.7 58.82 35.71 58.92 35.34 58.97 35.34 58.86 35.7 58.82"/><path class="cls-2" d="M38.9,54.52a5.16,5.16,0,0,0-1.25.63,4.66,4.66,0,0,0-.72.61,1.87,1.87,0,0,0-.21.24l-.07.09-.49-.38.09-.1a1.58,1.58,0,0,1,.23-.27,6.06,6.06,0,0,1,.82-.7,5.83,5.83,0,0,1,1.4-.7Z"/><path class="cls-2" d="M36.77,54.77l.35.27-.27.23-.25.25-.24-.37a.28.28,0,0,1,.06-.35A.29.29,0,0,1,36.77,54.77Z"/><path class="cls-2" d="M38.11,53.94l.27.35-.33.15-.31.17-.13-.42a.29.29,0,0,1,.5-.25Z"/><polygon class="cls-2" points="38.96 54.37 38.86 54.4 38.74 54.05 38.84 54.02 38.96 54.37"/><polygon class="cls-2" points="36.55 56.01 36.48 56.09 36.19 55.87 36.26 55.79 36.55 56.01"/><path class="cls-2" d="M42,54.18l-1.54,0-.52,0-.44.08-.43.11-.18-.59.48-.13.49-.08.58,0,1.54,0Z"/><path class="cls-2" d="M39.94,53.43l.15.43s-.18,0-.36,0l-.24,0-.11,0v-.45a.29.29,0,0,1,.24-.25h0A.27.27,0,0,1,39.94,53.43Z"/><path class="cls-2" d="M41.46,53.36l.12.43-.73,0,.08-.43a.29.29,0,0,1,.26-.22h0A.27.27,0,0,1,41.46,53.36Z"/><rect class="cls-2" x="42.01" y="53.68" width="0.11" height="0.37" transform="translate(-1.77 1.43) rotate(-1.91)"/><polygon class="cls-2" points="39.05 54.34 38.96 54.37 38.84 54.02 38.95 53.98 39.05 54.34"/><polygon class="cls-2" points="45.32 54.08 42.24 54.17 42.22 53.55 45.31 53.46 45.32 54.08"/><path class="cls-2" d="M43.27,53.3l.11.43-.72,0,.08-.43A.28.28,0,0,1,43,53.1.27.27,0,0,1,43.27,53.3Z"/><path class="cls-2" d="M44.77,53.26l.11.43-.73,0,.09-.44a.27.27,0,0,1,.26-.21A.26.26,0,0,1,44.77,53.26Z"/><polygon class="cls-2" points="45.43 53.95 45.32 53.95 45.31 53.59 45.42 53.59 45.43 53.95"/><rect class="cls-2" x="42.12" y="53.68" width="0.11" height="0.37" transform="translate(-1.8 1.46) rotate(-1.94)"/><polygon class="cls-2" points="48.63 54 45.54 54.07 45.53 53.46 48.61 53.39 48.63 54"/><path class="cls-2" d="M46.58,53.21l.11.43-.73,0,.09-.43a.28.28,0,0,1,.26-.22A.27.27,0,0,1,46.58,53.21Z"/><path class="cls-2" d="M48.08,53.18l.11.43-.73,0,.09-.44a.27.27,0,0,1,.26-.21A.27.27,0,0,1,48.08,53.18Z"/><rect class="cls-2" x="48.62" y="53.51" width="0.11" height="0.37" transform="translate(-1.06 0.98) rotate(-1.14)"/><rect class="cls-2" x="45.42" y="53.58" width="0.11" height="0.37" transform="translate(-1.31 1.13) rotate(-1.41)"/><polygon class="cls-2" points="51.93 53.95 48.84 54 48.83 53.38 51.92 53.34 51.93 53.95"/><path class="cls-2" d="M49.89,53.15l.1.43h-.72l.09-.43a.27.27,0,0,1,.53,0Z"/><path class="cls-2" d="M51.39,53.12l.1.43-.72,0,.09-.44a.28.28,0,0,1,.26-.21A.27.27,0,0,1,51.39,53.12Z"/><polygon class="cls-2" points="52.04 53.83 51.93 53.83 51.92 53.46 52.03 53.46 52.04 53.83"/><rect class="cls-2" x="48.73" y="53.51" width="0.11" height="0.37" transform="translate(-1.06 0.98) rotate(-1.14)"/><polygon class="cls-2" points="55.23 53.92 52.15 53.95 52.14 53.33 55.23 53.3 55.23 53.92"/><path class="cls-2" d="M53.2,53.1l.1.43h-.73l.1-.43a.27.27,0,0,1,.26-.21A.27.27,0,0,1,53.2,53.1Z"/><path class="cls-2" d="M54.7,53.09l.1.43h-.73l.1-.44a.27.27,0,0,1,.53,0Z"/><rect class="cls-2" x="55.23" y="53.43" width="0.11" height="0.37" transform="translate(-0.38 0.4) rotate(-0.41)"/><polygon class="cls-2" points="52.15 53.83 52.04 53.83 52.03 53.46 52.14 53.46 52.15 53.83"/><polygon class="cls-2" points="58.54 53.91 55.45 53.92 55.45 53.3 58.54 53.29 58.54 53.91"/><path class="cls-2" d="M56.51,53.08l.1.43h-.73l.1-.43a.28.28,0,0,1,.26-.21h0A.28.28,0,0,1,56.51,53.08Z"/><path class="cls-2" d="M58,53.08l.1.43h-.73l.1-.43a.27.27,0,0,1,.26-.21A.27.27,0,0,1,58,53.08Z"/><polygon class="cls-2" points="58.65 53.79 58.54 53.79 58.54 53.42 58.65 53.42 58.65 53.79"/><rect class="cls-2" x="55.34" y="53.43" width="0.11" height="0.37" transform="translate(-0.36 0.37) rotate(-0.38)"/><polygon class="cls-2" points="61.84 53.92 58.76 53.91 58.76 53.3 61.85 53.31 61.84 53.92"/><path class="cls-2" d="M59.82,53.08l.1.43h-.73l.1-.43a.27.27,0,0,1,.53,0Z"/><path class="cls-2" d="M61.32,53.08l.09.44h-.72l.1-.43a.26.26,0,0,1,.26-.2A.27.27,0,0,1,61.32,53.08Z"/><rect class="cls-2" x="61.72" y="53.56" width="0.37" height="0.11" transform="translate(7.87 115.16) rotate(-89.62)"/><polygon class="cls-2" points="58.76 53.79 58.65 53.79 58.65 53.42 58.76 53.42 58.76 53.79"/><polygon class="cls-2" points="65.15 53.96 62.06 53.92 62.07 53.31 65.16 53.34 65.15 53.96"/><path class="cls-2" d="M63.13,53.1l.09.43h-.73l.11-.44a.27.27,0,0,1,.26-.2A.28.28,0,0,1,63.13,53.1Z"/><path class="cls-2" d="M64.63,53.12l.09.43H64l.11-.43a.28.28,0,0,1,.27-.21A.29.29,0,0,1,64.63,53.12Z"/><polygon class="cls-2" points="65.26 53.83 65.15 53.83 65.15 53.46 65.26 53.47 65.26 53.83"/><rect class="cls-2" x="61.82" y="53.56" width="0.37" height="0.11" transform="translate(7.98 115.27) rotate(-89.62)"/><polygon class="cls-2" points="68.45 54.01 65.36 53.96 65.37 53.34 68.46 53.4 68.45 54.01"/><path class="cls-2" d="M66.44,53.14l.09.44-.73,0,.11-.43a.27.27,0,0,1,.27-.2A.28.28,0,0,1,66.44,53.14Z"/><path class="cls-2" d="M67.94,53.17l.09.43H67.3l.11-.43a.28.28,0,0,1,.27-.21A.3.3,0,0,1,67.94,53.17Z"/><rect class="cls-2" x="68.33" y="53.65" width="0.37" height="0.11" transform="translate(13.45 121.13) rotate(-88.86)"/><polygon class="cls-2" points="65.37 53.84 65.26 53.83 65.26 53.47 65.37 53.47 65.37 53.84"/><polygon class="cls-2" points="71.75 54.09 68.67 54.02 68.68 53.4 71.77 53.47 71.75 54.09"/><path class="cls-2" d="M69.74,53.21l.09.43-.72,0,.11-.43a.27.27,0,0,1,.27-.2A.26.26,0,0,1,69.74,53.21Z"/><path class="cls-2" d="M71.24,53.24l.09.44-.72,0,.11-.43A.26.26,0,0,1,71,53,.26.26,0,0,1,71.24,53.24Z"/><polygon class="cls-2" points="71.87 53.97 71.76 53.97 71.77 53.6 71.88 53.6 71.87 53.97"/><rect class="cls-2" x="68.44" y="53.65" width="0.37" height="0.11" transform="translate(13.55 121.24) rotate(-88.86)"/><polygon class="cls-2" points="75.06 54.19 71.97 54.1 71.99 53.48 75.08 53.58 75.06 54.19"/><path class="cls-2" d="M73.05,53.29l.09.44-.73,0,.12-.43a.26.26,0,0,1,.27-.2A.26.26,0,0,1,73.05,53.29Z"/><path class="cls-2" d="M74.55,53.34l.09.43-.73,0,.12-.43a.27.27,0,0,1,.27-.2A.28.28,0,0,1,74.55,53.34Z"/><rect class="cls-2" x="74.94" y="53.83" width="0.37" height="0.11" transform="translate(18.77 127.17) rotate(-88.09)"/><polygon class="cls-2" points="71.98 53.97 71.87 53.97 71.88 53.6 71.99 53.6 71.98 53.97"/><path class="cls-2" d="M78.11,54.66a.37.37,0,0,0-.11,0l-.3-.11a6,6,0,0,0-.94-.22c-.17,0-.35,0-.52-.05l-.48,0h-.48l0-.62.48,0c.29,0,.68,0,1.07.07a6.24,6.24,0,0,1,1.05.25l.33.12.12.05Z"/><path class="cls-2" d="M76.37,53.41l.07.44-.36,0h-.36l.11-.43a.29.29,0,0,1,.28-.2A.28.28,0,0,1,76.37,53.41Z"/><path class="cls-2" d="M77.92,53.69l0,.45a2.59,2.59,0,0,0-.34-.11L77.3,54l-.11,0,.09-.21.1-.19a.29.29,0,0,1,.54.14Z"/><polygon class="cls-2" points="78.25 54.58 78.16 54.54 78.31 54.2 78.41 54.25 78.25 54.58"/><rect class="cls-2" x="75.05" y="53.83" width="0.37" height="0.11" transform="translate(18.87 127.28) rotate(-88.09)"/><path class="cls-2" d="M80.33,56.56a4.11,4.11,0,0,0-.87-1.06,4.81,4.81,0,0,0-.78-.56,3.39,3.39,0,0,0-.39-.2l.27-.56a4.42,4.42,0,0,1,.43.23,5.24,5.24,0,0,1,.88.63c.15.13.28.27.41.4s.23.28.31.4l.2.29a.64.64,0,0,1,.07.12Z"/><path class="cls-2" d="M79.61,54.55l-.17.41-.3-.21-.2-.13-.1,0,.31-.32a.27.27,0,0,1,.35,0A.28.28,0,0,1,79.61,54.55Z"/><path class="cls-2" d="M80.74,55.67l-.14.17-.15.16L80,55.46l.38-.22a.27.27,0,0,1,.34.07A.29.29,0,0,1,80.74,55.67Z"/><polygon class="cls-2" points="80.48 56.58 80.44 56.5 80.76 56.31 80.81 56.41 80.48 56.58"/><polygon class="cls-2" points="78.35 54.63 78.25 54.58 78.41 54.25 78.5 54.29 78.35 54.63"/><path class="cls-2" d="M80.74,59.36l0-.11,0-.3c0-.13,0-.28,0-.44a4.29,4.29,0,0,0,0-.49,3.39,3.39,0,0,0-.22-.9,2.62,2.62,0,0,0-.18-.39l.55-.28a2.89,2.89,0,0,1,.2.45,4.89,4.89,0,0,1,.27,1c0,.2,0,.4,0,.58s0,.36,0,.51l-.06.35,0,.13Z"/><path class="cls-2" d="M81.56,57.4l-.2.1-.2.1L81,56.93l.22,0,.22,0a.29.29,0,0,1,.17.54Z"/><path class="cls-2" d="M81.65,59l-.22,0-.22,0,0-.71.22,0,.22,0a.27.27,0,0,1,.19.29A.26.26,0,0,1,81.65,59Z"/><polygon class="cls-2" points="80.83 59.49 80.86 59.39 81.22 59.48 81.19 59.59 80.83 59.49"/><polygon class="cls-2" points="80.53 56.67 80.48 56.58 80.81 56.41 80.86 56.5 80.53 56.67"/><path class="cls-2" d="M79.09,61.72l.09-.07.25-.2a4.86,4.86,0,0,0,.64-.69,4.75,4.75,0,0,0,.47-.81l.11-.29,0-.11.58.18,0,.13-.13.33a5.55,5.55,0,0,1-.54.94,4.68,4.68,0,0,1-.74.78l-.27.23-.11.08Z"/><path class="cls-2" d="M81,60.82l-.21-.06-.21-.07.32-.63.18.13.18.13a.27.27,0,0,1,.06.35A.27.27,0,0,1,81,60.82Z"/><path class="cls-2" d="M80,62.05l-.36-.26.51-.5.13.18.12.19a.27.27,0,0,1,0,.34A.28.28,0,0,1,80,62.05Z"/><rect class="cls-2" x="79.17" y="61.82" width="0.11" height="0.37" transform="translate(-21.2 56.09) rotate(-34.68)"/><polygon class="cls-2" points="80.8 59.58 80.83 59.49 81.19 59.59 81.16 59.69 80.8 59.58"/><path class="cls-2" d="M76.28,62.69l.44,0,.45-.08.49-.13a5.05,5.05,0,0,0,.89-.38l.27-.16.1-.07.34.52-.11.07-.31.18a5.89,5.89,0,0,1-1,.42,4.12,4.12,0,0,1-.55.15l-.5.09-.49,0Z"/><path class="cls-2" d="M78.4,63.06l-.13-.18-.13-.19.11,0,.22-.1a3.12,3.12,0,0,0,.31-.16l.12.43a.26.26,0,0,1-.16.31h0A.27.27,0,0,1,78.4,63.06Z"/><path class="cls-2" d="M76.88,63.47l-.16-.41.35-.06a3.39,3.39,0,0,0,.35-.08v.45a.27.27,0,0,1-.23.26A.29.29,0,0,1,76.88,63.47Z"/><polygon class="cls-2" points="76.19 62.82 76.29 62.81 76.31 63.18 76.2 63.19 76.19 62.82"/><rect class="cls-2" x="79.08" y="61.88" width="0.11" height="0.37" transform="translate(-21.26 56.24) rotate(-34.79)"/><path class="cls-5" d="M45.83,42.63a13.86,13.86,0,0,0-3.2.38l-7.72,1.9,4.29,7.35,8.49-.93v-1l1.56-4.9A1.8,1.8,0,0,1,51,44.21h3.1V42.63Z"/><rect class="cls-6" x="42.01" y="56.55" width="33.18" height="3.82"/><rect class="cls-1" x="53.11" y="34.36" width="16.11" height="1.36" rx="0.51"/><polygon class="cls-3" points="68.26 35.72 70.44 41.1 67.57 41.1 65.79 35.72 68.26 35.72"/><path class="cls-3" d="M63.9,42.63H61.55a.69.69,0,0,1-.69-.69V35.72H59.59V45h2.16Z"/><rect class="cls-3" x="54.06" y="35.72" width="1.11" height="9.3"/><path class="cls-5" d="M70.87,50.53V47.74a1.57,1.57,0,0,1,.46-1.11l1.2-1.2a.4.4,0,0,0,.08-.44L71,41.34a.42.42,0,0,0-.37-.24h-4.2a1.14,1.14,0,0,0-.69.23l-5.06,3.61A1.38,1.38,0,0,0,60.1,46v4.38a.91.91,0,0,0,.91.91h9.05A.8.8,0,0,0,70.87,50.53Z"/><path class="cls-6" d="M43.24,58.46a3,3,0,1,1-3-3A3,3,0,0,1,43.24,58.46Z"/><path class="cls-3" d="M42.71,58.46A2.49,2.49,0,1,1,40.22,56,2.49,2.49,0,0,1,42.71,58.46Z"/><path class="cls-4" d="M42,58.46a1.76,1.76,0,1,1-1.76-1.75A1.76,1.76,0,0,1,42,58.46Z"/><path class="cls-6" d="M79.45,58.46a3,3,0,1,1-3-3A3,3,0,0,1,79.45,58.46Z"/><path class="cls-3" d="M78.92,58.46A2.49,2.49,0,1,1,76.43,56,2.49,2.49,0,0,1,78.92,58.46Z"/><circle class="cls-4" cx="76.43" cy="58.46" r="1.75"/><polygon class="cls-4" points="35.42 45.79 44.93 43.63 54.05 43.61 54.06 44.2 45.04 44.29 35.51 45.95 35.42 45.79"/><path class="cls-3" d="M53.11,35.17v0a.51.51,0,0,0,.51.51H68.7a.51.51,0,0,0,.51-.51v0Z"/><path class="cls-1" d="M25.05,61.91l36.52-2.26a.73.73,0,0,0,.69-.78.74.74,0,0,0-.78-.69L25,60.44Z"/><path class="cls-1" d="M27.09,53.57v8.72a.48.48,0,0,1-.45.48l-11.24.77.49-1.67,1.61-.72,1.65-8.56a.88.88,0,0,1,.33-.53l5.91-4.46a.4.4,0,0,0,.15-.42l-.41-2A.21.21,0,0,1,25.3,45l.83-.16a.21.21,0,0,1,.24.15L28,51.11a.7.7,0,0,1,0,.43l-.81,1.69A.77.77,0,0,0,27.09,53.57Z"/><path class="cls-4" d="M16.74,61.49l-.72,2-.52.1a.43.43,0,0,1-.49-.53l.3-1a.5.5,0,0,1,.38-.35Z"/><path class="cls-1" d="M45.31,57.69,32,58.5a7.35,7.35,0,0,0-.82.11L30,58.87c-.45.09-.75.35-.73.61l0,.69L48.16,59l0-.69c0-.26-.34-.48-.8-.52l-1.17-.11A4.59,4.59,0,0,0,45.31,57.69Z"/><rect class="cls-4" x="29.27" y="59.08" width="18.89" height="0.52" transform="translate(-3.54 2.47) rotate(-3.49)"/><path class="cls-2" d="M32.24,51.33l-1.48-.76,5.76-11.21a.41.41,0,0,1,.56-.18l.74.38a.41.41,0,0,1,.18.56Z"/><rect class="cls-2" x="31" y="50.25" width="0.72" height="1.99" rx="0.23" transform="translate(-28.55 55.74) rotate(-62.83)"/><rect class="cls-1" x="32.32" y="50.99" width="1.21" height="10.41" transform="translate(-28.34 78.29) rotate(-79.47)"/><rect class="cls-1" x="32.74" y="49.62" width="0.53" height="13.18" transform="translate(-28.29 78.39) rotate(-79.47)"/><rect class="cls-4" x="27.44" y="55.12" width="0.53" height="0.21" transform="translate(-31.65 72.37) rotate(-79.46)"/><rect class="cls-4" x="37.87" y="57.07" width="0.53" height="0.19" transform="translate(-25.03 84.21) rotate(-79.47)"/><path class="cls-1" d="M40.38,58.17H38.71v-.46a.83.83,0,0,1,.83-.83h0a.84.84,0,0,1,.84.83Z"/><path class="cls-4" d="M70.18,50.32a.39.39,0,0,1-.39.39H60.15a.91.91,0,0,0,.86.62h9.05a.8.8,0,0,0,.81-.8V47.74a1.57,1.57,0,0,1,.46-1.11l1.2-1.2a.4.4,0,0,0,.08-.44l-.17-.39-2.26,2.3Z"/><polygon class="cls-4" points="39.2 52.26 47.69 51.33 47.69 50.37 38.74 51.47 39.2 52.26"/><rect class="cls-4" x="54.7" y="50.37" width="5.07" height="0.34"/><rect class="cls-3" x="54.06" y="35.72" width="1.11" height="0.35"/><rect class="cls-3" x="59.59" y="35.72" width="1.27" height="0.35"/><polygon class="cls-3" points="68.26 35.72 65.79 35.72 65.91 36.07 68.4 36.07 68.26 35.72"/><path class="cls-6" d="M54.11,55.07A1.1,1.1,0,1,1,53,54,1.1,1.1,0,0,1,54.11,55.07Z"/><path class="cls-3" d="M53.86,55.07a.85.85,0,1,1-.85-.85A.85.85,0,0,1,53.86,55.07Z"/><path class="cls-6" d="M53.51,56.55h-1V55.26a.51.51,0,0,1,.5-.5.5.5,0,0,1,.5.5Z"/><rect class="cls-6" x="52.51" y="56.2" width="1" height="0.35"/><path class="cls-3" d="M53.29,55.21a.28.28,0,1,1-.28-.28A.27.27,0,0,1,53.29,55.21Z"/><path class="cls-6" d="M64.74,55.07A1.1,1.1,0,1,1,63.65,54,1.09,1.09,0,0,1,64.74,55.07Z"/><path class="cls-3" d="M64.5,55.07a.86.86,0,1,1-.85-.85A.85.85,0,0,1,64.5,55.07Z"/><path class="cls-6" d="M64.14,56.55h-1V55.26a.5.5,0,1,1,1,0Z"/><rect class="cls-6" x="63.15" y="56.2" width="1" height="0.35"/><path class="cls-3" d="M63.92,55.21a.28.28,0,0,1-.55,0,.28.28,0,1,1,.55,0Z"/><polygon class="cls-4" points="25.71 48.49 19.94 52.7 17.98 62.27 18.56 62.27 20.48 52.91 25.96 48.96 25.71 48.49"/><rect class="cls-1" x="79.38" y="45.28" width="1.71" height="8.88" transform="translate(-9.3 79.58) rotate(-50.23)"/><path class="cls-4" d="M80.29,49.43a.39.39,0,0,1-.39.39.39.39,0,1,1,0-.77A.39.39,0,0,1,80.29,49.43Z"/><circle class="cls-4" cx="77.27" cy="47.24" r="0.39"/><path class="cls-4" d="M85,53.18l-.76,2.76a9.09,9.09,0,0,1-2.65,1.53c-.22.05.6-.69.6-.69a3,3,0,0,0,.58-2.87l-.24-.73Z"/><polygon class="cls-4" points="82.53 50.51 82.53 52.73 82.22 52.48 82.23 50.26 82.53 50.51"/><polygon class="cls-4" points="78.7 49.55 80.27 50.86 80.07 51.34 78.51 50.03 78.7 49.55"/><polygon class="cls-4" points="77.71 48.73 77.52 49.19 76 47.77 76.19 47.32 77.71 48.73"/><path class="cls-1" d="M84.63,47.24H82.89a.36.36,0,0,0-.36.36v5.58H85V47.6A.36.36,0,0,0,84.63,47.24Zm-.87,2.4a.32.32,0,0,1-.32-.32.32.32,0,0,1,.32-.33.33.33,0,0,1,.33.33A.32.32,0,0,1,83.76,49.64Zm0-1.32a.33.33,0,0,1,0-.65.33.33,0,1,1,0,.65Z"/></svg>