<svg id="Layer_1" data-name="Layer 1" xmlns="http://www.w3.org/2000/svg" viewBox="0 0 100 100"><defs><style>.cls-1{fill:#ffca05;}.cls-2{fill:#d1d2d3;}.cls-3{fill:#fff;}.cls-4{fill:#6d6f70;}</style></defs><rect class="cls-1" x="42.14" y="29.58" width="15.65" height="5.75"/><polygon class="cls-2" points="57.95 32.4 57.78 29.58 57.78 35.88 42.17 35.88 42.17 29.58 41.95 29.58 41.95 31.79 41.95 32.4 34.72 32.4 34.72 70.4 65.06 70.4 65.06 32.4 57.95 32.4"/><polygon class="cls-1" points="54.06 34.77 62.56 43.27 62.73 43.1 54.06 43.1 54.06 34.77"/><polygon class="cls-3" points="62.95 43.07 62.95 68.46 37.17 68.46 37.17 34.13 42.34 34.13 42.34 35.88 53.67 35.88 53.67 42.87 62.95 43.07"/><path class="cls-4" d="M63,43.51H53.77a.56.56,0,0,1-.56-.56V36a.56.56,0,1,1,1.11,0V42.4h7.34l-6.17-6a.55.55,0,0,1,.77-.79l7.15,7a.55.55,0,0,1,.13.6A.57.57,0,0,1,63,43.51Z"/><path class="cls-4" d="M62.16,69.18H37.84a1.41,1.41,0,0,1-1.42-1.39v-33a1.41,1.41,0,0,1,1.42-1.4h4.34a.56.56,0,1,1,0,1.11H37.84a.3.3,0,0,0-.31.29v33a.3.3,0,0,0,.31.28H62.16a.3.3,0,0,0,.31-.28V43.19l-7-6.83a.55.55,0,0,1,.77-.79l7.15,7a.52.52,0,0,1,.17.39V67.79A1.41,1.41,0,0,1,62.16,69.18Z"/><path class="cls-4" d="M59.33,64.14H46.39a.56.56,0,0,1-.56-.56.55.55,0,0,1,.56-.55H59.33a.55.55,0,0,1,.56.55A.56.56,0,0,1,59.33,64.14Z"/><path class="cls-4" d="M59.33,56.47H46.39a.56.56,0,1,1,0-1.11H59.33a.56.56,0,1,1,0,1.11Z"/><path class="cls-4" d="M59.33,48.8H46.39a.56.56,0,1,1,0-1.11H59.33a.56.56,0,1,1,0,1.11Z"/><path class="cls-4" d="M51.16,41.13H46.39a.56.56,0,1,1,0-1.11h4.77a.56.56,0,1,1,0,1.11Z"/><path class="cls-4" d="M44.65,66.16h-4a.55.55,0,0,1-.55-.55v-4A.55.55,0,0,1,40.6,61h4a.56.56,0,0,1,.56.56v4A.56.56,0,0,1,44.65,66.16Zm-3.49-1.11H44.1V62.11H41.16Z"/><path class="cls-4" d="M44.65,50.83h-4a.55.55,0,0,1-.55-.56V48.21a.55.55,0,0,1,.55-.56.56.56,0,0,1,.56.56v1.51H44.1V46.47a.55.55,0,0,1,.55-.55.56.56,0,0,1,.56.55v3.8A.56.56,0,0,1,44.65,50.83Z"/><path class="cls-4" d="M44.47,46.78H42.1a.56.56,0,0,1,0-1.12h2.37a.56.56,0,0,1,0,1.12Z"/><path class="cls-4" d="M42.59,49.69h0a.56.56,0,0,1-.47-.26l-1.93-3a.55.55,0,0,1,.93-.6l1.47,2.29,2.12-3.3a.56.56,0,0,1,.94.6l-2.59,4A.57.57,0,0,1,42.59,49.69Z"/><path class="cls-4" d="M44.65,58.48h-4a.55.55,0,0,1-.55-.56V55.86a.55.55,0,0,1,.55-.56.56.56,0,0,1,.56.56v1.51H44.1V54.12a.55.55,0,0,1,.55-.55.56.56,0,0,1,.56.55v3.8A.56.56,0,0,1,44.65,58.48Z"/><path class="cls-4" d="M44.47,54.43H42.1a.56.56,0,0,1,0-1.12h2.37a.56.56,0,0,1,0,1.12Z"/><path class="cls-4" d="M42.59,57.34h0a.56.56,0,0,1-.47-.26l-1.93-3a.55.55,0,0,1,.93-.6l1.47,2.28,2.12-3.29a.56.56,0,0,1,.94.6l-2.59,4A.57.57,0,0,1,42.59,57.34Z"/><path class="cls-4" d="M44.65,43.07h-4a.55.55,0,0,1-.55-.56V40.45a.54.54,0,0,1,.55-.55.55.55,0,0,1,.56.55V42H44.1V38.72a.55.55,0,0,1,.55-.56.56.56,0,0,1,.56.56v3.79A.56.56,0,0,1,44.65,43.07Z"/><path class="cls-4" d="M44.47,39H42.1a.56.56,0,0,1,0-1.11h2.37a.56.56,0,0,1,0,1.11Z"/><path class="cls-4" d="M42.59,41.93h0a.56.56,0,0,1-.47-.26l-1.93-3a.56.56,0,0,1,.93-.61l1.47,2.29,2.12-3.3a.56.56,0,0,1,.94.61l-2.59,4A.57.57,0,0,1,42.59,41.93Z"/><path class="cls-4" d="M65.05,71H35a.56.56,0,0,1-.55-.56V32.35a.56.56,0,0,1,.55-.56h7.23a.56.56,0,0,1,.56.56.55.55,0,0,1-.56.55H35.51V69.84h29V32.9H57.82a.55.55,0,0,1-.56-.55.56.56,0,0,1,.56-.56h7.23a.56.56,0,0,1,.55.56V70.4A.56.56,0,0,1,65.05,71Z"/><path class="cls-4" d="M57.82,36.52H42.18a.55.55,0,0,1-.55-.55V29.6a.56.56,0,0,1,.55-.56H57.82a.56.56,0,0,1,.55.56V36A.55.55,0,0,1,57.82,36.52ZM42.74,35.41H57.26V30.16H42.74Z"/></svg>