<svg xmlns="http://www.w3.org/2000/svg" viewBox="0 0 100 100"><defs><style>.cls-1{isolation:isolate;}.cls-2{fill:#231f20;}.cls-3{fill:#9d9fa2;}.cls-4{fill:#f4f4f7;}.cls-5{fill:#dcddde;}.cls-15,.cls-5{mix-blend-mode:multiply;}.cls-6{fill:#fff;}.cls-7{fill:#6d6e71;}.cls-8{fill:#f2d9bd;}.cls-9{fill:#fec35a;}.cls-10{fill:#fbb157;}.cls-11{fill:#f89e53;}.cls-12{fill:#95a1ad;}.cls-13{fill:#5a5b5d;}.cls-14{fill:#ffe39f;}.cls-15{fill:#fad3be;}</style></defs><g class="cls-1"><g id="Layer_1" data-name="Layer 1"><path class="cls-2" d="M56.78,70.46a1.64,1.64,0,0,1,.29.27,5.11,5.11,0,0,1,0,.82c0,.17-.36.67-1.2.94s-1.56.32-2.37.5a14.85,14.85,0,0,1-3.35.6,2.43,2.43,0,0,1-2.23-1,8.65,8.65,0,0,1,0-1.24,1.89,1.89,0,0,1,1.27-.61C49.75,70.75,56.78,70.46,56.78,70.46Z"/><path class="cls-2" d="M63.89,74.51s.34-.05.37.49l0,.79a1.37,1.37,0,0,1-.6.91c-.57.44-1.14,2.21-2.41,2.74a5.27,5.27,0,0,1-3.83-.28c-.72-.38-.78-.67-.78-.67l0-.9.46-.38Z"/><path class="cls-3" d="M52.87,69.28s-.9,0-1,.3a.87.87,0,0,1-.42.41,10.85,10.85,0,0,0-2.87.89.94.94,0,0,0-.06,1.41,3.27,3.27,0,0,0,2.53.57c1-.08,2.41-.53,3.27-.63a5.69,5.69,0,0,0,2.27-.77.85.85,0,0,0,.41-.91,6.3,6.3,0,0,0-.14-1.07A11.54,11.54,0,0,0,52.87,69.28Z"/><path class="cls-3" d="M64,73.73s.12.78.13,1,.14.44-.16.78a15.72,15.72,0,0,0-1.23,1.61,3.41,3.41,0,0,1-2.65,1.69c-1.63.12-2.79-.47-3-.92s.36-1.11.55-1.25a21.4,21.4,0,0,0,1.57-1.61c.07-.15.09-.92.22-1S63.74,73.17,64,73.73Z"/><path class="cls-4" d="M54.62,70.82a3.72,3.72,0,0,0,1.56-.2,2.18,2.18,0,0,0,1.21-.83,45.11,45.11,0,0,0,.48-6.7c0-2.57-.14-3.66,0-4.13a35.89,35.89,0,0,0,.24-5,1.93,1.93,0,0,0,0-.24c-.1-1.65.43-8.11-2.41-8.25s-3.46.5-3.46.5a33.66,33.66,0,0,0-.54,6.51c.18,2.44.75,9,.77,9.37s.13,7.09.1,7.39S53,70.71,54.62,70.82Z"/><path class="cls-5" d="M56.4,57.62c.06.93.2,4.08.28,5.29.06.93-.36,4.77-.5,7.71a2.18,2.18,0,0,0,1.21-.83,45.11,45.11,0,0,0,.48-6.7c0-2.57-.14-3.66,0-4.13a35.89,35.89,0,0,0,.24-5c-1.27-1.24-2.57-2.15-3.23-2.13,0,0,.3,2.13.42,2.89S56.34,56.69,56.4,57.62Z"/><path class="cls-6" d="M55.45,53.91c.35,1.28,1.66,1.47,1.92,2.35a39.32,39.32,0,0,1,.89,4.16,17.31,17.31,0,0,0,.29,2.46c.11.25.35,4.53.56,5.47s.09,5.89.21,6.09a5.68,5.68,0,0,0,3,.78,2.54,2.54,0,0,0,.89-.15,1.8,1.8,0,0,0,1.12-.93c0-.06.13-1.81.09-2.51s.39-6.8.33-7.35-.08-2.11-.14-2.88-.11-2.1-.13-2.54.61-2.62.65-3,.59-3.39.59-4.6-.15-2.77-.15-2.77l-4.25-.84L57,46.75a2.51,2.51,0,0,0-2.42,2.1A12.9,12.9,0,0,0,55.45,53.91Z"/><path class="cls-6" d="M57.74,49.31,55.05,51s-.73,2.2-.86,2.85-2.29,1.94-2.29,1.94a25,25,0,0,1-.12-5.53c.35-1.92,4.57-4,4.57-4S58.44,47.86,57.74,49.31Z"/><path class="cls-5" d="M60.52,50.22l-.06,0A.78.78,0,0,0,60,50c.09.48.57.78,1,1a2.46,2.46,0,0,0,.82.34,2.9,2.9,0,0,0,.51,0,13.42,13.42,0,0,0,1.42,0,2,2,0,0,0,.93-.37c.15-.12.26-.35.43-.45a7.76,7.76,0,0,1-.27,1.34c-.17.79-.32,1.59-.47,2.39-.18,1-.34,2-.47,3a10.78,10.78,0,0,0-.13,2.27c.19,2.1.76,4.37.62,6.36-.12,1.76-1.08,6.4-1.15,9.25a1.8,1.8,0,0,0,1.12-.93c0-.06.13-1.81.09-2.51s.39-6.8.33-7.35-.08-2.11-.14-2.88-.11-2.1-.13-2.54.61-2.62.65-3,.59-3.39.59-4.6a3.49,3.49,0,0,0-.13-1.55,5.77,5.77,0,0,0-1.38,1,.43.43,0,0,1-.19.13.41.41,0,0,1-.22,0l-1.61-.08a4.6,4.6,0,0,1-.84-.1A2.16,2.16,0,0,1,60.52,50.22Z"/><polygon class="cls-7" points="32.25 47.7 32.25 75.25 49 85 49 57.45 45.39 55.35 32.26 47.7 32.25 47.7"/><polygon class="cls-2" points="49 57.45 49 85 55.05 81.49 55.05 53.95 49 57.45"/><polygon class="cls-8" points="32.25 47.71 45.39 55.35 46.29 55.88 49 57.45 49 57.45 49 57.45 51.81 55.82 55.05 53.95 38.3 44.2 32.26 47.7 32.25 47.71"/><polygon class="cls-9" points="48.2 53.23 42.06 49.65 44.87 48.02 51.02 51.6 48.2 53.23"/><polygon class="cls-10" points="48.63 53.48 49.53 54 52.23 55.57 52.23 55.58 52.24 55.58 55.05 53.95 51.44 51.84 48.63 53.48"/><polygon class="cls-9" points="35.35 43.8 35.35 45.89 41.5 49.46 41.5 47.38 35.35 43.8"/><polygon class="cls-9" points="32.25 47.7 32.25 49.79 38.4 53.37 38.4 51.28 32.25 47.7"/><polygon class="cls-9" points="38.82 51.53 38.82 53.61 44.97 57.19 44.97 55.11 38.82 51.53"/><polygon class="cls-9" points="45.39 55.35 45.39 57.44 49 59.54 49 57.45 46.29 55.88 45.39 55.35"/><polygon class="cls-9" points="32.25 50.21 32.25 52.3 35.8 54.36 35.8 52.27 32.25 50.21"/><polygon class="cls-9" points="36.22 52.52 36.22 54.61 42.37 58.18 42.37 56.1 36.22 52.52"/><polygon class="cls-9" points="42.85 56.4 42.85 58.48 49 62.06 49 59.98 42.85 56.4"/><polygon class="cls-9" points="32.25 52.75 32.25 54.84 38.4 58.42 38.4 56.33 32.25 52.75"/><polygon class="cls-9" points="38.82 56.58 38.82 58.66 44.97 62.24 44.97 60.16 38.82 56.58"/><polygon class="cls-9" points="45.39 60.4 45.39 62.49 49 64.59 49 62.5 45.39 60.4"/><polygon class="cls-9" points="32.25 55.26 32.25 57.35 35.8 59.41 35.8 57.33 32.25 55.26"/><polygon class="cls-9" points="36.22 57.57 36.22 59.66 42.37 63.23 42.37 61.15 36.22 57.57"/><polygon class="cls-9" points="42.85 61.45 42.85 63.53 49 67.11 49 65.03 42.85 61.45"/><polygon class="cls-9" points="32.25 57.8 32.25 59.89 38.4 63.47 38.4 61.38 32.25 57.8"/><polygon class="cls-9" points="38.82 61.63 38.82 63.71 44.97 67.29 44.97 65.21 38.82 61.63"/><polygon class="cls-9" points="45.39 65.45 45.39 67.54 49 69.64 49 67.55 45.39 65.45"/><polygon class="cls-9" points="32.25 60.31 32.25 62.4 35.8 64.46 35.8 62.38 32.25 60.31"/><polygon class="cls-9" points="36.22 62.62 36.22 64.71 42.37 68.28 42.37 66.2 36.22 62.62"/><polygon class="cls-9" points="42.85 66.5 42.85 68.59 49 72.16 49 70.08 42.85 66.5"/><polygon class="cls-9" points="32.25 62.85 32.25 64.94 38.4 68.52 38.4 66.43 32.25 62.85"/><polygon class="cls-9" points="38.82 66.68 38.82 68.77 44.97 72.34 44.97 70.26 38.82 66.68"/><polygon class="cls-9" points="45.39 70.5 45.39 72.59 49 74.69 49 72.6 45.39 70.5"/><polygon class="cls-9" points="32.25 65.36 32.25 67.45 35.8 69.51 35.8 67.43 32.25 65.36"/><polygon class="cls-9" points="36.22 67.67 36.22 69.76 42.37 73.33 42.37 71.25 36.22 67.67"/><polygon class="cls-9" points="42.85 71.55 42.85 73.64 49 77.21 49 75.13 42.85 71.55"/><polygon class="cls-9" points="32.25 67.91 32.25 69.99 38.4 73.57 38.4 71.48 32.25 67.91"/><polygon class="cls-9" points="38.82 71.73 38.82 73.82 44.97 77.39 44.97 75.31 38.82 71.73"/><polygon class="cls-9" points="45.39 75.56 45.39 77.64 49 79.74 49 77.65 45.39 75.56"/><polygon class="cls-9" points="32.25 70.41 32.25 72.5 35.8 74.56 35.8 72.48 32.25 70.41"/><polygon class="cls-9" points="36.22 72.72 36.22 74.81 42.37 78.39 42.37 76.3 36.22 72.72"/><polygon class="cls-9" points="42.85 76.6 42.85 78.69 49 82.26 49 80.18 42.85 76.6"/><polygon class="cls-9" points="32.25 72.96 32.25 75.04 38.4 78.62 38.4 76.53 32.25 72.96"/><polygon class="cls-9" points="38.82 76.78 38.82 78.87 44.97 82.44 44.97 80.36 38.82 76.78"/><polygon class="cls-9" points="45.39 80.61 45.39 82.69 49 84.79 49 82.7 45.39 80.61"/><polygon class="cls-11" points="41.5 47.38 41.5 49.46 44.31 47.83 44.31 45.75 41.5 47.38"/><polygon class="cls-11" points="49 57.45 49 59.53 51.81 57.9 51.81 55.82 49 57.45"/><polygon class="cls-11" points="49 62.5 49 64.58 51.81 62.95 51.81 60.87 49 62.5"/><polygon class="cls-11" points="49 65.03 49 67.11 51.81 65.48 51.81 63.4 49 65.03"/><polygon class="cls-11" points="49 67.56 49 69.64 51.81 68.01 51.81 65.92 49 67.56"/><polygon class="cls-11" points="49 70.08 49 72.16 51.81 70.53 51.81 68.45 49 70.08"/><polygon class="cls-11" points="49 72.6 49 74.69 51.81 73.06 51.81 70.97 49 72.6"/><polygon class="cls-11" points="49 75.13 49 77.21 51.81 75.58 51.81 73.5 49 75.13"/><polygon class="cls-11" points="49 77.65 49 79.74 51.81 78.11 51.81 76.02 49 77.65"/><polygon class="cls-11" points="49 80.18 49 82.26 51.81 80.63 51.81 78.55 49 80.18"/><polygon class="cls-11" points="49 82.7 49 84.79 51.81 83.16 51.81 81.07 49 82.7"/><polygon class="cls-11" points="49 59.98 49 62.06 51.81 60.43 51.81 58.35 49 59.98"/><polygon class="cls-11" points="52.24 55.58 52.24 57.66 55.05 56.03 55.05 53.95 52.24 55.58"/><polygon class="cls-11" points="52.24 60.63 52.24 62.71 55.05 61.08 55.05 59 52.24 60.63"/><polygon class="cls-11" points="52.24 63.15 52.24 65.24 55.05 63.61 55.05 61.52 52.24 63.15"/><polygon class="cls-11" points="52.24 65.68 52.24 67.76 55.05 66.13 55.05 64.05 52.24 65.68"/><polygon class="cls-11" points="52.24 68.2 52.24 70.29 55.05 68.66 55.05 66.57 52.24 68.2"/><polygon class="cls-11" points="52.24 70.73 52.24 72.81 55.05 71.18 55.05 69.1 52.24 70.73"/><polygon class="cls-11" points="52.24 73.25 52.24 75.34 55.05 73.71 55.05 71.62 52.24 73.25"/><polygon class="cls-11" points="52.24 75.78 52.24 77.86 55.05 76.23 55.05 74.15 52.24 75.78"/><polygon class="cls-11" points="52.24 78.31 52.24 80.39 55.05 78.76 55.05 76.67 52.24 78.31"/><polygon class="cls-11" points="52.24 80.83 52.24 82.91 55.05 81.28 55.05 79.2 52.24 80.83"/><polygon class="cls-11" points="52.24 58.1 52.24 60.19 55.05 58.55 55.05 56.47 52.24 58.1"/><polygon class="cls-10" points="41.5 47.38 35.35 43.8 38.16 42.17 44.31 45.75 41.5 47.38"/><polygon class="cls-10" points="38.4 51.28 32.25 47.7 35.06 46.07 41.21 49.65 38.4 51.28"/><polygon class="cls-10" points="44.97 55.11 38.82 51.53 41.64 49.9 47.78 53.48 44.97 55.11"/><polygon class="cls-10" points="45.39 55.35 46.29 55.88 49 57.45 49 57.45 49 57.45 51.81 55.82 48.2 53.72 45.39 55.35"/><path class="cls-12" d="M42.74,49.12a6,6,0,0,1,.76-.57,1.22,1.22,0,0,0,.53-.36,2.25,2.25,0,0,1,.29-.49l7,4c.12.08.32.23.29.39s-.31.31-.48.3,0,.13,0,.2a.27.27,0,0,1-.21.27c-.12,0-.25,0-.36.08a.59.59,0,0,0-.23.14.68.68,0,0,1-.12.12.26.26,0,0,1-.17,0c-.36,0-.71-.15-1.07-.11a8.21,8.21,0,0,0-1.31.15,1.72,1.72,0,0,1-.84.12l-1-.2a2.62,2.62,0,0,1-.4-.11L45.18,53c-.31-.07-.84.19-1.08-.06,0,0-.05-.07-.09-.09a.32.32,0,0,0-.14,0H42.38a.56.56,0,0,1-.22,0,.44.44,0,0,1-.18-.12,2.54,2.54,0,0,1-.44-.54,1.15,1.15,0,0,0-.25-.33c-.28-.21-.77-.09-.95-.39s0-.56-.1-.81a.82.82,0,0,1,.36-.14c.12,0,.26-.13.24-.26a.26.26,0,0,0-.17-.17c-.1-.05-.22-.08-.33-.13a.41.41,0,0,1-.23-.25,15.35,15.35,0,0,0,2.36-.44A1.43,1.43,0,0,0,42.74,49.12Z"/><path class="cls-13" d="M42.75,48.93l.07,0a5.05,5.05,0,0,1,.63-.49,1.12,1.12,0,0,0,.49-.33c.11-.16.12-.31.28-.46L46.69,49c1.19.69,2.38,1.38,3.56,2.08l.26.14c.19.14.2.33.29.54a4,4,0,0,1-.5,0,1,1,0,0,1,0,.38.35.35,0,0,1-.23.29h-.85l0,.1H48.06a.9.9,0,0,1-.47.34h-.16l-.63-.17-.1,0a6,6,0,0,0-1.55-.45.16.16,0,0,1-.07.19.47.47,0,0,1-.2.06,1.06,1.06,0,0,1-.66,0l-.2-.11a1.36,1.36,0,0,0-.8,0,3,3,0,0,1-.74,0,.43.43,0,0,1-.3-.14.8.8,0,0,1,0-.38.75.75,0,0,0-.7-.56c-.32,0-.64,0-1,0l0-.36.5-.15a.07.07,0,0,0,.06,0,.11.11,0,0,0,0-.08.89.89,0,0,0-.52-.8s.45-.14.53-.14.4,0,.6,0A2.88,2.88,0,0,0,42.75,48.93Z"/><polygon class="cls-14" points="44.62 40.29 47.72 42.33 47.78 43.63 46.2 44.61 42.76 42.27 43.31 40.48 44.62 40.29"/><polygon class="cls-9" points="40.55 40.98 40.43 43.07 46.36 46.98 46.48 44.9 40.55 40.98"/><polygon class="cls-11" points="46.48 44.9 46.36 46.98 49.26 45.51 49.38 43.43 46.48 44.9"/><polygon class="cls-10" points="46.48 44.9 40.54 40.99 43.45 39.52 49.38 43.43 46.48 44.9"/><path class="cls-6" d="M42.41,41.47a2.7,2.7,0,0,0,.13.52l.14.49.11.11h0a.69.69,0,0,1,.13.16,2,2,0,0,0,.15.15l.29.24h0l.21.28a1,1,0,0,0,.29.07s.08,0,.1,0,0,0,0-.08a1.16,1.16,0,0,0-.1-.35.4.4,0,0,0,.26-.14,3.49,3.49,0,0,0,.12-.86,6.81,6.81,0,0,1,.31-.64,3.91,3.91,0,0,1,.87-1s.54-.35.92-.64h0a3.64,3.64,0,0,0,.32-.29,9.69,9.69,0,0,1,1.57-1,16.56,16.56,0,0,0,2.13-1.72c.19-.24,1.07-1.22,1.88-2.14s1.73-1.48,1.64-2.9a1.15,1.15,0,0,0,0-.26c-.23-1.61-2-1.56-2-1.56s-2.26,2.7-2.91,3.29a53.29,53.29,0,0,0-3.4,4.26c-.47.66-1.3,1.7-1.45,1.84a1.48,1.48,0,0,1-.53.23,1.74,1.74,0,0,0-.64.37A7.78,7.78,0,0,0,42.41,41.47Z"/><path class="cls-4" d="M46.67,39s-.2.56-.3.78a3.64,3.64,0,0,0,.32-.29,9.69,9.69,0,0,1,1.57-1,16.56,16.56,0,0,0,2.13-1.72c.19-.24,1.07-1.22,1.88-2.14s1.73-1.48,1.64-2.9l-.31-.2-1,.92-.84,2-.8.41-.28,1a8.56,8.56,0,0,1-1.54,1.64C48.68,37.78,46.67,39,46.67,39Z"/><path class="cls-4" d="M45.4,40.08l0,.75,1.36.9s0-.63,0-.86-.31-1.26-.36-1.46l0-.2s-.37-.3-.58-.23S45.11,39.33,45.4,40.08Z"/><path class="cls-9" d="M50.78,30.65a1.57,1.57,0,0,0,.68,1.53,12.2,12.2,0,0,0,1.83,1.25c.45.18,3.92-7.72,3.64-8.26a1.33,1.33,0,0,0-1.07-.8,3,3,0,0,0-1.7,1.15A20.23,20.23,0,0,0,52.05,29,10.5,10.5,0,0,1,50.78,30.65Z"/><path class="cls-3" d="M46.06,49.38S42,50.46,41.85,51,46.44,52.05,47,52,46.91,49.14,46.06,49.38Z"/><path class="cls-2" d="M47.3,50.86a.07.07,0,0,1,0,0s0,0-.06,0a9.51,9.51,0,0,1-2.32-.11c-.13,0-.3-.09-.29-.23.73-.1,1.46-.19,2.19-.26,0-.58-.05-.62-.08-1.2,0-.07.49-.15.54-.08s0,.17,0,.34A14.42,14.42,0,0,1,47.3,50.86Z"/><path class="cls-2" d="M47.77,48.68h0l1.89,0-.2.32a4.85,4.85,0,0,1-.36.63c-.2.15-.74.1-1,.12-.46,0-1.18,0-1.26-.58C46.87,48.69,47.67,48.68,47.77,48.68Z"/><path class="cls-6" d="M50.62,46.91A4.55,4.55,0,0,1,50.09,48a7.9,7.9,0,0,1-.83.91c-.18.09-.48,0-.46-.07s0-.8.12-.84.95-.89,1-.92Z"/><path class="cls-11" d="M51.89,47a1,1,0,0,0,.42.29l.79.35c1.36.56,3.42,1.26,3.79,1.41l.78.27.07,0a27.91,27.91,0,0,0,5,1.29,6.18,6.18,0,0,0,1.85-.48l.31-.13a3.51,3.51,0,0,0,.91-.54.19.19,0,0,0,.08-.13c0-.1,0-.36,0-.66h0c0-.62-.11-1.44-.12-1.58s.37-3.13.07-3.72,0-1.11,0-2.13c0-.08,0-.23,0-.43s0-.21,0-.34h0c0-.1,0-.19,0-.3v0s0-.09,0-.13,0-.19,0-.29c.06-.43.13-.86.2-1.29L66.2,38l.12-.8.15-1c0-.15,0-.29.07-.44s0-.19,0-.29l.09-.58c0-.28.08-.57.13-.85a30,30,0,0,0,.51-4.33,11.6,11.6,0,0,0-1.53-2.9,13,13,0,0,0-4-2.95,8.55,8.55,0,0,0-6.22.52c-1.56,1-2.08,4.75-2.42,6.65a18.09,18.09,0,0,0-.28,3.59s0,2,0,3.77h0c0,1.32,0,2.57,0,2.95a31.82,31.82,0,0,1-.9,4.45A2.08,2.08,0,0,0,51.89,47Z"/><path class="cls-6" d="M51.65,46.63a1.8,1.8,0,0,0,.52.85l0,0A23,23,0,0,0,56,49.21c.23,0,.69.19,1.3.38,1.91.59,5.3,1.57,7.79,1.09.23,0,.45-.1.67-.17,0,0,0-.42,0-1.06,0-.23,0-.5,0-.79h0c.07-1.87.17-4.55.15-5.14,0-.92,0-2.7,0-2.7l-.17,0-3.64-.32a8,8,0,0,1-1.51-.24,1.62,1.62,0,0,1-1.06-.72c-.29-.56.49-2.22-1.7-2.62a17.26,17.26,0,0,1-4.66-1.85,1,1,0,0,0-.29.84c0,.6-.06,2.21-.09,2.56h0v0c0,.28-.18,3.12-.18,3.34S51.61,46.22,51.65,46.63Z"/><path class="cls-6" d="M53,36.08s.28-7.87,2.43-10.29a7.86,7.86,0,0,1,4.71-2.64l.91,1a9.09,9.09,0,0,0-4.22,2c-1.92,1.9-2.53,10.38-2.53,10.38Z"/><path class="cls-9" d="M53.3,35.32a.51.51,0,0,0,.36.53.34.34,0,0,0,.46-.27.52.52,0,0,0-.36-.54A.34.34,0,0,0,53.3,35.32Z"/><path class="cls-5" d="M52.17,47.48l0,0A23,23,0,0,0,56,49.21c.23,0,.69.19,1.3.38l.4-.3,1.17-.89,5.31-3,.83-.81,0,.77L63.1,46.91l1.63-.57-.94,1.49,1.12-.24a6.07,6.07,0,0,0-.18,1.27,2.75,2.75,0,0,0,0,.81,1.06,1.06,0,0,0,0,.19l.07.13,0,.09a2.41,2.41,0,0,1,.16.6c.23,0,.45-.1.67-.17,0,0,0-.42,0-1.06a.19.19,0,0,0,.08-.13c0-.1,0-.36,0-.66h0c.07-1.87.17-4.55.15-5.14,0-.92,0-2.7,0-2.7l-.17,0-3.64-.32a8,8,0,0,1-1.51-.24l-.13.58L53,46.15l-.71,1.11Z"/><path class="cls-4" d="M57.51,25.21a11.75,11.75,0,0,0,.31,2c.15.31.89.6,2,.39a7.67,7.67,0,0,0,2.65-1.23c.73-.44,1-.9,1-1.07s-.86-.7-1.17-1.39a13.6,13.6,0,0,1-.47-3.94c.09-.61-1.48-1.46-2.87-.72S57.51,25.21,57.51,25.21Z"/><path class="cls-6" d="M48.94,49.77a1.69,1.69,0,0,0,.2.51c.08.16.4.07.52.07s.27-.2.27-.2a.6.6,0,0,0,.37.18l.38,0s.24.19.34.25.42,0,.42,0l.28-.13s0,.08.22.13a3.91,3.91,0,0,0,.59,0A1.19,1.19,0,0,0,53,50a8.42,8.42,0,0,1,.61-1.45A4.17,4.17,0,0,1,55,47.82a51.19,51.19,0,0,0,4.87-2,19.41,19.41,0,0,0,3.95-2.45,47.07,47.07,0,0,0,2.88-5.94,5.47,5.47,0,0,0,.17-1.34c0-1.46-.3-3.42-1.53-3.32-1.71.15-3.6,2.72-3.86,5S61.23,41,61,41.12s-3.63,2.41-4.7,3.22a29.82,29.82,0,0,1-4.64,2.4c-.15,0-1,.16-1.24.21s-.6,1.13-.6,1.13a6.91,6.91,0,0,1-.62,1,1,1,0,0,0-.27.59Z"/><path class="cls-4" d="M48.94,49.77a1.69,1.69,0,0,0,.2.51c.08.16.4.07.52.07s.27-.2.27-.2a.6.6,0,0,0,.37.18l.38,0s.24.19.34.25.42,0,.42,0l.28-.13s0,.08.22.13a3.91,3.91,0,0,0,.59,0A1.19,1.19,0,0,0,53,50a8.42,8.42,0,0,1,.61-1.45A4.17,4.17,0,0,1,55,47.82a51.19,51.19,0,0,0,4.87-2,19.41,19.41,0,0,0,3.95-2.45,47.07,47.07,0,0,0,2.88-5.94,5.47,5.47,0,0,0,.17-1.34,32.69,32.69,0,0,0-5.09,1.28,3.37,3.37,0,0,0,1.33.67,17.65,17.65,0,0,1,2.31.51S64.38,41,64,41.87A5.19,5.19,0,0,1,61,44.72c-2,.87-7.12,3.43-7.4,3.64A7.81,7.81,0,0,0,52.74,50l-.42.48a3.86,3.86,0,0,0-.54-.17c-.06,0-.51-.14-.51-.14L51.1,50l-.79,0a.72.72,0,0,0,0-.25c0-.14-.49-.07-.49-.07s-.24.38-.45.25l-.42-.28h0Z"/><path class="cls-15" d="M44,40.47l-.5,1.66a10.42,10.42,0,0,1,.37,1.37s.08,0,.1,0,0,0,0-.08l-.1-.35-.28-.81Z"/><path class="cls-15" d="M43.31,40.48l-.38,1.22.14,1.21.29.24L43.1,42Z"/><path class="cls-15" d="M42.54,42l.14.49.11.11-.08-1.13.15-1.07-.3,1.14S42.55,41.73,42.54,42Z"/><path class="cls-9" d="M61.2,37.75a19,19,0,0,0,2,.22c1.25.07,3.81.24,4,.23s.36-4.32.52-5.52-.2-3.86-1.47-3.83-3.2,0-4,3.36S61.2,37.75,61.2,37.75Z"/><path class="cls-4" d="M54.92,18s-.52.41-.52,1.8,0,1.91.11,2.11a2.53,2.53,0,0,1,.48.91c.06.34.1,1.36.1,1.36s-.15.58.25.65c.23.36.23.44.23.44l.19.16.1.58a1.72,1.72,0,0,0,.37.73,1.37,1.37,0,0,0,1.26.14,10,10,0,0,0,2.28-1.2,4.68,4.68,0,0,0,1.14-1.87c.09-.34.56-1.87.56-1.87a6,6,0,0,0,.28-1.65,13.37,13.37,0,0,0-2-2.64Z"/><path class="cls-2" d="M54.85,20.06a2.91,2.91,0,0,0,1.47.57c.86.06,1.87-.23,1.93-.1a5.09,5.09,0,0,0,.53.95c.16.14.79.38.86.5s.28.8.28.8l.45-.14s-.14-1.62.72-1.49.85.69.85.69.23-.07.27-.15a10.65,10.65,0,0,0,.46-2,5,5,0,0,0-.29-3A3,3,0,0,0,59.54,15c-.86,0-3.12.17-3.12.17l.58.25a4.45,4.45,0,0,0-1.43.59,3.38,3.38,0,0,0-1.29,1.79c-.11.46,0,.39,0,.39a2.74,2.74,0,0,0-.15.89c0,.36.06,1.17.06,1.17l.25-.6S54.73,19.94,54.85,20.06Z"/><path class="cls-6" d="M57.51,37.83s.68-6.66,2.83-9.07a8.17,8.17,0,0,1,3.79-2.44,2.29,2.29,0,0,1,1.32.17l.34.32.44.65a2.55,2.55,0,0,0-1.47-.05,8,8,0,0,0-3,1.72C59.82,31,58.81,38.3,58.81,38.3Z"/><path class="cls-9" d="M57.81,37a.52.52,0,0,0,.36.54.34.34,0,0,0,.47-.28.51.51,0,0,0-.36-.53A.34.34,0,0,0,57.81,37Z"/><path class="cls-5" d="M58.12,38.87a14.37,14.37,0,0,1-.38,3c-.13.12-2.83.53-2.83.53l-1.61-2A14.42,14.42,0,0,1,53.49,37C53.62,36.74,58.21,38.28,58.12,38.87Z"/><path class="cls-3" d="M57.63,38.26s.62.3.62.55a1.66,1.66,0,0,1-.18.8,11.86,11.86,0,0,1-2.74-.07c-.06-.07-2-1.52-2-1.75s0-1,.08-1A24.22,24.22,0,0,1,57.63,38.26Z"/></g></g></svg>