<svg xmlns="http://www.w3.org/2000/svg" viewBox="0 0 100 100"><defs><style>.cls-1{isolation:isolate;}.cls-2{fill:#2f2720;}.cls-3{fill:#9d9fa2;}.cls-4{fill:#fff;}.cls-11,.cls-5{fill:#dcddde;}.cls-5{mix-blend-mode:multiply;}.cls-6{fill:#fec35a;}.cls-7{fill:#f89e53;}.cls-8{fill:#231f20;}.cls-9{fill:#6d6e71;}.cls-10{fill:#4d4d4f;}.cls-12{fill:#78797c;}</style></defs><g class="cls-1"><g id="Layer_1" data-name="Layer 1"><path class="cls-2" d="M55.71,69.52a1.61,1.61,0,0,1,.1.55c0,.19-.16.57-.16.57s-1.79.9-2.1,1-1.29,1-2,1.27a15.27,15.27,0,0,1-2.06.92c-.34,0-.89-.7-.89-.7s-.28-.15-.25-.71,3-1.46,3-1.46Z"/><path class="cls-3" d="M52.3,68.6c-.1,0-1.2,1-1.4,1.14S48.5,71.25,48.37,72a1.24,1.24,0,0,0,.65,1.3A4.56,4.56,0,0,0,50.83,73a15.66,15.66,0,0,0,2.29-1.44,16.53,16.53,0,0,0,2.5-1.4A11.38,11.38,0,0,0,56.1,69Z"/><path class="cls-4" d="M52.24,42.87s0,4.6.06,5.3-.4,7.11-.4,8,.56,2.66.56,3.21,0,4.36-.19,4.81a27.19,27.19,0,0,0-.5,4.3c.06.55,1,1.16,1.51,1.39a7,7,0,0,0,2.07.16A3.91,3.91,0,0,0,56.85,69c.41-.62.38-3.7.4-3.8s1-5.53,1.43-6.81a30.61,30.61,0,0,0,.5-5.6A62.24,62.24,0,0,0,60,46c-.13-.93-1.35-3.47-1.9-3.64A56.33,56.33,0,0,0,52.24,42.87Z"/><path class="cls-5" d="M58.68,58.37c-.46,1.28-1.42,6.71-1.43,6.81s0,3.18-.4,3.8a3.18,3.18,0,0,1-1.15.91c.15-.43.32-.84.37-1.09.09-.48.53-1.79.53-1.79l-1.35,1.38.8-2.25.28-.8L54,67.12s2.3-2.22,2.52-2.58a14.25,14.25,0,0,0,.57-3.22,20.09,20.09,0,0,1,.56-2.73c.17-.71.51-1.71.51-1.71a5.39,5.39,0,0,0-.39-1.29c-.25-.48.16-1.69.16-1.69L57.74,52l-1.08,1.23,1-1.51-.16-.91-1.28-1L55.93,48a29.83,29.83,0,0,1,2.73-5A9.76,9.76,0,0,1,60,46a62.24,62.24,0,0,1-.85,6.76A30.61,30.61,0,0,1,58.68,58.37Z"/><path class="cls-2" d="M62.93,71.85s.4.19.42.35a2.53,2.53,0,0,1-.07.61,5.29,5.29,0,0,0-.7,1.73,3.27,3.27,0,0,1-2,2.39,7.6,7.6,0,0,1-2.63.16c-.2,0-.52-.37-.44-1.18A33.47,33.47,0,0,0,61,73.35Z"/><path class="cls-3" d="M59.47,71.41S59,73,58.88,73.25a23.77,23.77,0,0,0-1.4,2.66,1,1,0,0,0,.58.86,4.34,4.34,0,0,0,2.22-.07A3.06,3.06,0,0,0,62,75.32a12.3,12.3,0,0,0,.83-2.5l.44-.52a14.6,14.6,0,0,0,.07-1.57A36.63,36.63,0,0,0,59.47,71.41Z"/><path class="cls-4" d="M58.67,70.48a5.63,5.63,0,0,0,.52,1.11l2.35,1,1.23-.21.73-.46a2.65,2.65,0,0,0,.57-.43c.13-.18.1-1.63.33-2.91s.65-7.58.65-7.58-.26-6.44.21-8.37a45,45,0,0,0,.55-7,34.25,34.25,0,0,0-.36-3.73c0-.11-.39-.38-1-.62-1.78-.68-5.62-1.09-9.39,3.26,0,0,.67,2.71.89,3.38a8.5,8.5,0,0,0,1.42,2s.87.56.92.81.21,7.07.41,7.65a17.73,17.73,0,0,1,.07,3.56c0,.52,0,5.8,0,6.06S58.61,70.16,58.67,70.48Z"/><path class="cls-5" d="M63.5,71.93a2.65,2.65,0,0,0,.57-.43c.13-.18.1-1.63.33-2.91s.65-7.58.65-7.58-.26-6.44.21-8.37a45,45,0,0,0,.55-7,34.25,34.25,0,0,0-.36-3.73c0-.11-.39-.38-1-.62.18,1,.55,3.23.6,3.41s-.07,2.62-.09,3.2-.56,4.82-.56,4.82l-.51,3.89s-.07,6.8,0,7.16.1,2.92.07,3.1-.37,3.35-.37,3.35Z"/><path class="cls-5" d="M53.87,62.21,53,62l.2,1.13.22,1.23s-.46.14-.52,0-.66.24-.66.24h0c0-.18.06-.32.08-.39.15-.45.19-4.26.19-4.81s-.56-2.3-.56-3.21c0-.31.06-1.28.12-2.45h0l.57,2.49-.23,1.31v1.13l.75,2Z"/><path class="cls-4" d="M37.54,31.82a8.81,8.81,0,0,0,3.09,1.61,15.52,15.52,0,0,0,3-2c.11-.1,1.64-1.51,2.06-1.86s-.41-1.84-.69-2.41l-.11-.2-2.24.16-1.43,1.11L40,29.38l-.8.76A12.91,12.91,0,0,0,37.54,31.82Z"/><path class="cls-5" d="M36.27,30,37,31.36a5.62,5.62,0,0,0,1.35,1.74,2.69,2.69,0,0,0,2.28.33,15.52,15.52,0,0,0,3-2c.11-.1,1.64-1.51,2.06-1.86s-.41-1.84-.69-2.41c-.22.26-.73,1.12-.73,1.12s.31,1.09.33,1.3a2.26,2.26,0,0,1-.8,1.15c-.5.48-1.83,1.59-1.83,1.59l-.65.39a3.14,3.14,0,0,1-.46.28c-.21.08-.3,0-.55,0s-.53,0-.79,0a1.08,1.08,0,0,1-.71-.7l-.24-.58a1,1,0,0,1-.06-.91,1.7,1.7,0,0,0,.23-.3.59.59,0,0,0,0-.39,3.59,3.59,0,0,0-.48-1,1.84,1.84,0,0,0-.38-.49l-1-.41Z"/><path class="cls-6" d="M42.23,27.07a6.69,6.69,0,0,0,1.26,1.54,12.58,12.58,0,0,0,2.26,1.12l.56-.77,1.49-6.33-2,.11a9.42,9.42,0,0,0-1.38,1.57A23.36,23.36,0,0,1,43,26.17C43,26.28,42.23,27.07,42.23,27.07Z"/><path class="cls-6" d="M47.36,31.65s-.91-2-1.31-3.18a23.09,23.09,0,0,1-.8-4.55,2.48,2.48,0,0,1,.63-1.23,40,40,0,0,1,5-1.9,10.71,10.71,0,0,1,4.36.78,19,19,0,0,1,4.16,2.19c.9.72,1.49,1.17,1.64,1.8s1.39,9,1.59,9.05.71,1.24.71,1.24A10.75,10.75,0,0,1,64.86,38a10.9,10.9,0,0,1,1,3.48,5.94,5.94,0,0,1-3.08,3.73c-2.59,1.33-7.59.91-8.56.4a5,5,0,0,1-1.89-1.9c-.12-.31-1.92-4.83-2.26-5.45S47.36,31.65,47.36,31.65Z"/><path class="cls-7" d="M45.82,27.92c.21.75,1.14,3.26,1.58,4.67.31,1,1.68,4.19,2.63,6.34.33.73.61,1.34.79,1.7,0,.11.09.19.13.26.43.81,1.76,1.91,1.86,1.36s-.57-2.51-1.23-4.43-2.2-9.15-2.33-10.27a6.23,6.23,0,0,0-.42-1.78c-.31-1.1,1.3-4.33,1.85-4.56a10.78,10.78,0,0,1,3.15.11c.59.1,1.19.37,1.15,1.07s-1.57,2.71-2.6,4-.66.82-.32,5.09,3.33,10.94,3.84,11.67,2.68,1.23,6.4-.42,3-4.07,3-4.16a1.42,1.42,0,0,0-.13-.22c-.18-.3-.53-.84-.87-1.37l-1-1.49c-.27-.42-1.15-2-1.15-2a6,6,0,0,1-3.39,1.1c-1.58-.18-1.47-1.9-1.47-1.9s-2-5.12-.9-7.22a2.72,2.72,0,0,1,2.92-1.65,13.67,13.67,0,0,0-2.25-1.46,13.39,13.39,0,0,0-1.23-.56,14.91,14.91,0,0,0-6.75-1.1,8.32,8.32,0,0,0-3.57,2.7C45.16,24.25,45.59,27.17,45.82,27.92Z"/><path class="cls-4" d="M52.56,31.33c.11.6.23,1.19.31,1.74.2,1.26,2.88,9,4.22,9.25a5.17,5.17,0,0,0,1,.1,9.3,9.3,0,0,0,4-1,6.84,6.84,0,0,0,3.08-3.07c-.18-.3-.53-.84-.87-1.37a5.87,5.87,0,0,1-2.78,3.23,7,7,0,0,1-4.08.86,33.41,33.41,0,0,1-3.28-8.17c-.08-.56-.2-1.17-.32-1.78a12,12,0,0,1-.39-3.35c.12-.15.33-.36.57-.6a12,12,0,0,0,3.06-4.83,13.39,13.39,0,0,0-1.23-.56,10.52,10.52,0,0,1-2.8,4.45c-.26.27-.48.5-.67.73C51.88,27.6,52.11,29,52.56,31.33Z"/><path class="cls-4" d="M48,31.45c.24,1.14.44,2.06.51,2.42A44.54,44.54,0,0,0,50,38.52c0,.15.1.3.14.44l-.08,0c.33.73.61,1.34.79,1.7a1.5,1.5,0,0,0,.31,0,.62.62,0,0,0,.36-.12l.32-.57a8.37,8.37,0,0,0-.57-1.9c-.5-1.47-1.25-3.7-1.39-4.46-.06-.37-.26-1.3-.5-2.45-.48-2.24-1.46-6.88-1.43-7.5l-1.33-.12C46.53,24.19,47,26.71,48,31.45Z"/><path class="cls-4" d="M36.26,30v0L37,31.36a5.62,5.62,0,0,0,1.35,1.74,2.69,2.69,0,0,0,2.28.33,1.3,1.3,0,0,0,.71-.74,1,1,0,0,0,0-.22,6.43,6.43,0,0,0-.21-1.7,3.6,3.6,0,0,0-.79-1L40,29.38c-.67-.56-1.86-1.56-2-1.67a12.12,12.12,0,0,0-1.14-.77,2.71,2.71,0,0,0-1,.76C35.4,28.24,36.26,30,36.26,30Z"/><path class="cls-5" d="M41.15,31.84s-.07-.74-.08-.78-.29-1-.29-1l-.47-.38a6.92,6.92,0,0,1,.6.46s.34.85.34.85.11.77.11.81,0,.58,0,.58Z"/><polygon class="cls-6" points="37.38 30.39 40.57 31.45 40.04 28.46 36.79 27.55 37.38 30.39"/><polygon class="cls-8" points="43.56 36.52 43.58 36.75 50.98 74.32 51.71 74.84 52.38 74.6 45.13 36.52 43.56 36.52"/><polygon class="cls-9" points="43.58 36.75 43.67 37.2 43.71 37.43 44 38.88 44.71 42.47 44.71 42.47 45.2 45.01 47.1 54.63 50.98 74.32 51.71 74.84 47.84 54.48 46.02 44.94 44.47 36.75 43.58 36.75"/><path class="cls-8" d="M43.89,38.32,45.79,48l.78-.15-1.81-9.55C44.49,38.3,44.16,38.3,43.89,38.32Z"/><polygon class="cls-8" points="43.56 36.96 43.58 37.2 45.95 85.47 46.68 86 47.35 85.76 45.13 36.96 43.56 36.96"/><polygon class="cls-9" points="43.58 37.2 43.59 37.43 43.72 40.03 43.72 40.03 43.96 45.03 44.45 54.87 45.95 85.47 46.68 86 45.27 54.84 44.82 45.02 44.71 42.47 44.71 42.47 44.47 37.2 43.58 37.2"/><polygon class="cls-8" points="43.44 37.2 43.46 37.43 34.1 76.25 34.84 76.77 35.5 76.53 45.02 37.2 43.44 37.2"/><polygon class="cls-9" points="34.1 76.25 34.84 76.77 40.25 54.37 42.53 44.94 43.72 40.03 43.72 40.03 44 38.88 44.35 37.43 43.46 37.43 41.68 44.82 39.44 54.13 34.1 76.25"/><path class="cls-8" d="M43.67,38.92l.48,9.84c.27,0,.57,0,.84,0l-.45-9.84C44.26,38.9,44,38.93,43.67,38.92Z"/><path class="cls-8" d="M41.28,46.5l.81.26,2.26-9.33c-.29,0-.61,0-.89,0Z"/><polygon class="cls-9" points="36.27 28.75 36.27 36.71 45.69 42.2 45.69 34.24 36.27 28.75"/><polygon class="cls-8" points="45.69 34.24 45.69 42.2 48.83 40.38 48.83 32.42 45.69 34.24"/><polygon class="cls-10" points="45.69 34.24 36.27 28.75 39.41 26.93 48.83 32.42 45.69 34.24"/><path class="cls-4" d="M48.1,24.33a1.83,1.83,0,0,0,.21.16l1.15.82.78,1,.09-.76s.47-.11,1-.21a1.84,1.84,0,0,0,.78-.32,6.15,6.15,0,0,0,1.41-1.42c1.07-1.34.76-2,.76-2s-1.21-.47-1.44-.58A2.89,2.89,0,0,1,52,19.92c0-.25-1.18-.93-1.18-.93l-3.17,3C47.28,22.45,48.06,24.27,48.1,24.33Z"/><path class="cls-5" d="M48.31,24.49l1.15.82.78,1,.09-.76s.47-.11,1-.21a1.84,1.84,0,0,0,.78-.32l-.34,0a4.74,4.74,0,0,1-.84-.18c-.08-.07,0-.32,0-.51a7.68,7.68,0,0,1,.23-1A24.25,24.25,0,0,0,48.31,24.49Z"/><path class="cls-4" d="M43.62,18.22a20.9,20.9,0,0,0,.13,2.59,6,6,0,0,0,.7,1.71,7.38,7.38,0,0,1,.61,1,4.57,4.57,0,0,1,.09.48s0,.75,0,.79.44.25.44.25l.24,0a15.37,15.37,0,0,0,1.08,1.42,2.19,2.19,0,0,0,1.21.24,9.08,9.08,0,0,0,2.07-1.78,7.49,7.49,0,0,0,1-1.53s.53-1.73.66-2.1A9.12,9.12,0,0,0,52.06,20s-.87-3.45-2.4-3.91-5.38,1.32-5.38,1.32Z"/><path class="cls-4" d="M46.39,36.85l.12.07.76-.11,1,0-.51.07-.56.39.1.57s0,0,.1,0h0a2.41,2.41,0,0,0,.42.07l-.16.33.53.58.48,0,1,.15a5.9,5.9,0,0,0,.94.43,5,5,0,0,0,1.27-.13c.27-.06,4.55,1.09,5.26,1.21s4.41-.24,5-.89.74-2.82.71-3-.52-4.2-.52-4.2l-.7.09-2.9.37s-.78.78-.75.9.31,1.26.59,2.67a16.26,16.26,0,0,1-2.81.45c-.43-.05-3.87-.29-4-.38a4.93,4.93,0,0,1-.65-.73c-.08-.11-1.29-1.44-1.29-1.44s-.93-.37-1-.37a6.94,6.94,0,0,1-.65-.5,1,1,0,0,0-.34.18h0c-.15.12.22.64.26.69h0l-1.35.32c-.15,0,0,.3-.08.5a.11.11,0,0,0,.09.13.51.51,0,0,0,.2,0,10.77,10.77,0,0,1,1.36-.06,9.25,9.25,0,0,1,.78.5,2.5,2.5,0,0,1-.73,0,6.78,6.78,0,0,0-1.25.22l-.65.21a3.12,3.12,0,0,0-.27.43C46.17,36.65,46.3,36.77,46.39,36.85Z"/><path class="cls-8" d="M44.78,20.39a11.65,11.65,0,0,0,1.61-.14c.9-.14,1.07,0,1.27.41a8.28,8.28,0,0,0,.66,1l1.13.11.35.62.37-.15s-.29-1.41.48-1.74.71.13.82.28.34.46.34.46a2.36,2.36,0,0,0,.4-.42,13.48,13.48,0,0,0,0-1.5,16,16,0,0,0-.83-3.67c-.43-1.16-3-1.9-4.52-1.57a5,5,0,0,0-3.4,2.9,6.18,6.18,0,0,0,0,3l.27.34Z"/><path class="cls-11" d="M50.51,22s.19.74.41.79.61-.25.72-.39A3.16,3.16,0,0,0,51.82,21c-.08-.44-.44-.63-.71-.5a1.3,1.3,0,0,0-.63.86A3.26,3.26,0,0,0,50.51,22Z"/><path class="cls-5" d="M58,32.6s.55,1.24.53,1.31a9.37,9.37,0,0,0,0,1.05c0,.11.35,1,.35,1a7.36,7.36,0,0,1,1.69.23,1.71,1.71,0,0,1,.56.32L60,36.27l-1.43.14a6.73,6.73,0,0,1-1.74-.92c-.41-.43-1.17-2.71-.45-3.31S58,32.6,58,32.6Z"/><path class="cls-5" d="M48.63,34.32l.86.37L48.64,34a2,2,0,0,1-.68-.27s-.08-.09-.12-.15c-.15.12.22.64.26.69h.53Z"/><path class="cls-5" d="M47.83,38.26v-.33l-.16.33.53.58.48,0,1,.15a5.9,5.9,0,0,0,.94.43,5,5,0,0,0,1.27-.13c.27-.06,4.55,1.09,5.26,1.21s4.41-.24,5-.89.74-2.82.71-3-.52-4.2-.52-4.2l-.7.09c.09.48.4,2.15.42,2.42s.5,2.39.47,2.64a4.69,4.69,0,0,1-.47,1.63,4.53,4.53,0,0,1-1.44.53s-2.7.09-3.06.15a18.67,18.67,0,0,1-2.85-.36,15.71,15.71,0,0,0-2.11-.35,3.81,3.81,0,0,1-1,0,.17.17,0,0,1,0-.14l-.77.22-1-.37a5.26,5.26,0,0,0-1.1-.11,2.81,2.81,0,0,1-.58,0Z"/><path class="cls-5" d="M47.4,37.86a2.41,2.41,0,0,0,.42.07h.86l.41,0-.89-.26Z"/><path class="cls-5" d="M48.36,34.9l-.83.14-.76.22a.51.51,0,0,0,.2,0,10.77,10.77,0,0,1,1.36-.06,9.25,9.25,0,0,1,.78.5l.39,0s-.35-.36-.43-.41Z"/><path class="cls-5" d="M46.39,36.85l.12.07.76-.11,1,0-.51.07H49l.49,0-.78-.29-.84,0-1.16.18Z"/><path class="cls-6" d="M57.74,33.71a10.23,10.23,0,0,0,2.3-.06,8.93,8.93,0,0,0,2.44-1l-.2-2.38L61.42,26a7.87,7.87,0,0,0-.35-.95,13.76,13.76,0,0,0-1.19-.82s-3.23,0-3.41,2.33a15.52,15.52,0,0,0,.94,5.34Z"/><path class="cls-4" d="M35,29.73a6.71,6.71,0,0,0,.43.82,9.75,9.75,0,0,0,1.5.55.19.19,0,0,0,.18-.05.5.5,0,0,0,.12-.17l.26.12s.41-.3.4-.38-.22-.53-.22-.53a.67.67,0,0,0,.13-.44c0-.22-.69-.75-.69-.75l.1-.1.27-.28s-.19-.34-.26-.45a8.17,8.17,0,0,0-.6-.64l.88.59.88,0-.67-.57s-.86-.7-1.27-.65a.71.71,0,0,0-.57.28,1.37,1.37,0,0,0-.24.44l0,.06-.31.24-.1.57s-.09.28-.16.44A3.84,3.84,0,0,0,35,29.73Z"/><path class="cls-5" d="M35.82,30.12l1.4.76.26.12s.41-.3.4-.38-.22-.53-.22-.53a.67.67,0,0,0,.13-.44c0-.22-.69-.75-.69-.75l.1-.1h-.15l-.62-.41s-.6-.57-.63-.61l.46.75s.57.37.93.62.41.45.32.73-.21.14-.21.14L36,29.1l-.5-.37.33.4,1.46,1.05.37.23a.91.91,0,0,1,0,.28,1.38,1.38,0,0,1-.31.12S35.86,30,35.85,30s-.44-.39-.49-.43Z"/><path class="cls-5" d="M35,29.73a6.71,6.71,0,0,0,.43.82,9.75,9.75,0,0,0,1.5.55.19.19,0,0,0,.18-.05l-1.39-.56-.26-.3a5.17,5.17,0,0,1-.24-.58,1.7,1.7,0,0,1,0-.6c0-.14.11-.39.15-.51s.08-.41.13-.51.14-.44.14-.44h0l0,.06-.31.24-.1.57s-.09.28-.16.44A3.84,3.84,0,0,0,35,29.73Z"/><path class="cls-8" d="M42.9,36a1.48,1.48,0,0,1-.4,1.12,13.71,13.71,0,0,1-1.45,1l-2.64-4.64s.93-.54,1.19-.76a1.2,1.2,0,0,1,1.44,0A4.22,4.22,0,0,1,42.9,36Z"/><path class="cls-12" d="M41.6,36.83c0,1.2-.83,1.69-1.85,1.08a4.18,4.18,0,0,1-1.86-3.28c0-1.21.83-1.69,1.86-1.09A4.24,4.24,0,0,1,41.6,36.83Z"/><path class="cls-11" d="M41.1,36.54c0,.88-.61,1.24-1.37.79a3.08,3.08,0,0,1-1.36-2.41c0-.88.61-1.24,1.36-.79A3.07,3.07,0,0,1,41.1,36.54Z"/><path class="cls-8" d="M39,34a1.16,1.16,0,0,0-.21.72,3.11,3.11,0,0,0,1.36,2.41,1.16,1.16,0,0,0,.74.18c-.24.31-.67.36-1.16.07a3.08,3.08,0,0,1-1.36-2.41C38.37,34.36,38.62,34,39,34Z"/></g></g></svg>