<svg id="Layer_1" data-name="Layer 1" xmlns="http://www.w3.org/2000/svg" viewBox="0 0 100 100"><defs><style>.cls-1{fill:#ffca05;}.cls-2,.cls-4{fill:#fff;}.cls-2{opacity:0.2;}.cls-3{fill:#d1d2d3;}.cls-5{fill:#6d6f70;}</style></defs><circle class="cls-1" cx="50" cy="50" r="28.65"/><path class="cls-2" d="M78.65,50A28.5,28.5,0,0,0,76,37.86a37,37,0,0,0-36.19,37c0,.65,0,1.29,0,1.93A28.67,28.67,0,0,0,78.65,50Z"/><polygon class="cls-3" points="58.98 32.4 58.81 29.58 58.81 35.88 43.2 35.88 43.2 29.58 42.98 29.58 42.98 31.79 42.98 32.4 35.75 32.4 35.75 70.4 66.09 70.4 66.09 32.4 58.98 32.4"/><polygon class="cls-4" points="63.98 43.07 63.98 68.46 38.2 68.46 38.2 34.13 43.37 34.13 43.37 35.88 54.7 35.88 54.7 42.87 63.98 43.07"/><path class="cls-5" d="M64.05,43.51H54.79a.56.56,0,0,1-.55-.56V36a.56.56,0,1,1,1.11,0V42.4h7.34l-6.18-6a.56.56,0,0,1,.78-.79l7.15,7a.53.53,0,0,1,.12.6A.55.55,0,0,1,64.05,43.51Z"/><path class="cls-5" d="M63.19,69.18H38.87a1.41,1.41,0,0,1-1.42-1.39v-33a1.41,1.41,0,0,1,1.42-1.4h4.34a.56.56,0,1,1,0,1.11H38.87a.3.3,0,0,0-.31.29v33a.3.3,0,0,0,.31.28H63.19a.29.29,0,0,0,.3-.28V43.19l-7-6.83a.56.56,0,0,1,.78-.79l7.15,7a.55.55,0,0,1,.16.39V67.79A1.4,1.4,0,0,1,63.19,69.18Z"/><path class="cls-5" d="M60.36,64.14H47.42a.56.56,0,0,1-.56-.56.55.55,0,0,1,.56-.55H60.36a.55.55,0,0,1,.56.55A.56.56,0,0,1,60.36,64.14Z"/><path class="cls-5" d="M60.36,56.47H47.42a.56.56,0,1,1,0-1.11H60.36a.56.56,0,1,1,0,1.11Z"/><path class="cls-5" d="M60.36,48.8H47.42a.56.56,0,1,1,0-1.11H60.36a.56.56,0,1,1,0,1.11Z"/><path class="cls-5" d="M52.19,41.13H47.42a.56.56,0,1,1,0-1.11h4.77a.56.56,0,1,1,0,1.11Z"/><path class="cls-5" d="M45.68,66.16h-4a.56.56,0,0,1-.56-.55v-4a.56.56,0,0,1,.56-.56h4a.56.56,0,0,1,.56.56v4A.56.56,0,0,1,45.68,66.16Zm-3.5-1.11h2.94V62.11H42.18Z"/><path class="cls-5" d="M45.68,50.83h-4a.56.56,0,0,1-.56-.56V48.21a.56.56,0,0,1,.56-.56.55.55,0,0,1,.55.56v1.51h2.94V46.47a.56.56,0,0,1,1.12,0v3.8A.56.56,0,0,1,45.68,50.83Z"/><path class="cls-5" d="M45.49,46.78H43.13a.56.56,0,0,1,0-1.12h2.36a.56.56,0,1,1,0,1.12Z"/><path class="cls-5" d="M43.62,49.69h0a.56.56,0,0,1-.47-.26l-1.93-3a.54.54,0,0,1,.16-.76.55.55,0,0,1,.77.16l1.47,2.29,2.12-3.3a.55.55,0,0,1,.77-.16.54.54,0,0,1,.16.76l-2.59,4A.54.54,0,0,1,43.62,49.69Z"/><path class="cls-5" d="M45.68,58.48h-4a.56.56,0,0,1-.56-.56V55.86a.56.56,0,0,1,.56-.56.55.55,0,0,1,.55.56v1.51h2.94V54.12a.56.56,0,0,1,1.12,0v3.8A.56.56,0,0,1,45.68,58.48Z"/><path class="cls-5" d="M45.49,54.43H43.13a.56.56,0,0,1,0-1.12h2.36a.56.56,0,0,1,0,1.12Z"/><path class="cls-5" d="M43.62,57.34h0a.56.56,0,0,1-.47-.26l-1.93-3a.54.54,0,0,1,.16-.76.55.55,0,0,1,.77.16l1.47,2.28,2.12-3.29a.55.55,0,0,1,.77-.16.54.54,0,0,1,.16.76l-2.59,4A.54.54,0,0,1,43.62,57.34Z"/><path class="cls-5" d="M45.68,43.07h-4a.56.56,0,0,1-.56-.56V40.45a.55.55,0,0,1,.56-.55.54.54,0,0,1,.55.55V42h2.94V38.72a.56.56,0,0,1,1.12,0v3.79A.56.56,0,0,1,45.68,43.07Z"/><path class="cls-5" d="M45.49,39H43.13a.56.56,0,0,1,0-1.11h2.36a.56.56,0,1,1,0,1.11Z"/><path class="cls-5" d="M43.62,41.93h0a.56.56,0,0,1-.47-.26l-1.93-3a.55.55,0,0,1,.16-.77.56.56,0,0,1,.77.16l1.47,2.29,2.12-3.3a.56.56,0,0,1,.77-.16.55.55,0,0,1,.16.77l-2.59,4A.54.54,0,0,1,43.62,41.93Z"/><path class="cls-5" d="M66.07,71H36a.55.55,0,0,1-.55-.56V32.35a.55.55,0,0,1,.55-.56h7.23a.56.56,0,0,1,.56.56.55.55,0,0,1-.56.55H36.54V69.84h29V32.9H58.84a.55.55,0,0,1-.55-.55.56.56,0,0,1,.55-.56h7.23a.56.56,0,0,1,.56.56V70.4A.56.56,0,0,1,66.07,71Z"/><path class="cls-5" d="M58.84,36.52H43.21a.56.56,0,0,1-.56-.55V29.6a.56.56,0,0,1,.56-.56H58.84a.56.56,0,0,1,.56.56V36A.56.56,0,0,1,58.84,36.52ZM43.77,35.41H58.29V30.16H43.77Z"/></svg>