<svg xmlns="http://www.w3.org/2000/svg" viewBox="0 0 100 100"><defs><style>.cls-1{isolation:isolate;}.cls-2{fill:#dbdcdd;}.cls-3{fill:#9b9da0;}.cls-4,.cls-8{fill:#fff;}.cls-5{fill:#fdc25c;}.cls-6{fill:#f89e54;}.cls-7{fill:#2f2720;}.cls-11,.cls-8{mix-blend-mode:multiply;}.cls-11,.cls-9{fill:#e5e6e6;}.cls-10{fill:#d1d2d3;}.cls-12{fill:#221f1f;}</style></defs><g class="cls-1"><g id="Layer_1" data-name="Layer 1"><polygon class="cls-2" points="54.15 85.33 48.33 81.97 54.15 78.61 59.98 81.97 54.15 85.33"/><polygon class="cls-3" points="41.54 85.24 35.72 81.88 41.54 78.51 47.37 81.88 41.54 85.24"/><polygon class="cls-2" points="47.77 81.65 41.94 78.28 47.77 74.92 53.59 78.28 47.77 81.65"/><polygon class="cls-3" points="53.99 78.06 48.16 74.69 53.99 71.33 59.81 74.69 53.99 78.06"/><polygon class="cls-2" points="60.21 74.46 54.38 71.1 60.21 67.74 66.04 71.1 60.21 74.46"/><polygon class="cls-3" points="66.43 70.87 60.6 67.51 66.43 64.14 72.26 67.51 66.43 70.87"/><polygon class="cls-2" points="38.43 79.85 32.61 76.49 38.43 73.12 44.26 76.49 38.43 79.85"/><polygon class="cls-3" points="44.66 76.26 38.83 72.89 44.66 69.53 50.48 72.89 44.66 76.26"/><polygon class="cls-2" points="50.88 72.67 45.05 69.3 50.88 65.94 56.7 69.3 50.88 72.67"/><polygon class="cls-3" points="57.1 69.08 51.27 65.71 57.1 62.35 62.92 65.71 57.1 69.08"/><polygon class="cls-4" points="56.41 31.78 56.41 62.14 54.5 63.25 46.35 67.99 32 76.35 32 31.2 56.4 17 56.41 31.78"/><polygon class="cls-5" points="50.04 57.86 50.04 65.54 44.38 68.83 44.38 61.15 50.04 57.86"/><polygon class="cls-6" points="43.99 61.38 43.99 69.06 38.34 72.35 38.34 64.67 43.99 61.38"/><polygon class="cls-6" points="56.09 54.34 56.09 62.02 50.43 65.31 50.43 57.63 56.09 54.34"/><polygon class="cls-5" points="37.89 64.95 37.89 72.63 32.24 75.92 32.24 68.24 37.89 64.95"/><polygon class="cls-6" points="50.04 49.77 50.04 57.45 44.38 60.75 44.38 53.07 50.04 49.77"/><polygon class="cls-5" points="43.99 53.29 43.99 60.97 38.34 64.27 38.34 56.59 43.99 53.29"/><polygon class="cls-5" points="56.09 46.25 56.09 53.94 50.43 57.23 50.43 49.55 56.09 46.25"/><polygon class="cls-6" points="37.89 56.86 37.89 64.54 32.24 67.83 32.24 60.15 37.89 56.86"/><polygon class="cls-6" points="43.99 45.2 43.99 52.89 38.34 56.18 38.34 48.5 43.99 45.2"/><polygon class="cls-6" points="56.09 38.17 56.09 45.85 50.43 49.14 50.43 41.46 56.09 38.17"/><polygon class="cls-5" points="37.89 48.77 37.89 56.45 32.24 59.75 32.24 52.07 37.89 48.77"/><path class="cls-7" d="M61.47,65.34l.57.56a5.54,5.54,0,0,1,.1.58,1.55,1.55,0,0,1-.77.82,8.32,8.32,0,0,1-1.64.18l-1.48-.33s.68-1,1.21-1.22S61.47,65.34,61.47,65.34Z"/><path class="cls-3" d="M61.37,64.46A8,8,0,0,1,62,65.9c0,.34-.7.81-1.14.94a15.11,15.11,0,0,1-2.7-.2c-.15,0-.15-1.64-.15-1.64Z"/><path class="cls-4" d="M63.2,58.84A8.07,8.07,0,0,1,62,60.73l-1,1.74s.06.18.16.44a13,13,0,0,1,.55,1.76,2.82,2.82,0,0,1-1.19,1l-.42,0-.85-.1-.59-.07-4.31-4.56-.89-1-1.19-1.26s-1.64-1.45-1.75-2.82a2.61,2.61,0,0,1,.17-1.15A2.15,2.15,0,0,1,52,53.43a44.17,44.17,0,0,1,5.23.26s6.12-.09,5.82,2.71c0,0,0,.15.06.38A6.29,6.29,0,0,1,63.2,58.84Z"/><path class="cls-8" d="M58.56,56.89s-2.33,3.37-4.29,4l-.89-1-1.19-1.26s-1.64-1.45-1.75-2.82a2.61,2.61,0,0,1,.17-1.15.5.5,0,0,0,.14.15c.43.26,1.54-.18,2.4,0S58.56,56.89,58.56,56.89Z"/><path class="cls-3" d="M68.54,69.86s1.06,0,1.33,0,.77.16.77.16a9.46,9.46,0,0,0,.26,2.47,10.85,10.85,0,0,1,.74,2s-.14.66-.61.67a2,2,0,0,1-.94-.07c-.07-.08-.62-1.57-1-1.78a16.66,16.66,0,0,1-1.44-1Z"/><path class="cls-4" d="M69.49,69.8l-.26.06A.37.37,0,0,0,69,70a2.21,2.21,0,0,0-.29,1.17c0,.31,0,.88,0,1.38a2.52,2.52,0,0,1-.12,1l-2.23.54c-.27.06-4-.22-4.68-.3s-4.76-.79-5.15-.89A5.68,5.68,0,0,1,55,71.65a22.79,22.79,0,0,1-1.31-5.42c-.12-1.55-.41-5.86-.44-6.24v0l.14,0,7.18-1.6,1-.23L62.07,60s0,.34-.12.76a4.13,4.13,0,0,1-.38,1.33,6.13,6.13,0,0,0-.49.85,11.63,11.63,0,0,0-.7,1.58c-.05.17-.19.62-.36,1.12-.29.92-.65,2-.65,2l.18.48,5.12,1h3.55C68.28,69.11,69.49,69.8,69.49,69.8Z"/><path class="cls-7" d="M70.22,70.29a1.53,1.53,0,0,0-.32,1.26,8.47,8.47,0,0,0,.72,2,6.39,6.39,0,0,0,.41,1.6c.16.1.76-.48.9-.62a3.4,3.4,0,0,0,.33-1.1,8.51,8.51,0,0,0-.55-1.24,7.32,7.32,0,0,1-.38-1.46C71.33,70.38,70.85,69.31,70.22,70.29Z"/><path class="cls-8" d="M68.7,72.57a2.52,2.52,0,0,1-.12,1l-2.23.54c-.27.06-4-.22-4.68-.3s-4.76-.79-5.15-.89A5.68,5.68,0,0,1,55,71.65a22.79,22.79,0,0,1-1.31-5.42c-.12-1.55-.41-5.86-.44-6.24l.91.24.19,4.17a8.62,8.62,0,0,0,.78,1.7,19.44,19.44,0,0,1,.46,3.16v2.13l1,.75,2.86.62,3.22.57,2.67-.22Z"/><path class="cls-8" d="M69.49,69.8l-.26.06A.37.37,0,0,0,69,70c-1.17-.35-3.58-.07-4.41-.19s-1.91-.81-3.24-1a3.55,3.55,0,0,0-1.74,0s-1.58.73-1.58.73a6.94,6.94,0,0,1,.83-.94c.41-.35.43-2.21.43-2.47a2.56,2.56,0,0,0-.14-.59L59,65.1a3.78,3.78,0,0,0,.4-.6c.14-.26.32-.64.32-.64v-.57a12.1,12.1,0,0,0,1.4-1.88c.33-.67-.51-2-.51-2a4.65,4.65,0,0,1-.07-1.07c.09-1.59,1.26-1.69,2.56-1.55a6.29,6.29,0,0,1,.08,2.06A8.07,8.07,0,0,1,62,60.73a4.13,4.13,0,0,1-.38,1.33,6.13,6.13,0,0,0-.49.85,13,13,0,0,1,.55,1.76,2.82,2.82,0,0,1-1.19,1l-.42,0c-.29.92-.65,2-.65,2l.18.48,5.12,1h3.55C68.28,69.11,69.49,69.8,69.49,69.8Z"/><polygon class="cls-5" points="47.2 36.28 46.78 44.19 39.28 44.08 39.7 36.17 47.2 36.28"/><path class="cls-9" d="M54.55,40.81l-1-.26a14,14,0,0,1-3.29-2.8,13.84,13.84,0,0,0-1.88-1.44l-1.27-.7s-1.83-.37-1.86-.36-.88-.06-.91-.06a.38.38,0,0,0-.11.05.42.42,0,0,0,0,.25.49.49,0,0,0,.11.18l.39.14s-.07.15.48.32,2,.83,2,.86,0,.36,0,.36l-.3.16-.8,0a3,3,0,0,0-.5.12,3,3,0,0,0-.15.39,1,1,0,0,0,.53.12,2.48,2.48,0,0,1,.71.07,3.49,3.49,0,0,0,1.1.25c.46,0,.47-.18.7-.16a16.72,16.72,0,0,1,1.71,2.53,29.67,29.67,0,0,0,2,2.57,19.2,19.2,0,0,0,4.26.81C57.63,44.19,57.71,41.48,54.55,40.81Z"/><path class="cls-10" d="M44.71,35.84v0Z"/><path class="cls-11" d="M47,36l.26,0-3-.71a.25.25,0,0,0,0,.07C45,35.49,47,36,47,36Z"/><path class="cls-11" d="M45.2,35.8l2.09.54-2.1-.62-.87,0,.39.14C44.71,35.75,45.2,35.8,45.2,35.8Z"/><path class="cls-11" d="M47.2,37.35l-.25.14.15,0a1.35,1.35,0,0,0,.34-.19,1.53,1.53,0,0,1,.31-.21s-.83-.44-1.06-.54S44.84,36,44.84,36a1.64,1.64,0,0,0,.35.14c.54.17,2,.83,2,.86S47.2,37.35,47.2,37.35Z"/><path class="cls-11" d="M54.55,40.81l-1-.26a14,14,0,0,1-3.29-2.8,11.93,11.93,0,0,0-1-.8s.84,1,.85,1l.36,1,.68.61,0,.82.5,1.49s.73.58.82.68-.1.45-.1.45L52,42.66s-.84-.79-1.22-1.26-1.33-2.14-1.38-2.25-.16-.52,0-.69-.1-.36-.1-.36l-.7-.1-1,.2a6.16,6.16,0,0,1-.93-.22c-.17-.09-.57.07-.92,0-.19,0-.24-.09-.25-.13s0,.15,0,.15a1,1,0,0,0,.53.12,2.48,2.48,0,0,1,.71.07,3.49,3.49,0,0,0,1.1.25c.46,0,.47-.18.7-.16a16.72,16.72,0,0,1,1.71,2.53,29.67,29.67,0,0,0,2,2.57,19.2,19.2,0,0,0,4.26.81C57.63,44.19,57.71,41.48,54.55,40.81Z"/><path class="cls-9" d="M54.08,48.72l-.54.77a16,16,0,0,1-1,1.33c-.22.17-1.55,1.29-2.1,1.66S48.15,54.06,47.32,54s-1.9-1.35-2.84-2.26A54,54,0,0,1,41,47.1s-1.55-1.39-1.65-1.43a15.41,15.41,0,0,1-1-1.22l-.28-.75.07-.38a3.67,3.67,0,0,1-.2-.55s0,0,0,0,.2-.07.2-.07l-.08-.38,0-.05h0a2.16,2.16,0,0,1,.17-.31c.06-.07.38.29.38.29l0,0,.1-.2s.11,0,.19,0a1.59,1.59,0,0,1,.27,0l1.45,1.54a6.8,6.8,0,0,0,.67.4l.63.28c.2.05.33.59.33.59s.43,1.26.53,1.43.39.52.73.95h0l0,0,.47.57a3.91,3.91,0,0,0,.3.31c.87.81,3,2.45,3,2.45s.36-.36.46-.49.45-.49.82-.88h0l.7-.73Z"/><path class="cls-6" d="M63.38,57.35a5.77,5.77,0,0,1-.7.93c-.55.64-1.26,1.35-1.78,1.89A8,8,0,0,1,55.25,62l-.41-.1c-1.29-.4-1.46-1.19-1.46-1.19l-.69-3.81,0-.2L52,50.51,52.18,47l.13-2.49v-.46s1.16-1.45,1.25-1.59.66-.8.66-.8a16.5,16.5,0,0,1,1.84-1.89A14.72,14.72,0,0,1,57.3,39a1.34,1.34,0,0,1,.57-.2,3.41,3.41,0,0,1,2.43,1c.68.85,1.29,3.47,1.26,6.07s-.26,3.39.13,4.42a11,11,0,0,0,.49,1.08,24,24,0,0,1,1.3,2.75C63.44,54.37,63.82,56.59,63.38,57.35Z"/><path class="cls-4" d="M57.56,39a1.22,1.22,0,0,1,1.21,1.36c0,1.38-.56,7.35-.6,8.19s-.37,5.69-.37,5.69l1-.8s.1-5.87.27-6.76.6-6.32.57-6.47-.26-1-.72-1.21S57.61,38.68,57.56,39Z"/><path class="cls-4" d="M63.38,57.35a5.77,5.77,0,0,1-.7.93c-.55.64-1.26,1.35-1.78,1.89A8,8,0,0,1,55.25,62l-.41-.1c-1.29-.4-1.46-1.19-1.46-1.19l-.69-3.81a.87.87,0,0,1,.53,0,4.5,4.5,0,0,0,4-1c.37-.61.31-2.25,1.93-3.58s2.37-.89,2.37-.89h.67a24,24,0,0,1,1.3,2.75C63.44,54.37,63.82,56.59,63.38,57.35Z"/><path class="cls-9" d="M58,39.41a2.42,2.42,0,0,1-1.35,1,12.92,12.92,0,0,0-2.2,1l-.41.23s.07-1.06-.36-1.48l-.5-.48-.47-.47s2.47-3.49,3.36-3.6a2.16,2.16,0,0,1,1.57.51,9.65,9.65,0,0,0,0,2.28A2.48,2.48,0,0,0,58,39.41Z"/><path class="cls-11" d="M54.08,41.58s.07-1.06-.36-1.48l-.5-.48a2.12,2.12,0,0,0,.39,0,2.31,2.31,0,0,1,.54-.08,2.7,2.7,0,0,0,.06.82c0,.09.2.65.28,1Z"/><path class="cls-9" d="M56,36.59a17,17,0,0,0-1.41,2.08,3.53,3.53,0,0,1-.91,1.21l-.24,0-1.08-.16c-.16,0-.29-.33-.46-.76a10.28,10.28,0,0,1-.52-1.41v-.38h0c-.13,0-.46-.1-.46-.3a3,3,0,0,1,.18-.73s0-1.48.08-1.65.3-1.48.3-1.48a3.42,3.42,0,0,1,3-.07C56.46,33.58,56,36.59,56,36.59Z"/><path class="cls-12" d="M57.61,37.93s-.54.29-.65.37a2.52,2.52,0,0,1-.59.16l-1-.82s-.58-1-1.27-1a1.15,1.15,0,0,0-1,.39l0,.42-.44,0-.44-1.24-.59-.71.15-1.61-.34-.37-.47-.19A5.73,5.73,0,0,1,51.77,32a5.34,5.34,0,0,1,2.83-1.07,6.29,6.29,0,0,1,3.22,1.32c.39.46.39,2.7.33,3.19s-.43,1.86-.43,1.86Z"/><path class="cls-11" d="M53.46,39.85l-1.08-.16c-.16,0-.29-.33-.46-.76a10.28,10.28,0,0,1-.52-1.41v-.38l.2.16a.87.87,0,0,0,0,.29A12.35,12.35,0,0,0,52.06,39l.4.53.76.08Z"/><path class="cls-11" d="M38.17,42.66l-.08-.38,0-.05a2.24,2.24,0,0,0,.52.74l.76,1,.16.41-.46-.51Z"/><path class="cls-11" d="M39.61,43.37s-.68-.82-.92-1.2l.1-.2s.11,0,.19,0a1.13,1.13,0,0,0,0,.29,2,2,0,0,0,.29.51l.88,1.1,0,0Z"/><path class="cls-11" d="M53.54,49.49a16,16,0,0,1-1,1.33c-.22.17-1.55,1.29-2.1,1.66S48.15,54.06,47.32,54s-1.9-1.35-2.84-2.26A54,54,0,0,1,41,47.1s-1.55-1.39-1.65-1.43a15.41,15.41,0,0,1-1-1.22l-.28-.75.07-.38a3.67,3.67,0,0,1-.2-.55s0,0,0,0l.08.24.36.59.62.82.31.61-.73-1-.38-.26,0,0,.24.57L39,45l.88.88s1.09.83,1.15.9S44,50.65,44,50.71s2.73,2.76,2.79,2.8a3.44,3.44,0,0,0,1,.1c.16,0,2.78-1.56,3-1.76a2.56,2.56,0,0,0,.46-.84L52,49.15A5.48,5.48,0,0,1,53.54,49.49Z"/><path class="cls-11" d="M48.64,49.15l-1,1.2c-.18.22-.66.92-.66.92l.1-.75s-1.63-1.3-2-1.68c-.16-.16-.44-.46-.71-.77.87.81,3,2.45,3,2.45s.36-.36.46-.49S48.27,49.54,48.64,49.15Z"/><path class="cls-5" d="M53.41,43.71a3.18,3.18,0,0,0-1.56.72c-.48.54-1.8,2.63-2,2.93s-1,1.32-1,1.36A3.32,3.32,0,0,0,50,50.26a5.66,5.66,0,0,0,2.25,1.11c.41,0,2.78-2.84,2.78-2.84a7,7,0,0,0,.69-2.85C55.55,44.74,55.89,44.2,53.41,43.71Z"/><path class="cls-4" d="M53.22,42.93s.84-.45,2.66.54S61,52.32,61,52.32l.64-.53s-3.38-7.38-4.19-8.27a4.33,4.33,0,0,0-2.72-1.36,2.73,2.73,0,0,1-.88,0Z"/></g></g></svg>