<svg id="Layer_1" data-name="Layer 1" xmlns="http://www.w3.org/2000/svg" xmlns:xlink="http://www.w3.org/1999/xlink" viewBox="0 0 100 100"><defs><style>.cls-1{fill:#fff;}.cls-2{fill:#ffca05;}.cls-3{fill:url(#linear-gradient);}.cls-4{fill:#6d6f70;}</style><linearGradient id="linear-gradient" x1="66.01" y1="49.1" x2="49.65" y2="60.56" gradientUnits="userSpaceOnUse"><stop offset="0" stop-color="#0db04b"/><stop offset="1" stop-color="#006769"/></linearGradient></defs><polygon class="cls-1" points="50.51 30.25 31.23 30.25 31.23 69.75 62.26 69.75 62.26 40.28 51.06 40.28 50.51 30.25"/><polygon class="cls-2" points="50.51 30.25 50.51 40.28 62.44 40.28 51.45 29.29 50.51 30.25"/><path class="cls-3" d="M57.83,64.82a10,10,0,1,1,10-10A10,10,0,0,1,57.83,64.82Z"/><path class="cls-1" d="M57.83,45.49a9.34,9.34,0,1,1-9.34,9.34,9.35,9.35,0,0,1,9.34-9.34m0-1.3A10.64,10.64,0,1,0,68.47,54.83,10.64,10.64,0,0,0,57.83,44.19Z"/><path class="cls-4" d="M35.74,41.58H48.52a.54.54,0,0,0,.55-.55.55.55,0,0,0-.55-.55H35.74a.55.55,0,0,0-.55.55A.55.55,0,0,0,35.74,41.58Z"/><path class="cls-4" d="M35.74,37.1H48A.56.56,0,1,0,48,36H35.74a.56.56,0,0,0,0,1.11Z"/><path class="cls-4" d="M69.13,54.83a11.31,11.31,0,0,0-6.69-10.31V40.28s0-.08,0-.11h0a.65.65,0,0,0,0-.13l0,0a.94.94,0,0,0-.09-.12L51.45,29.3l-.12-.09h0l-.14-.05H32.43a1.55,1.55,0,0,0-1.56,1.54V69.32a1.55,1.55,0,0,0,1.56,1.54H60.88a1.55,1.55,0,0,0,1.56-1.54V65.14A11.31,11.31,0,0,0,69.13,54.83Zm-8.6-15.1H51.61V31Zm.8,29.59a.44.44,0,0,1-.45.43H32.43a.44.44,0,0,1-.45-.43V30.68a.44.44,0,0,1,.45-.43H50.51v10a.55.55,0,0,0,.55.55H61.33v3.26a11.24,11.24,0,0,0-9,.87H35.74a.56.56,0,0,0,0,1.11h15a11.31,11.31,0,0,0-2.81,3.38H35.74a.55.55,0,1,0,0,1.1H47.37a11.21,11.21,0,0,0-.8,3.38H35.74a.56.56,0,0,0,0,1.11h10.8a11.15,11.15,0,0,0,.58,3.38H35.74a.55.55,0,0,0-.55.55.55.55,0,0,0,.55.55H47.55a11.68,11.68,0,0,0,2.38,3.38H35.74a.56.56,0,0,0,0,1.11H51.25a11.25,11.25,0,0,0,10.08,1.56ZM57.83,65A10.19,10.19,0,1,1,68,54.83,10.2,10.2,0,0,1,57.83,65Z"/><path class="cls-1" d="M65.12,52.11l-2.3-2.37a.55.55,0,0,0-.39-.16.55.55,0,0,0-.38.16l-5.49,5.65-3-3a.54.54,0,0,0-.38-.15.54.54,0,0,0-.39.15l-2.31,2.38a.44.44,0,0,0,0,.6l5.64,5.81a.54.54,0,0,0,.39.15.54.54,0,0,0,.38-.15l8.18-8.42A.43.43,0,0,0,65.12,52.11Zm-8.56,8-5-5.11,1.64-1.68,2.94,3a.54.54,0,0,0,.39.15.54.54,0,0,0,.38-.15l5.49-5.65,1.63,1.67Z"/></svg>