<svg id="Layer_1" data-name="Layer 1" xmlns="http://www.w3.org/2000/svg" viewBox="0 0 100 100"><defs><style>.cls-1{fill:#221f1f;}</style></defs><path class="cls-1" d="M67.09,68H63.32V55.58L59.86,59v8.69H45.18V51.16L42,47.92V68H38.17V44.15l-1.06-1.06V67.72H23V63.94H33.33V34L49,49.6V63.94h7.13V57.46L71.72,41.84v22.1h8.34v3.78H67.94V51l-.85.85Zm-2.84-.93h1.91V51.41l2.71-2.7V66.79H79.13V64.88H70.78V44.09L57,57.85v7H48V50L34.27,36.22V64.88H23.93v1.91H36.18V40.84l2.92,2.92V67.07H41V45.67l5.11,5.1v16H58.93V58.64l5.32-5.31Z"/><path class="cls-1" d="M65.39,45.53,52.46,32.6l-9,9L40.76,39l11.7-11.7,15.6,15.61ZM52.46,31.28,65.39,44.21l1.35-1.35L52.46,28.57,42.08,39l1.36,1.35Z"/><rect class="cls-1" x="49.15" y="38.98" width="2.52" height="2.51"/><rect class="cls-1" x="53.33" y="38.98" width="2.51" height="2.51"/><rect class="cls-1" x="49.15" y="42.94" width="2.52" height="2.51"/><rect class="cls-1" x="53.33" y="42.94" width="2.51" height="2.51"/></svg>