<svg id="Layer_1" data-name="Layer 1" xmlns="http://www.w3.org/2000/svg" xmlns:xlink="http://www.w3.org/1999/xlink" viewBox="0 0 100 100"><defs><style>.cls-1{fill:url(#linear-gradient);}.cls-2{fill:url(#linear-gradient-2);}</style><linearGradient id="linear-gradient" x1="53.8" y1="52.63" x2="45.02" y2="46.49" gradientUnits="userSpaceOnUse"><stop offset="0" stop-color="#fbed21"/><stop offset="1" stop-color="#faa819"/></linearGradient><linearGradient id="linear-gradient-2" x1="59.9" y1="47.39" x2="51.18" y2="53.49" xlink:href="#linear-gradient"/></defs><path class="cls-1" d="M49.35,56.94,43.1,50.68a1,1,0,0,1,0-1.41l6.2-6.21a1,1,0,0,1,1.42,0h0a1,1,0,0,1,0,1.42l-4.79,4.79a1,1,0,0,0,0,1.41l4.84,4.84a1,1,0,0,1,0,1.42h0A1,1,0,0,1,49.35,56.94Z"/><path class="cls-2" d="M55.49,56.94l-6.26-6.26a1,1,0,0,1,0-1.41l6.21-6.21a1,1,0,0,1,1.41,0h0a1,1,0,0,1,0,1.42l-4.79,4.79a1,1,0,0,0,0,1.41l4.84,4.84a1,1,0,0,1,0,1.42h0A1,1,0,0,1,55.49,56.94Z"/></svg>