<svg id="Layer_1" data-name="Layer 1" xmlns="http://www.w3.org/2000/svg" viewBox="0 0 100 100"><defs><style>.cls-1{fill:#606060;}</style></defs><path class="cls-1" d="M35.52,48.51h-.05a.62.62,0,0,1-.57-.68l.1-1.14a2.57,2.57,0,0,1,2.57-2.36h.2a.84.84,0,0,0,.84-.76l.12-1.4a2.08,2.08,0,0,1,2.08-1.9H45.7a.63.63,0,0,1,0,1.25H40.81a.84.84,0,0,0-.84.76l-.12,1.4a2.07,2.07,0,0,1-2.08,1.9h-.2a1.32,1.32,0,0,0-1.33,1.21l-.1,1.15A.62.62,0,0,1,35.52,48.51Z"/><path class="cls-1" d="M70.64,68.23h-.06a.62.62,0,0,1-.56-.68L71.81,47a1.35,1.35,0,0,0-.34-1,1.31,1.31,0,0,0-1-.43H57.22a2.08,2.08,0,0,1-1.54-.68,2.11,2.11,0,0,1-.54-1.59l.08-.88a.83.83,0,0,0-.22-.64.81.81,0,0,0-.62-.27H50.66a.63.63,0,0,1,0-1.25h3.72a2.09,2.09,0,0,1,2.08,2.27l-.08.88a.83.83,0,0,0,.22.64.81.81,0,0,0,.62.27H70.49a2.6,2.6,0,0,1,1.9.84,2.57,2.57,0,0,1,.66,2L71.26,67.66A.62.62,0,0,1,70.64,68.23Z"/><path class="cls-1" d="M54.05,43.55H41a.63.63,0,0,1,0-1.25h13a.63.63,0,0,1,0,1.25Z"/><path class="cls-1" d="M53.87,45.58h-13a.63.63,0,0,1,0-1.25h13a.63.63,0,1,1,0,1.25Z"/><path class="cls-1" d="M69.93,72.5H34.21a2.09,2.09,0,0,1-2-1.55L27,51.6A2.09,2.09,0,0,1,29,49h7.74a2.58,2.58,0,0,1,2.49,1.91l.47,1.78a.86.86,0,0,0,.82.62H63.61a2.58,2.58,0,0,1,2.49,1.91l4.43,16.53a.62.62,0,0,1-.6.78ZM29,50.22a.82.82,0,0,0-.66.33.86.86,0,0,0-.15.73L33.4,70.63a.83.83,0,0,0,.81.62H69.12L64.9,55.51a1.34,1.34,0,0,0-1.29-1H40.54a2.1,2.1,0,0,1-2-1.55L38,51.2a1.32,1.32,0,0,0-1.28-1Z"/><path class="cls-1" d="M52.09,64.53H46.85a.63.63,0,1,1,0-1.25h5.24a.63.63,0,1,1,0,1.25Z"/><path class="cls-1" d="M51.42,62H46.17a.63.63,0,0,1,0-1.25h5.25a.63.63,0,0,1,0,1.25Z"/><path class="cls-1" d="M58,67.05H42.28a.61.61,0,0,1-.6-.46l-2-7.56a.61.61,0,0,1,.11-.54.6.6,0,0,1,.49-.25H56a.62.62,0,0,1,.6.46l2,7.57a.63.63,0,0,1-.11.54A.64.64,0,0,1,58,67.05ZM42.76,65.8H57.2l-1.69-6.31H41.06Z"/><path class="cls-1" d="M68.52,60h0a.62.62,0,0,1-.57-.67l.92-10.55H41.39l-.22,2.51a.62.62,0,1,1-1.24-.11l.27-3.07a.62.62,0,0,1,.62-.57H69.5a.6.6,0,0,1,.46.2.64.64,0,0,1,.17.47l-1,11.23A.63.63,0,0,1,68.52,60Z"/><path class="cls-1" d="M68.23,43.72a.63.63,0,0,1-.62-.53c-1.23-8.5-5.12-14.44-9.47-14.44-2.43,0-4.79,1.86-6.62,5.25a.62.62,0,0,1-1.1-.59c2.07-3.81,4.81-5.91,7.72-5.91,5.06,0,9.36,6.23,10.71,15.51a.61.61,0,0,1-.53.7Z"/><path class="cls-1" d="M62.7,43.72a.63.63,0,0,1-.62-.6c-.21-6.53-4.17-11.18-6.78-12.27A.62.62,0,0,1,55,30a.63.63,0,0,1,.82-.34c2.91,1.22,7.32,6.31,7.54,13.38a.62.62,0,0,1-.6.64Z"/><path class="cls-1" d="M45.39,34.42a.6.6,0,0,1-.29-.08.62.62,0,0,1-.26-.84c2-3.77,4.71-5.9,7.57-6h5.73a.63.63,0,0,1,0,1.25H52.43c-2.38.08-4.69,2-6.49,5.34A.62.62,0,0,1,45.39,34.42Z"/><path class="cls-1" d="M48.28,42.1h0a.62.62,0,0,1-.47-.22l-6.52-7.66a.63.63,0,0,1-.1-.67.64.64,0,0,1,.57-.36h3.45a.63.63,0,0,1,0,1.25h-2.1l5.17,6.07,5.18-6.07H51a.63.63,0,1,1,0-1.25h3.82a.63.63,0,0,1,.47,1l-6.52,7.66A.62.62,0,0,1,48.28,42.1Z"/></svg>