<svg id="Layer_1" data-name="Layer 1" xmlns="http://www.w3.org/2000/svg" viewBox="0 0 100 100"><defs><style>.cls-1{fill:#f5c82c;}.cls-2{fill:#231f20;}</style></defs><polygon class="cls-1" points="32.73 63.65 49.3 63.65 49.06 58.71 50.16 55.78 51.1 51.92 54.23 49.1 58.77 46.73 62.77 46.73 66.53 47.3 66.53 46.04 65.56 44.06 61.89 44.44 39.63 44.59 38.49 43.52 37.29 41.62 36.19 39.99 32.42 39.99 28.04 39.99 26.36 40.68 25.69 42.49 32.73 63.65"/><path class="cls-2" d="M73.07,46.73H73a.67.67,0,0,1-.6-.72l.77-8.83a1.39,1.39,0,0,0-.36-1.08,1.43,1.43,0,0,0-1-.45H57.67a2.23,2.23,0,0,1-2.21-2.42l.08-.93a.87.87,0,0,0-.23-.69.9.9,0,0,0-.66-.29H40.23a.9.9,0,0,0-.89.82l-.13,1.48a2.2,2.2,0,0,1-2.21,2h-.21a1.4,1.4,0,0,0-1.41,1.28l-.11,1.22a.66.66,0,0,1-.72.61A.67.67,0,0,1,34,38l.11-1.22a2.73,2.73,0,0,1,2.73-2.5H37a.88.88,0,0,0,.89-.81L38,32a2.2,2.2,0,0,1,2.21-2H54.65a2.23,2.23,0,0,1,1.64.72,2.19,2.19,0,0,1,.57,1.69l-.08.94A.9.9,0,0,0,57,34a.88.88,0,0,0,.66.29h14.1a2.75,2.75,0,0,1,2,.89,2.71,2.71,0,0,1,.71,2.09l-.77,8.82A.66.66,0,0,1,73.07,46.73Z"/><path class="cls-2" d="M54.31,33.49H40.48a.67.67,0,1,1,0-1.33H54.31a.67.67,0,0,1,0,1.33Z"/><path class="cls-2" d="M54.12,35.65H40.29a.67.67,0,1,1,0-1.33H54.12a.67.67,0,0,1,0,1.33Z"/><path class="cls-2" d="M47.39,64.25H33.22a2.21,2.21,0,0,1-2.14-1.64L25.57,42A2.2,2.2,0,0,1,26,40.12a2.17,2.17,0,0,1,1.76-.87h8.22a2.73,2.73,0,0,1,2.64,2l.51,1.89a.89.89,0,0,0,.86.66H64.47a2.73,2.73,0,0,1,2.64,2,.66.66,0,0,1-.47.81.67.67,0,0,1-.81-.47,1.4,1.4,0,0,0-1.36-1.05H39.94a2.21,2.21,0,0,1-2.14-1.64l-.51-1.89a1.4,1.4,0,0,0-1.36-1H27.71a.9.9,0,0,0-.71.35.87.87,0,0,0-.15.78l5.51,20.57a.89.89,0,0,0,.86.66H47.39a.66.66,0,1,1,0,1.32Z"/><path class="cls-2" d="M48.3,55.78H43.37a.66.66,0,0,1,0-1.32H48.3a.66.66,0,0,1,0,1.32Z"/><path class="cls-2" d="M48.69,53.11H42.47a.67.67,0,1,1,0-1.33h6.22a.67.67,0,0,1,0,1.33Z"/><path class="cls-2" d="M47.39,58.46h-5.6a.66.66,0,0,1-.64-.49l-2.15-8a.66.66,0,0,1,.64-.83H50.5a.67.67,0,1,1,0,1.33h-10l1.8,6.71h5.09a.66.66,0,0,1,0,1.32Z"/><path class="cls-2" d="M70,47.3H70a.66.66,0,0,1-.61-.71L70,39H40.85l-.23,2.66a.66.66,0,0,1-1.32-.11l.28-3.27a.66.66,0,0,1,.66-.61H70.73a.68.68,0,0,1,.49.22.69.69,0,0,1,.17.5l-.73,8.28A.66.66,0,0,1,70,47.3Z"/><path class="cls-2" d="M60.05,70c-.32,0-.63,0-.95,0a13.15,13.15,0,0,1-7.1-2.7L50,69a.68.68,0,0,1-.71.11.66.66,0,0,1-.39-.6l-.09-9.28a.66.66,0,0,1,.23-.51.68.68,0,0,1,.53-.16l9.18,1.39a.66.66,0,0,1,.54.47.68.68,0,0,1-.2.69L56.89,63a11.55,11.55,0,0,0,4.38,1.18,11.78,11.78,0,0,0,10.36-4.79.66.66,0,0,1,.82-.21.67.67,0,0,1,.36.75A13.1,13.1,0,0,1,60.05,70ZM52,65.74a.67.67,0,0,1,.43.16,11.84,11.84,0,0,0,17.93-3.24,13.15,13.15,0,0,1-9.16,2.86,12.89,12.89,0,0,1-5.78-1.8.66.66,0,0,1-.33-.51.67.67,0,0,1,.23-.56L57.15,61l-7-1.06.07,7.07,1.32-1.14A.65.65,0,0,1,52,65.74Z"/><path class="cls-2" d="M72.64,57.8h-.11l-9.17-1.46a.66.66,0,0,1-.53-.47.65.65,0,0,1,.21-.68l2.39-2.06a11.87,11.87,0,0,0-14.94,3.42A.66.66,0,0,1,49.32,56a13.14,13.14,0,0,1,21-7l1.86-1.6a.68.68,0,0,1,.71-.09.66.66,0,0,1,.39.6l0,9.28a.64.64,0,0,1-.66.66ZM65,55.26l7,1.11V49.29l-1.2,1a.67.67,0,0,1-.87,0l-.13-.11a11.83,11.83,0,0,0-18,3.11,13.14,13.14,0,0,1,15-1l.17.1a.7.7,0,0,1,.31.52.68.68,0,0,1-.23.55Z"/></svg>