<svg id="Layer_1" data-name="Layer 1" xmlns="http://www.w3.org/2000/svg" viewBox="0 0 100 100"><defs><style>.cls-1{fill:#808285;}</style></defs><path class="cls-1" d="M50.7,68A20.09,20.09,0,1,1,64.9,33.71a.62.62,0,0,1,.08.78L51.22,55.71a.65.65,0,0,1-1,0L42.72,44.22a.6.6,0,0,1,0-.63.63.63,0,0,1,.54-.33h4.09a.63.63,0,0,1,.52.29L50.69,48c1.39-2.17,5.28-8.29,8.5-13.26a16,16,0,0,0-8.49-2.5A15.72,15.72,0,1,0,66.42,47.92.61.61,0,0,1,67,47.3h3.14a.61.61,0,0,1,.61.62A20.11,20.11,0,0,1,50.7,68Zm0-38.94A18.86,18.86,0,1,0,69.54,48.53h-1.9A17,17,0,1,1,50.7,31,17.22,17.22,0,0,1,60.39,34a.61.61,0,0,1,.17.84c-4,6.22-9.34,14.58-9.34,14.58a.64.64,0,0,1-.52.29.59.59,0,0,1-.52-.29L47,44.5H44.37l6.33,9.74,13-20A18.72,18.72,0,0,0,50.7,29.06Z"/></svg>