<svg id="Layer_1" data-name="Layer 1" xmlns="http://www.w3.org/2000/svg" viewBox="0 0 100 100"><defs><style>.cls-1{fill:#231f20;}.cls-2{fill:#fff200;}</style></defs><path class="cls-1" d="M64.77,70h-40l40-40ZM27.64,68.81h36V32.86Zm30-5.87H41.52L57.67,46.79ZM44.38,61.76H56.49V49.65Z"/><rect class="cls-1" x="30.27" y="67.43" width="1.19" height="1.97"/><rect class="cls-1" x="32.66" y="67.43" width="1.19" height="1.97"/><rect class="cls-1" x="35.05" y="67.43" width="1.19" height="1.97"/><rect class="cls-1" x="37.44" y="67.43" width="1.19" height="1.97"/><rect class="cls-1" x="39.84" y="67.43" width="1.19" height="1.97"/><rect class="cls-1" x="42.23" y="67.43" width="1.19" height="1.97"/><rect class="cls-1" x="44.62" y="67.43" width="1.19" height="1.97"/><rect class="cls-1" x="47.01" y="67.43" width="1.19" height="1.97"/><rect class="cls-1" x="49.4" y="67.43" width="1.19" height="1.97"/><rect class="cls-1" x="51.8" y="67.43" width="1.19" height="1.97"/><rect class="cls-1" x="54.19" y="67.43" width="1.19" height="1.97"/><rect class="cls-1" x="56.58" y="67.43" width="1.19" height="1.97"/><rect class="cls-1" x="58.97" y="67.43" width="1.19" height="1.97"/><rect class="cls-1" x="61.37" y="67.43" width="1.19" height="1.97"/><rect class="cls-2" x="56.83" y="33.4" width="17.8" height="25.3" rx="1.31"/><path class="cls-1" d="M73.32,59.3H58.14a1.92,1.92,0,0,1-1.91-1.91V34.71a1.91,1.91,0,0,1,1.91-1.9H73.32a1.9,1.9,0,0,1,1.9,1.9V57.39A1.91,1.91,0,0,1,73.32,59.3ZM58.14,34a.72.72,0,0,0-.72.72V57.39a.72.72,0,0,0,.72.72H73.32a.72.72,0,0,0,.72-.72V34.71a.72.72,0,0,0-.72-.72Z"/><path class="cls-1" d="M73.21,40.1h-15V35.85h15ZM59.44,38.91H72V37H59.44Z"/><path class="cls-1" d="M63.31,45.34H59.52V41.55h3.79Zm-2.6-1.18h1.42V42.74H60.71Z"/><path class="cls-1" d="M67.63,45.34h-3.8V41.55h3.8ZM65,44.16h1.42V42.74H65Z"/><path class="cls-1" d="M71.94,45.34H68.15V41.55h3.79Zm-2.61-1.18h1.42V42.74H69.33Z"/><path class="cls-1" d="M63.31,49.72H59.52V45.93h3.79Zm-2.6-1.18h1.42V47.12H60.71Z"/><path class="cls-1" d="M67.63,49.72h-3.8V45.93h3.8ZM65,48.54h1.42V47.12H65Z"/><path class="cls-1" d="M71.94,49.72H68.15V45.93h3.79Zm-2.61-1.18h1.42V47.12H69.33Z"/><path class="cls-1" d="M63.31,54.1H59.52V50.31h3.79Zm-2.6-1.18h1.42V51.5H60.71Z"/><path class="cls-1" d="M67.63,54.1h-3.8V50.31h3.8ZM65,52.92h1.42V51.5H65Z"/><path class="cls-1" d="M71.94,54.1H68.15V50.31h3.79Zm-2.61-1.18h1.42V51.5H69.33Z"/><path class="cls-1" d="M71.65,57.73H67.3V56.54h4.35a.73.73,0,0,0,.73-.72V53h1.18v2.79A1.91,1.91,0,0,1,71.65,57.73Z"/><path class="cls-1" d="M30.75,59.34a.63.63,0,0,1-.42-.17l-2.44-2.44a.6.6,0,0,1,0-.84L46.34,37.44a.59.59,0,0,1,.42-.17h0a.61.61,0,0,1,.42.17l2.44,2.44a.6.6,0,0,1,0,.84L31.17,59.17A.63.63,0,0,1,30.75,59.34Zm-1.6-3,1.6,1.6L48.36,40.3l-1.6-1.6Z"/><path class="cls-1" d="M49.2,40.9a.6.6,0,0,1-.42-.18l-2.44-2.44a.6.6,0,0,1,0-.84l1.29-1.29a.56.56,0,0,1,.42-.18h0a.56.56,0,0,1,.42.18l2.44,2.44a.6.6,0,0,1,0,.84l-1.29,1.29A.6.6,0,0,1,49.2,40.9Zm-1.6-3,1.6,1.6.46-.45L48.05,37.4Z"/><path class="cls-1" d="M50.49,39.6a.63.63,0,0,1-.42-.17L47.63,37a.58.58,0,0,1-.17-.41.59.59,0,0,1,.17-.42l.71-.71a2.32,2.32,0,0,1,3.28,0,2.33,2.33,0,0,1,0,3.28l-.71.71a.59.59,0,0,1-.42.17Zm-1.6-3,1.6,1.6.29-.29a1.13,1.13,0,0,0,0-1.6,1.15,1.15,0,0,0-1.61,0Z"/><path class="cls-1" d="M26.61,61a.59.59,0,0,1-.55-.81l1.7-4.15a.61.61,0,0,1,.43-.35.59.59,0,0,1,.54.16l2.44,2.44a.59.59,0,0,1,.16.54.61.61,0,0,1-.35.43L26.83,61A.57.57,0,0,1,26.61,61Zm1.91-3.68-.83,2,2-.82Z"/><path class="cls-1" d="M26.61,61a.59.59,0,0,1-.55-.81l.84-2a.57.57,0,0,1,.43-.35.59.59,0,0,1,.54.16l1.2,1.2a.59.59,0,0,1,.16.54.57.57,0,0,1-.35.43L26.83,61A.57.57,0,0,1,26.61,61Z"/><path class="cls-1" d="M29.53,58.12a.63.63,0,0,1-.42-.17.6.6,0,0,1,0-.84L47.56,38.66a.59.59,0,1,1,.84.84L30,58A.63.63,0,0,1,29.53,58.12Z"/></svg>