<svg id="Layer_1" data-name="Layer 1" xmlns="http://www.w3.org/2000/svg" viewBox="0 0 100 100"><defs><style>.cls-1{fill:#808285;fill-rule:evenodd;}</style></defs><path class="cls-1" d="M68,63.94a5.78,5.78,0,0,0-3.12-3.26,3.48,3.48,0,0,0-.77-.32c-.86-.19-1.7-.42-2.55-.68a1.07,1.07,0,0,1-.78-.27A12.22,12.22,0,0,1,59,58.62a.78.78,0,0,1-.54-.25c-.11,0-.2-.1-.31-.13a1.38,1.38,0,0,1-.75-.48,3.5,3.5,0,0,1-.35-.23.46.46,0,0,1-.26-.34c-.05-.22-.12-.44-.18-.66a5.1,5.1,0,0,1-.13-.68c0-.12,0-.23-.19-.27s-.27,0-.4,0-.4,0-.44-.3-.08-.4-.09-.59c0-.44-.09-.9.33-1.22a17.11,17.11,0,0,0,1.14-3.09c.07-.24.18-.45.5-.45a.45.45,0,0,0,.41-.35,11.85,11.85,0,0,1,.66-1.84,8,8,0,0,0,.32-1.28c0-.09,0-.18,0-.27a.41.41,0,0,0,0-.09l-.05,0c0-.19,0-.38,0-.57a.55.55,0,0,0-.4-.56c-.24-.06-.29-.19-.27-.41L58.08,42a.08.08,0,0,0,0-.08,0,0,0,0,0,0,0c0-.25,0-.51-.07-.76a4.3,4.3,0,0,0-.46-1.76A6.16,6.16,0,0,0,55,37a11.26,11.26,0,0,0-2.89-.89,6.21,6.21,0,0,0-5.51,1.42.06.06,0,0,1,0,0h0a1.24,1.24,0,0,0-.42.46,4,4,0,0,1-.76.92,2.07,2.07,0,0,0-.75,1.82l-.06,0a.28.28,0,0,0-.06.09,8.34,8.34,0,0,0,0,1.8,7.21,7.21,0,0,1,.19,1.54.48.48,0,0,1-.33.58.82.82,0,0,0-.54.74,2.9,2.9,0,0,0,0,1.06c.14.49.28,1,.44,1.47a4.05,4.05,0,0,1,.5,1.33.67.67,0,0,0,.45.58.56.56,0,0,1,.39.46c.08.36.22.7.33,1.05a2.17,2.17,0,0,1,.34.87.3.3,0,0,0,0,.1A3.48,3.48,0,0,1,47,55.59c-.21.22-.42,0-.62,0s-.38,0-.43.23c-.16.49-.25,1-.4,1.5a.91.91,0,0,1-.48.6,9.48,9.48,0,0,1-1.75.72,5.22,5.22,0,0,1-1.35.54c-.88.33-1.81.51-2.72.76a8.75,8.75,0,0,0-3.12,1.38,5.63,5.63,0,0,0-1.32,1.81c0,.32,0,.65,0,1s.05.31.31.31H68C68.13,64.26,68.09,64.11,68,63.94Z"/></svg>